<svg width="16" height="16" viewBox="0 0 16 16" fill="none" xmlns="http://www.w3.org/2000/svg">
<g clip-path="url(#clip0_89_797)">
<path d="M10.0336 3.33329C10.6848 3.46034 11.2832 3.7788 11.7523 4.24792C12.2214 4.71703 12.5399 5.31547 12.6669 5.96663M10.0336 0.666626C11.3865 0.816917 12.648 1.42274 13.6111 2.38463C14.5742 3.34652 15.1816 4.6073 15.3336 5.95996M14.6669 11.28V13.28C14.6677 13.4656 14.6297 13.6494 14.5553 13.8195C14.4809 13.9896 14.3718 14.1423 14.235 14.2679C14.0982 14.3934 13.9367 14.4889 13.7608 14.5484C13.5849 14.6079 13.3985 14.63 13.2136 14.6133C11.1622 14.3904 9.19161 13.6894 7.46028 12.5666C5.8495 11.5431 4.48384 10.1774 3.46028 8.56663C2.3336 6.82743 1.63244 4.84729 1.41361 2.78663C1.39695 2.60227 1.41886 2.41647 1.47795 2.24104C1.53703 2.06562 1.63199 1.90442 1.75679 1.76771C1.88159 1.63099 2.03348 1.52177 2.20281 1.44697C2.37213 1.37218 2.55517 1.33347 2.74028 1.33329H4.74028C5.06382 1.33011 5.37748 1.44468 5.62279 1.65565C5.8681 1.86662 6.02833 2.15959 6.07361 2.47996C6.15803 3.12 6.31458 3.74844 6.54028 4.35329C6.62998 4.59191 6.64939 4.85124 6.59622 5.10055C6.54305 5.34986 6.41952 5.5787 6.24028 5.75996L5.39361 6.60662C6.34265 8.27566 7.72458 9.65759 9.39361 10.6066L10.2403 9.75996C10.4215 9.58072 10.6504 9.45719 10.8997 9.40402C11.149 9.35085 11.4083 9.37026 11.6469 9.45996C12.2518 9.68566 12.8802 9.84221 13.5203 9.92662C13.8441 9.97231 14.1399 10.1354 14.3513 10.385C14.5627 10.6345 14.6751 10.953 14.6669 11.28Z" stroke="white" stroke-width="1.5" stroke-linecap="round" stroke-linejoin="round"/>
</g>
<defs>
<clipPath id="clip0_89_797">
<rect width="16" height="16" fill="white"/>
</clipPath>
</defs>
</svg>
