<svg width="20" height="20" viewBox="0 0 20 20" fill="none" xmlns="http://www.w3.org/2000/svg">
<path d="M5.67738 14.3213C7.09488 15.7388 8.68738 17.0075 10.413 18.095C11.2168 18.5975 12.1149 18.8431 13.0043 18.8431C14.2586 18.8431 15.498 18.355 16.4418 17.4119L18.2368 15.6169C18.6818 15.1719 18.8955 14.5588 18.8224 13.935C18.7493 13.31 18.3993 12.7631 17.8605 12.4313L15.3811 10.92C14.4543 10.3406 13.2443 10.5969 12.6293 11.5025L12.0318 12.3763C12.0011 12.4188 11.9649 12.4613 11.928 12.4981C11.6605 12.7663 11.2411 12.8063 10.9318 12.5938C10.2411 12.1219 9.57488 11.6019 8.95175 11.0475C8.3955 10.4219 7.8755 9.75563 7.40488 9.06688C7.193 8.75688 7.23363 8.33875 7.49925 8.0725C7.53675 8.03563 7.57863 7.99875 7.61175 7.97563L8.4955 7.37125C9.40175 6.755 9.658 5.54563 9.08238 4.62375L7.5655 2.13688C7.23613 1.60063 6.68863 1.25063 6.06363 1.17688C5.44113 1.10313 4.82675 1.3175 4.38175 1.7625L2.58675 3.5575C0.974253 5.17 0.693628 7.64875 1.90488 9.58813C2.99175 11.3138 4.26113 12.9063 5.67675 14.3225L5.67738 14.3213ZM3.47113 4.44L5.26613 2.645C5.41675 2.49438 5.61675 2.41188 5.8255 2.41188C5.85675 2.41188 5.888 2.41375 5.91863 2.4175C6.16113 2.44625 6.37425 2.58188 6.50113 2.78875L8.01988 5.27938C8.24175 5.635 8.14238 6.09938 7.79238 6.3375L6.89675 6.94938C6.79988 7.01875 6.70238 7.10188 6.618 7.18625C5.92613 7.87813 5.82363 8.96563 6.37363 9.77063C6.88113 10.5131 7.44238 11.2313 8.04363 11.905C8.05925 11.9225 8.07613 11.9394 8.09363 11.955C8.76425 12.5544 9.48238 13.1163 10.2268 13.6244C11.0343 14.1756 12.1199 14.0731 12.8124 13.3806C12.8955 13.2975 12.9799 13.2 13.0568 13.0919L13.663 12.2056C13.9005 11.8569 14.3649 11.7575 14.7255 11.9831L17.2086 13.4969C17.4174 13.6256 17.5536 13.8381 17.5824 14.0806C17.6105 14.3219 17.5274 14.56 17.3549 14.7331L15.5599 16.5281C14.3605 17.7269 12.5174 17.9356 11.0793 17.0363C9.43363 16 7.91488 14.7894 6.56238 13.4381C5.21238 12.0875 4.00113 10.5681 2.96488 8.92313C2.0655 7.4825 2.27363 5.63938 3.47238 4.44063L3.47113 4.44Z" fill="white"/>
<path d="M11.8587 2.45072C12.048 2.4251 12.2518 2.4126 12.4805 2.4126C15.2962 2.4126 17.5868 4.70322 17.5868 7.51885C17.5868 7.74947 17.5743 7.95322 17.5487 8.14197C17.503 8.48385 17.743 8.79885 18.0843 8.8451C18.113 8.84885 18.1412 8.85072 18.1687 8.85072C18.4768 8.85072 18.7455 8.6226 18.7874 8.30885C18.8205 8.06447 18.8362 7.80572 18.8362 7.51885C18.8362 4.01385 15.9849 1.1626 12.4799 1.1626C12.1937 1.1626 11.9355 1.17885 11.6893 1.2126C11.3474 1.25885 11.1074 1.57385 11.1543 1.91572C11.2005 2.2576 11.5174 2.49822 11.8587 2.45072Z" fill="white"/>
<path d="M11.9558 5.61072C12.1145 5.56197 12.2902 5.5376 12.4795 5.5376C13.572 5.5376 14.4608 6.42635 14.4608 7.51885C14.4608 7.70885 14.4364 7.8851 14.3883 8.04385C14.2883 8.37447 14.4745 8.72322 14.8052 8.82385C14.8658 8.84197 14.9264 8.85072 14.9864 8.85072C15.2552 8.85072 15.5027 8.67697 15.5845 8.40697C15.6683 8.13072 15.7108 7.83197 15.7108 7.51885C15.7108 5.73697 14.2614 4.2876 12.4795 4.2876C12.167 4.2876 11.8677 4.3301 11.5908 4.4151C11.2608 4.51572 11.0752 4.8651 11.1758 5.1951C11.2758 5.5251 11.6245 5.71072 11.9558 5.61072Z" fill="white"/>
</svg>
