<svg width="20" height="20" viewBox="0 0 20 20" fill="none" xmlns="http://www.w3.org/2000/svg">
<g clip-path="url(#clip0_1_726)">
<path d="M18.7719 14.1213C18.7388 14.0938 14.9913 11.4237 13.9794 11.5906C13.4913 11.6769 13.2125 12.01 12.6531 12.6762C12.5631 12.7837 12.3462 13.0406 12.1788 13.2238C11.8252 13.1086 11.4804 12.9682 11.1469 12.8038C9.42533 11.9656 8.03437 10.5747 7.19625 8.85312C7.03179 8.51964 6.89143 8.1748 6.77625 7.82125C6.96 7.65312 7.2175 7.43625 7.3275 7.34375C7.99062 6.7875 8.32312 6.50812 8.40938 6.01937C8.58625 5.0075 5.90625 1.26125 5.87875 1.2275C5.7567 1.05441 5.59775 0.910578 5.41336 0.806386C5.22897 0.702193 5.02374 0.640241 4.8125 0.625C3.72625 0.625 0.625 4.6475 0.625 5.32562C0.625 5.365 0.681875 9.3675 5.6175 14.3881C10.6325 19.3181 14.635 19.375 14.6744 19.375C15.3519 19.375 19.375 16.2737 19.375 15.1875C19.3596 14.9762 19.2975 14.771 19.1932 14.5866C19.0889 14.4022 18.945 14.2433 18.7719 14.1213ZM14.605 18.1213C14.0625 18.075 10.7 17.6319 6.5 13.5063C2.35437 9.28563 1.9225 5.9175 1.87937 5.39563C2.69861 4.10978 3.68799 2.94064 4.82062 1.92C4.84562 1.945 4.87875 1.9825 4.92125 2.03125C5.78989 3.21702 6.53817 4.48642 7.155 5.82062C6.95441 6.02242 6.7424 6.21253 6.52 6.39C6.17512 6.65278 5.85843 6.95063 5.575 7.27875C5.52704 7.34604 5.4929 7.42217 5.47456 7.50274C5.45621 7.5833 5.45403 7.66671 5.46812 7.74813C5.60039 8.32108 5.80297 8.87549 6.07125 9.39875C7.03243 11.3725 8.62735 12.9672 10.6012 13.9281C11.1244 14.1968 11.6788 14.3996 12.2519 14.5319C12.3333 14.546 12.4167 14.5438 12.4973 14.5254C12.5778 14.5071 12.654 14.473 12.7213 14.425C13.0505 14.1404 13.3494 13.8225 13.6131 13.4762C13.8094 13.2425 14.0712 12.9306 14.1706 12.8425C15.5082 13.4587 16.7805 14.2079 17.9681 15.0787C18.02 15.1225 18.0569 15.1562 18.0812 15.1781C17.0606 16.3111 15.8912 17.3007 14.605 18.12V18.1213Z" fill="#1C1C2D"/>
<path d="M10.625 5.625C11.6193 5.62599 12.5725 6.0214 13.2756 6.72445C13.9786 7.42749 14.374 8.38074 14.375 9.375C14.375 9.54076 14.4408 9.69973 14.5581 9.81694C14.6753 9.93415 14.8342 10 15 10C15.1658 10 15.3247 9.93415 15.4419 9.81694C15.5592 9.69973 15.625 9.54076 15.625 9.375C15.6235 8.04937 15.0962 6.77847 14.1589 5.84111C13.2215 4.90375 11.9506 4.37649 10.625 4.375C10.4592 4.375 10.3003 4.44085 10.1831 4.55806C10.0658 4.67527 10 4.83424 10 5C10 5.16576 10.0658 5.32473 10.1831 5.44194C10.3003 5.55915 10.4592 5.625 10.625 5.625Z" fill="#1C1C2D"/>
<path d="M10.625 2.5C12.4477 2.50215 14.1951 3.22717 15.484 4.51602C16.7728 5.80486 17.4978 7.5523 17.5 9.375C17.5 9.54076 17.5658 9.69973 17.6831 9.81694C17.8003 9.93415 17.9592 10 18.125 10C18.2908 10 18.4497 9.93415 18.5669 9.81694C18.6842 9.69973 18.75 9.54076 18.75 9.375C18.7475 7.22088 17.8907 5.15569 16.3675 3.6325C14.8443 2.1093 12.7791 1.25248 10.625 1.25C10.4592 1.25 10.3003 1.31585 10.1831 1.43306C10.0658 1.55027 10 1.70924 10 1.875C10 2.04076 10.0658 2.19973 10.1831 2.31694C10.3003 2.43415 10.4592 2.5 10.625 2.5Z" fill="#1C1C2D"/>
</g>
<defs>
<clipPath id="clip0_1_726">
<rect width="20" height="20" fill="white"/>
</clipPath>
</defs>
</svg>
