<svg width="14" height="14" viewBox="0 0 14 14" fill="none" xmlns="http://www.w3.org/2000/svg">
<g clip-path="url(#clip0_89_2023)">
<path d="M11.3676 3.80675L5.88584 10.3362C5.86214 10.3645 5.83716 10.3916 5.81219 10.4174C5.76944 10.4746 5.72161 10.5275 5.66913 10.5757C5.46638 10.7476 5.20395 10.831 4.9394 10.8081C4.67486 10.7848 4.43063 10.6574 4.26048 10.4534L2.05519 7.82356C1.88588 7.62124 1.80334 7.36009 1.82662 7.09723C1.84948 6.83438 1.97603 6.59142 2.17836 6.42169C2.59951 6.06868 3.2268 6.12371 3.57985 6.54486L5.20522 8.47796L10.9135 3.34073C10.9766 3.27639 11.0629 3.23999 11.1531 3.23999C11.2432 3.23999 11.3296 3.27639 11.3926 3.34073C11.4984 3.48168 11.4879 3.67808 11.3676 3.80675Z" fill="#1C1C2D"/>
</g>
<defs>
<clipPath id="clip0_89_2023">
<rect width="12.8" height="12.8" fill="white" transform="translate(0.600098 0.600098)"/>
</clipPath>
</defs>
</svg>
