<svg width="12" height="12" viewBox="0 0 12 12" fill="none" xmlns="http://www.w3.org/2000/svg">
<path d="M6.78085 6.00283L9.00307 3.7806C9.10855 3.67532 9.16787 3.53246 9.16801 3.38343C9.16813 3.23443 9.10906 3.09146 9.00377 2.98598C8.89851 2.88051 8.75563 2.82119 8.60663 2.82107C8.4576 2.82093 8.31463 2.88 8.20915 2.98528L5.98693 5.2075L3.76471 2.98528C3.65926 2.87981 3.51622 2.82056 3.36705 2.82056C3.2179 2.82056 3.07486 2.87981 2.96939 2.98528C2.86394 3.09076 2.80469 3.2338 2.80469 3.38294C2.80469 3.53209 2.86394 3.67513 2.96939 3.7806L5.19161 6.00283L2.96939 8.22505C2.86394 8.33052 2.80469 8.47356 2.80469 8.62271C2.80469 8.77185 2.86394 8.9149 2.96939 9.02037C3.07486 9.12584 3.2179 9.18509 3.36705 9.18509C3.51622 9.18509 3.65926 9.12584 3.76471 9.02037L5.98693 6.79815L8.20915 9.02037C8.31463 9.12584 8.45767 9.18509 8.60682 9.18509C8.75598 9.18509 8.89903 9.12584 9.00448 9.02037C9.10995 8.9149 9.1692 8.77185 9.1692 8.62271C9.1692 8.47356 9.10995 8.33052 9.00448 8.22505L6.78085 6.00283Z" fill="#1C1C2D"/>
</svg>
