<svg width="28" height="28" viewBox="0 0 28 28" fill="none" xmlns="http://www.w3.org/2000/svg">
<path d="M25.7484 21.0684L20.9152 16.5949C21.6948 15.1335 22.1376 13.4664 22.1376 11.6977C22.1376 11.0841 22.0834 10.4695 21.9768 9.86721L24.6077 7.2363L25.3262 7.95484C25.444 8.0727 25.6186 8.11338 25.7765 8.05963C25.9343 8.00592 26.0479 7.86718 26.0694 7.70191L26.6307 3.38625C26.6481 3.25155 26.6022 3.11642 26.5062 3.02045C26.4101 2.92441 26.2749 2.87886 26.1404 2.89598L21.8247 3.45729C21.6595 3.47884 21.5207 3.59242 21.467 3.7502C21.4133 3.90797 21.454 4.08259 21.5718 4.20044L22.2903 4.91898L20.7361 6.4732C19.8855 5.00391 18.6885 3.75927 17.2441 2.85168C15.5846 1.80895 13.6667 1.25781 11.6977 1.25781C5.94109 1.25781 1.25781 5.94109 1.25781 11.6977C1.25781 17.4542 5.94114 22.1375 11.6977 22.1375C13.4664 22.1375 15.1335 21.6948 16.5949 20.9152L21.0685 25.7483C21.6458 26.372 22.445 26.7247 23.3189 26.7416C23.3404 26.742 23.3616 26.7422 23.3831 26.7422C24.2711 26.7422 25.1344 26.3865 25.7605 25.7605C26.4016 25.1194 26.7592 24.2295 26.7416 23.319C26.7247 22.445 26.372 21.6458 25.7484 21.0684ZM23.2183 4.60961L22.819 4.21028L25.6897 3.83693L25.3163 6.70753L24.9171 6.3082C24.835 6.22617 24.7237 6.18007 24.6077 6.18007C24.4916 6.18007 24.3804 6.22617 24.2983 6.3082L16.3156 14.291L12.4975 10.4729C12.4154 10.3908 12.3041 10.3447 12.1881 10.3447C12.072 10.3447 11.9608 10.3908 11.8787 10.4729L7.49662 14.8551L6.41659 13.7751L12.1881 8.00352L16.0062 11.8217C16.0883 11.9037 16.1995 11.9498 16.3156 11.9498C16.4316 11.9498 16.5429 11.9037 16.6249 11.8217L23.2183 5.22829C23.3892 5.05739 23.3892 4.78045 23.2183 4.60961ZM5.48849 14.0844L7.18725 15.7831C7.26934 15.8651 7.38057 15.9112 7.49662 15.9112C7.61266 15.9112 7.7239 15.8651 7.80599 15.7831L12.1881 11.4009L16.0062 15.219C16.0883 15.3011 16.1995 15.3472 16.3156 15.3472C16.4316 15.3472 16.5429 15.3011 16.6249 15.219L19.016 12.828C18.4702 16.3763 15.3962 19.1021 11.6976 19.1021C7.61474 19.1021 4.29313 15.7805 4.29313 11.6976C4.29313 7.61474 7.6148 4.29313 11.6977 4.29313C14.6686 4.29313 17.3013 6.02394 18.4823 8.72687L16.3156 10.8936L12.4975 7.07547C12.3265 6.90463 12.0496 6.90473 11.8787 7.07547L5.48849 13.4657C5.31765 13.6365 5.31765 13.9135 5.48849 14.0844ZM2.13281 11.6977C2.13281 6.42354 6.42359 2.13281 11.6977 2.13281C15.2242 2.13281 18.4128 4.03375 20.0944 7.11479L19.1408 8.06837C18.5209 6.79634 17.5876 5.70642 16.4127 4.89103C15.0241 3.92749 13.3937 3.41813 11.6977 3.41813C7.13234 3.41813 3.41819 7.13229 3.41819 11.6976C3.41819 16.2629 7.13234 19.9771 11.6977 19.9771C16.2057 19.9771 19.8834 16.3555 19.975 11.869L21.2038 10.6403C21.2424 10.991 21.2626 11.3444 21.2626 11.6976C21.2626 16.9717 16.9718 21.2624 11.6977 21.2624C6.42359 21.2625 2.13281 16.9717 2.13281 11.6977ZM25.1418 25.1418C24.6791 25.6044 24.0406 25.8673 23.3834 25.8672C23.3675 25.8672 23.3516 25.8671 23.3358 25.8668C22.702 25.8545 22.1248 25.6014 21.7107 25.1539L17.3663 20.4605C18.6021 19.6583 19.6583 18.6021 20.4605 17.3663L25.154 21.7106C25.6014 22.1248 25.8546 22.7019 25.8668 23.3359C25.8797 24.0098 25.6155 24.6681 25.1418 25.1418Z" fill="#1C1C2D"/>
</svg>
