<svg width="28" height="28" viewBox="0 0 28 28" fill="none" xmlns="http://www.w3.org/2000/svg">
<path fill-rule="evenodd" clip-rule="evenodd" d="M5.66199 22.7272L5.28531 22.9447C3.72691 23.8444 1.71668 23.3039 0.818207 21.7477C-0.080264 20.1916 0.456787 18.1804 2.01518 17.2806C2.43798 17.0365 4.12912 16.0601 4.55198 15.816C6.10461 14.4227 7.23493 12.4786 8.237 10.7386C8.24073 10.7312 8.24469 10.7238 8.24886 10.7167C8.34071 10.5569 8.43207 10.399 8.52249 10.2434C8.6318 10.0546 8.73985 9.86918 8.84707 9.68823C8.84734 9.68773 8.84767 9.68724 8.84795 9.68674L8.84817 9.68636C9.09204 9.2758 9.49881 9.04582 9.97377 9.04917C10.4487 9.05252 10.8539 9.28788 11.0909 9.69833L12.6717 12.4365C13.6188 12.0863 14.7082 12.4583 15.2302 13.3623C15.7521 14.2663 15.5295 15.3958 14.7527 16.0409L16.3336 18.779C16.5775 19.2015 16.5716 19.6861 16.3188 20.102C16.0663 20.5173 15.6435 20.7457 15.156 20.7265H15.1557L15.155 20.7265C14.9535 20.7187 14.7512 20.7107 14.5482 20.7034C12.4877 20.6328 10.3531 20.6562 8.28778 21.3179L10.6042 25.3299C10.7254 25.54 10.6535 25.8086 10.4433 25.9299L9.97168 26.2022C9.02078 26.7512 7.79575 26.4229 7.24673 25.4721L5.66199 22.7272ZM4.64992 16.7738L2.45439 18.0413C1.31458 18.6994 0.921861 20.1704 1.57893 21.3085C2.23605 22.4467 3.70632 22.842 4.84609 22.184L7.04162 20.9163L4.64992 16.7738ZM8.62768 11.8107C7.71993 13.3595 6.69019 14.9962 5.36678 16.2586L7.83918 20.5409C9.61608 19.9411 11.4439 19.7958 13.2401 19.7997L8.62768 11.8107ZM15.5728 19.2182L10.3301 10.1375C10.2533 10.0045 10.1216 9.92864 9.96762 9.92754C9.81389 9.9265 9.68284 10.0017 9.60378 10.1344L9.60345 10.1349C9.45154 10.3936 9.29518 10.6614 9.13668 10.9355L14.2633 19.815C14.4114 19.8196 14.5593 19.8247 14.7069 19.8302C14.8684 19.8359 15.0294 19.8422 15.1899 19.8488H15.1903C15.3488 19.855 15.4861 19.7807 15.5682 19.6457C15.6499 19.5113 15.6517 19.3548 15.5728 19.2182ZM14.3022 15.2606C14.6637 14.8745 14.7475 14.2832 14.4694 13.8015C14.1913 13.3198 13.6373 13.0968 13.1222 13.2168L14.3022 15.2606ZM6.42276 22.288L8.00751 25.0329C8.31474 25.565 9.0003 25.7487 9.53246 25.4415L9.62377 25.3888L7.48083 21.6771L6.42276 22.288ZM27.6138 7.3477C27.6138 8.08251 27.0146 8.68034 26.2798 8.68034H22.4247L20.8039 10.3675C20.6798 10.4968 20.4895 10.5376 20.3232 10.4707C20.1569 10.4038 20.048 10.2425 20.048 10.0633V8.68034H19.7304C18.9956 8.68034 18.3964 8.08251 18.3964 7.3477V2.8655C18.3964 2.13086 18.9959 1.53144 19.7304 1.53144H26.2798C27.0144 1.53144 27.6138 2.13086 27.6138 2.8655V7.3477ZM26.7354 7.3477V2.8655C26.7354 2.6146 26.5307 2.40987 26.2798 2.40987H19.7304C19.4796 2.40987 19.2749 2.6146 19.2749 2.8655V7.3477C19.2749 7.59838 19.4798 7.80191 19.7304 7.80191H20.4872C20.7298 7.80191 20.9264 7.99856 20.9264 8.24112V8.97203L21.9208 7.93685C22.0037 7.85066 22.118 7.80191 22.2375 7.80191H26.2798C26.5305 7.80191 26.7354 7.59838 26.7354 7.3477ZM20.5792 4.14132C20.3368 4.14132 20.14 3.94449 20.14 3.7021C20.14 3.45971 20.3368 3.26289 20.5792 3.26289H25.3525C25.5949 3.26289 25.7917 3.45971 25.7917 3.7021C25.7917 3.94449 25.5949 4.14132 25.3525 4.14132H20.5792ZM20.5792 5.56136C20.3368 5.56136 20.14 5.36459 20.14 5.12214C20.14 4.87975 20.3368 4.68292 20.5792 4.68292H25.3525C25.5949 4.68292 25.7917 4.87975 25.7917 5.12214C25.7917 5.36459 25.5949 5.56136 25.3525 5.56136H20.5792ZM20.5792 6.98008C20.3368 6.98008 20.14 6.78325 20.14 6.54086C20.14 6.29847 20.3368 6.10165 20.5792 6.10165H25.3525C25.5949 6.10165 25.7917 6.29847 25.7917 6.54086C25.7917 6.78325 25.5949 6.98008 25.3525 6.98008H20.5792ZM23.4716 11.0909C25.7578 11.0909 27.6138 12.9469 27.6138 15.2331C27.6138 17.5193 25.7578 19.3753 23.4716 19.3753C21.1854 19.3753 19.3293 17.5193 19.3293 15.2331C19.3293 12.9469 21.1854 11.0909 23.4716 11.0909ZM23.4716 11.9693C21.6702 11.9693 20.2078 13.4318 20.2078 15.2331C20.2078 17.0345 21.6702 18.4969 23.4716 18.4969C25.2729 18.4969 26.7354 17.0345 26.7354 15.2331C26.7354 13.4318 25.2729 11.9693 23.4716 11.9693ZM25.3788 15.6135L22.7068 17.1561C22.571 17.2346 22.4035 17.2346 22.2676 17.1561C22.1318 17.0776 22.048 16.9327 22.048 16.7757V13.6905C22.048 13.5336 22.1318 13.3886 22.2676 13.3101C22.4035 13.2317 22.571 13.2317 22.7068 13.3101L25.3788 14.8527C25.5146 14.9312 25.5984 15.0762 25.5984 15.2331C25.5984 15.39 25.5146 15.535 25.3788 15.6135ZM24.2807 15.2331L22.9265 14.4512V16.015L24.2807 15.2331ZM12.1736 9.14245C11.302 8.62988 9.99298 7.71741 9.07585 6.64918C8.41406 5.8783 7.96139 5.02238 7.94591 4.1764C7.92307 2.91003 8.63713 1.99844 9.61076 1.66678C10.4556 1.37898 11.5214 1.52738 12.4786 2.32631C13.4357 1.52831 14.5016 1.37986 15.3468 1.66738C16.321 1.99877 17.0355 2.90992 17.0126 4.17634C16.9972 5.02233 16.5445 5.8783 15.8827 6.64918C14.9656 7.71741 13.6566 8.62988 12.7853 9.14228C12.592 9.25747 12.3669 9.25752 12.1736 9.14245ZM12.4793 8.30195C13.2834 7.81503 14.4132 7.01225 15.2162 6.07694C15.7335 5.47439 16.1223 4.82166 16.1344 4.16042C16.1494 3.32932 15.7032 2.7165 15.0639 2.49898C14.3888 2.26938 13.5336 2.47707 12.7916 3.23137C12.7089 3.31532 12.5961 3.36259 12.4783 3.36253C12.3606 3.36253 12.2478 3.31521 12.1652 3.23121C11.4233 2.4763 10.5686 2.2685 9.894 2.49827C9.25494 2.71595 8.80924 3.32926 8.82423 4.16042C8.83631 4.82166 9.22507 5.47439 9.74236 6.07694C10.5453 7.01225 11.6752 7.81503 12.4793 8.30195ZM14.7725 10.8094C14.7097 11.0436 14.4686 11.1828 14.2345 11.12C14.0004 11.0573 13.8612 10.8162 13.924 10.5821L14.3432 9.01749C14.4059 8.78333 14.647 8.64416 14.8811 8.70691C15.1153 8.76966 15.2544 9.01068 15.1917 9.24484L14.7725 10.8094ZM16.9802 15.8988C16.7461 15.8358 16.6072 15.5946 16.6702 15.3605C16.7332 15.1265 16.9744 14.9875 17.2084 15.0505L18.7742 15.4717C19.0083 15.5347 19.1472 15.7758 19.0842 16.0099C19.0212 16.244 18.7801 16.3829 18.546 16.3199L16.9802 15.8988ZM16.9296 12.8986C16.7197 13.0198 16.4509 12.9478 16.3297 12.7379C16.2084 12.5279 16.2805 12.2591 16.4904 12.1378L17.8958 11.3264C18.1057 11.2053 18.3746 11.2773 18.4958 11.4872C18.617 11.6971 18.545 11.966 18.335 12.0872L16.9296 12.8986Z" fill="#1C1C2D"/>
</svg>
