<svg width="28" height="28" viewBox="0 0 28 28" fill="none" xmlns="http://www.w3.org/2000/svg">
<g clip-path="url(#clip0_89_2406)">
<path d="M26.0343 3.54422H16.797C17.2642 2.42236 16.8372 1.09729 15.7573 0.47374C14.5841 -0.203674 13.0785 0.199701 12.4011 1.37302L11.1476 3.54417H2.47844C1.11185 3.54422 0 4.65602 0 6.02266V21.4677C0 22.8343 1.11185 23.9461 2.47844 23.9461H10.1585C10.2522 24.7831 10.194 25.7843 9.99687 26.7622H6.91589C6.61391 26.7622 6.36902 27.0071 6.36902 27.3091C6.36902 27.6111 6.61391 27.856 6.91589 27.856H21.0844C21.3864 27.856 21.6313 27.6111 21.6313 27.3091C21.6313 27.0071 21.3864 26.7622 21.0844 26.7622H17.9732C17.7585 25.7751 17.6892 24.7735 17.7807 23.9461H25.5215C26.8881 23.9461 28 22.8343 28 21.4677V5.51029C28 4.42622 27.1182 3.54422 26.0343 3.54422ZM7.73314 12.4465L9.40073 13.4092L7.73314 14.372V12.4465ZM10.2943 12.6622L7.9333 11.2991L12.4142 3.53799L14.7752 4.90113L10.2943 12.6622ZM15.2105 1.42093C15.8613 1.79674 16.0852 2.63204 15.7094 3.28304L15.3221 3.95394L12.961 2.5908L13.3484 1.91995C13.7242 1.26895 14.5595 1.04528 15.2105 1.42093ZM2.47844 4.63797H10.5161L6.71267 11.2258C6.66466 11.309 6.63939 11.4033 6.63939 11.4992V15.3193C6.63939 15.6212 6.88428 15.8661 7.18627 15.8661H20.8137C21.1157 15.8661 21.3606 15.6212 21.3606 15.3193C21.3606 15.0173 21.1157 14.7724 20.8137 14.7724H9.22726L10.768 13.8828C10.8511 13.8348 10.9201 13.7658 10.9681 13.6827L16.1901 4.63797H26.0343C26.5151 4.63797 26.9062 5.02926 26.9062 5.51029V19.0102H1.09375V6.02266C1.09375 5.25911 1.71489 4.63797 2.47844 4.63797ZM16.8568 26.7622H11.11C11.2865 25.7904 11.3396 24.8022 11.2584 23.9461H16.681C16.6025 24.7952 16.6653 25.7834 16.8568 26.7622ZM25.5215 22.8524H2.47844C1.71489 22.8524 1.09375 22.2312 1.09375 21.4677V20.1039H26.9062V21.4677C26.9062 22.2312 26.2851 22.8524 25.5215 22.8524ZM21.3606 12.0102C21.3606 12.3122 21.1157 12.5571 20.8137 12.5571H15.1483C14.8463 12.5571 14.6015 12.3122 14.6015 12.0102C14.6015 11.7082 14.8463 11.4633 15.1483 11.4633H20.8137C21.1157 11.4633 21.3606 11.7082 21.3606 12.0102Z" fill="#1C1C2D"/>
</g>
<defs>
<clipPath id="clip0_89_2406">
<rect width="28" height="28" fill="white"/>
</clipPath>
</defs>
</svg>
