<svg width="40" height="39" viewBox="0 0 40 39" fill="none" xmlns="http://www.w3.org/2000/svg">
<g clip-path="url(#clip0_1_110)">
<path d="M35.7495 15.9233C35.1041 15.3623 34.2885 15.0881 33.4398 15.1474C30.2273 15.3721 27.0932 16.1128 24.1212 17.3567L22.7377 17.9328C22.6555 17.9667 22.5981 17.8509 22.6728 17.8104L23.9729 17.0499C26.7561 15.4245 29.2344 13.3693 31.3481 10.9378C31.9026 10.2999 32.1778 9.49826 32.1269 8.6701C32.0263 6.92913 30.508 5.57628 28.7665 5.66986C27.9028 5.71616 27.1127 6.10973 26.5451 6.76263C24.4315 9.19412 22.7411 11.9343 21.5189 14.9167L20.9467 16.31C20.91 16.3901 20.7943 16.3489 20.8165 16.2627L21.1944 14.8125C22.0126 11.6963 22.31 8.48961 22.0853 5.27715C22.026 4.42844 21.6404 3.65188 20.9955 3.09786C20.3501 2.53683 19.5345 2.26259 18.6857 2.32193C17.837 2.38128 17.0605 2.76686 16.5065 3.41176C15.9454 4.05716 15.6712 4.87281 15.7305 5.72152C15.9552 8.93398 16.6959 12.0681 17.9399 15.0401L18.5159 16.4236C18.5498 16.5058 18.434 16.5632 18.3936 16.4885L17.633 15.1884C16.0076 12.4052 13.9524 9.92689 11.5209 7.81323C10.883 7.25872 10.0814 6.9835 9.25321 7.03436C7.50522 7.13545 6.15237 8.65383 6.25297 10.3948C6.29927 11.2585 6.69284 12.0486 7.34574 12.6162C9.77723 14.7298 12.5174 16.4201 15.4998 17.6424L16.8931 18.2146C16.9732 18.2513 16.932 18.3669 16.8458 18.3448L15.3956 17.9669C12.2794 17.1487 9.07272 16.8513 5.86025 17.076C5.01155 17.1353 4.23499 17.5209 3.68097 18.1658C2.52628 19.4941 2.66705 21.5072 3.99536 22.6619C4.64076 23.2229 5.45641 23.4971 6.30512 23.4378C9.51758 23.2131 12.6517 22.4724 15.6237 21.2285L17.0072 20.6524C17.0894 20.6185 17.1468 20.7343 17.0721 20.7748L15.772 21.5353C12.9888 23.1607 10.5105 25.2159 8.39683 27.6474C7.84232 28.2853 7.5671 29.0869 7.61796 29.9151C7.71856 31.6561 9.23694 33.0089 10.9784 32.9153C11.8421 32.869 12.6322 32.4755 13.1998 31.8226C15.3134 29.3911 17.0037 26.6509 18.226 23.6685L18.7982 22.2752C18.8349 22.1951 18.9505 22.2363 18.9284 22.3225L18.5505 23.7727C17.7323 26.8889 17.4349 30.0956 17.6596 33.3081C17.7189 34.1568 18.1045 34.9333 18.7494 35.4873C19.3948 36.0484 20.2104 36.3226 21.0592 36.2633C21.9079 36.2039 22.6844 35.8183 23.2384 35.1734C23.7995 34.528 24.0737 33.7124 24.0144 32.8637C23.7897 29.6512 23.049 26.5171 21.805 23.5451L21.229 22.1616C21.1951 22.0794 21.3109 22.022 21.3513 22.0967L22.1119 23.3968C23.7373 26.18 25.7925 28.6583 28.224 30.772C28.8619 31.3265 29.6635 31.6017 30.4917 31.5508C32.2327 31.4502 33.5855 29.9319 33.4919 28.1904C33.4456 27.3267 33.0521 26.5366 32.3992 25.969C29.9677 23.8554 27.2275 22.1651 24.2451 20.9428L22.8518 20.3706C22.7717 20.3339 22.8129 20.2183 22.8991 20.2404L24.3493 20.6183C27.4655 21.4365 30.6722 21.7339 33.8846 21.5092C34.7334 21.4499 35.5099 21.0643 36.0639 20.4194C37.2186 19.0911 37.0774 17.071 35.7495 15.9233Z" fill="#1C1C2D"/>
</g>
<defs>
<clipPath id="clip0_1_110">
<rect width="36" height="36" fill="white" transform="translate(0.652954 2.58902) rotate(-4)"/>
</clipPath>
</defs>
</svg>
