<svg width="36" height="36" viewBox="0 0 36 36" fill="none" xmlns="http://www.w3.org/2000/svg">
<path d="M11.1675 22.4195C11.1658 22.4178 11.1635 22.4164 11.1616 22.4147C10.7063 21.9616 10.0898 21.7077 9.44756 21.7087C8.80528 21.7096 8.18961 21.9654 7.73566 22.4197C7.67744 22.478 7.62316 22.5384 7.57141 22.6003C7.19504 23.0796 7.00841 23.6807 7.04717 24.2888C7.08592 24.8969 7.34735 25.4695 7.7815 25.8971L9.41781 27.5345C9.54989 27.6654 9.72844 27.7387 9.91438 27.7382C10.1003 27.7378 10.2785 27.6637 10.41 27.5322C10.5415 27.4007 10.6155 27.2225 10.6159 27.0366C10.6163 26.8506 10.543 26.6721 10.412 26.54L8.77572 24.9037C8.58655 24.7244 8.4699 24.4819 8.44796 24.2221C8.42603 23.9624 8.50034 23.7037 8.65675 23.4952C8.67981 23.4671 8.704 23.4407 8.73016 23.4148C8.92445 23.2292 9.18284 23.1256 9.45156 23.1256C9.72029 23.1256 9.97867 23.2292 10.173 23.4148L10.1758 23.4173L13.3944 26.6345C13.5821 26.8209 13.7309 27.0425 13.8323 27.2868C13.9337 27.531 13.9856 27.7929 13.985 28.0574V31.0271C13.985 31.9069 13.9665 32.7838 13.7468 33.004C13.5272 33.2242 12.6499 33.242 11.7702 33.242H9.33991C9.0254 33.2659 8.7091 33.2469 8.39969 33.1857C8.17696 32.9626 7.98556 32.7102 7.83072 32.4356L3.27447 25.6417C2.93701 25.1397 2.7571 24.5484 2.75781 23.9435V15.2605C2.75781 14.9278 2.89 14.6086 3.12529 14.3733C3.36059 14.138 3.67971 14.0059 4.01247 14.0059C4.34522 14.0059 4.66435 14.138 4.89964 14.3733C5.13494 14.6086 5.26712 14.9278 5.26712 15.2605V21.4877C5.26712 21.6742 5.3412 21.853 5.47307 21.9849C5.60493 22.1167 5.78377 22.1908 5.97025 22.1908C6.15673 22.1908 6.33557 22.1167 6.46743 21.9849C6.5993 21.853 6.67338 21.6742 6.67338 21.4877V15.2605C6.67338 14.5548 6.39303 13.878 5.89401 13.379C5.395 12.88 4.71819 12.5996 4.01247 12.5996C3.30675 12.5996 2.62994 12.88 2.13092 13.379C1.63191 13.878 1.35156 14.5548 1.35156 15.2605V23.9461C1.3513 24.8302 1.61492 25.6942 2.10869 26.4275L6.54569 33.0445L6.66213 33.2189C7.52922 34.5174 7.759 34.6496 9.29041 34.6496H11.7702C14.8499 34.6496 15.3913 34.1082 15.3913 31.0285V28.0585C15.3926 27.6094 15.3047 27.1644 15.1328 26.7495C14.9609 26.3345 14.7083 25.9578 14.3898 25.6412L11.1675 22.4195Z" fill="#009E9A"/>
<path d="M31.986 12.6001C31.2805 12.6008 30.6041 12.8814 30.1052 13.3803C29.6064 13.8791 29.3258 14.5555 29.325 15.261V21.4876C29.325 21.6741 29.3991 21.8529 29.531 21.9848C29.6628 22.1166 29.8417 22.1907 30.0282 22.1907C30.2147 22.1907 30.3935 22.1166 30.5254 21.9848C30.6572 21.8529 30.7313 21.6741 30.7313 21.4876V15.2604C30.7313 14.9277 30.8635 14.6086 31.0988 14.3733C31.3341 14.138 31.6532 14.0058 31.986 14.0058C32.3187 14.0058 32.6378 14.138 32.8731 14.3733C33.1084 14.6086 33.2406 14.9277 33.2406 15.2604V23.946C33.2413 24.5509 33.0614 25.1422 32.724 25.6442L28.1691 32.4381C28.0143 32.7126 27.8228 32.9648 27.5999 33.1876C27.2903 33.2481 26.9742 33.267 26.6596 33.2438H24.2305C23.3507 33.2438 22.4738 33.2256 22.2539 33.0059C22.0339 32.7863 22.0156 31.909 22.0156 31.029V28.0584C22.015 27.794 22.0669 27.532 22.1683 27.2877C22.2697 27.0434 22.4186 26.8217 22.6063 26.6353L25.8235 23.4164L25.8266 23.4139C26.0211 23.2277 26.28 23.1239 26.5493 23.1242C26.8186 23.1245 27.0773 23.2289 27.2714 23.4156C27.2964 23.4409 27.32 23.4673 27.3428 23.4946C27.4993 23.703 27.5736 23.9617 27.5517 24.2214C27.5297 24.4811 27.413 24.7236 27.2238 24.9028L25.5872 26.5391C25.4552 26.671 25.381 26.8498 25.3809 27.0364C25.3808 27.223 25.4548 27.4019 25.5867 27.5339C25.7185 27.6659 25.8974 27.7401 26.0839 27.7402C26.2705 27.7403 26.4495 27.6663 26.5815 27.5345L28.218 25.8979C28.6522 25.4704 28.9137 24.8978 28.9524 24.2897C28.9912 23.6816 28.8045 23.0805 28.4281 22.6013C28.3764 22.5386 28.3215 22.4776 28.2642 22.4205C27.8101 21.9662 27.1944 21.7106 26.5521 21.7097C25.9098 21.7088 25.2933 21.9627 24.838 22.4157C24.8359 22.4172 24.8339 22.4188 24.8321 22.4205L21.6109 25.6408C21.2922 25.9577 21.0396 26.3346 20.8677 26.7498C20.6958 27.165 20.608 27.6102 20.6094 28.0596V31.0293C20.6094 34.109 21.1508 34.6504 24.2305 34.6504H26.71C28.2411 34.6504 28.4715 34.5182 29.3385 33.2197L33.892 26.4283C34.385 25.6947 34.6478 24.8307 34.6469 23.9468V15.2604C34.646 14.5551 34.3653 13.8788 33.8665 13.3801C33.3676 12.8813 32.6913 12.6008 31.986 12.6001Z" fill="#009E9A"/>
<path d="M27.5699 12.2927V7.34269C27.5699 4.66041 27.2537 4.29929 24.4955 3.82875C22.9229 3.60065 21.4103 3.06601 20.0436 2.25516L19.9722 2.21016C19.0879 1.65638 18.6011 1.3501 17.9998 1.3501C17.3985 1.3501 16.9105 1.65666 16.0248 2.21185L15.9568 2.2546C14.59 3.06599 13.0773 3.60112 11.5043 3.8296C8.74666 4.299 8.42969 4.66013 8.42969 7.34241V12.2924C8.42969 16.3461 11.2388 20.2135 16.1359 22.9034L16.3078 22.9982C17.0629 23.4142 17.4786 23.6431 17.9987 23.6431C18.5187 23.6431 18.9344 23.4142 19.6895 22.9982L19.8614 22.9034C24.7608 20.2138 27.5699 16.3463 27.5699 12.2927ZM19.1858 21.6713L19.0123 21.7669C18.7008 21.9745 18.3593 22.1331 17.9998 22.2371C17.6402 22.1331 17.2987 21.9745 16.9873 21.7669L16.8138 21.6713C14.7156 20.5181 9.83594 17.2987 9.83594 12.2927V7.34269C9.83594 6.61538 9.83594 5.86304 9.99738 5.67994C10.1712 5.48307 10.9691 5.34666 11.7411 5.21503C13.4951 4.95711 15.1811 4.35627 16.7029 3.44682L16.7724 3.4035C17.3926 3.01425 17.8029 2.75635 17.9998 2.75635C18.1967 2.75635 18.6059 3.01285 19.2252 3.40097L19.2977 3.44654C20.8195 4.35552 22.5053 4.95606 24.259 5.21391C25.0305 5.34554 25.8284 5.48166 26.0028 5.67882C26.1642 5.86191 26.1642 6.61425 26.1642 7.34157V12.2916C26.1636 17.2987 21.2839 20.519 19.1858 21.6713Z" fill="#009E9A"/>
<path d="M21.08 10.0373L16.9352 13.8536L14.9178 11.9974C14.7806 11.8711 14.5988 11.8044 14.4125 11.8121C14.2261 11.8198 14.0505 11.9012 13.9241 12.0384C13.7978 12.1757 13.7312 12.3574 13.7389 12.5438C13.7466 12.7301 13.828 12.9058 13.9652 13.0321L16.4588 15.3282C16.5886 15.4478 16.7586 15.5141 16.9351 15.5141C17.1115 15.5141 17.2815 15.4478 17.4114 15.3282L22.0326 11.0729C22.1024 11.0109 22.1591 10.9355 22.1995 10.8513C22.2399 10.7671 22.2631 10.6757 22.2677 10.5824C22.2724 10.4892 22.2584 10.3959 22.2266 10.3081C22.1949 10.2203 22.1459 10.1397 22.0826 10.071C22.0194 10.0023 21.943 9.94691 21.8581 9.90804C21.7732 9.86917 21.6814 9.8476 21.5881 9.8446C21.4947 9.8416 21.4017 9.85722 21.3145 9.89056C21.2273 9.92389 21.1475 9.97427 21.08 10.0388V10.0373Z" fill="#009E9A"/>
</svg>
