<svg width="36" height="36" viewBox="0 0 36 36" fill="none" xmlns="http://www.w3.org/2000/svg">
<path d="M17.9996 11.1938C18.8931 11.1993 19.7681 10.9386 20.513 10.445C21.2579 9.95144 21.839 9.24725 22.1822 8.4222C22.5254 7.59714 22.6152 6.68859 22.4402 5.81231C22.2651 4.93603 21.8331 4.13172 21.1993 3.50185C20.5654 2.87198 19.7584 2.44509 18.881 2.27557C18.0037 2.10605 17.0957 2.20158 16.2728 2.54998C15.4499 2.89839 14.7494 3.48389 14.2606 4.23189C13.7717 4.97988 13.5165 5.85649 13.5277 6.75001C13.5424 7.92886 14.0192 9.05485 14.8554 9.88585C15.6917 10.7169 16.8207 11.1865 17.9996 11.1938ZM17.9996 3.37501C18.6603 3.37504 19.3063 3.57064 19.856 3.93717C20.4058 4.3037 20.8348 4.82476 21.0889 5.43468C21.343 6.04461 21.4109 6.71611 21.284 7.36456C21.1572 8.01301 20.8412 8.6094 20.3759 9.07856C19.9107 9.54773 19.317 9.86869 18.6696 10.001C18.0222 10.1333 17.3502 10.071 16.7381 9.822C16.1261 9.57299 15.6015 9.14839 15.2304 8.60171C14.8592 8.05503 14.6582 7.41074 14.6527 6.75001C14.6527 5.85976 15.0044 5.00555 15.6312 4.37342C16.2581 3.74128 17.1093 3.38243 17.9996 3.37501Z" fill="#E06A17"/>
<path d="M10.1797 20.6549H25.8172C25.9664 20.6549 26.1094 20.5957 26.2149 20.4902C26.3204 20.3847 26.3797 20.2416 26.3797 20.0924V17.4374C26.3713 15.9393 25.7789 14.5035 24.7285 13.4352C23.6781 12.3669 22.2525 11.7505 20.7547 11.7168H20.7209C20.621 11.7172 20.5233 11.7465 20.4397 11.8012C19.6692 12.1787 18.8226 12.3749 17.9647 12.3749C17.1067 12.3749 16.2601 12.1787 15.4897 11.8012C15.4041 11.7588 15.3096 11.7375 15.2141 11.7393C13.7246 11.7786 12.3086 12.3947 11.2645 13.4577C10.2204 14.5206 9.62979 15.9475 9.61719 17.4374V20.098C9.61867 20.2463 9.67859 20.3879 9.78392 20.4922C9.88924 20.5964 10.0315 20.6549 10.1797 20.6549ZM10.7422 17.4318C10.7478 16.2517 11.205 15.1186 12.0199 14.265C12.8348 13.4114 13.9455 12.9022 15.1241 12.8418C16.0232 13.265 17.0047 13.4844 17.9984 13.4844C18.9922 13.4844 19.9737 13.265 20.8728 12.8418C22.0523 12.9022 23.1639 13.4122 23.9789 14.267C24.7939 15.1218 25.2505 16.2564 25.2547 17.4374V19.5355H10.7422V17.4318Z" fill="#E06A17"/>
<path d="M23.2326 24.8119C23.194 24.714 23.1288 24.6289 23.0443 24.5663C22.9598 24.5036 22.8594 24.4659 22.7545 24.4575L20.1108 24.255L18.4683 21.7912C18.4168 21.7147 18.3473 21.6519 18.2659 21.6086C18.1845 21.5652 18.0936 21.5425 18.0014 21.5425C17.9091 21.5425 17.8183 21.5652 17.7369 21.6086C17.6555 21.6519 17.586 21.7147 17.5345 21.7912L15.892 24.255L13.2483 24.4575C13.1434 24.4659 13.043 24.5035 12.9584 24.566C12.8738 24.6286 12.8085 24.7136 12.7698 24.8115C12.7312 24.9093 12.7207 25.016 12.7397 25.1195C12.7586 25.223 12.8062 25.3191 12.877 25.3969L14.9076 27.6469C14.8345 27.9225 14.1483 30.5156 14.092 30.7125C14.0635 30.8186 14.0667 30.9307 14.1011 31.0351C14.1356 31.1394 14.1999 31.2314 14.2861 31.2996C14.3722 31.3678 14.4765 31.4092 14.5859 31.4189C14.6954 31.4285 14.8053 31.4059 14.902 31.3537L18.0014 29.6944L21.1008 31.3481C21.1979 31.4096 21.3116 31.4398 21.4265 31.4346C21.5413 31.4295 21.6519 31.3893 21.7432 31.3194C21.8345 31.2496 21.9022 31.1534 21.9372 31.0439C21.9722 30.9343 21.9728 30.8167 21.9389 30.7069C21.877 30.5269 21.202 27.8944 21.1233 27.6412L23.1539 25.3912C23.2189 25.3112 23.2606 25.2148 23.2744 25.1126C23.2883 25.0104 23.2739 24.9064 23.2326 24.8119ZM20.0545 27.1125C19.9918 27.1813 19.9472 27.2646 19.9246 27.3549C19.902 27.4452 19.9022 27.5398 19.9251 27.63L20.4876 29.745L18.2376 28.5637C18.1562 28.5204 18.0655 28.4977 17.9733 28.4977C17.8811 28.4977 17.7903 28.5204 17.7089 28.5637L15.4589 29.745L16.0214 27.63C16.0443 27.5398 16.0445 27.4452 16.0219 27.3549C15.9994 27.2646 15.9547 27.1813 15.892 27.1125L14.4239 25.4925L16.1958 25.3519C16.2802 25.345 16.362 25.3192 16.435 25.2764C16.5081 25.2335 16.5705 25.1747 16.6176 25.1044L18.0014 23.1187L19.3289 25.1044C19.376 25.1747 19.4385 25.2335 19.5115 25.2764C19.5846 25.3192 19.6663 25.345 19.7508 25.3519L21.5226 25.4925L20.0545 27.1125Z" fill="#E06A17"/>
<path d="M30.9389 28.187L29.0208 28.0407L27.7551 26.2126C27.7037 26.1361 27.6342 26.0733 27.5528 26.0299C27.4713 25.9866 27.3805 25.9639 27.2883 25.9639C27.196 25.9639 27.1052 25.9866 27.0237 26.0299C26.9423 26.0733 26.8728 26.1361 26.8214 26.2126C26.5401 26.6232 25.8876 27.6132 25.6008 28.0351L23.6545 28.187C23.5496 28.1954 23.4492 28.233 23.3647 28.2955C23.2801 28.3581 23.2148 28.4431 23.1761 28.541C23.1374 28.6388 23.127 28.7455 23.1459 28.849C23.1649 28.9525 23.2124 29.0486 23.2833 29.1264L24.7851 30.7745L24.1776 33.0245C24.1491 33.1306 24.1523 33.2428 24.1868 33.3471C24.2213 33.4514 24.2855 33.5434 24.3717 33.6116C24.4578 33.6798 24.5621 33.7213 24.6715 33.7309C24.781 33.7405 24.8909 33.7179 24.9876 33.6657L27.2883 32.4395L29.5889 33.6657C29.6834 33.7096 29.7883 33.7263 29.8918 33.7141C29.9953 33.7018 30.0934 33.661 30.175 33.5962C30.2567 33.5315 30.3188 33.4453 30.3543 33.3473C30.3899 33.2494 30.3975 33.1434 30.3764 33.0414L29.7745 30.7914L31.2764 29.1433C31.3512 29.0682 31.4033 28.9735 31.4266 28.8701C31.45 28.7668 31.4436 28.6589 31.4084 28.559C31.3731 28.459 31.3103 28.3711 31.2273 28.3053C31.1442 28.2395 31.0442 28.1985 30.9389 28.187ZM28.7789 30.2401C28.7153 30.3095 28.6701 30.3938 28.6475 30.4852C28.6249 30.5766 28.6256 30.6722 28.6495 30.7632L28.9758 32.0626C28.7845 31.9895 27.4739 31.1907 27.2883 31.2357C27.1026 31.1851 25.7808 31.9895 25.6008 32.057C25.6626 31.8039 25.882 31.0108 25.9495 30.7408C25.9734 30.6497 25.9741 30.5541 25.9515 30.4627C25.9289 30.3713 25.8838 30.287 25.8201 30.2176L24.892 29.2501L25.9608 29.1657C26.0452 29.1589 26.127 29.1331 26.2 29.0903C26.273 29.0474 26.3355 28.9886 26.3826 28.9182L27.2883 27.5626L28.1883 28.9126C28.3851 29.2783 29.1783 29.1658 29.6845 29.2445L28.7789 30.2401Z" fill="#E06A17"/>
<path d="M12.3746 28.187L10.4284 28.0351C10.1359 27.6132 9.48899 26.6289 9.20774 26.2126C9.15628 26.1361 9.08679 26.0733 9.00537 26.0299C8.92395 25.9866 8.83312 25.9639 8.74086 25.9639C8.64861 25.9639 8.55778 25.9866 8.47636 26.0299C8.39494 26.0733 8.32544 26.1361 8.27399 26.2126L7.05336 28.0407L5.06211 28.187C4.95677 28.1944 4.85564 28.2313 4.77029 28.2935C4.68495 28.3557 4.61883 28.4407 4.57951 28.5387C4.54019 28.6367 4.52925 28.7438 4.54795 28.8477C4.56665 28.9516 4.61423 29.0482 4.68524 29.1264L6.18711 30.7745L5.58524 33.0245C5.55763 33.1299 5.56121 33.241 5.59556 33.3444C5.62991 33.4478 5.69354 33.539 5.77873 33.6069C5.86392 33.6748 5.967 33.7165 6.07544 33.727C6.18388 33.7374 6.29303 33.7162 6.38961 33.6657L8.69024 32.4395L10.9909 33.6657C11.0865 33.7193 11.1956 33.7437 11.3049 33.7361C11.4142 33.7285 11.5189 33.6891 11.6061 33.6227C11.6934 33.5564 11.7593 33.4661 11.7959 33.3628C11.8325 33.2595 11.8381 33.1478 11.8121 33.0414L11.2046 30.7914L12.7065 29.1433C12.7811 29.0686 12.8333 28.9743 12.8569 28.8714C12.8805 28.7685 12.8747 28.661 12.84 28.5612C12.8054 28.4614 12.7434 28.3734 12.6611 28.3072C12.5788 28.2411 12.4795 28.1994 12.3746 28.187ZM10.1809 30.2401C9.84336 30.5664 10.2202 31.247 10.2934 31.6858L10.4002 32.0795L8.99961 31.3257C8.91823 31.2824 8.82744 31.2597 8.73524 31.2597C8.64304 31.2597 8.55225 31.2824 8.47086 31.3257L7.02524 32.0626L7.37399 30.7408C7.39793 30.6497 7.39863 30.5541 7.37602 30.4627C7.35342 30.3713 7.30824 30.287 7.24461 30.2176L6.31649 29.2501L7.39086 29.1657C7.47528 29.1589 7.55706 29.1331 7.63011 29.0903C7.70316 29.0474 7.76559 28.9886 7.81274 28.9182C7.81274 28.9182 8.71274 27.557 8.71274 27.5682L9.61836 28.9182C9.80961 29.2839 10.6084 29.1714 11.109 29.2501L10.1809 30.2401Z" fill="#E06A17"/>
<path d="M5.23657 26.7865C5.34189 26.7868 5.44518 26.7576 5.5347 26.7021C5.59758 26.663 5.65214 26.6119 5.69524 26.5517C5.73834 26.4915 5.76913 26.4234 5.78585 26.3513C5.80257 26.2792 5.8049 26.2045 5.79269 26.1315C5.78048 26.0585 5.75397 25.9886 5.7147 25.9258C4.3012 23.6536 3.5529 21.0306 3.5547 18.3546C3.56101 15.5891 4.3589 12.8832 5.85407 10.5567C7.34925 8.23019 9.4792 6.38036 11.9922 5.22583C12.0594 5.19518 12.1199 5.15158 12.1703 5.09754C12.2207 5.04349 12.2599 4.98005 12.2858 4.91084C12.3116 4.84163 12.3236 4.76801 12.321 4.69418C12.3184 4.62034 12.3013 4.54774 12.2706 4.48052C12.24 4.4133 12.1964 4.35278 12.1423 4.3024C12.0883 4.25203 12.0249 4.2128 11.9556 4.18694C11.8864 4.16109 11.8128 4.14912 11.739 4.15172C11.6651 4.15431 11.5925 4.17143 11.5253 4.20208C8.81642 5.44673 6.52042 7.44082 4.90864 9.9487C3.29685 12.4566 2.43666 15.3734 2.4297 18.3546C2.42632 21.2414 3.23316 24.0712 4.75845 26.5221C4.80911 26.6031 4.8796 26.67 4.96326 26.7162C5.04691 26.7625 5.14098 26.7866 5.23657 26.7865Z" fill="#E06A17"/>
<path d="M24.0127 5.22583C26.5257 6.38036 28.6557 8.23019 30.1509 10.5567C31.646 12.8832 32.4439 15.5891 32.4502 18.3546C32.452 21.0306 31.7037 23.6536 30.2902 25.9258C30.251 25.9886 30.2245 26.0585 30.2123 26.1315C30.2 26.2045 30.2024 26.2792 30.2191 26.3513C30.2358 26.4234 30.2666 26.4915 30.3097 26.5517C30.3528 26.6119 30.4074 26.663 30.4702 26.7021C30.5598 26.7576 30.6631 26.7868 30.7684 26.7865C30.864 26.7866 30.958 26.7625 31.0417 26.7162C31.1253 26.67 31.1958 26.6031 31.2465 26.5221C32.7718 24.0712 33.5786 21.2414 33.5752 18.3546C33.5683 15.3734 32.7081 12.4566 31.0963 9.9487C29.4845 7.44082 27.1885 5.44673 24.4796 4.20208C24.4124 4.17143 24.3398 4.15431 24.266 4.15172C24.1921 4.14912 24.1185 4.16109 24.0493 4.18694C23.9801 4.2128 23.9167 4.25203 23.8626 4.3024C23.8086 4.35278 23.765 4.4133 23.7343 4.48052C23.7037 4.54774 23.6865 4.62034 23.6839 4.69418C23.6813 4.76801 23.6933 4.84163 23.7192 4.91084C23.745 4.98005 23.7843 5.04349 23.8346 5.09754C23.885 5.15158 23.9455 5.19518 24.0127 5.22583Z" fill="#E06A17"/>
<path d="M28.6376 24.9354C28.7217 24.9831 28.8166 25.0082 28.9133 25.0085C29.0124 25.0089 29.1099 24.9831 29.1958 24.9337C29.2817 24.8843 29.3531 24.8131 29.4026 24.7273C30.5049 22.7838 31.0862 20.5884 31.0901 18.3542C31.0873 16.0619 30.4832 13.8104 29.3382 11.8245C28.1933 9.8386 26.5475 8.18773 24.5651 7.03666C24.5013 6.99924 24.4307 6.97478 24.3573 6.96471C24.284 6.95463 24.2094 6.95913 24.1378 6.97794C24.0662 6.99675 23.999 7.02951 23.9401 7.07434C23.8812 7.11916 23.8317 7.17517 23.7945 7.23916C23.7573 7.30336 23.7332 7.37428 23.7235 7.44785C23.7139 7.52141 23.7189 7.59616 23.7382 7.66779C23.7576 7.73942 23.7909 7.80651 23.8363 7.86521C23.8816 7.9239 23.9382 7.97304 24.0026 8.00979C25.8141 9.06222 27.318 10.5712 28.3642 12.3863C29.4105 14.2014 29.9625 16.2591 29.9651 18.3542C29.965 20.3992 29.4339 22.4091 28.4239 24.1873C28.3563 24.3155 28.3407 24.4649 28.3806 24.6043C28.4204 24.7437 28.5125 24.8623 28.6376 24.9354Z" fill="#E06A17"/>
<path d="M12.0211 8.00979C12.0855 7.97304 12.1421 7.9239 12.1875 7.86521C12.2329 7.80651 12.2662 7.73942 12.2855 7.66779C12.3049 7.59616 12.3099 7.52141 12.3002 7.44785C12.2905 7.37428 12.2664 7.30336 12.2292 7.23916C12.192 7.17517 12.1425 7.11916 12.0836 7.07434C12.0247 7.02951 11.9575 6.99675 11.8859 6.97794C11.8143 6.95913 11.7397 6.95463 11.6664 6.96471C11.5931 6.97478 11.5225 6.99924 11.4586 7.03666C9.47624 8.18773 7.83046 9.8386 6.68551 11.8245C5.54056 13.8104 4.93649 16.0619 4.93359 18.3542C4.93758 20.5884 5.51887 22.7838 6.62109 24.7273C6.67065 24.8131 6.74201 24.8843 6.82795 24.9337C6.91389 24.9831 7.01135 25.0089 7.11047 25.0085C7.2071 25.0082 7.30202 24.9831 7.38609 24.9354C7.50742 24.8587 7.59481 24.7384 7.63037 24.5993C7.66592 24.4603 7.64695 24.3128 7.57734 24.1873C6.578 22.4119 6.05481 20.4083 6.05859 18.371C6.05834 16.2731 6.60893 14.212 7.65529 12.3937C8.70166 10.5753 10.2071 9.06365 12.0211 8.00979Z" fill="#E06A17"/>
</svg>
