<svg width="36" height="36" viewBox="0 0 36 36" fill="none" xmlns="http://www.w3.org/2000/svg">
<g clip-path="url(#clip0_89_2539)">
<path d="M31.5173 18.5661C30.5258 18.3201 29.5354 18.1574 28.5492 18.0773C29.9928 17.3687 31.0196 15.5901 31.0196 13.512C31.0196 11.0495 29.5412 9.51975 27.1613 9.51975C26.0245 9.51975 25.0941 9.86948 24.4316 10.5024C23.8756 10.1159 23.1698 9.81049 22.3565 9.60877C21.365 9.36281 20.3746 9.20011 19.3884 9.12002C20.8319 8.41141 21.8588 6.63286 21.8588 4.55463C21.8588 2.09222 20.3804 0.5625 18.0005 0.5625C15.6205 0.5625 14.1421 2.09222 14.1421 4.5547C14.1421 6.62808 15.1643 8.40319 16.6026 9.1151C15.6064 9.19357 14.6177 9.35852 13.6398 9.60996C12.8152 9.82188 12.1229 10.1225 11.5725 10.5057C10.9098 9.87075 9.97823 9.51982 8.83959 9.51982C6.45965 9.51982 4.98126 11.0495 4.98126 13.512C4.98126 15.5854 6.00339 17.3604 7.4417 18.0724C6.44559 18.1508 5.45685 18.3158 4.47902 18.5673C2.20532 19.1517 0.953125 20.3981 0.953125 22.0771V28.7303C0.953125 29.041 1.20498 29.2928 1.51562 29.2928H10.1139V34.875C10.1139 35.1856 10.3658 35.4375 10.6764 35.4375H25.3244C25.6351 35.4375 25.8869 35.1856 25.8869 34.875V29.2927H34.4852C34.7959 29.2927 35.0477 29.0409 35.0477 28.7302V22.0771C35.0477 20.4023 33.7609 19.1225 31.5173 18.5661ZM27.1613 10.6448C28.1821 10.6448 29.8946 11.0173 29.8946 13.512C29.8946 15.5904 28.6685 17.2812 27.1613 17.2812C25.654 17.2812 24.4279 15.5903 24.4279 13.512C24.4279 12.6734 24.6219 12.0755 24.9177 11.65C24.9426 11.6222 24.9644 11.5926 24.9827 11.5617C25.5724 10.7984 26.5081 10.6448 27.1613 10.6448ZM15.2671 4.5547C15.2671 2.06002 16.9796 1.6875 18.0005 1.6875C19.0213 1.6875 20.7338 2.06002 20.7338 4.5547C20.7338 6.63307 19.5077 8.32395 18.0005 8.32395C16.4932 8.32395 15.2671 6.63307 15.2671 4.5547ZM13.9199 10.6995C16.579 10.0158 19.3263 10.0162 22.0858 10.7007C22.7553 10.8668 23.3256 11.1081 23.7631 11.4071C23.4638 11.994 23.303 12.7022 23.303 13.512C23.303 15.5854 24.3252 17.3605 25.7635 18.0724C24.7673 18.1508 23.7786 18.3158 22.8006 18.5673C22.4461 18.6584 22.1143 18.7673 21.8067 18.8923C21.5276 16.8822 20.1231 15.6646 18.0005 15.6646C15.8798 15.6646 14.476 16.8799 14.1951 18.8868C13.8851 18.7618 13.5515 18.6543 13.1957 18.5661C12.2043 18.3201 11.2138 18.1574 10.2277 18.0773C11.6712 17.3687 12.6981 15.5901 12.6981 13.512C12.6981 12.7045 12.5382 11.9981 12.2405 11.4123C12.6768 11.1157 13.2477 10.8723 13.9199 10.6995ZM15.2671 19.6567C15.2671 17.162 16.9796 16.7896 18.0005 16.7896C19.0213 16.7896 20.7338 17.162 20.7338 19.6567C20.7338 21.7351 19.5077 23.4259 18.0005 23.4259C16.4932 23.4259 15.2671 21.735 15.2671 19.6567ZM6.10633 13.512C6.10633 11.0173 7.81879 10.6447 8.83966 10.6447C9.49356 10.6447 10.4308 10.7987 11.0203 11.5644C11.0385 11.5951 11.0601 11.6244 11.0847 11.652C11.3796 12.0774 11.573 12.6747 11.573 13.512C11.573 15.5903 10.3469 17.2811 8.83966 17.2811C7.33244 17.2811 6.10633 15.5903 6.10633 13.512ZM2.0782 22.0771C2.0782 20.6461 3.53605 19.9711 4.75914 19.6568C7.41815 18.9729 10.1654 18.9734 12.925 19.658C13.3877 19.7727 13.8008 19.9228 14.159 20.1044C14.294 21.9829 15.2691 23.5569 16.6026 24.217C15.6065 24.2955 14.6177 24.4605 13.6399 24.712C13.5578 24.7331 13.4775 24.7553 13.3981 24.7781V23.6066C13.3981 23.2959 13.1462 23.0441 12.8356 23.0441C12.5249 23.0441 12.2731 23.2959 12.2731 23.6066V25.1999C10.8895 25.8652 10.1361 26.8889 10.1153 28.1678H5.40623V23.6066C5.40623 23.2959 5.15437 23.0441 4.84373 23.0441C4.53309 23.0441 4.28123 23.2959 4.28123 23.6066V28.1678H2.0782V22.0771ZM24.762 34.3125H22.5588V29.7513C22.5588 29.4406 22.307 29.1888 21.9963 29.1888C21.6857 29.1888 21.4338 29.4406 21.4338 29.7513V34.3125H14.567V29.7513C14.567 29.4406 14.3152 29.1888 14.0045 29.1888C13.6939 29.1888 13.442 29.4406 13.442 29.7513V34.3125H11.239V28.2218C11.239 26.7909 12.6969 26.1159 13.9199 25.8015C16.579 25.1177 19.3263 25.1182 22.0858 25.8027C23.0852 26.0506 24.762 26.6946 24.762 28.2218V34.3125ZM33.9227 28.1677H31.7196V23.6065C31.7196 23.2959 31.4678 23.044 31.1571 23.044C30.8465 23.044 30.5946 23.2959 30.5946 23.6065V28.1677H25.8857C25.8644 26.8965 25.0965 25.8574 23.7278 25.1959V23.6065C23.7278 23.2959 23.476 23.044 23.1653 23.044C22.8547 23.044 22.6028 23.2959 22.6028 23.6065V24.7763C22.5219 24.7536 22.4401 24.7315 22.3565 24.7108C21.3651 24.4647 20.3746 24.302 19.3885 24.222C20.7254 23.5657 21.7043 21.9914 21.8416 20.1114C22.1994 19.9296 22.6142 19.7767 23.0807 19.6568C25.7398 18.973 28.4872 18.9735 31.2465 19.658C32.246 19.9059 33.9227 20.5499 33.9227 22.0771V28.1677Z" fill="#7D27E0"/>
</g>
<defs>
<clipPath id="clip0_89_2539">
<rect width="36" height="36" fill="white"/>
</clipPath>
</defs>
</svg>
