<svg width="36" height="36" viewBox="0 0 36 36" fill="none" xmlns="http://www.w3.org/2000/svg">
<g clip-path="url(#clip0_89_2541)">
<path d="M17.9792 0.00146484C17.3339 0.00146484 16.6891 0.0361548 16.0474 0.105309C15.4594 0.165379 14.8785 0.263892 14.3054 0.38343C14.1945 0.406632 14.0836 0.43111 13.9727 0.456714C10.5962 1.22545 7.51318 2.95176 5.09322 5.42864C4.86819 5.65931 4.64788 5.89681 4.43246 6.14106C-2.10457 13.6458 -1.32007 25.0289 6.18475 31.566C13.3696 37.8243 24.1847 37.4079 30.8671 30.6157C31.0926 30.385 31.3128 30.1475 31.5279 29.9032C34.4128 26.6179 36.0026 22.3944 36 18.0222C36 8.06951 27.9318 0.00138976 17.9792 0.00146484ZM5.89394 6.32968C5.98885 6.23117 6.08737 6.13686 6.18408 6.04135C6.2958 5.93142 6.40693 5.82089 6.52106 5.71457C6.62138 5.62086 6.7247 5.53076 6.82742 5.43945C6.94335 5.33674 7.05868 5.23402 7.17762 5.1349C7.28214 5.0466 7.38967 4.9619 7.49659 4.87661C7.61673 4.7805 7.73687 4.68438 7.86061 4.59188C7.96993 4.50958 8.08106 4.42969 8.19279 4.3516C8.31713 4.2627 8.44208 4.17139 8.56882 4.0885C8.68235 4.01161 8.79709 3.93712 8.91242 3.86324C9.04097 3.78094 9.17012 3.69985 9.30047 3.62296C9.41783 3.55291 9.53594 3.48398 9.65487 3.41632C9.78785 3.34064 9.92136 3.26675 10.0555 3.19467C10.1757 3.13062 10.2958 3.06792 10.416 3.00665C10.5529 2.93757 10.6911 2.8709 10.8298 2.80542C10.95 2.74835 11.0749 2.69129 11.1987 2.63723C11.3398 2.57716 11.4828 2.51709 11.6257 2.45702C11.7501 2.40596 11.8738 2.3561 11.9994 2.30805C12.1447 2.25278 12.2919 2.20112 12.4391 2.14946C12.5646 2.10561 12.6902 2.06176 12.8175 2.02032C12.9671 1.97226 13.1179 1.92781 13.2692 1.88396C13.396 1.84732 13.5215 1.80947 13.6489 1.77523C13.6975 1.76262 13.7462 1.75241 13.7948 1.73979C12.0168 3.46626 10.6973 5.60892 9.95582 7.97377C8.53008 7.59774 7.14984 7.06658 5.83988 6.38975C5.8597 6.36872 5.87652 6.3477 5.89394 6.32968ZM5.03015 7.29679C6.47308 8.0786 8.0032 8.68755 9.5888 9.11088C8.8115 11.8137 8.40348 14.6092 8.376 17.4215H1.1737C1.30458 13.713 2.66072 10.1526 5.03015 7.29679ZM5.03015 28.7475C2.66087 25.8917 1.30473 22.3312 1.1737 18.6228H8.376C8.40348 21.4351 8.81143 24.2306 9.5888 26.9334C8.00327 27.3569 6.47316 27.9658 5.03015 28.7475ZM13.6453 34.2715C13.5239 34.2408 13.3984 34.2012 13.2734 34.1645C13.1215 34.1201 12.9689 34.0756 12.8187 34.027C12.692 33.9861 12.567 33.9423 12.4421 33.8984C12.2943 33.8474 12.1465 33.7951 12.0006 33.7393C11.8756 33.6918 11.7525 33.6419 11.6287 33.5915C11.4852 33.5314 11.3416 33.4713 11.1993 33.4113C11.0767 33.3572 10.9548 33.3016 10.8334 33.2443C10.6935 33.1782 10.5541 33.1109 10.4129 33.0413C10.2928 32.9812 10.1727 32.9211 10.0525 32.8556C9.91678 32.783 9.78222 32.7085 9.64767 32.6316C9.52753 32.5649 9.4134 32.4964 9.29746 32.4267C9.16531 32.3475 9.03556 32.2658 8.90581 32.1823C8.79168 32.1096 8.67755 32.0357 8.56522 31.96C8.43727 31.8735 8.31053 31.7834 8.18498 31.6933C8.07506 31.6146 7.96513 31.5359 7.857 31.453C7.73266 31.3593 7.61072 31.2626 7.48938 31.1653C7.38306 31.0806 7.27734 30.9965 7.17342 30.9094C7.05328 30.8097 6.93734 30.7058 6.82081 30.6024C6.71869 30.5117 6.61597 30.4222 6.51626 30.3297C6.40153 30.2228 6.2904 30.1117 6.17867 30.0018C6.08196 29.9062 5.98345 29.8119 5.88854 29.714C5.87112 29.6954 5.8543 29.6762 5.83688 29.6582C7.14676 28.981 8.527 28.4496 9.95282 28.0735C10.6944 30.4383 12.0139 32.5809 13.7918 34.3075C13.7432 34.2949 13.6939 34.2847 13.6453 34.2715ZM17.3786 34.7941C14.8082 34.4289 12.555 31.7462 11.1374 27.7846C13.1869 27.3257 15.2785 27.0795 17.3786 27.0499V34.7941ZM17.3786 25.8486C15.1508 25.8778 12.9323 26.1425 10.7601 26.6379C10.0059 24.0319 9.60802 21.3356 9.57739 18.6228H17.3786V25.8486ZM17.3786 17.4215H9.57739C9.60795 14.7087 10.0058 12.0125 10.7601 9.40642C12.9323 9.90177 15.1508 10.1664 17.3786 10.1957V17.4215ZM17.3786 8.99435C15.2784 8.96507 13.1869 8.71886 11.1374 8.2597C12.555 4.29814 14.8082 1.61545 17.3786 1.25023V8.99435ZM30.9284 7.29679C33.2977 10.1526 34.6538 13.7131 34.7848 17.4215H27.5825C27.555 14.6092 27.1471 11.8137 26.3697 9.11088C27.9553 8.68732 29.4854 8.07844 30.9284 7.29679ZM22.3085 1.77223C22.4346 1.80347 22.5601 1.84311 22.6851 1.87975C22.8371 1.92421 22.9896 1.96866 23.1398 2.01731C23.2666 2.05816 23.3915 2.10201 23.5164 2.14586C23.6642 2.19692 23.812 2.24918 23.958 2.30504C24.0829 2.3525 24.206 2.40236 24.3298 2.45281C24.4734 2.51288 24.6169 2.57295 24.7593 2.63302C24.8818 2.68708 25.0038 2.74272 25.1251 2.80001C25.2651 2.86609 25.4044 2.93337 25.5456 3.00305C25.6657 3.06312 25.7859 3.12319 25.906 3.18866C26.0418 3.26135 26.1763 3.33583 26.3109 3.41272C26.431 3.4794 26.5451 3.54788 26.6611 3.61756C26.7932 3.69685 26.923 3.77854 27.0527 3.86204C27.1669 3.93472 27.281 4.00861 27.3933 4.08429C27.5213 4.17079 27.6474 4.2603 27.773 4.3504C27.8835 4.42909 27.9934 4.50838 28.1021 4.59068C28.2259 4.68378 28.3472 4.7805 28.4692 4.87781C28.5749 4.9619 28.6812 5.046 28.7851 5.1337C28.9053 5.23342 29.0212 5.33734 29.1377 5.44066C29.2398 5.53136 29.3426 5.62086 29.4423 5.71337C29.557 5.82029 29.6681 5.93142 29.7799 6.04135C29.8766 6.13686 29.9751 6.23117 30.07 6.32908C30.0874 6.3477 30.1042 6.36692 30.1217 6.38494C28.8118 7.06207 27.4315 7.59346 26.0057 7.96957C25.2627 5.60449 23.9415 3.46205 22.1619 1.73619C22.2105 1.7488 22.2598 1.75901 22.3085 1.77223ZM18.58 1.25023C21.1503 1.61545 23.4035 4.29814 24.8211 8.2597C22.7716 8.71863 20.6801 8.96484 18.58 8.99435V1.25023ZM18.58 10.1957C20.8078 10.1665 23.0262 9.90185 25.1984 9.40642C25.9526 12.0125 26.3505 14.7087 26.3811 17.4215H18.58V10.1957ZM18.58 18.6228H26.3811C26.3506 21.3356 25.9527 24.0319 25.1984 26.6379C23.0262 26.1425 20.8078 25.8779 18.58 25.8486V18.6228ZM18.58 34.7941V27.0499C20.6801 27.0792 22.7716 27.3254 24.8211 27.7846C23.4035 31.7462 21.1503 34.4289 18.58 34.7941ZM30.0646 29.7146C29.9697 29.8125 29.8718 29.9068 29.7751 30.0024C29.6633 30.1123 29.5516 30.2234 29.4369 30.3303C29.3372 30.4234 29.2344 30.5105 29.1323 30.6036C29.0158 30.707 28.8999 30.8103 28.7809 30.91C28.6758 30.9977 28.5689 31.0824 28.4619 31.1677C28.3418 31.2638 28.2217 31.3599 28.0979 31.4524C27.9886 31.5347 27.8775 31.6146 27.7657 31.6927C27.6414 31.7816 27.5165 31.8729 27.3897 31.9558C27.2762 32.0327 27.1614 32.1072 27.0461 32.1805C26.9176 32.2634 26.788 32.3435 26.6575 32.4207C26.5373 32.491 26.4226 32.5595 26.3043 32.6274C26.1713 32.7031 26.0376 32.7769 25.903 32.849C25.7829 32.9131 25.6627 32.9758 25.5426 33.037C25.4056 33.1061 25.2675 33.1728 25.1287 33.2383C25.0086 33.2953 24.8836 33.3524 24.7599 33.4065C24.6187 33.4665 24.4758 33.5266 24.3328 33.5867C24.2084 33.6371 24.0847 33.6876 23.9598 33.7351C23.8132 33.7909 23.666 33.8432 23.5182 33.8942C23.3933 33.9381 23.2684 33.9819 23.1416 34.0228C22.9914 34.0714 22.8413 34.1159 22.6881 34.1597C22.5625 34.197 22.4364 34.2342 22.3097 34.2685C22.261 34.2811 22.2123 34.2913 22.1637 34.3039C23.9417 32.5774 25.2612 30.4348 26.0027 28.0699C27.4285 28.446 28.8087 28.9771 30.1187 29.654C30.0988 29.6756 30.082 29.6966 30.0646 29.7146ZM30.9284 28.7475C29.4855 27.9657 27.9553 27.3568 26.3697 26.9334C27.147 24.2306 27.555 21.4351 27.5825 18.6228H34.7848C34.654 22.3312 33.2978 25.8917 30.9284 28.7475Z" fill="#D4AF36"/>
</g>
<defs>
<clipPath id="clip0_89_2541">
<rect width="36" height="36" fill="white"/>
</clipPath>
</defs>
</svg>
