<svg width="36" height="36" viewBox="0 0 36 36" fill="none" xmlns="http://www.w3.org/2000/svg">
<g clip-path="url(#clip0_89_2585)">
<path d="M35.7735 22.176C34.9336 21.3361 33.895 20.8373 32.8359 20.7623V8.51367C32.8359 8.08652 32.4896 7.74023 32.0625 7.74023H27.3301C26.903 7.74023 26.5567 8.08652 26.5567 8.51367V25.0942L24.5466 27.1043C24.6198 26.8638 24.6592 26.6088 24.6592 26.3448C24.6592 25.8657 24.5296 25.4164 24.3037 25.0299V12.9434C24.3037 12.5162 23.9574 12.1699 23.5302 12.1699H18.7978C18.3707 12.1699 18.0244 12.5162 18.0244 12.9434V23.731H17.6903C17.0631 23.3746 16.4189 23.1077 15.7714 22.9334V16.0371C15.7714 15.61 15.4252 15.2637 14.998 15.2637H10.2656C9.83848 15.2637 9.49219 15.61 9.49219 16.0371V24.5562C9.3498 24.691 9.20988 24.8331 9.07242 24.9823H7.45312C7.02598 24.9823 6.67969 25.3286 6.67969 25.7558C6.67969 26.1829 7.02598 26.5292 7.45312 26.5292H9.42047C9.64702 26.5292 9.86217 26.4299 10.0091 26.2575C12.7241 23.0719 15.8607 24.434 17.0833 25.1676C17.2034 25.2397 17.341 25.2778 17.4812 25.2778H22.0454C22.6337 25.2778 23.1123 25.7564 23.1123 26.3447C23.1123 26.9329 22.6337 27.4116 22.0454 27.4116H17.4812C17.054 27.4116 16.7077 27.7579 16.7077 28.185C16.7077 28.6121 17.054 28.9584 17.4812 28.9584H24.5596C24.7647 28.9584 24.9614 28.8769 25.1065 28.7319L30.7602 23.0782C31.296 22.5424 31.9496 22.2732 32.65 22.301C33.1453 22.3204 33.6449 22.4928 34.1042 22.797L25.5398 32.0528C25.3057 32.3059 24.9798 32.3436 24.8063 32.3436L7.45312 32.3438C7.02598 32.3438 6.67969 32.6901 6.67969 33.1173C6.67969 33.5444 7.02598 33.8907 7.45312 33.8907L24.8064 33.8905C25.5313 33.8905 26.2124 33.6036 26.6753 33.1034L35.7943 23.2482C36.0764 22.9433 36.0673 22.4698 35.7735 22.176ZM13.4672 22.7112C12.6084 22.7811 11.7974 23.0207 11.0391 23.427V16.8105H14.2246V22.6952C13.9707 22.6856 13.718 22.6909 13.4672 22.7112ZM19.5713 23.731V13.7168H22.7568V23.8294C22.5305 23.7654 22.2919 23.7311 22.0454 23.7311L19.5713 23.731ZM29.6665 21.9845L28.1036 23.5473V9.28711H31.2891V20.9621C30.6938 21.1644 30.1408 21.5102 29.6665 21.9845Z" fill="#7E74DD"/>
<path d="M7.10156 22.873H0.773438C0.346289 22.873 0 23.2193 0 23.6465V35.2267C0 35.6539 0.346289 36.0002 0.773438 36.0002H7.10156C7.52871 36.0002 7.875 35.6539 7.875 35.2267V23.6465C7.875 23.2193 7.52871 22.873 7.10156 22.873ZM6.32812 34.4533H1.54688V24.4199H6.32812V34.4533Z" fill="#7E74DD"/>
<path d="M29.6972 0H26.7294C26.3023 0 25.956 0.346289 25.956 0.773438C25.956 1.20059 26.3023 1.54688 26.7294 1.54688H27.8299L23.0198 6.35702L20.5209 3.85805C20.2188 3.55598 19.7292 3.55598 19.4271 3.85805L12.0859 11.1993C11.7839 11.5014 11.7839 11.9911 12.0859 12.2932C12.2369 12.4442 12.4348 12.5197 12.6328 12.5197C12.8307 12.5197 13.0286 12.4442 13.1797 12.2932L19.9739 5.49886L22.4729 7.99784C22.7749 8.29983 23.2646 8.29983 23.5667 7.99784L28.9237 2.6408V3.74126C28.9237 4.16841 29.27 4.5147 29.6972 4.5147C30.1243 4.5147 30.4706 4.16841 30.4706 3.74126V0.773438C30.4706 0.346289 30.1244 0 29.6972 0Z" fill="#7E74DD"/>
</g>
<defs>
<clipPath id="clip0_89_2585">
<rect width="36" height="36" fill="white"/>
</clipPath>
</defs>
</svg>
