<svg width="36" height="36" viewBox="0 0 36 36" fill="none" xmlns="http://www.w3.org/2000/svg">
<g clip-path="url(#clip0_89_2562)">
<path d="M20.5194 35.6399H15.3354C15.0474 35.6399 14.8314 35.4239 14.8314 35.1359L14.3994 31.7519C13.1754 31.3919 11.9514 30.8879 10.7994 30.2399L8.06337 32.3279C7.84737 32.4719 7.55937 32.4719 7.34337 32.2559L3.67137 28.5839C3.45537 28.3679 3.45537 28.0799 3.59937 27.8639L5.68738 25.1999C4.96737 24.0479 4.46338 22.8239 4.17537 21.5999L0.791375 21.1679C0.503375 21.1679 0.359375 20.8799 0.359375 20.6639V15.4799C0.359375 15.1919 0.575375 14.9759 0.791375 14.9759L4.17537 14.3999C4.53538 13.1759 5.03937 11.9519 5.68738 10.7999L3.67137 7.99186C3.52737 7.77586 3.52737 7.48786 3.74337 7.27186L7.41537 3.59986C7.63137 3.38386 7.91937 3.38386 8.13538 3.52786L10.7994 5.68786C11.9514 4.96786 13.1754 4.46386 14.3994 4.17586L14.8314 0.791863C14.8314 0.503863 15.1194 0.359863 15.3354 0.359863H20.5194C20.8074 0.359863 21.0234 0.575863 21.0234 0.791863L21.5994 4.17586C22.8234 4.53586 24.0474 5.03986 25.1994 5.68786L27.9354 3.67186C28.1514 3.52786 28.4394 3.52786 28.6554 3.74386L32.3274 7.41586C32.5434 7.63186 32.5434 7.91986 32.3994 8.13586L30.2394 10.7999C30.9594 11.9519 31.4634 13.1759 31.7514 14.3999L35.1354 14.8319C35.4234 14.8319 35.6394 15.1199 35.6394 15.3359V20.5199C35.6394 20.8079 35.4234 21.0239 35.1354 21.0239L31.7514 21.5999C31.4634 22.8959 30.9594 24.1199 30.3114 25.1999L32.2554 27.9359C32.3994 28.1519 32.3994 28.4399 32.1834 28.6559L28.5114 32.3279C28.2954 32.5439 28.0074 32.5439 27.7914 32.3999L25.1274 30.2399C23.9754 30.9599 22.7514 31.4639 21.5274 31.7519L21.0954 35.1359C21.0234 35.4239 20.8074 35.6399 20.5194 35.6399ZM15.8394 34.5599H20.0874L20.5194 31.3199C20.5194 31.1039 20.7354 30.8879 20.9514 30.8879C22.3194 30.5999 23.6154 30.0959 24.8394 29.2319C25.0554 29.0879 25.2714 29.0879 25.4874 29.2319L28.1514 31.2479L31.1754 28.2239L29.3034 25.5599C29.1594 25.4159 29.1594 25.1279 29.3034 24.9839C30.0234 23.8319 30.5994 22.4639 30.8874 21.0959C30.9594 20.8799 31.1034 20.6639 31.3194 20.6639L34.5594 20.2319V15.9839L31.3194 15.5519C31.1034 15.5519 30.8874 15.3359 30.8874 15.1199C30.5994 13.7519 30.0954 12.4559 29.2314 11.2319C29.0874 11.0159 29.0874 10.7999 29.2314 10.5839L31.2474 7.91986L28.2234 4.89586L25.5594 6.83986C25.4154 6.98386 25.1274 6.98386 24.9834 6.83986C23.7594 6.04786 22.3914 5.54386 21.0234 5.18386C20.8074 5.11186 20.6634 4.96786 20.5914 4.75186L20.0874 1.43986H15.8394L15.4074 4.67986C15.4074 4.89586 15.1914 5.11186 14.9754 5.11186C13.6074 5.39986 12.3114 5.90386 11.0874 6.76786C10.8714 6.91186 10.6554 6.91186 10.4394 6.76786L7.77537 4.75186L4.75137 7.77586L6.69537 10.5119C6.83938 10.6559 6.83938 10.9439 6.69537 11.0879C5.90337 12.3119 5.39937 13.6799 5.03937 15.0479C4.96737 15.2639 4.82337 15.4079 4.60737 15.4799L1.43937 15.9119V20.1599L4.67937 20.5919C4.89537 20.5919 5.11137 20.8079 5.11137 21.0239C5.39937 22.3919 5.90337 23.6879 6.76737 24.9119C6.91137 25.1279 6.91137 25.3439 6.76737 25.5599L4.75137 28.2239L7.77537 31.2479L10.4394 29.2319C10.5834 29.0879 10.8714 29.0879 11.0154 29.2319C12.2394 30.0239 13.6074 30.5279 14.9754 30.8879C15.1914 30.9599 15.3354 31.1039 15.4074 31.3199L15.8394 34.5599Z" fill="#3E9F21"/>
<path d="M17.9974 27.504C17.8534 27.504 17.6374 27.432 17.5654 27.288L9.71738 16.272C9.57338 16.056 9.57338 15.84 9.71738 15.624L12.3814 11.592C12.4534 11.448 12.6694 11.376 12.8134 11.376H23.1814C23.3974 11.376 23.5414 11.448 23.6134 11.592L26.2774 15.624C26.4214 15.84 26.4214 16.056 26.2774 16.272L18.4294 27.216C18.3574 27.36 18.1414 27.504 17.9974 27.504ZM10.7974 15.984L17.9974 25.992L25.1974 15.984L22.8934 12.528H13.1014L10.7974 15.984Z" fill="#3E9F21"/>
<path d="M17.9983 27.5038C17.7823 27.5038 17.5663 27.3598 17.4943 27.0718L14.6863 16.1278C14.6143 15.8398 14.7583 15.5518 15.0463 15.4798C15.3343 15.4078 15.6223 15.5518 15.6943 15.8398L17.9983 24.7678L20.3023 15.8398C20.3743 15.5518 20.6623 15.4078 20.9503 15.4798C21.2383 15.5518 21.3823 15.8398 21.3103 16.1278L18.5023 27.0718C18.4303 27.2878 18.2143 27.5038 17.9983 27.5038Z" fill="#3E9F21"/>
<path d="M25.8462 16.5602H10.1502C9.86222 16.5602 9.57422 16.3442 9.57422 15.9842C9.57422 15.6242 9.79022 15.4082 10.1502 15.4082H25.8462C26.1342 15.4082 26.4222 15.6242 26.4222 15.9842C26.4222 16.3442 26.1342 16.5602 25.8462 16.5602Z" fill="#3E9F21"/>
<path d="M15.1886 16.5598C14.9726 16.5598 14.8286 16.4878 14.7566 16.2718L12.3806 12.2398C12.2366 11.9518 12.3086 11.6638 12.5966 11.5198C12.8846 11.3758 13.1726 11.4478 13.3166 11.7358L15.2606 15.0478L17.5646 11.7358C17.7806 11.4478 18.2126 11.4478 18.4286 11.7358L20.7326 15.0478L22.6766 11.7358C22.8206 11.4478 23.1806 11.3758 23.3966 11.5198C23.6846 11.6638 23.7566 12.0238 23.6126 12.2398L21.2366 16.2718C21.1646 16.4158 20.9486 16.5598 20.8046 16.5598C20.5886 16.5598 20.4446 16.4878 20.3726 16.3438L17.9966 12.8878L15.6206 16.2718C15.5486 16.4158 15.3326 16.5598 15.1886 16.5598Z" fill="#3E9F21"/>
<path d="M18.0005 29.52C11.6645 29.52 6.48047 24.336 6.48047 18C6.48047 11.664 11.6645 6.47998 18.0005 6.47998C24.3365 6.47998 29.5205 11.664 29.5205 18C29.5205 24.336 24.3365 29.52 18.0005 29.52ZM18.0005 7.55998C12.2405 7.55998 7.56047 12.24 7.56047 18C7.56047 23.76 12.2405 28.44 18.0005 28.44C23.7605 28.44 28.4405 23.76 28.4405 18C28.4405 12.24 23.7605 7.55998 18.0005 7.55998Z" fill="#3E9F21"/>
</g>
<defs>
<clipPath id="clip0_89_2562">
<rect width="36" height="36" fill="white"/>
</clipPath>
</defs>
</svg>
