<svg width="36" height="36" viewBox="0 0 36 36" fill="none" xmlns="http://www.w3.org/2000/svg">
<g clip-path="url(#clip0_89_2555)">
<path d="M19.4301 14.2057L17.7932 12.8223L18.0049 10.6896C18.0282 10.4541 17.918 10.2301 17.7171 10.1048C17.5163 9.97968 17.2665 9.97933 17.0653 10.1041L15.2438 11.2333L13.281 10.373C13.0641 10.2779 12.817 10.3135 12.6358 10.4659C12.4546 10.6183 12.3772 10.8558 12.4337 11.0856L12.9448 13.1669L11.5201 14.7678C11.3627 14.9446 11.3201 15.1907 11.409 15.4101C11.4979 15.6295 11.6998 15.7766 11.9359 15.7939L14.0733 15.951L15.1557 17.8009C15.2676 17.9921 15.4684 18.1063 15.6873 18.1063C15.7022 18.1063 15.7172 18.1058 15.7322 18.1048C15.9682 18.088 16.1704 17.9415 16.26 17.7223L17.0698 15.738L19.1639 15.2802C19.395 15.2295 19.5739 15.0553 19.6308 14.8256C19.6877 14.596 19.6108 14.3585 19.4301 14.2057ZM16.6235 14.7609C16.4249 14.8044 16.2605 14.9427 16.1838 15.1307L15.6192 16.514L14.8644 15.2241C14.7618 15.0491 14.5798 14.9357 14.3771 14.9206L12.887 14.8111L13.8804 13.6948C14.0154 13.543 14.067 13.3347 14.0186 13.1374L13.6623 11.6864L15.0303 12.286C15.2164 12.3678 15.4306 12.3526 15.6037 12.2454L16.8736 11.4581L16.7261 12.9449C16.706 13.1471 16.7867 13.3462 16.9419 13.4774L18.0831 14.4418L16.6235 14.7609Z" fill="#DB324C"/>
<path d="M34.5889 27.1998L32.8392 25.6543C32.3929 25.2602 31.7128 25.252 31.2571 25.6351L31.1786 25.7011C31.1013 25.4224 30.9599 25.1586 30.7526 24.9353C30.4993 24.6624 30.1776 24.4757 29.8232 24.3918C30.0276 23.764 29.8955 23.0465 29.4155 22.5293C29.074 22.1615 28.6098 21.9488 28.1083 21.9303C28.0932 21.9297 28.0783 21.9299 28.0632 21.9297C28.0862 21.4429 27.9218 20.9476 27.5649 20.563C27.2277 20.1997 26.7706 19.9881 26.2761 19.965C26.3207 19.4543 26.158 18.9274 25.7826 18.523C25.4412 18.1552 24.977 17.9424 24.4755 17.9239C23.9739 17.905 23.4954 18.0833 23.1277 18.4248L22.8785 18.6562C22.5165 18.395 22.0835 18.2466 21.6236 18.2315C21.5656 18.2295 21.508 18.2304 21.4507 18.2326L21.6374 17.6094C21.9723 16.4917 22.1807 14.4656 22.1745 14.5743C22.1926 14.583 22.2103 14.592 22.2288 14.6003C22.4857 14.7149 22.7626 14.7718 23.0383 14.7718C23.3543 14.7718 23.6689 14.6969 23.95 14.5481C24.5352 14.2383 24.9505 13.5907 24.9836 12.9366C25.015 12.3141 24.7219 11.7645 24.1583 11.3888C23.917 11.2282 23.5911 11.2933 23.4303 11.5345C23.2696 11.7757 23.3348 12.1016 23.5761 12.2624C23.8267 12.4294 23.9475 12.6384 23.9351 12.8836C23.9205 13.172 23.7202 13.4818 23.4588 13.6202C23.2191 13.7472 22.9117 13.7553 22.6565 13.6413C22.4935 13.5687 22.2822 13.4141 22.2013 13.0904C21.9605 12.1265 22.5127 11.1698 23.1521 10.0621C24.3102 8.05558 25.7515 5.55857 22.7345 1.99261L21.4851 0.515761C21.2334 0.218269 20.881 0.0369332 20.4927 0.00501134C20.1045 -0.0269105 19.7272 0.0944488 19.4303 0.346871C18.6253 1.03136 18.2068 2.06784 18.3107 3.11936L18.3731 3.75021C18.4051 4.07371 18.2805 4.39153 18.0407 4.60907L18.7172 5.41345C19.222 4.97259 19.4839 4.31503 19.4178 3.64692L19.3554 3.01607C19.2853 2.30704 19.5675 1.60821 20.1103 1.14668C20.1931 1.07629 20.298 1.04226 20.4067 1.05133C20.5149 1.06019 20.6132 1.11082 20.6835 1.19378L21.9329 2.67063C24.4731 5.67304 23.3897 7.55011 22.2427 9.53721C22.0633 9.84806 21.8825 10.1618 21.7188 10.4799C21.2851 8.98926 20.5591 7.6034 19.5553 6.40999L17.1527 3.5534L17.1662 3.54208C17.359 3.37994 17.4772 3.15248 17.4988 2.90153C17.5205 2.65052 17.4431 2.40618 17.281 2.21346L16.5133 1.30073C16.3512 1.10793 16.1237 0.989808 15.8728 0.968152C15.6218 0.946566 15.3775 1.02377 15.1846 1.18591L3.05312 11.3892C2.65522 11.7238 2.60375 12.3198 2.93837 12.7178L3.70604 13.6305C3.86818 13.8233 4.09565 13.9414 4.34666 13.9631C4.37436 13.9655 4.40193 13.9667 4.42935 13.9667C4.6509 13.9667 4.86325 13.8896 5.03467 13.7453L5.04824 13.7338L5.95056 14.8067C5.69645 15.0025 5.36528 15.0698 5.0545 14.9847L4.44327 14.8169C3.42444 14.5372 2.33214 14.775 1.52172 15.4532C1.22296 15.7033 1.03965 16.0546 1.00569 16.4428C0.971661 16.8309 1.09105 17.2088 1.34186 17.507L2.58702 18.9874C5.59351 22.5622 8.2978 21.5625 10.4707 20.7591C11.4514 20.3965 12.3227 20.0745 13.105 20.1874C13.2502 20.2283 13.3963 20.2669 13.5435 20.3025C13.5678 20.312 13.592 20.3217 13.6161 20.3323C13.9215 20.4664 14.0383 20.7008 14.0825 20.8737C14.1517 21.1444 14.0918 21.446 13.9263 21.661C13.7459 21.8953 13.4068 22.0402 13.12 22.0063C12.8762 21.9772 12.6906 21.8229 12.5682 21.5477C12.4504 21.2828 12.1402 21.1637 11.8752 21.2814C11.6103 21.3992 11.491 21.7094 11.6088 21.9744C11.8841 22.5933 12.3766 22.9748 12.9954 23.0487C13.0637 23.0569 13.1326 23.0609 13.2017 23.0609C13.791 23.0608 14.3965 22.771 14.758 22.3015C15.1213 21.8297 15.249 21.1987 15.0995 20.6137C15.096 20.6004 15.0919 20.5874 15.0882 20.5742C15.5656 20.6279 16.0499 20.6562 16.5395 20.6562C17.0639 20.6562 17.5943 20.6249 18.1274 20.5612L18.1739 20.5557C17.9348 20.8409 17.7487 21.1687 17.6284 21.5199L15.5649 26.5955L4.55809 35.059C4.37992 35.1959 4.30869 35.4313 4.38111 35.644C4.45347 35.8569 4.65329 36 4.87808 36H17.3496C17.4912 36 17.6268 35.9428 17.7256 35.8414L18.4202 35.1282C18.6225 34.9205 18.6181 34.5881 18.4104 34.3859C18.2027 34.1836 17.8704 34.1879 17.6681 34.3956L17.1281 34.9502H6.422L16.3179 27.3412C16.3252 27.3356 16.3318 27.3294 16.3387 27.3235C16.3434 27.3195 16.3482 27.3157 16.3528 27.3114C16.3695 27.2961 16.3851 27.2799 16.3994 27.2629C16.4022 27.2595 16.4048 27.256 16.4076 27.2524C16.4207 27.2361 16.4326 27.2192 16.4435 27.2016C16.4455 27.1983 16.4478 27.1951 16.4498 27.1918C16.4621 27.1708 16.4728 27.1492 16.4821 27.127C16.4827 27.1255 16.4837 27.1242 16.4842 27.1227L18.6071 21.901C18.6112 21.891 18.615 21.8808 18.6184 21.8705C18.7215 21.5637 18.9016 21.2834 19.1391 21.0598L20.6468 19.6408C20.9057 19.3971 21.2395 19.2691 21.5889 19.2808C21.9187 19.2917 22.2219 19.4281 22.4426 19.6652L22.4987 19.7254L22.4987 19.7255L22.4988 19.7256L24.343 21.7063L24.3431 21.7065L24.3433 21.7068L24.3434 21.7068C24.3435 21.707 24.3436 21.7071 24.3437 21.7072C24.3439 21.7074 24.344 21.7075 24.3442 21.7077L24.6054 21.9883C24.7156 22.1066 24.7728 22.2628 24.7668 22.4282C24.7604 22.6058 24.6834 22.7719 24.55 22.8959L24.246 23.1783C24.0357 23.3737 23.7369 23.4106 23.5048 23.2923C23.4988 23.289 23.4925 23.2863 23.4862 23.2832C23.4324 23.2533 23.3824 23.2147 23.3385 23.1676L22.573 22.3441C22.2994 22.0498 21.9256 21.8803 21.5206 21.8668C21.1055 21.8532 20.7078 22.0037 20.4022 22.2913C20.3738 22.3181 20.3486 22.3477 20.3271 22.3796C20.2733 22.4592 20.2421 22.5524 20.2376 22.6491C20.2367 22.6684 20.2369 22.6879 20.2382 22.7074C20.2383 22.7081 20.2383 22.7088 20.2383 22.7096C20.2408 22.7494 20.2426 22.7889 20.2436 22.8281C20.2442 22.8502 20.2441 22.872 20.2442 22.894C20.2444 22.9109 20.2447 22.9278 20.2445 22.9445C20.2442 22.9725 20.2432 23.0002 20.2421 23.0279C20.2418 23.0379 20.2415 23.048 20.241 23.058C20.2395 23.0892 20.2373 23.1202 20.2348 23.151C20.2344 23.155 20.2341 23.1591 20.2338 23.1631C20.2323 23.1762 20.2311 23.1894 20.2306 23.2026C20.1816 23.6886 20.006 24.1235 19.699 24.5219C19.5221 24.7515 19.5648 25.0811 19.7945 25.258C20.024 25.4349 20.3537 25.3922 20.5306 25.1625C20.7125 24.9266 20.8616 24.678 20.9787 24.418L25.4435 30.5246L25.337 30.6142C25.2703 30.637 25.2071 30.6734 25.152 30.7242C24.781 31.0656 24.3268 31.2956 23.8372 31.3907L20.55 31.6269C20.4218 31.6361 20.3013 31.6921 20.2116 31.7842L19.3724 32.6458C19.1702 32.8535 19.1745 33.1859 19.3822 33.3882C19.4842 33.4875 19.6164 33.537 19.7484 33.537C19.885 33.537 20.0216 33.484 20.1244 33.3784L20.8243 32.6598L23.9425 32.4357C23.9485 32.4353 23.9543 32.4341 23.9602 32.4335C23.9738 32.6215 24.03 32.8079 24.1335 32.9762L25.3562 34.9649C25.5411 35.2655 25.8469 35.4702 26.1952 35.5265C26.2598 35.5369 26.3244 35.5421 26.3888 35.5421C26.672 35.5421 26.9483 35.4428 27.1684 35.2577L34.5666 29.0356C34.8366 28.8085 34.9939 28.4758 34.9983 28.1229C35.0026 27.7699 34.8534 27.4336 34.5889 27.1998ZM10.1068 19.7744C7.95461 20.5701 5.92187 21.3215 3.39062 18.3118L2.14546 16.8314C2.07557 16.7482 2.04224 16.6428 2.05173 16.5345C2.06122 16.4262 2.11234 16.3281 2.19573 16.2584C2.74213 15.8012 3.47865 15.6409 4.16561 15.8294L4.77683 15.9972C5.42061 16.1737 6.10876 16.0292 6.62739 15.6114L7.45089 16.5905C8.45706 17.7869 9.70145 18.7415 11.0998 19.4246C10.7669 19.5305 10.4354 19.6529 10.1068 19.7744ZM20.6316 17.3081L20.2352 18.6307C20.1272 18.7034 20.024 18.7851 19.9271 18.8762L19.4249 19.3489L18.003 19.5188C14.1809 19.9754 10.5363 18.628 8.25428 15.9148L5.85177 13.0582L6.78967 12.2693C7.01157 12.0827 7.04012 11.7516 6.85351 11.5297C6.66697 11.3078 6.33573 11.2791 6.11389 11.4658L4.77444 12.5923L4.77423 12.5924L4.77402 12.5926L4.44074 12.873L3.8106 12.1238L15.7788 2.05814L16.4089 2.80739L16.0761 3.0873C16.0759 3.08751 16.0756 3.08765 16.0754 3.08779C16.0752 3.08793 16.075 3.08821 16.0748 3.08836L8.0072 9.87351C7.78536 10.0602 7.75675 10.3913 7.94336 10.6131C8.1299 10.835 8.461 10.8634 8.68297 10.677L16.3494 4.2291L18.7519 7.08569C21.034 9.79912 21.7366 13.6206 20.6316 17.3081ZM29.4207 25.3918C29.6364 25.3998 29.8363 25.4913 29.9832 25.6496C30.2336 25.9195 30.2679 26.3238 30.0733 26.6307L27.7861 28.5544C27.5397 28.5751 27.3005 28.4842 27.1294 28.3C26.8263 27.9734 26.8453 27.4611 27.1716 27.1579L27.503 26.85C27.5635 26.8058 27.6221 26.7582 27.6778 26.7065L28.9579 25.5173C29.0949 25.4302 29.2544 25.3863 29.4207 25.3918ZM27.5368 23.1482C27.6809 23.0381 27.8553 22.9788 28.038 22.9788C28.0484 22.9788 28.0589 22.979 28.0694 22.9793C28.2906 22.9876 28.4953 23.0814 28.646 23.2436C28.9567 23.5782 28.9373 24.1034 28.6027 24.4141L28.3004 24.695C28.24 24.739 28.1816 24.7864 28.126 24.8381L26.8443 26.0287C26.7036 26.1189 26.5392 26.1648 26.3687 26.1582C26.1475 26.1499 25.9428 26.0561 25.7922 25.8939C25.5019 25.5812 25.5 25.1022 25.774 24.7872C25.7919 24.7718 25.8098 24.7563 25.8271 24.7402L27.4666 23.2171C27.4909 23.1946 27.5141 23.1716 27.5368 23.1482ZM24.7546 20.6079L23.6256 19.3952L23.8422 19.1939C24.0044 19.0433 24.2154 18.9663 24.4366 18.973C24.6578 18.9812 24.8626 19.075 25.0132 19.2372C25.3239 19.5719 25.3044 20.097 24.9699 20.4079L24.7546 20.6079ZM24.9605 23.9475L25.2646 23.665C25.6035 23.3502 25.7994 22.9244 25.816 22.4663C25.8304 22.0684 25.7066 21.6884 25.4659 21.3812L25.6244 21.2339C25.7866 21.0833 25.9972 21.0044 26.2188 21.013C26.44 21.0212 26.6447 21.115 26.7953 21.2772C27.0858 21.5901 27.0876 22.0693 26.8133 22.3844C26.7955 22.3997 26.7778 22.415 26.7605 22.431L25.121 23.9542C25.0967 23.9767 25.0732 23.9998 25.0505 24.0233C24.9271 24.1176 24.7813 24.174 24.6274 24.1882C24.7449 24.1223 24.8573 24.0434 24.9605 23.9475ZM21.2913 23.0667C21.2928 23.0271 21.2942 22.9876 21.2946 22.9476C21.3097 22.9419 21.3252 22.937 21.3408 22.9328C21.3877 22.9202 21.4364 22.9145 21.4856 22.9163C21.6092 22.9203 21.7223 22.9712 21.8041 23.0591L22.5696 23.8826C22.648 23.9668 22.7332 24.041 22.8237 24.1051C22.908 24.3031 23.0247 24.4831 23.1722 24.642C23.5136 25.0098 23.9778 25.2226 24.4794 25.2412C24.4945 25.2416 24.5095 25.2418 24.5245 25.242C24.5016 25.7287 24.666 26.2239 25.0228 26.6083C25.2786 26.8839 25.6033 27.0724 25.961 27.1574C25.752 27.7818 25.8813 28.4988 26.3599 29.0143C26.4935 29.1581 26.6476 29.2777 26.8153 29.3709L26.2488 29.8473L21.2913 23.0667ZM33.8908 28.232L26.4926 34.4541C26.4433 34.4957 26.3898 34.4943 26.3626 34.49C26.3353 34.4856 26.2844 34.4699 26.2506 34.415L25.0278 32.4262C24.9855 32.3574 24.9996 32.2697 25.0615 32.2176L31.9324 26.4389C31.9326 26.4386 31.9324 26.4389 31.9326 26.4386C31.9625 26.4135 31.9997 26.4009 32.0368 26.4009C32.0753 26.4009 32.1137 26.4144 32.144 26.4412L33.8937 27.9867C33.9421 28.0295 33.9488 28.0823 33.9484 28.1101C33.9482 28.1377 33.9402 28.1905 33.8908 28.232Z" fill="#DB324C"/>
</g>
<defs>
<clipPath id="clip0_89_2555">
<rect width="36" height="36" fill="white"/>
</clipPath>
</defs>
</svg>
