<svg width="36" height="36" viewBox="0 0 36 36" fill="none" xmlns="http://www.w3.org/2000/svg">
<path d="M11.3828 5.30762C11.6935 5.30762 11.9453 5.05578 11.9453 4.74512C11.9453 4.43446 11.6935 4.18262 11.3828 4.18262C11.0722 4.18262 10.8203 4.43446 10.8203 4.74512C10.8203 5.05578 11.0722 5.30762 11.3828 5.30762Z" fill="#1C1C2D"/>
<path d="M13.4219 5.30762C13.7325 5.30762 13.9844 5.05578 13.9844 4.74512C13.9844 4.43446 13.7325 4.18262 13.4219 4.18262C13.1112 4.18262 12.8594 4.43446 12.8594 4.74512C12.8594 5.05578 13.1112 5.30762 13.4219 5.30762Z" fill="#1C1C2D"/>
<path d="M15.457 5.30762C15.7677 5.30762 16.0195 5.05578 16.0195 4.74512C16.0195 4.43446 15.7677 4.18262 15.457 4.18262C15.1464 4.18262 14.8945 4.43446 14.8945 4.74512C14.8945 5.05578 15.1464 5.30762 15.457 5.30762Z" fill="#1C1C2D"/>
<path d="M8.53516 15.2184C8.68434 15.2184 8.82741 15.1592 8.9329 15.0537C9.03839 14.9482 9.09766 14.8051 9.09766 14.6559V7.05036H26.9008V14.6559C26.9008 14.8051 26.96 14.9482 27.0655 15.0537C27.171 15.1592 27.3141 15.2184 27.4633 15.2184C27.6125 15.2184 27.7555 15.1592 27.861 15.0537C27.9665 14.9482 28.0258 14.8051 28.0258 14.6559V5.67128C28.0248 4.81463 27.6841 3.99334 27.0784 3.38756C26.4726 2.78179 25.6514 2.441 24.7947 2.43994H11.2037C10.3471 2.441 9.5258 2.78179 8.92008 3.38756C8.31436 3.99334 7.97364 4.81463 7.97266 5.67128V14.6559C7.97266 14.8051 8.03192 14.9482 8.13741 15.0537C8.2429 15.1592 8.38597 15.2184 8.53516 15.2184ZM11.2037 3.56494C11.5139 3.56871 25.0152 3.56224 24.795 3.56494C25.0928 3.56787 25.3867 3.63295 25.6578 3.75603C25.929 3.8791 26.1715 4.05745 26.3697 4.27966C26.568 4.50187 26.7176 4.76303 26.8091 5.04642C26.9006 5.32981 26.9319 5.62918 26.9009 5.92536H9.09783C9.06693 5.62919 9.09822 5.32983 9.1897 5.04645C9.28119 4.76307 9.43084 4.50192 9.62908 4.27972C9.82732 4.05752 10.0698 3.87916 10.3409 3.75608C10.6121 3.63299 10.9059 3.56789 11.2037 3.56494Z" fill="#1C1C2D"/>
<path d="M5.62594 27.7088H8.53406C8.68325 27.7088 8.82632 27.6495 8.93181 27.544C9.0373 27.4385 9.09656 27.2955 9.09656 27.1463C9.09656 26.9971 9.0373 26.854 8.93181 26.7485C8.82632 26.643 8.68325 26.5838 8.53406 26.5838H5.62594C5.34796 26.5969 5.07606 26.4997 4.86952 26.3131C4.66299 26.1266 4.53858 25.866 4.52344 25.5881V11.1544C4.53858 10.8765 4.66299 10.6159 4.86952 10.4294C5.07606 10.2429 5.34796 10.1456 5.62594 10.1588H6.28406C6.43325 10.1588 6.57632 10.0995 6.68181 9.99402C6.7873 9.88853 6.84656 9.74545 6.84656 9.59627C6.84656 9.44709 6.7873 9.30401 6.68181 9.19852C6.57632 9.09303 6.43325 9.03377 6.28406 9.03377H5.62594C5.04963 9.02062 4.4916 9.23642 4.07409 9.6339C3.65657 10.0314 3.41362 10.5781 3.39844 11.1544V25.5881C3.41357 26.1644 3.65652 26.7112 4.07404 27.1087C4.49156 27.5062 5.04961 27.722 5.62594 27.7088Z" fill="#1C1C2D"/>
<path d="M29.715 10.1588H30.3731C30.6511 10.1456 30.923 10.2429 31.1295 10.4294C31.3361 10.6159 31.4605 10.8765 31.4756 11.1544V25.5881C31.4605 25.866 31.3361 26.1266 31.1295 26.3131C30.923 26.4997 30.6511 26.5969 30.3731 26.5838H10.7812C10.6321 26.5838 10.489 26.643 10.3835 26.7485C10.278 26.854 10.2188 26.9971 10.2188 27.1463C10.2188 27.2955 10.278 27.4385 10.3835 27.544C10.489 27.6495 10.6321 27.7088 10.7812 27.7088H30.3731C30.9494 27.722 31.5075 27.5062 31.925 27.1087C32.3425 26.7112 32.5855 26.1644 32.6006 25.5881V11.1544C32.5854 10.5781 32.3425 10.0314 31.925 9.6339C31.5075 9.23642 30.9494 9.02062 30.3731 9.03377H29.715C29.5658 9.03377 29.4227 9.09303 29.3173 9.19852C29.2118 9.30401 29.1525 9.44709 29.1525 9.59627C29.1525 9.74545 29.2118 9.88853 29.3173 9.99402C29.4227 10.0995 29.5658 10.1588 29.715 10.1588Z" fill="#1C1C2D"/>
<path d="M33.1875 28.9968H28.98C28.8308 28.9968 28.6877 29.056 28.5823 29.1615C28.4768 29.267 28.4175 29.4101 28.4175 29.5593C28.4175 29.7084 28.4768 29.8515 28.5823 29.957C28.6877 30.0625 28.8308 30.1218 28.98 30.1218H32.625C32.6505 30.4143 32.6151 30.7089 32.5212 30.9871C32.4272 31.2652 32.2767 31.5209 32.0791 31.7381C31.8815 31.9553 31.641 32.1292 31.3729 32.2489C31.1048 32.3686 30.8149 32.4315 30.5212 32.4336H5.47875C5.18515 32.4315 4.89517 32.3686 4.62707 32.2489C4.35897 32.1291 4.11855 31.9552 3.92094 31.7381C3.72333 31.5209 3.57281 31.2652 3.47885 30.987C3.3849 30.7089 3.34954 30.4143 3.375 30.1218H13.7708C13.8848 30.4724 14.1042 30.7794 14.399 31.0008C14.6938 31.2223 15.0497 31.3474 15.4182 31.3593H20.582C20.9505 31.3475 21.3065 31.2224 21.6013 31.0009C21.8961 30.7795 22.1155 30.4724 22.2294 30.1218H26.73C26.8792 30.1218 27.0223 30.0625 27.1277 29.957C27.2332 29.8515 27.2925 29.7084 27.2925 29.5593C27.2925 29.4101 27.2332 29.267 27.1277 29.1615C27.0223 29.056 26.8792 28.9968 26.73 28.9968H21.8813C21.4102 28.9644 21.2453 29.6242 21.0628 29.9378C21.0176 30.0267 20.9488 30.1015 20.8639 30.1538C20.779 30.2061 20.6813 30.234 20.5815 30.2344H15.4181C14.6972 30.2408 14.8515 28.98 14.1184 28.9969H2.8125C2.66332 28.9969 2.52024 29.0561 2.41475 29.1616C2.30926 29.2671 2.25 29.4102 2.25 29.5594V30.33C2.25103 31.186 2.59153 32.0066 3.19681 32.6119C3.8021 33.2172 4.62275 33.5577 5.47875 33.5587H30.5212C31.3773 33.5577 32.1979 33.2172 32.8032 32.6119C33.4085 32.0066 33.749 31.1859 33.75 30.3299V29.5593C33.75 29.4101 33.6907 29.267 33.5852 29.1615C33.4798 29.056 33.3367 28.9968 33.1875 28.9968Z" fill="#1C1C2D"/>
<path d="M19.9354 22.7535C20.6905 22.8335 21.4473 22.6186 22.0477 22.1539C22.6482 21.6891 23.0459 21.0104 23.1578 20.2594C23.526 20.1189 23.8499 19.8828 24.0963 19.5752C24.3426 19.2677 24.5023 18.8999 24.5589 18.51C24.9957 18.3019 25.3672 17.9782 25.6332 17.5741C25.8993 17.1699 26.0497 16.7007 26.0682 16.2172C26.0867 15.7338 25.9725 15.2544 25.7382 14.8312C25.5038 14.4079 25.1581 14.0568 24.7385 13.8159C24.6644 13.3426 24.4775 12.8941 24.1935 12.5083C23.9096 12.1224 23.537 11.8105 23.1072 11.599C23.0938 11.1822 22.9691 10.7766 22.746 10.4243C22.523 10.072 22.2097 9.78575 21.8387 9.59537C20.6668 8.83369 18.5407 9.32486 18.4922 10.8998L18.5743 21.3469C18.5776 21.7111 18.7208 22.0602 18.9741 22.3219C19.2274 22.5837 19.5715 22.7382 19.9354 22.7535ZM19.704 10.6785C20.3667 9.99784 21.7276 10.5412 21.9388 11.3192C21.4871 11.2732 20.8628 11.3764 20.9279 11.9669C20.937 12.0403 20.9605 12.1112 20.9971 12.1754C21.0337 12.2397 21.0826 12.2961 21.1411 12.3413C21.1995 12.3866 21.2663 12.4199 21.3377 12.4392C21.4091 12.4586 21.4835 12.4636 21.5569 12.4541C21.9389 12.3908 22.3312 12.455 22.6732 12.6368C23.0152 12.8186 23.2878 13.1079 23.4489 13.4601C22.867 13.4571 22.3001 13.6453 21.8355 13.9958C21.3709 14.3463 21.0343 14.8397 20.8774 15.4001C20.8374 15.5439 20.8563 15.6976 20.9297 15.8275C21.0032 15.9574 21.1252 16.0529 21.269 16.0928C21.4128 16.1327 21.5666 16.1139 21.6965 16.0404C21.8264 15.967 21.9218 15.8449 21.9617 15.7011C22.0329 15.4457 22.1694 15.2131 22.3577 15.0264C22.546 14.8397 22.7797 14.7052 23.0358 14.6362C23.2918 14.5672 23.5615 14.566 23.8181 14.6328C24.0748 14.6996 24.3096 14.832 24.4995 15.0171C24.6895 15.2022 24.828 15.4335 24.9014 15.6884C24.9748 15.9432 24.9806 16.2128 24.9183 16.4705C24.8559 16.7283 24.7275 16.9654 24.5457 17.1585C24.364 17.3516 24.135 17.494 23.8815 17.5718C23.7386 17.6257 23.6193 17.7285 23.5447 17.8618C23.3944 19.2422 22.6271 19.4977 21.0949 19.4109C21.0211 19.4044 20.9467 19.4125 20.8762 19.435C20.8056 19.4575 20.7402 19.4938 20.6838 19.5418C20.6274 19.5898 20.5811 19.6486 20.5477 19.7147C20.5142 19.7808 20.4943 19.8529 20.489 19.9268C20.4603 20.6861 21.4115 20.5654 21.9193 20.5325C21.7685 20.9073 21.495 21.2199 21.1435 21.4192C20.7921 21.6184 20.3834 21.6925 19.9843 21.6294C19.9087 21.6257 19.8373 21.5935 19.7845 21.5394C19.7316 21.4852 19.7012 21.4131 19.6993 21.3374L19.6169 10.8913C19.6157 10.8517 19.6228 10.8123 19.6378 10.7756C19.6528 10.7389 19.6754 10.7058 19.704 10.6785Z" fill="#1C1C2D"/>
<path d="M11.4409 18.5096C11.4976 18.8995 11.6573 19.2672 11.9036 19.5748C12.1499 19.8823 12.4739 20.1185 12.842 20.259C12.9476 20.9226 13.2645 21.5344 13.7456 22.0036C14.6685 22.9727 17.3721 23.2493 17.4254 21.3459L17.5078 10.8988C17.4586 9.32452 15.3345 8.83441 14.1615 9.59469C13.7905 9.78515 13.4772 10.0714 13.2541 10.4238C13.031 10.7761 12.9063 11.1817 12.8928 11.5985C12.463 11.8101 12.0904 12.122 11.8064 12.5079C11.5224 12.8937 11.3355 13.3422 11.2613 13.8155C10.8417 14.0564 10.496 14.4075 10.2616 14.8308C10.0272 15.2541 9.91312 15.7334 9.93163 16.2169C9.95013 16.7004 10.1005 17.1696 10.3666 17.5737C10.6326 17.9778 11.0042 18.3015 11.4409 18.5096ZM12.5657 14.5833C12.8993 14.5838 13.2236 14.6933 13.4893 14.895C13.7551 15.0967 13.9477 15.3797 14.0378 15.7009C14.0778 15.8447 14.1732 15.9667 14.3031 16.0402C14.433 16.1136 14.5867 16.1325 14.7305 16.0925C14.8743 16.0526 14.9964 15.9572 15.0698 15.8273C15.1433 15.6974 15.1621 15.5436 15.1222 15.3999C14.9656 14.842 14.6311 14.3505 14.1697 14.0001C13.7083 13.6497 13.1451 13.4594 12.5657 13.4583C12.5582 13.3917 12.6767 13.2354 12.7271 13.149C12.9236 12.889 13.1869 12.687 13.489 12.5646C13.7911 12.4422 14.1206 12.4039 14.4427 12.4538C14.5161 12.4636 14.5907 12.4588 14.6622 12.4396C14.7337 12.4204 14.8006 12.3871 14.8592 12.3418C14.9177 12.2964 14.9666 12.2399 15.0031 12.1755C15.0396 12.1111 15.0629 12.04 15.0717 11.9665C15.1367 11.3794 14.5127 11.2703 14.0607 11.3189C14.192 11.0152 14.4157 10.7606 14.6999 10.5912C14.9841 10.4218 15.3145 10.3463 15.6441 10.3752C15.9428 10.4397 16.3445 10.5572 16.383 10.8904L16.3005 21.337C16.2986 21.4128 16.2681 21.4851 16.2151 21.5393C16.1621 21.5935 16.0906 21.6257 16.0149 21.6293C15.616 21.6918 15.2077 21.6175 14.8565 21.4183C14.5053 21.2191 14.2319 20.9068 14.0809 20.5324C14.5928 20.5632 15.5348 20.6905 15.5106 19.9265C15.5053 19.8526 15.4854 19.7805 15.452 19.7144C15.4185 19.6483 15.3722 19.5896 15.3158 19.5415C15.2594 19.4935 15.194 19.4572 15.1234 19.4348C15.0528 19.4123 14.9785 19.4042 14.9047 19.4108C13.5598 19.4726 12.6253 19.3237 12.5141 18.0833C12.5077 17.9781 12.4719 17.8769 12.4107 17.7912C12.3495 17.7055 12.2654 17.6387 12.168 17.5986C11.8127 17.4982 11.5055 17.2731 11.3025 16.9647C11.0995 16.6563 11.0143 16.285 11.0626 15.919C11.1109 15.5529 11.2894 15.2165 11.5654 14.9712C11.8414 14.7259 12.1965 14.5882 12.5657 14.5833Z" fill="#1C1C2D"/>
</svg>
