<svg width="39" height="39" viewBox="0 0 39 39" fill="none" xmlns="http://www.w3.org/2000/svg">
<g clip-path="url(#clip0_1_137)">
<path d="M35.4363 18.1085C34.8747 17.4636 34.1048 17.0792 33.2561 17.0206C30.0434 16.7987 26.837 17.0989 23.7215 17.9198L22.2716 18.299C22.1855 18.3212 22.1446 18.1986 22.2242 18.1688L23.617 17.5954C26.5983 16.3706 29.337 14.6779 31.7667 12.5621C32.4041 12.007 32.7875 11.2512 32.8517 10.4239C32.9929 8.68577 31.6762 7.13592 29.9385 6.98774C29.0767 6.91414 28.2398 7.19465 27.5874 7.76278C25.1577 9.87856 23.1046 12.3586 21.4816 15.1433L20.7222 16.4441C20.6748 16.5183 20.566 16.4615 20.5999 16.3792L21.1747 14.9952C22.416 12.0221 23.154 8.8874 23.3759 5.67474C23.4345 4.82598 23.16 4.00355 22.5979 3.36566C22.0363 2.72076 21.2665 2.33634 20.4177 2.27773C19.5689 2.21913 18.7465 2.49359 18.1086 3.05567C17.4637 3.61727 17.0793 4.38715 17.0207 5.23591C16.7989 8.44857 17.099 11.655 17.9199 14.7705L18.2991 16.2204C18.3213 16.3065 18.1987 16.3474 18.169 16.2678L17.5956 14.875C16.3707 11.8937 14.678 9.15493 12.5622 6.72529C12.0071 6.08788 11.2513 5.70444 10.424 5.64027C8.67888 5.49862 7.12903 6.8153 6.98786 8.55345C6.91426 9.41527 7.19477 10.2522 7.7629 10.9046C9.87868 13.3343 12.3588 15.3873 15.1434 17.0103L16.4442 17.7697C16.5185 17.8171 16.4616 17.926 16.3794 17.8921L14.9954 17.3173C12.0223 16.0759 8.88752 15.3379 5.67486 15.1161C4.8261 15.0575 4.00368 15.332 3.36579 15.894C2.03848 17.0499 1.89947 19.0631 3.05531 20.3904C3.61691 21.0353 4.38679 21.4197 5.23555 21.4783C8.44821 21.7001 11.6546 21.4 14.7701 20.579L16.22 20.1999C16.3061 20.1776 16.347 20.3003 16.2674 20.33L14.8746 20.9034C11.8933 22.1283 9.15457 23.821 6.72493 25.9368C6.08752 26.4919 5.70408 27.2477 5.63991 28.0749C5.49874 29.8131 6.81542 31.3629 8.55309 31.5111C9.41491 31.5847 10.2518 31.3042 10.9043 30.7361C13.3339 28.6203 15.387 26.1402 17.01 23.3556L17.7694 22.0548C17.8168 21.9805 17.9256 22.0374 17.8917 22.1196L17.3169 23.5036C16.0756 26.4767 15.3376 29.6115 15.1157 32.8241C15.0571 33.6729 15.3316 34.4953 15.8937 35.1332C16.4553 35.7781 17.2252 36.1625 18.0739 36.2211C18.9227 36.2797 19.7451 36.0053 20.383 35.4432C21.0279 34.8816 21.4123 34.1117 21.4709 33.263C21.6927 30.0503 21.3926 26.8439 20.5717 23.7284L20.1925 22.2785C20.1703 22.1924 20.2929 22.1515 20.3227 22.2311L20.896 23.6239C22.1209 26.6052 23.8136 29.3439 25.9294 31.7736C26.4845 32.411 27.2403 32.7944 28.0676 32.8586C29.8057 32.9998 31.3556 31.6831 31.5037 29.9454C31.5774 29.0836 31.2968 28.2467 30.7287 27.5943C28.6129 25.1646 26.1328 23.1115 23.3482 21.4885L22.0474 20.7291C21.9732 20.6817 22.03 20.5729 22.1122 20.6068L23.4962 21.1816C26.4694 22.4229 29.6041 23.1609 32.8168 23.3828C33.6655 23.4414 34.4879 23.1669 35.1258 22.6048C36.4531 21.449 36.5926 19.4288 35.4363 18.1085Z" fill="white"/>
</g>
<defs>
<clipPath id="clip0_1_137">
<rect width="36" height="36" fill="white" transform="translate(2.52173 0.0482178) rotate(3.95)"/>
</clipPath>
</defs>
</svg>
