<svg width="48" height="48" viewBox="0 0 48 48" fill="none" xmlns="http://www.w3.org/2000/svg">
<path d="M18 28.5C18 31.8075 20.6925 34.5 24 34.5C27.3075 34.5 30 31.8075 30 28.5C30 25.1925 27.3075 22.5 24 22.5C20.6925 22.5 18 25.1925 18 28.5ZM28.5 28.5C28.5 30.9825 26.4825 33 24 33C21.5175 33 19.5 30.9825 19.5 28.5C19.5 26.0175 21.5175 24 24 24C26.4825 24 28.5 26.0175 28.5 28.5Z" fill="url(#paint0_linear_1_395)"/>
<path d="M10.5 33C13.3995 33 15.75 30.6495 15.75 27.75C15.75 24.8505 13.3995 22.5 10.5 22.5C7.60051 22.5 5.25 24.8505 5.25 27.75C5.25 30.6495 7.60051 33 10.5 33Z" fill="url(#paint1_linear_1_395)"/>
<path d="M39.75 34.5H35.25C33.45 34.5 31.755 35.1975 30.4725 36.4725C30.33 36.6225 30.1875 36.7725 30.06 36.9375C28.92 36.345 27.6225 36 26.25 36H21.75C20.37 36 19.08 36.345 17.9325 36.945C16.665 35.4075 14.775 34.5 12.75 34.5H8.25C6.45 34.5 4.755 35.1975 3.4725 36.48C2.19 37.7625 1.5 39.45 1.5 41.25C1.5 42.4875 2.5125 43.5 3.75 43.5H13.5375C13.515 43.7475 13.5 43.995 13.5 44.25C13.5 45.4875 14.5125 46.5 15.75 46.5H32.25C33.4875 46.5 34.5 45.4875 34.5 44.25C34.5 43.995 34.485 43.7475 34.4625 43.5H44.25C44.8575 43.5 45.4275 43.26 45.8325 42.8475C46.26 42.4275 46.5 41.8575 46.5 41.25C46.5 37.53 43.47 34.5 39.75 34.5ZM32.25 45H15.75C15.3375 45 15 44.6625 15 44.25C15 40.53 18.03 37.5 21.75 37.5H26.25C29.97 37.5 33 40.53 33 44.25C33 44.6625 32.6625 45 32.25 45Z" fill="url(#paint2_linear_1_395)"/>
<path d="M37.5 33C40.3995 33 42.75 30.6495 42.75 27.75C42.75 24.8505 40.3995 22.5 37.5 22.5C34.6005 22.5 32.25 24.8505 32.25 27.75C32.25 30.6495 34.6005 33 37.5 33Z" fill="url(#paint3_linear_1_395)"/>
<path d="M24 21C29.3775 21 33.75 16.6275 33.75 11.25C33.75 5.8725 29.3775 1.5 24 1.5C18.6225 1.5 14.25 5.8725 14.25 11.25C14.25 16.6275 18.6225 21 24 21ZM19.7175 11.0925C20.01 10.8 20.49 10.8 20.7825 11.0925L22.5 12.8175L27.2175 8.0925C27.51 7.8 27.99 7.8 28.2825 8.0925C28.575 8.385 28.575 8.865 28.2825 9.1575L23.0325 14.4075C22.8825 14.55 22.695 14.625 22.5 14.625C22.305 14.625 22.1175 14.55 21.9675 14.4075L19.7175 12.1575C19.425 11.865 19.425 11.385 19.7175 11.0925Z" fill="url(#paint4_linear_1_395)"/>
<defs>
<linearGradient id="paint0_linear_1_395" x1="30" y1="34.5" x2="21.6186" y2="20.3557" gradientUnits="userSpaceOnUse">
<stop stop-color="#57E8DF"/>
<stop offset="1" stop-color="#6872FE"/>
</linearGradient>
<linearGradient id="paint1_linear_1_395" x1="15.75" y1="33" x2="8.41625" y2="20.6238" gradientUnits="userSpaceOnUse">
<stop stop-color="#57E8DF"/>
<stop offset="1" stop-color="#6872FE"/>
</linearGradient>
<linearGradient id="paint2_linear_1_395" x1="46.5" y1="46.5" x2="43.5537" y2="27.8548" gradientUnits="userSpaceOnUse">
<stop stop-color="#57E8DF"/>
<stop offset="1" stop-color="#6872FE"/>
</linearGradient>
<linearGradient id="paint3_linear_1_395" x1="42.75" y1="33" x2="35.4163" y2="20.6238" gradientUnits="userSpaceOnUse">
<stop stop-color="#57E8DF"/>
<stop offset="1" stop-color="#6872FE"/>
</linearGradient>
<linearGradient id="paint4_linear_1_395" x1="33.75" y1="21" x2="20.1302" y2="-1.98441" gradientUnits="userSpaceOnUse">
<stop stop-color="#57E8DF"/>
<stop offset="1" stop-color="#6872FE"/>
</linearGradient>
</defs>
</svg>
