<svg width="48" height="48" viewBox="0 0 48 48" fill="none" xmlns="http://www.w3.org/2000/svg">
<g clip-path="url(#clip0_1_733)">
<path fill-rule="evenodd" clip-rule="evenodd" d="M27.1884 10.6489C28.6017 10.9848 29.9495 11.5431 31.1881 12.3064L33.7878 11.1505L36.8497 14.2125L35.6983 16.8121C36.4616 18.0508 37.0199 19.3985 37.3557 20.8161L40.0076 21.8368V26.168L37.3557 27.1886C37.0199 28.6019 36.4571 29.9497 35.6983 31.1884L36.8497 33.788L33.7878 36.8499L31.1881 35.6985C29.9538 36.4618 28.6017 37.0201 27.1884 37.3559L26.1678 40.0078H21.8366L20.8159 37.3559C19.3983 37.0201 18.0505 36.4573 16.8119 35.6985L14.2122 36.8499L11.1503 33.788L12.3062 31.1884C11.5429 29.954 10.9846 28.6019 10.6443 27.1886L7.99238 26.168V21.8368L10.6443 20.8161C10.9846 19.3985 11.5429 18.0508 12.3062 16.8121L11.1503 14.2125L14.2122 11.1505L16.8119 12.3064C18.0505 11.5431 19.3983 10.9848 20.8116 10.6489L21.8366 7.9926H26.1678L27.1884 10.6489ZM23.9993 13.764C18.3437 13.764 13.7638 18.3439 13.7638 23.9995C13.7638 29.6549 18.3437 34.2408 23.9993 34.2408C29.6547 34.2408 34.2406 29.6549 34.2406 23.9995C34.2406 18.3439 29.6547 13.764 23.9993 13.764ZM29.031 27.2746C29.504 27.539 29.8242 28.045 29.8242 28.6251C29.8242 29.4784 29.1314 30.1712 28.278 30.1712C27.4247 30.1712 26.7318 29.4784 26.7318 28.6251C26.7318 28.045 27.052 27.539 27.5251 27.2746V19.3754C27.5251 18.9598 27.8624 18.6224 28.278 18.6224C28.6936 18.6224 29.031 18.9598 29.031 19.3754V27.2746ZM23.2471 25.3495C22.7752 25.0846 22.456 24.5794 22.456 24.0002C22.456 23.421 22.7752 22.9158 23.2471 22.6509V19.3754C23.2471 18.9598 23.5845 18.6224 24 18.6224C24.4155 18.6224 24.7529 18.9598 24.7529 19.3754V22.6485C25.2272 22.9127 25.5483 23.4192 25.5483 24.0002C25.5483 24.5812 25.2272 25.0877 24.7529 25.3519V28.6251C24.7529 29.0406 24.4155 29.378 24 29.378C23.5845 29.378 23.2471 29.0406 23.2471 28.6251V25.3495ZM18.969 20.7259C18.496 20.4614 18.1758 19.9554 18.1758 19.3754C18.1758 18.522 18.8686 17.8292 19.722 17.8292C20.5753 17.8292 21.2682 18.522 21.2682 19.3754C21.2682 19.9554 20.9481 20.4614 20.4749 20.7259V28.6251C20.4749 29.0406 20.1376 29.378 19.722 29.378C19.3065 29.378 18.969 29.0406 18.969 28.6251V20.7259ZM2.88509 33.9494C1.12132 30.215 0.324991 25.9657 0.788615 21.5564C2.13864 8.73688 13.6242 -0.561005 26.4437 0.788925C30.6988 1.23627 34.5654 2.80182 37.7837 5.16257L37.2982 3.4614C37.1841 3.06177 37.4159 2.64474 37.8155 2.53067C38.2152 2.4166 38.6322 2.64841 38.7462 3.04803L39.89 7.05509C39.9535 7.27768 39.9112 7.51711 39.7751 7.70441C39.639 7.8917 39.4244 8.00596 39.193 8.01424L35.0284 8.16398C34.6132 8.17895 34.2638 7.85387 34.2489 7.43862C34.234 7.02328 34.5591 6.67401 34.9743 6.65914L37.1659 6.58027C34.1023 4.25895 30.3871 2.71758 26.2861 2.28652C14.2937 1.02365 3.54918 9.72163 2.28622 21.714C1.83078 26.0453 2.67473 30.2115 4.50184 33.8283H5.81111C5.92659 33.8283 6.03737 33.8741 6.11906 33.9558C6.20076 34.0375 6.24659 34.1483 6.24659 34.2637V36.8883C6.24659 37.0038 6.20076 37.1146 6.11906 37.1963C6.03737 37.278 5.92659 37.3238 5.81111 37.3238H3.18654C3.07106 37.3238 2.96029 37.278 2.87859 37.1963C2.7969 37.1146 2.75097 37.0038 2.75097 36.8883V34.2637C2.75097 34.1483 2.7969 34.0375 2.87859 33.9558C2.88076 33.9536 2.88292 33.9515 2.88509 33.9494ZM45.2439 14.3274C46.9188 17.995 47.6634 22.1453 47.2112 26.4441C45.8612 39.2637 34.3756 48.5614 21.5561 47.2115C17.3024 46.7636 13.4341 45.198 10.2162 42.8382L10.7017 44.539C10.8157 44.9387 10.5839 45.3557 10.1843 45.4698C9.78476 45.5838 9.36772 45.352 9.25365 44.9524L8.10984 40.9453C8.04631 40.7228 8.08866 40.4833 8.22476 40.296C8.36085 40.1087 8.57544 39.9945 8.80678 39.9862L12.9714 39.8365C13.3867 39.8215 13.736 40.1466 13.7509 40.5618C13.7658 40.9772 13.4409 41.3264 13.0255 41.3413L10.8334 41.4202C13.8966 43.7408 17.6139 45.2822 21.7138 45.7139C33.7062 46.9768 44.4507 38.2788 45.7136 26.2864C46.1335 22.2958 45.4508 18.442 43.9092 15.0305C43.8298 15.0397 43.7492 15.0444 43.6674 15.0444C42.5125 15.0444 41.5748 14.1067 41.5748 12.9517C41.5748 11.7968 42.5125 10.8591 43.6674 10.8591C44.8223 10.8591 45.76 11.7968 45.76 12.9517C45.76 13.4781 45.5652 13.9595 45.2439 14.3274Z" fill="url(#paint0_linear_1_733)"/>
</g>
<defs>
<linearGradient id="paint0_linear_1_733" x1="47.3412" y1="47.3417" x2="14.7351" y2="-7.68261" gradientUnits="userSpaceOnUse">
<stop stop-color="#ADFB2D"/>
<stop offset="1" stop-color="#35D4CA"/>
</linearGradient>
<clipPath id="clip0_1_733">
<rect width="48" height="48" fill="white"/>
</clipPath>
</defs>
</svg>
