<svg width="48" height="48" viewBox="0 0 48 48" fill="none" xmlns="http://www.w3.org/2000/svg">
<path d="M31.0545 16.0003H29.9636C29.8909 15.6367 29.7454 15.3458 29.6 15.0549L30.3273 14.3276C30.4727 14.1821 30.5454 14.0367 30.5454 13.8185C30.5454 13.6003 30.4727 13.4549 30.3273 13.3094L28.7273 11.6367C28.4363 11.3458 28 11.3458 27.7091 11.6367L26.9818 12.3639C26.6909 12.2185 26.3273 12.073 25.9636 11.9276V10.9094C25.9636 10.473 25.6 10.1821 25.2363 10.1821H22.9091C22.4727 10.1821 22.1818 10.473 22.1818 10.9094V11.9276C21.8182 12.0003 21.5273 12.1458 21.1636 12.3639L20.4363 11.6367C20.1454 11.3458 19.7091 11.3458 19.4182 11.6367L17.7454 13.3094C17.6 13.4549 17.5273 13.6003 17.5273 13.8185C17.5273 14.0367 17.6 14.1821 17.7454 14.3276L18.4727 15.0549C18.3273 15.3458 18.1818 15.7094 18.0363 16.0003H17.0182C16.5818 16.0003 16.2909 16.2912 16.2909 16.7276V19.0549C16.2909 19.4912 16.5818 19.7821 17.0182 19.7821H18.0363C18.1091 20.1458 18.2545 20.4367 18.4727 20.7276L17.7454 21.4549C17.6 21.6003 17.5273 21.7458 17.5273 21.9639C17.5273 22.1821 17.6 22.3276 17.7454 22.473L19.4182 24.1458C19.7091 24.4367 20.1454 24.4367 20.4363 24.1458L21.1636 23.4185C21.4545 23.5639 21.8182 23.7094 22.1818 23.8549V24.873C22.1818 25.2367 22.4727 25.6003 22.9091 25.6003H25.2363C25.6 25.6003 25.9636 25.2367 25.9636 24.873V23.8549C26.3273 23.7821 26.6182 23.6367 26.9091 23.4912L27.6363 24.2185C27.9273 24.5094 28.3636 24.5094 28.6545 24.2185L30.3273 22.5458C30.4727 22.4003 30.5454 22.2549 30.5454 22.0367C30.5454 21.8185 30.4727 21.673 30.3273 21.5276L29.6 20.8003C29.7454 20.5094 29.8909 20.1458 30.0363 19.8549H31.0545C31.4909 19.8549 31.7818 19.5639 31.7818 19.1276V16.7276C31.7818 16.2912 31.4909 16.0003 31.0545 16.0003ZM30.3273 18.3276H29.4545C29.0909 18.3276 28.8 18.6185 28.7273 18.9821C28.5818 19.5639 28.3636 20.073 28.0727 20.5094C27.8545 20.8003 27.9273 21.1639 28.1454 21.4549L28.7273 22.0367L28.0727 22.6912L27.4182 22.0367C27.2 21.8185 26.8363 21.7458 26.5454 21.9639C26.1091 22.2549 25.5273 22.473 24.9454 22.6185C24.5818 22.6912 24.3636 22.9821 24.3636 23.3458V24.2185H23.4909V23.273C23.4909 22.9094 23.2727 22.6185 22.9091 22.5458C22.3273 22.4003 21.8182 22.1821 21.3091 21.8912C21.0182 21.7458 20.6545 21.7458 20.4363 21.9639L19.7818 22.6185L19.1273 21.9639L19.7818 21.3821C20 21.1639 20.0727 20.7276 19.8545 20.4367C19.5636 20.0003 19.3454 19.4912 19.2 18.9094C19.1273 18.5458 18.8363 18.2549 18.4727 18.2549H17.6V17.4549H18.4727C18.8363 17.4549 19.1273 17.2367 19.2 16.873C19.3454 16.2912 19.5636 15.7821 19.8545 15.3458C20.0727 15.0549 20 14.6912 19.7818 14.4003L19.1273 13.8185L19.7818 13.1639L20.4363 13.8185C20.6545 14.0367 21.0909 14.1094 21.3091 13.8912C21.8182 13.6003 22.3273 13.3821 22.9091 13.2367C23.2727 13.1639 23.4909 12.873 23.4909 12.5094V11.6367H24.3636V12.5094C24.3636 12.873 24.5818 13.1639 24.9454 13.2367C25.5273 13.3821 26.0363 13.6003 26.5454 13.8912C26.8363 14.0367 27.2 14.0367 27.4182 13.8185L28.0727 13.1639L28.7273 13.8185L28.1454 14.4003C27.9273 14.6185 27.8545 15.0549 28.0727 15.3458C28.3636 15.8549 28.5818 16.3639 28.7273 16.873C28.8 17.2367 29.0909 17.4549 29.4545 17.4549H30.3273V18.3276Z" fill="url(#paint0_linear_1_735)"/>
<path d="M46.5454 37.6001H43.4909C43.9273 37.0183 44.2182 36.291 44.2182 35.491V11.7819C44.2182 9.8183 42.6182 8.2183 40.6545 8.2183H35.2727C32.5818 5.0183 28.5091 2.98193 24.0727 2.98193C19.6364 2.98193 15.5636 5.0183 12.8727 8.2183H7.34545C5.38181 8.2183 3.78181 9.8183 3.78181 11.7819V35.4183C3.78181 36.2183 4.07272 36.9456 4.50908 37.5274H1.45454C1.0909 37.5274 0.727264 37.891 0.727264 38.2547C0.727264 41.9638 3.70908 44.9456 7.41817 44.9456H40.5818C42.4 44.9456 44.0727 44.2183 45.3091 42.9819C46.6182 41.6728 47.2727 40.0001 47.2727 38.2547C47.2727 37.891 46.9818 37.6001 46.5454 37.6001ZM34.9091 42.0365H32.3636C32 42.0365 31.6364 41.6728 31.6364 41.3092C31.6364 40.9456 32 40.5819 32.3636 40.5819H34.9091C35.3454 40.5819 35.6364 40.9456 35.6364 41.3092C35.6364 41.6728 35.2727 42.0365 34.9091 42.0365ZM39.9273 42.0365H37.3818C36.9454 42.0365 36.6545 41.6728 36.6545 41.3092C36.6545 40.9456 36.9454 40.5819 37.3818 40.5819H39.9273C40.2909 40.5819 40.6545 40.9456 40.6545 41.3092C40.6545 41.6728 40.2909 42.0365 39.9273 42.0365ZM42.7636 35.491C42.7636 36.6547 41.8182 37.6001 40.6545 37.6001H29.1636C28.8 37.6001 28.4364 37.9638 28.4364 38.3274V39.2728H19.5636V38.2547C19.5636 37.891 19.2 37.5274 18.8364 37.5274H7.34545C6.18181 37.5274 5.23636 36.5819 5.23636 35.4183V11.7819C5.23636 10.6183 6.18181 9.67284 7.34545 9.67284H11.8545C11.0545 10.9819 10.4 12.3638 10.0364 13.891C9.01817 13.9638 8.14545 14.4001 7.41817 15.1274C6.54545 16.0001 6.10908 17.091 6.10908 18.2547C6.10908 20.6547 8.07272 22.6183 10.4727 22.6183H13.7454H13.8909H14.0364C14.0364 22.6183 14.1091 22.6183 14.1091 22.5456C14.1818 22.5456 14.1818 22.4728 14.2545 22.4728L14.3273 22.4001C14.3273 22.3274 14.4 22.3274 14.4 22.2547C14.4 22.1819 14.4 22.1092 14.4 22.1092V22.0365C14.4 21.9638 14.4 21.9638 14.4 21.891C14.4 21.8183 14.4 21.8183 14.4 21.7456C13.8182 20.3638 13.4545 18.9819 13.4545 17.5274C13.4545 16.6547 13.5273 15.7819 13.7454 14.9819C14.9091 10.3274 19.1273 7.05466 24 7.05466C28.8727 7.05466 33.0909 10.3274 34.2545 14.9819C34.4727 15.7819 34.5454 16.6547 34.5454 17.5274C34.5454 18.9819 34.2545 20.4365 33.6 21.7456V21.891V22.0365V22.1092V22.2547C33.6 22.3274 33.6727 22.3274 33.6727 22.4001L33.7454 22.4728C33.8182 22.5456 33.8182 22.5456 33.8909 22.5456L33.9636 22.6183C34.0364 22.6183 34.1091 22.691 34.2545 22.691H35.6364C34.2545 26.7638 30.5454 29.6001 26.2545 29.8183C25.8909 28.7274 24.8727 27.8547 23.6364 27.8547C22.1818 27.8547 20.9454 29.091 20.9454 30.5456C20.9454 32.0001 22.1818 33.2365 23.6364 33.2365C24.8727 33.2365 25.9636 32.3638 26.2545 31.2728C31.3454 30.9819 35.7091 27.5638 37.1636 22.691H37.5273C38.6909 22.691 39.7818 22.2547 40.5818 21.3819C41.3818 20.5819 41.8909 19.4183 41.8909 18.3274C41.8909 16.1456 40.2182 14.2547 38.0364 14.0365C37.6727 12.5092 37.0182 11.0547 36.2182 9.8183H40.5818C41.7454 9.8183 42.6909 10.7638 42.6909 11.9274C42.7636 11.7819 42.7636 35.491 42.7636 35.491ZM25.0182 30.5456C25.0182 31.2001 24.4364 31.7819 23.7818 31.7819C23.0545 31.7819 22.5454 31.2001 22.5454 30.5456C22.5454 29.891 23.1273 29.3092 23.7818 29.3092C24.4364 29.3092 25.0182 29.8183 25.0182 30.5456Z" fill="url(#paint1_linear_1_735)"/>
<path d="M27.7818 17.8912C27.7818 18.2549 27.7091 18.6185 27.5636 18.9821C27.5636 19.1276 27.4909 19.273 27.4182 19.3458C26.8364 20.7276 25.4545 21.6003 23.9273 21.6003C22.4 21.6003 21.0909 20.7276 20.4364 19.3458C20.2182 18.9094 20.1454 18.4003 20.1454 17.8912C20.1454 15.8549 21.8182 14.1821 23.9273 14.1821C26.1091 14.1821 27.7818 15.8549 27.7818 17.8912Z" fill="url(#paint2_linear_1_735)"/>
<defs>
<linearGradient id="paint0_linear_1_735" x1="16.2909" y1="11.7239" x2="32.4756" y2="12.7016" gradientUnits="userSpaceOnUse">
<stop stop-color="#8215FF"/>
<stop offset="1" stop-color="#2DA9FF"/>
</linearGradient>
<linearGradient id="paint1_linear_1_735" x1="0.727264" y1="7.1783" x2="49.3187" y2="10.4188" gradientUnits="userSpaceOnUse">
<stop stop-color="#8215FF"/>
<stop offset="1" stop-color="#2DA9FF"/>
</linearGradient>
<linearGradient id="paint2_linear_1_735" x1="20.1454" y1="14.9239" x2="28.1224" y2="15.4177" gradientUnits="userSpaceOnUse">
<stop stop-color="#8215FF"/>
<stop offset="1" stop-color="#2DA9FF"/>
</linearGradient>
</defs>
</svg>
