<svg width="32" height="32" viewBox="0 0 32 32" fill="none" xmlns="http://www.w3.org/2000/svg">
<path d="M13.0039 10.8125H12.1797C11.8839 10.8125 11.6464 11.0501 11.6464 11.3458V15.2683C11.6464 15.564 11.8839 15.8016 12.1797 15.8016H19.8112C20.107 15.8016 20.3445 15.564 20.3445 15.2683V11.3458C20.3445 11.0501 20.107 10.8125 19.8112 10.8125H18.987C18.6912 10.8125 18.4536 11.0501 18.4536 11.3458V12.5095C18.4536 12.6695 18.3227 12.8004 18.1627 12.8004H17.2706C17.1106 12.8004 16.9797 12.6695 16.9797 12.5095V11.3458C16.9797 11.0501 16.7421 10.8125 16.4464 10.8125H15.5542C15.2585 10.8125 15.0209 11.0501 15.0209 11.3458V12.5095C15.0209 12.6695 14.89 12.8004 14.73 12.8004H13.8379C13.6779 12.8004 13.547 12.6695 13.547 12.5095V11.3458C13.5421 11.0549 13.2997 10.8125 13.0039 10.8125Z" fill="white"/>
<path d="M21.8577 26.9819H10.1438C9.78013 26.9819 9.48438 27.2777 9.48438 27.6413V31.4862H22.5171V27.6413C22.5171 27.2777 22.2213 26.9819 21.8577 26.9819ZM20.3062 29.7116H11.6953C11.4335 29.7116 11.2201 29.4983 11.2201 29.2365C11.2201 28.9747 11.4335 28.7613 11.6953 28.7613H20.3013C20.5632 28.7613 20.7765 28.9747 20.7765 29.2365C20.7813 29.4983 20.568 29.7116 20.3062 29.7116Z" fill="white"/>
<path d="M27.9858 11.2002H26.1967C25.9251 9.88143 25.4064 8.65961 24.6936 7.57355L25.9639 6.30325C26.2694 5.99295 26.2694 5.48871 25.9639 5.1784L24.1215 3.34083C23.8161 3.03052 23.307 3.03052 22.9967 3.34083L21.7264 4.60628C20.6403 3.88871 19.4185 3.36992 18.0997 3.0984V1.30931C18.0997 0.8681 17.7458 0.51416 17.2997 0.51416H14.7009C14.2597 0.51416 13.9009 0.8681 13.9009 1.30931V3.10325C12.5821 3.37477 11.3603 3.89355 10.2791 4.61113L9.00878 3.34083C8.69848 3.03052 8.19424 3.03052 7.88393 3.34083L6.04151 5.1784C5.73606 5.48871 5.73121 5.99295 6.04151 6.30325L7.31181 7.5784C6.59909 8.65961 6.0803 9.88628 5.80878 11.2002H4.01C3.56878 11.2002 3.21484 11.5542 3.21484 11.9954V14.599C3.21484 15.0402 3.56878 15.3942 4.01 15.3942H5.80878C6.0803 16.7129 6.59424 17.9348 7.31181 19.0208L6.04636 20.2911C5.73606 20.6014 5.73606 21.1057 6.04636 21.416L7.88393 23.2536C8.19424 23.5639 8.69848 23.5639 9.00878 23.2536L10.2791 21.9833C10.8221 22.342 11.3942 22.6475 12.0003 22.9045C12.5191 21.9299 12.7906 20.8148 12.9167 19.7578C10.5021 18.6039 8.82939 16.1505 8.82939 13.2899C8.82939 9.33355 12.0391 6.12386 16.0003 6.12386C19.9615 6.12386 23.1712 9.33355 23.1712 13.2899C23.1712 16.1457 21.4985 18.6039 19.0839 19.7578C19.21 20.8099 19.4767 21.9299 20.0003 22.9045C20.6064 22.6523 21.1882 22.342 21.7312 21.9833L22.9967 23.2536C23.307 23.5639 23.8161 23.5639 24.1215 23.2536L25.9639 21.416C26.2694 21.1057 26.2694 20.6014 25.9639 20.2911L24.6936 19.0208C25.4112 17.9348 25.9251 16.7129 26.1967 15.3942H27.9858C28.427 15.3942 28.7858 15.0402 28.7858 14.599V11.9954C28.7858 11.559 28.427 11.2002 27.9858 11.2002Z" fill="white"/>
<path d="M19.6322 24.1212C17.9498 21.7891 17.9498 18.4 18.071 16.7612H13.9352C14.0564 18.3952 14.0564 21.7891 12.374 24.1212H19.6322Z" fill="white"/>
<path d="M10.6863 25.6972V26.0269H21.3094V25.6972C21.3094 25.353 21.0282 25.0718 20.6839 25.0718H11.3118C10.9676 25.0766 10.6863 25.353 10.6863 25.6972Z" fill="white"/>
</svg>
