<svg width="32" height="32" viewBox="0 0 32 32" fill="none" xmlns="http://www.w3.org/2000/svg">
<g clip-path="url(#clip0_1_467)">
<path d="M7.19123 20.1081L8.85115 21.7681L11.6859 18.9056C8.96207 15.6589 8.38255 11.3698 9.6487 7.73803L13.4207 11.51C13.3886 15.3024 16.4762 18.6169 20.505 18.6169C22.8701 18.6169 24.9678 17.4517 26.2552 15.6656L21.9726 11.3829L19.0029 14.3529L7.95831 3.30836V5.81263H6.02141L6.02148 0.00195312H11.8321V1.93878L9.32789 1.93885L19.0029 11.6138L21.9726 8.64379L27.1944 13.8655C28.0507 11.4172 27.5296 8.5381 25.5146 6.52296C22.9328 3.94134 18.8775 3.77593 16.1077 5.97714L12.9762 2.84557C17.4872 -1.07573 24.3318 -0.897282 28.6332 3.40417C30.8043 5.57524 31.9999 8.46192 31.9999 11.5323C31.9999 17.8708 26.8433 23.0275 20.5049 23.0276C17.7414 23.0276 15.127 22.0585 13.049 20.2819L10.2207 23.1377L11.8873 24.8044L4.69626 31.9956L0 27.2994L7.19123 20.1081Z" fill="white"/>
<path d="M16.4717 26.1875H31.9668V28.1244H16.4717V26.1875Z" fill="white"/>
<path d="M10.6602 30.061H22.2815V31.9979H10.6602V30.061Z" fill="white"/>
</g>
<defs>
<clipPath id="clip0_1_467">
<rect width="32" height="32" fill="white"/>
</clipPath>
</defs>
</svg>
