<svg width="52" height="52" viewBox="0 0 52 52" fill="none" xmlns="http://www.w3.org/2000/svg">
<path d="M15.3398 22.8069C14.928 22.7475 14.5094 22.8541 14.1762 23.1033C13.843 23.3525 13.6224 23.7238 13.563 24.1356C13.5036 24.5474 13.6102 24.966 13.8594 25.2992C14.1085 25.6324 14.4799 25.853 14.8917 25.9124C18.3441 26.4103 20.3113 28.4226 20.7391 31.8927C20.8725 32.9247 20.8002 33.9728 20.5265 34.9767C20.2289 36.0755 19.6707 37.0864 18.8993 37.9236C18.1279 38.7607 17.166 39.3995 16.0951 39.7858C14.4495 40.4515 12.6243 40.527 10.9294 39.9995C6.26242 38.5188 6.38461 33.041 6.39303 32.7522C6.39303 23.6212 14.9717 11.1044 15.0583 10.9787C15.295 10.6366 15.386 10.2144 15.3114 9.80507C15.2368 9.39576 15.0027 9.03284 14.6605 8.79615C14.3183 8.55947 13.8962 8.46841 13.4869 8.543C13.0775 8.6176 12.7146 8.85174 12.4779 9.19391C12.1014 9.73782 3.25544 22.6376 3.25655 32.6902C3.14548 35.4792 4.40787 41.2221 9.98108 42.9901C11.0207 43.3187 12.1046 43.4854 13.1949 43.4842C14.5874 43.4832 15.967 43.217 17.2599 42.6998C18.7755 42.133 20.1354 41.2152 21.2279 40.0215C22.3204 38.8278 23.1145 37.3922 23.5451 35.8324C23.9364 34.4267 24.0411 32.9567 23.853 31.5097C23.6844 29.2894 22.7384 27.1996 21.1814 25.6079C19.6243 24.0162 17.5558 23.0244 15.3398 22.8069Z" fill="url(#paint0_linear_89_2655)"/>
<path d="M48.6616 31.5097C48.493 29.2894 47.547 27.1996 45.9899 25.6079C44.4329 24.0162 42.3644 23.0244 40.1484 22.8069C39.7366 22.7475 39.318 22.8541 38.9848 23.1033C38.6516 23.3524 38.431 23.7238 38.3716 24.1356C38.3122 24.5474 38.4188 24.966 38.6679 25.2992C38.9171 25.6324 39.2885 25.853 39.7003 25.9124C43.1527 26.4103 45.1199 28.4226 45.5477 31.8927C45.681 32.9247 45.6089 33.9728 45.3355 34.9767C45.0379 36.0756 44.4797 37.0865 43.7082 37.9237C42.9366 38.7608 41.9746 39.3996 40.9037 39.7858C39.2581 40.4514 37.4329 40.5269 35.738 39.9995C31.071 38.5188 31.1932 33.041 31.2016 32.7522C31.2016 23.6212 39.7807 11.1044 39.8673 10.9787C39.9845 10.8093 40.0671 10.6185 40.1106 10.4171C40.154 10.2157 40.1573 10.0077 40.1204 9.80507C40.0835 9.60239 40.007 9.40898 39.8953 9.23587C39.7836 9.06276 39.6389 8.91334 39.4695 8.79615C39.3001 8.67895 39.1092 8.59628 38.9078 8.55284C38.7065 8.50941 38.4985 8.50606 38.2958 8.543C38.0932 8.57993 37.8997 8.65642 37.7266 8.76811C37.5535 8.87979 37.4041 9.02448 37.2869 9.1939C36.9104 9.73778 28.064 22.6376 28.0651 32.6901C27.9541 35.4792 29.2165 41.2221 34.7897 42.9901C35.8293 43.3186 36.9132 43.4853 38.0035 43.4841C39.396 43.4832 40.7756 43.217 42.0684 42.6998C43.5843 42.133 44.9442 41.215 46.0369 40.0212C47.1295 38.8274 47.9237 37.3916 48.3544 35.8316C48.7451 34.4261 48.8495 32.9564 48.6616 31.5097Z" fill="url(#paint1_linear_89_2655)"/>
<defs>
<linearGradient id="paint0_linear_89_2655" x1="3.25" y1="26.0009" x2="23.9438" y2="26.0009" gradientUnits="userSpaceOnUse">
<stop stop-color="#FF4A68"/>
<stop offset="1" stop-color="#FC9C44"/>
</linearGradient>
<linearGradient id="paint1_linear_89_2655" x1="28.0586" y1="26.0009" x2="48.7524" y2="26.0009" gradientUnits="userSpaceOnUse">
<stop stop-color="#FF4A68"/>
<stop offset="1" stop-color="#FC9C44"/>
</linearGradient>
</defs>
</svg>
