<svg width="20" height="20" viewBox="0 0 20 20" fill="none" xmlns="http://www.w3.org/2000/svg">
<g clip-path="url(#clip0_89_680)">
<path d="M4.66797 15.3312C4.42422 15.0875 4.03047 15.0875 3.78672 15.3312L0.811719 18.3063C0.567969 18.55 0.567969 18.9438 0.811719 19.1875C0.936719 19.3125 1.09297 19.3687 1.25547 19.3687C1.41797 19.3687 1.57422 19.3063 1.69922 19.1875L4.67422 16.2125C4.91797 15.9687 4.91797 15.575 4.67422 15.3312H4.66797Z" fill="white"/>
<path d="M5.18047 16.7313L4.24922 17.6625C4.00547 17.9063 4.00547 18.3 4.24922 18.5438C4.37422 18.6688 4.53047 18.725 4.69297 18.725C4.85547 18.725 5.01172 18.6625 5.13672 18.5438L6.06797 17.6125C6.31172 17.3688 6.31172 16.975 6.06797 16.7313C5.82422 16.4875 5.43047 16.4875 5.18672 16.7313H5.18047Z" fill="white"/>
<path d="M2.37969 13.9312L1.44844 14.8625C1.20469 15.1062 1.20469 15.5 1.44844 15.7437C1.57344 15.8687 1.72969 15.925 1.89219 15.925C2.05469 15.925 2.21094 15.8625 2.33594 15.7437L3.26719 14.8125C3.51094 14.5687 3.51094 14.175 3.26719 13.9312C3.02344 13.6875 2.62969 13.6875 2.38594 13.9312H2.37969Z" fill="white"/>
<path d="M9.05469 18.7875C9.06719 19.0312 9.22344 19.25 9.45469 19.3375C9.52969 19.3625 9.60469 19.3812 9.67969 19.3812C9.84219 19.3812 10.0047 19.3187 10.1234 19.2L14.1047 15.2188C14.6109 14.7125 14.8984 14.0437 14.9359 13.3438C13.3922 14.6375 11.4297 15.9125 8.96094 17.1063L9.05469 18.7937V18.7875Z" fill="white"/>
<path d="M1.21177 10.9437L2.89302 11.0375C4.08677 8.575 5.34927 6.6125 6.63677 5.06875C5.94302 5.10625 5.28677 5.4 4.78052 5.9L0.805524 9.875C0.630524 10.05 0.574274 10.3125 0.661774 10.5375C0.749274 10.7687 0.961774 10.925 1.21177 10.9375V10.9437Z" fill="white"/>
<path d="M11.7641 6.825C10.9828 6.825 10.3516 7.45625 10.3516 8.2375C10.3516 9.01875 10.9828 9.65 11.7641 9.65C12.5453 9.65 13.1766 9.01875 13.1766 8.2375C13.1766 7.45625 12.5453 6.825 11.7641 6.825Z" fill="white"/>
<path d="M19.2297 1.225C19.1734 1 18.9984 0.825 18.7734 0.76875C18.5734 0.71875 15.8609 0.10625 12.4297 1.875C13.5047 2.71875 14.5172 3.6125 15.4547 4.55C16.3922 5.4875 17.2859 6.5 18.1297 7.575C19.8984 4.14375 19.2797 1.43125 19.2359 1.23125L19.2297 1.225Z" fill="white"/>
<path d="M11.2642 2.55625C8.83293 4.15 6.15168 7 3.80168 12.0438C3.68918 12.2813 3.73918 12.5625 3.92668 12.75L7.25168 16.075C7.37043 16.1938 7.53293 16.2563 7.69543 16.2563C7.78293 16.2563 7.87668 16.2375 7.95793 16.2C13.0079 13.8438 15.8579 11.1688 17.4454 8.7375C16.5517 7.55625 15.5892 6.44375 14.5704 5.43125C13.5517 4.41875 12.4454 3.45625 11.2642 2.55625ZM8.91418 12.2563C8.78918 12.3813 8.63293 12.4375 8.47043 12.4375C8.30793 12.4375 8.15168 12.375 8.02668 12.2563L7.73918 11.9688C7.49543 11.725 7.49543 11.3313 7.73918 11.0875C7.98293 10.8438 8.37668 10.8438 8.62043 11.0875L8.90793 11.375C9.15168 11.6188 9.15168 12.0125 8.90793 12.2563H8.91418ZM11.7642 10.9C10.2954 10.9 9.10168 9.70625 9.10168 8.2375C9.10168 6.76875 10.2954 5.575 11.7642 5.575C13.2329 5.575 14.4267 6.76875 14.4267 8.2375C14.4267 9.70625 13.2329 10.9 11.7642 10.9Z" fill="white"/>
</g>
<defs>
<clipPath id="clip0_89_680">
<rect width="20" height="20" fill="white"/>
</clipPath>
</defs>
</svg>
