<svg width="24" height="24" viewBox="0 0 24 24" fill="none" xmlns="http://www.w3.org/2000/svg">
<g clip-path="url(#clip0_89_809)">
<path d="M5.60078 18.3975C5.30828 18.105 4.83578 18.105 4.54328 18.3975L0.973281 21.9675C0.680781 22.26 0.680781 22.7325 0.973281 23.025C1.12328 23.175 1.31078 23.2425 1.50578 23.2425C1.70078 23.2425 1.88828 23.1675 2.03828 23.025L5.60828 19.455C5.90078 19.1625 5.90078 18.69 5.60828 18.3975H5.60078Z" fill="url(#paint0_linear_89_809)"/>
<path d="M6.21578 20.0775L5.09828 21.195C4.80578 21.4875 4.80578 21.96 5.09828 22.2525C5.24828 22.4025 5.43578 22.47 5.63078 22.47C5.82578 22.47 6.01328 22.395 6.16328 22.2525L7.28078 21.135C7.57328 20.8425 7.57328 20.37 7.28078 20.0775C6.98828 19.785 6.51578 19.785 6.22328 20.0775H6.21578Z" fill="url(#paint1_linear_89_809)"/>
<path d="M2.85641 16.7175L1.73891 17.835C1.44641 18.1275 1.44641 18.6 1.73891 18.8925C1.88891 19.0425 2.07641 19.11 2.27141 19.11C2.46641 19.11 2.65391 19.035 2.80391 18.8925L3.92141 17.775C4.21391 17.4825 4.21391 17.01 3.92141 16.7175C3.62891 16.425 3.15641 16.425 2.86391 16.7175H2.85641Z" fill="url(#paint2_linear_89_809)"/>
<path d="M10.8664 22.545C10.8814 22.8375 11.0689 23.1 11.3464 23.205C11.4364 23.235 11.5264 23.2575 11.6164 23.2575C11.8114 23.2575 12.0064 23.1825 12.1489 23.04L16.9264 18.2625C17.5339 17.655 17.8789 16.8525 17.9239 16.0125C16.0714 17.565 13.7164 19.095 10.7539 20.5275L10.8664 22.5525V22.545Z" fill="url(#paint3_linear_89_809)"/>
<path d="M1.45491 13.1325L3.47241 13.245C4.90491 10.29 6.41991 7.93502 7.96491 6.08252C7.13241 6.12752 6.34491 6.48002 5.73741 7.08002L0.96741 11.85C0.75741 12.06 0.68991 12.375 0.79491 12.645C0.89991 12.9225 1.15491 13.11 1.45491 13.125V13.1325Z" fill="url(#paint4_linear_89_809)"/>
<path d="M14.1169 8.18994C13.1794 8.18994 12.4219 8.94744 12.4219 9.88494C12.4219 10.8224 13.1794 11.5799 14.1169 11.5799C15.0544 11.5799 15.8119 10.8224 15.8119 9.88494C15.8119 8.94744 15.0544 8.18994 14.1169 8.18994Z" fill="url(#paint5_linear_89_809)"/>
<path d="M23.078 1.46995C23.0105 1.19995 22.8005 0.989951 22.5305 0.922451C22.2905 0.862451 19.0355 0.127451 14.918 2.24995C16.208 3.26245 17.423 4.33495 18.548 5.45995C19.673 6.58495 20.7455 7.79995 21.758 9.08995C23.8805 4.97245 23.138 1.71745 23.0855 1.47745L23.078 1.46995Z" fill="url(#paint6_linear_89_809)"/>
<path d="M13.5147 3.0675C10.5972 4.98 7.37967 8.40001 4.55967 14.4525C4.42467 14.7375 4.48467 15.075 4.70967 15.3L8.69967 19.29C8.84217 19.4325 9.03717 19.5075 9.23217 19.5075C9.33717 19.5075 9.44967 19.485 9.54717 19.44C15.6072 16.6125 19.0272 13.4025 20.9322 10.485C19.8597 9.0675 18.7047 7.7325 17.4822 6.5175C16.2597 5.3025 14.9322 4.1475 13.5147 3.0675ZM10.6947 14.7075C10.5447 14.8575 10.3572 14.925 10.1622 14.925C9.96717 14.925 9.77967 14.85 9.62967 14.7075L9.28467 14.3625C8.99217 14.07 8.99217 13.5975 9.28467 13.305C9.57717 13.0125 10.0497 13.0125 10.3422 13.305L10.6872 13.65C10.9797 13.9425 10.9797 14.415 10.6872 14.7075H10.6947ZM14.1147 13.08C12.3522 13.08 10.9197 11.6475 10.9197 9.885C10.9197 8.12251 12.3522 6.69 14.1147 6.69C15.8772 6.69 17.3097 8.12251 17.3097 9.885C17.3097 11.6475 15.8772 13.08 14.1147 13.08Z" fill="url(#paint7_linear_89_809)"/>
</g>
<defs>
<linearGradient id="paint0_linear_89_809" x1="0.753906" y1="20.7103" x2="5.82766" y2="20.7103" gradientUnits="userSpaceOnUse">
<stop stop-color="#FF4A68"/>
<stop offset="1" stop-color="#FC9C44"/>
</linearGradient>
<linearGradient id="paint1_linear_89_809" x1="4.87891" y1="21.1641" x2="7.50016" y2="21.1641" gradientUnits="userSpaceOnUse">
<stop stop-color="#FF4A68"/>
<stop offset="1" stop-color="#FC9C44"/>
</linearGradient>
<linearGradient id="paint2_linear_89_809" x1="1.51953" y1="17.8041" x2="4.14078" y2="17.8041" gradientUnits="userSpaceOnUse">
<stop stop-color="#FF4A68"/>
<stop offset="1" stop-color="#FC9C44"/>
</linearGradient>
<linearGradient id="paint3_linear_89_809" x1="10.7539" y1="19.635" x2="17.9239" y2="19.635" gradientUnits="userSpaceOnUse">
<stop stop-color="#FF4A68"/>
<stop offset="1" stop-color="#FC9C44"/>
</linearGradient>
<linearGradient id="paint4_linear_89_809" x1="0.746094" y1="9.66377" x2="7.96491" y2="9.66377" gradientUnits="userSpaceOnUse">
<stop stop-color="#FF4A68"/>
<stop offset="1" stop-color="#FC9C44"/>
</linearGradient>
<linearGradient id="paint5_linear_89_809" x1="12.4219" y1="9.88494" x2="15.8119" y2="9.88494" gradientUnits="userSpaceOnUse">
<stop stop-color="#FF4A68"/>
<stop offset="1" stop-color="#FC9C44"/>
</linearGradient>
<linearGradient id="paint6_linear_89_809" x1="14.918" y1="4.92065" x2="23.2534" y2="4.92065" gradientUnits="userSpaceOnUse">
<stop stop-color="#FF4A68"/>
<stop offset="1" stop-color="#FC9C44"/>
</linearGradient>
<linearGradient id="paint7_linear_89_809" x1="4.48828" y1="11.2875" x2="20.9322" y2="11.2875" gradientUnits="userSpaceOnUse">
<stop stop-color="#FF4A68"/>
<stop offset="1" stop-color="#FC9C44"/>
</linearGradient>
<clipPath id="clip0_89_809">
<rect width="24" height="24" fill="white"/>
</clipPath>
</defs>
</svg>
