<svg width="24" height="24" viewBox="0 0 24 24" fill="none" xmlns="http://www.w3.org/2000/svg">
<g clip-path="url(#clip0_89_858)">
<path d="M5.60078 18.3976C5.30828 18.1051 4.83578 18.1051 4.54328 18.3976L0.973281 21.9676C0.680781 22.2601 0.680781 22.7326 0.973281 23.0251C1.12328 23.1751 1.31078 23.2426 1.50578 23.2426C1.70078 23.2426 1.88828 23.1676 2.03828 23.0251L5.60828 19.4551C5.90078 19.1626 5.90078 18.6901 5.60828 18.3976H5.60078Z" fill="white"/>
<path d="M6.21578 20.0775L5.09828 21.195C4.80578 21.4875 4.80578 21.96 5.09828 22.2525C5.24828 22.4025 5.43578 22.47 5.63078 22.47C5.82578 22.47 6.01328 22.395 6.16328 22.2525L7.28078 21.135C7.57328 20.8425 7.57328 20.37 7.28078 20.0775C6.98828 19.785 6.51578 19.785 6.22328 20.0775H6.21578Z" fill="white"/>
<path d="M2.85641 16.7174L1.73891 17.8349C1.44641 18.1274 1.44641 18.5999 1.73891 18.8924C1.88891 19.0424 2.07641 19.1099 2.27141 19.1099C2.46641 19.1099 2.65391 19.0349 2.80391 18.8924L3.92141 17.7749C4.21391 17.4824 4.21391 17.0099 3.92141 16.7174C3.62891 16.4249 3.15641 16.4249 2.86391 16.7174H2.85641Z" fill="white"/>
<path d="M10.8664 22.545C10.8814 22.8375 11.0689 23.1 11.3464 23.205C11.4364 23.235 11.5264 23.2575 11.6164 23.2575C11.8114 23.2575 12.0064 23.1825 12.1489 23.04L16.9264 18.2625C17.5339 17.655 17.8789 16.8525 17.9239 16.0125C16.0714 17.565 13.7164 19.095 10.7539 20.5275L10.8664 22.5525V22.545Z" fill="white"/>
<path d="M1.45491 13.1325L3.47241 13.245C4.90491 10.29 6.41991 7.93502 7.96491 6.08252C7.13241 6.12752 6.34491 6.48002 5.73741 7.08002L0.96741 11.85C0.75741 12.06 0.68991 12.375 0.79491 12.645C0.89991 12.9225 1.15491 13.11 1.45491 13.125V13.1325Z" fill="white"/>
<path d="M14.1169 8.18994C13.1794 8.18994 12.4219 8.94744 12.4219 9.88494C12.4219 10.8224 13.1794 11.5799 14.1169 11.5799C15.0544 11.5799 15.8119 10.8224 15.8119 9.88494C15.8119 8.94744 15.0544 8.18994 14.1169 8.18994Z" fill="white"/>
<path d="M23.078 1.47007C23.0105 1.20007 22.8005 0.990073 22.5305 0.922573C22.2905 0.862573 19.0355 0.127573 14.918 2.25007C16.208 3.26257 17.423 4.33507 18.548 5.46007C19.673 6.58507 20.7455 7.80007 21.758 9.09007C23.8805 4.97257 23.138 1.71757 23.0855 1.47757L23.078 1.47007Z" fill="white"/>
<path d="M13.5147 3.06738C10.5972 4.97988 7.37967 8.39988 4.55967 14.4524C4.42467 14.7374 4.48467 15.0749 4.70967 15.2999L8.69967 19.2899C8.84217 19.4324 9.03717 19.5074 9.23217 19.5074C9.33717 19.5074 9.44967 19.4849 9.54717 19.4399C15.6072 16.6124 19.0272 13.4024 20.9322 10.4849C19.8597 9.06738 18.7047 7.73238 17.4822 6.51738C16.2597 5.30238 14.9322 4.14738 13.5147 3.06738ZM10.6947 14.7074C10.5447 14.8574 10.3572 14.9249 10.1622 14.9249C9.96717 14.9249 9.77967 14.8499 9.62967 14.7074L9.28467 14.3624C8.99217 14.0699 8.99217 13.5974 9.28467 13.3049C9.57717 13.0124 10.0497 13.0124 10.3422 13.3049L10.6872 13.6499C10.9797 13.9424 10.9797 14.4149 10.6872 14.7074H10.6947ZM14.1147 13.0799C12.3522 13.0799 10.9197 11.6474 10.9197 9.88488C10.9197 8.12238 12.3522 6.68988 14.1147 6.68988C15.8772 6.68988 17.3097 8.12238 17.3097 9.88488C17.3097 11.6474 15.8772 13.0799 14.1147 13.0799Z" fill="white"/>
</g>
<defs>
<clipPath id="clip0_89_858">
<rect width="24" height="24" fill="white"/>
</clipPath>
</defs>
</svg>
