<svg width="132" height="132" viewBox="0 0 132 132" fill="none" xmlns="http://www.w3.org/2000/svg">
<path d="M132 66C132 102.451 102.451 132 66 132C29.5492 132 0 102.451 0 66C0 29.5492 29.5492 0 66 0C102.451 0 132 29.5492 132 66ZM23.7257 66C23.7257 89.3475 42.6525 108.274 66 108.274C89.3475 108.274 108.274 89.3475 108.274 66C108.274 42.6525 89.3475 23.7257 66 23.7257C42.6525 23.7257 23.7257 42.6525 23.7257 66Z" fill="url(#paint0_linear_2013_24)"/>
<path d="M114.853 66.8272L123.492 67.3947L123.13 72.9142L121.948 72.8366L122.228 68.5709L119.804 68.4117L119.571 71.9574L118.389 71.8798L118.622 68.3341L115.952 68.1587L115.672 72.4244L114.49 72.3468L114.853 66.8272Z" fill="white"/>
<path d="M114.532 72.633L118.212 76.425L122.988 74.4937L122.671 75.9999L119.094 77.4033L121.803 80.1182L121.485 81.6303L117.894 77.9371L112.998 79.9166L113.315 78.4105L117.005 76.9634L114.213 74.145L114.532 72.633Z" fill="white"/>
<path d="M112.753 80.6131L120.848 83.6851L119.606 86.9567C119.576 87.0354 119.535 87.1314 119.484 87.2447C119.436 87.3595 119.383 87.4658 119.324 87.5636C119.082 87.9863 118.787 88.3027 118.437 88.5129C118.085 88.7269 117.701 88.8405 117.285 88.8539C116.868 88.8672 116.442 88.7914 116.008 88.6265C115.569 88.4601 115.199 88.2336 114.896 87.9472C114.593 87.6608 114.381 87.321 114.26 86.9278C114.138 86.5384 114.126 86.1054 114.226 85.6287C114.251 85.518 114.282 85.4014 114.32 85.2786C114.357 85.1596 114.389 85.0626 114.418 84.9876L115.213 82.8909L112.307 81.788L112.753 80.6131ZM116.326 83.3133L115.548 85.3651C115.519 85.44 115.492 85.5239 115.465 85.6167C115.437 85.7132 115.417 85.8062 115.404 85.8958C115.369 86.157 115.399 86.3891 115.494 86.5921C115.592 86.7966 115.728 86.9684 115.903 87.1074C116.077 87.2465 116.264 87.3538 116.462 87.4291C116.661 87.5045 116.87 87.5473 117.089 87.5576C117.311 87.5692 117.526 87.5304 117.731 87.4412C117.94 87.3533 118.118 87.2002 118.265 86.9817C118.319 86.9077 118.368 86.8254 118.411 86.7345C118.452 86.6474 118.487 86.5664 118.516 86.4915L119.294 84.4397L116.326 83.3133Z" fill="white"/>
<path d="M109.935 87.6228L117.531 91.7767L116.928 92.8793L110.371 89.2936L108.49 92.7331L107.451 92.1648L109.935 87.6228Z" fill="white"/>
<path d="M104.934 95.3464C105.459 94.6576 106.055 94.1849 106.724 93.9285C107.396 93.6744 108.1 93.6234 108.836 93.7755C109.569 93.9308 110.291 94.2791 111.002 94.8207C111.713 95.3622 112.241 95.9657 112.586 96.6312C112.928 97.2999 113.065 97.9907 112.995 98.7037C112.929 99.4191 112.634 100.121 112.109 100.81C111.587 101.496 110.99 101.966 110.318 102.22C109.647 102.479 108.945 102.531 108.211 102.376C107.478 102.221 106.756 101.873 106.045 101.331C105.334 100.79 104.806 100.186 104.461 99.5205C104.116 98.855 103.978 98.163 104.047 97.4444C104.116 96.7314 104.412 96.0321 104.934 95.3464ZM105.886 96.0713C105.508 96.5543 105.306 97.0407 105.281 97.5303C105.257 98.0256 105.38 98.5051 105.652 98.9688C105.927 99.435 106.327 99.8684 106.853 100.269C107.38 100.67 107.901 100.938 108.417 101.074C108.936 101.213 109.43 101.203 109.897 101.045C110.363 100.891 110.783 100.571 111.157 100.085C111.535 99.6022 111.738 99.1142 111.766 98.6214C111.791 98.1317 111.666 97.6538 111.391 97.1877C111.117 96.7215 110.717 96.2865 110.194 95.8826C109.67 95.4787 109.148 95.2076 108.629 95.0691C108.113 94.9331 107.621 94.9439 107.153 95.1016C106.683 95.2626 106.261 95.5858 105.886 96.0713Z" fill="white"/>
<path d="M101.758 99.5516L107.699 105.849L105.154 108.25C105.093 108.308 105.014 108.377 104.918 108.456C104.825 108.539 104.731 108.611 104.636 108.673C104.233 108.948 103.829 109.104 103.423 109.14C103.013 109.179 102.618 109.114 102.237 108.944C101.857 108.774 101.507 108.52 101.188 108.182C100.715 107.68 100.434 107.126 100.347 106.52C100.263 105.916 100.434 105.327 100.862 104.753L101.193 104.358L102.977 102.675L100.844 100.414L101.758 99.5516ZM98.0754 103.026L101.735 104.417L101.035 105.523L97.0302 104.012L98.0754 103.026ZM103.794 103.541L102.198 105.047C102.139 105.102 102.078 105.165 102.013 105.237C101.946 105.312 101.887 105.387 101.837 105.462C101.691 105.681 101.617 105.903 101.613 106.127C101.612 106.354 101.66 106.568 101.756 106.769C101.852 106.971 101.973 107.148 102.119 107.303C102.265 107.458 102.434 107.587 102.627 107.692C102.822 107.8 103.032 107.858 103.255 107.868C103.482 107.88 103.709 107.82 103.937 107.688C104.018 107.645 104.097 107.592 104.175 107.529C104.251 107.468 104.318 107.411 104.376 107.356L105.972 105.85L103.794 103.541Z" fill="white"/>
<path d="M96.2858 104.555L101.25 111.648L96.7181 114.82L96.039 113.849L99.5413 111.398L98.1486 109.408L95.2374 111.446L94.5582 110.475L97.4695 108.438L95.9354 106.246L92.433 108.697L91.7539 107.726L96.2858 104.555Z" fill="white"/>
<path d="M88.8218 109.461L89.6706 118.525L88.0091 119.242L81.9937 112.409L83.1915 111.892L88.7024 118.118L88.4043 118.246L87.6239 109.978L88.8218 109.461ZM88.255 111.834L88.7222 112.916L84.5713 114.708L84.1041 113.626L88.255 111.834Z" fill="white"/>
<path d="M81.2858 112.538L83.582 120.886L82.3704 121.219L80.3883 114.013L76.6086 115.053L76.2945 113.911L81.2858 112.538Z" fill="white"/>
<path d="M75.5929 114.009L76.8555 122.574L75.6123 122.757L74.5224 115.364L70.6442 115.936L70.4715 114.764L75.5929 114.009Z" fill="white"/>
<path d="M63.5856 118.108L63.4961 119.115L59.9028 118.795L59.9923 117.789L63.5856 118.108Z" fill="white"/>
<path d="M58.1265 117.543L57.9297 118.534L54.3914 117.831L54.5882 116.84L58.1265 117.543Z" fill="white"/>
<path d="M52.7579 116.398L52.457 117.363L49.0133 116.288L49.3143 115.324L52.7579 116.398Z" fill="white"/>
<path d="M43.4466 109.234L38.9609 116.639L34.2298 113.773L34.8434 112.76L38.4998 114.975L39.7583 112.898L36.719 111.057L37.3326 110.043L40.3719 111.884L41.7581 109.596L38.1017 107.381L38.7154 106.368L43.4466 109.234Z" fill="white"/>
<path d="M38.388 106.225L33.3199 107.722L32.8109 112.847L31.6246 111.867L32.044 108.047L28.381 109.185L27.1901 108.2L32.129 106.737L32.6514 101.482L33.8377 102.462L33.4041 106.402L37.1971 105.24L38.388 106.225Z" fill="white"/>
<path d="M32.2317 101.027L25.7852 106.807L23.4493 104.201C23.3931 104.138 23.3265 104.058 23.2496 103.96C23.1696 103.865 23.0996 103.769 23.0396 103.672C22.7752 103.263 22.63 102.855 22.604 102.448C22.5753 102.037 22.6507 101.644 22.8302 101.268C23.0097 100.891 23.2725 100.548 23.6187 100.238C23.9679 99.9247 24.3393 99.6995 24.7328 99.562C25.1263 99.4245 25.5255 99.3923 25.9302 99.4655C26.3323 99.5357 26.7223 99.7245 27.1 100.032C27.1869 100.105 27.2761 100.186 27.3677 100.276C27.4566 100.363 27.5278 100.437 27.5814 100.497L29.0784 102.166L31.3929 100.091L32.2317 101.027ZM28.192 102.961L26.7271 101.327C26.6735 101.267 26.6117 101.204 26.5415 101.138C26.4687 101.069 26.3953 101.008 26.3215 100.956C26.1055 100.805 25.8857 100.725 25.6619 100.715C25.4352 100.709 25.22 100.751 25.0164 100.842C24.8127 100.933 24.6318 101.05 24.4736 101.191C24.3154 101.333 24.1815 101.499 24.0718 101.689C23.9591 101.881 23.8952 102.089 23.8802 102.313C23.8622 102.539 23.9164 102.768 24.0429 102.999C24.0838 103.08 24.1348 103.161 24.1957 103.241C24.2539 103.318 24.3098 103.387 24.3633 103.446L25.8283 105.08L28.192 102.961Z" fill="white"/>
<path d="M27.3215 95.3332L20.1562 100.193L19.4509 99.1532L25.6359 94.9581L23.4355 91.7138L24.4157 91.049L27.3215 95.3332Z" fill="white"/>
<path d="M22.754 87.3719C23.1266 88.1534 23.2739 88.9003 23.196 89.6124C23.1144 90.3262 22.8378 90.9754 22.366 91.56C21.8925 92.1409 21.2523 92.6237 20.4455 93.0083C19.6386 93.393 18.8605 93.5863 18.111 93.5884C17.3598 93.5868 16.6831 93.3921 16.0808 93.0043C15.4749 92.6181 14.9856 92.0343 14.6131 91.2528C14.2422 90.4749 14.0976 89.729 14.1791 89.0152C14.2554 88.2995 14.5302 87.6511 15.0037 87.0702C15.4772 86.4892 16.1174 86.0064 16.9242 85.6218C17.7311 85.2371 18.5092 85.0438 19.2587 85.0418C20.0082 85.0397 20.6867 85.2336 21.2944 85.6233C21.8966 86.0111 22.3832 86.594 22.754 87.3719ZM21.674 87.8868C21.4173 87.3297 21.0771 86.928 20.6532 86.6816C20.224 86.4333 19.7411 86.3238 19.2045 86.3531C18.6642 86.3842 18.0956 86.542 17.4986 86.8266C16.9016 87.1112 16.4246 87.4519 16.0675 87.8486C15.7068 88.247 15.4896 88.6902 15.4159 89.1783C15.3404 89.6627 15.4328 90.1826 15.6931 90.7379C15.9498 91.295 16.2909 91.6985 16.7165 91.9485C17.1404 92.195 17.6224 92.3026 18.1627 92.2716C18.7029 92.2405 19.2724 92.0845 19.8711 91.8035C20.4698 91.5225 20.9495 91.1828 21.3102 90.7844C21.6673 90.3877 21.8827 89.9453 21.9564 89.4573C22.0284 88.9656 21.9343 88.4421 21.674 87.8868Z" fill="white"/>
<path d="M20.4591 82.6152L12.1289 84.9746L11.1753 81.6078C11.1524 81.5268 11.1278 81.4255 11.1017 81.3037C11.0717 81.1831 11.051 81.066 11.0397 80.9526C10.9819 80.469 11.0308 80.0386 11.1864 79.6612C11.3408 79.28 11.5814 78.9599 11.9079 78.7007C12.2344 78.4416 12.6214 78.2487 13.0687 78.122C13.7321 77.9341 14.3528 77.9416 14.931 78.1444C15.5054 78.3484 15.9485 78.7728 16.2603 79.4177L16.4574 79.893L17.1259 82.2532L20.1167 81.4061L20.4591 82.6152ZM19.0795 77.7443L16.1549 80.3474L15.4968 79.2152L18.6879 76.3617L19.0795 77.7443ZM15.9805 82.5776L15.3824 80.4662C15.3606 80.389 15.3327 80.3053 15.2988 80.2149C15.2638 80.1207 15.2246 80.0339 15.1813 79.9545C15.0535 79.7241 14.8912 79.5555 14.6943 79.4488C14.4936 79.3431 14.2818 79.2865 14.0588 79.2788C13.8358 79.2712 13.6221 79.2963 13.4177 79.3542C13.2134 79.4121 13.0202 79.5022 12.8382 79.6246C12.6524 79.748 12.5036 79.9068 12.392 80.1009C12.2764 80.2961 12.2247 80.5253 12.2368 80.7885C12.2377 80.8799 12.2479 80.9749 12.2675 81.0735C12.286 81.1682 12.3062 81.2542 12.328 81.3313L12.9261 83.4428L15.9805 82.5776Z" fill="white"/>
<path d="M18.5603 75.4828L9.97656 76.6137L9.25402 71.1296L10.4283 70.9749L10.9867 75.2132L13.3949 74.8959L12.9308 71.3729L14.1051 71.2182L14.5692 74.7411L17.2219 74.3917L16.6635 70.1534L17.8378 69.9987L18.5603 75.4828Z" fill="white"/>
<path d="M17.6347 66.515L9.20605 63.0747L9.33858 61.2698L18.1793 59.0975L18.0838 60.3987L10.0149 62.4046L10.0386 62.0808L17.7302 65.2138L17.6347 66.515ZM15.7929 64.9148L14.6176 64.8285L14.9487 60.3193L16.124 60.4056L15.7929 64.9148Z" fill="white"/>
<path d="M18.3793 58.337L9.91406 56.5205L10.1777 55.2919L17.4848 56.8599L18.3073 53.027L19.4654 53.2756L18.3793 58.337Z" fill="white"/>
<path d="M19.6794 52.6722L11.4961 49.8449L11.9064 48.6572L18.9702 51.0977L20.2504 47.3925L21.3699 47.7793L19.6794 52.6722Z" fill="white"/>
<path d="M23.0903 37.6751L22.2734 37.0809L24.3955 34.1636L25.2124 34.7578L23.0903 37.6751Z" fill="white"/>
<path d="M26.3668 33.2707L25.6172 32.5937L28.035 29.9164L28.7847 30.5934L26.3668 33.2707Z" fill="white"/>
<path d="M30.0883 29.2411L29.4141 28.489L32.1001 26.0809L32.7744 26.833L30.0883 29.2411Z" fill="white"/>
<path d="M43.6969 23.3255L40.1172 15.4422L45.1537 13.1552L45.6434 14.2337L41.7511 16.0011L42.7554 18.2128L45.9908 16.7437L46.4805 17.8221L43.2451 19.2913L44.3513 21.7274L48.2437 19.96L48.7334 21.0384L43.6969 23.3255Z" fill="white"/>
<path d="M48.7936 20.9132L50.4014 15.8792L46.4461 12.5792L47.9238 12.1485L50.8483 14.6405L51.9645 10.9709L53.4479 10.5386L51.8849 15.4468L55.9397 18.8305L54.462 19.2612L51.4455 16.6896L50.2771 20.4809L48.7936 20.9132Z" fill="white"/>
<path d="M56.5841 18.7014L55.4531 10.1177L58.9224 9.66059C59.0058 9.64959 59.1097 9.63995 59.2339 9.63167C59.3576 9.61941 59.4764 9.61589 59.5903 9.6211C60.0772 9.63377 60.496 9.74435 60.8469 9.95282C61.2018 10.1608 61.4839 10.445 61.6931 10.8056C61.9023 11.1661 62.0373 11.5769 62.098 12.0379C62.1593 12.5028 62.1356 12.9365 62.0269 13.339C61.9182 13.7414 61.7194 14.089 61.4305 14.3818C61.1455 14.674 60.7696 14.8893 60.3027 15.0277C60.1935 15.0582 60.0758 15.0859 59.9497 15.1106C59.8276 15.1347 59.7268 15.1521 59.6473 15.1625L57.4239 15.4555L57.8299 18.5373L56.5841 18.7014ZM57.2684 14.2752L59.4441 13.9886C59.5236 13.9781 59.6105 13.9626 59.7048 13.9421C59.8031 13.921 59.8947 13.8948 59.9795 13.8634C60.226 13.7703 60.4162 13.6341 60.5503 13.4547C60.6838 13.2713 60.7704 13.0699 60.8102 12.8504C60.8501 12.6309 60.8561 12.4158 60.8283 12.2052C60.8006 11.9945 60.7393 11.7904 60.6445 11.5926C60.5492 11.3909 60.4136 11.2208 60.2377 11.0822C60.0612 10.9397 59.8419 10.8554 59.5797 10.8293C59.4892 10.817 59.3937 10.8134 59.2933 10.8185C59.1969 10.8232 59.1089 10.8307 59.0294 10.8412L56.8537 11.1278L57.2684 14.2752Z" fill="white"/>
<path d="M64.2535 17.8327L64.3203 9.17499L65.5769 9.18469L65.5192 16.6579L69.4392 16.6882L69.43 17.8726L64.2535 17.8327Z" fill="white"/>
<path d="M73.4149 18.5502C72.5599 18.4141 71.8611 18.1121 71.3187 17.6442C70.7769 17.1724 70.3989 16.5765 70.1847 15.8565C69.9745 15.1371 69.9397 14.336 70.0802 13.4533C70.2207 12.5705 70.5026 11.8199 70.9257 11.2013C71.3528 10.5834 71.8969 10.1362 72.5578 9.85991C73.2193 9.57963 73.9776 9.50754 74.8326 9.64365C75.6837 9.77912 76.3802 10.0828 76.922 10.5546C77.4684 11.0231 77.8467 11.617 78.0569 12.3364C78.2671 13.0558 78.3019 13.8569 78.1614 14.7396C78.0209 15.6224 77.7391 16.373 77.3159 16.9916C76.8927 17.6102 76.3484 18.0593 75.6829 18.3389C75.022 18.6152 74.266 18.6857 73.4149 18.5502ZM73.603 17.3686C74.2074 17.4729 74.7312 17.4203 75.1745 17.2108C75.6224 16.998 75.9863 16.6622 76.2663 16.2035C76.547 15.7409 76.7393 15.1829 76.8432 14.5298C76.9472 13.8767 76.937 13.2906 76.8126 12.7715C76.6889 12.2486 76.4469 11.8184 76.0866 11.481C75.7302 11.1442 75.2496 10.9256 74.6446 10.8252C74.0402 10.7209 73.5144 10.7732 73.0671 10.9821C72.6238 11.1916 72.2619 11.5276 71.9812 11.9903C71.7006 12.453 71.5063 13.0106 71.3984 13.6631C71.2904 14.3156 71.2984 14.9034 71.4221 15.4263C71.5465 15.9454 71.7888 16.3736 72.1491 16.711C72.5134 17.049 72.998 17.2682 73.603 17.3686Z" fill="white"/>
<path d="M78.9535 19.4137L81.75 11.2198L85.0617 12.35C85.1414 12.3772 85.2387 12.4147 85.3537 12.4624C85.47 12.5063 85.578 12.5559 85.6778 12.6111C86.1084 12.8385 86.4346 13.1235 86.6566 13.4661C86.8823 13.81 87.0088 14.1899 87.0363 14.6058C87.0637 15.0218 87.0024 15.4498 86.8522 15.8898C86.6295 16.5423 86.2703 17.0487 85.7747 17.4089C85.2803 17.7654 84.6793 17.8885 83.9715 17.7782L83.4684 17.67L81.1468 16.8777L80.1428 19.8195L78.9535 19.4137ZM83.7447 21.0488L83.2667 17.1628L84.5722 17.2653L85.1046 21.513L83.7447 21.0488ZM81.5313 15.7511L83.6082 16.4599C83.6841 16.4858 83.7688 16.5105 83.8625 16.5339C83.9599 16.5587 84.0536 16.5759 84.1435 16.5854C84.4057 16.6113 84.6367 16.5737 84.8364 16.4725C85.0374 16.3674 85.2045 16.2254 85.3376 16.0463C85.4707 15.8673 85.5716 15.6772 85.6402 15.4762C85.7088 15.2751 85.7445 15.065 85.7474 14.8457C85.7515 14.6226 85.7055 14.41 85.6093 14.2078C85.5145 14.0017 85.3553 13.8288 85.132 13.6891C85.0563 13.6378 84.9723 13.5922 84.8801 13.5523C84.7916 13.5136 84.7095 13.4814 84.6336 13.4555L82.5567 12.7466L81.5313 15.7511Z" fill="white"/>
<path d="M85.6547 21.7801L89.582 14.0641L94.5117 16.5733L93.9744 17.6289L90.1646 15.6897L89.0628 17.8545L92.2296 19.4663L91.6923 20.5219L88.5255 18.9101L87.3119 21.2945L91.1216 23.2336L90.5843 24.2892L85.6547 21.7801Z" fill="white"/>
<path d="M93.6121 26.0987L101.226 21.1077L102.637 22.2405L99.4125 30.7539L98.3949 29.9373L101.319 22.1539L101.572 22.3571L94.6296 26.9154L93.6121 26.0987ZM95.9746 25.4893L96.7122 24.5702L100.238 27.4002L99.5008 28.3193L95.9746 25.4893Z" fill="white"/>
<path d="M99.8258 31.2427L106.102 25.2783L106.967 26.1891L101.55 31.3376L104.251 34.1791L103.392 34.9951L99.8258 31.2427Z" fill="white"/>
<path d="M103.809 35.5391L110.754 30.3697L111.504 31.3777L105.509 35.8399L107.85 38.9846L106.899 39.6918L103.809 35.5391Z" fill="white"/>
<path d="M113.083 44.0517L114.012 43.6547L115.429 46.972L114.501 47.3689L113.083 44.0517Z" fill="white"/>
<path d="M115.233 49.2745L116.199 48.9809L117.248 52.4326L116.281 52.7262L115.233 49.2745Z" fill="white"/>
<path d="M116.758 54.5335L117.75 54.3442L118.426 57.8878L117.434 58.0771L116.758 54.5335Z" fill="white"/>
<defs>
<linearGradient id="paint0_linear_2013_24" x1="0" y1="13.2" x2="137.917" y2="21.4921" gradientUnits="userSpaceOnUse">
<stop stop-color="#8215FF"/>
<stop offset="1" stop-color="#2DA9FF"/>
</linearGradient>
</defs>
</svg>
