<svg width="186" height="36" viewBox="0 0 186 36" fill="none" xmlns="http://www.w3.org/2000/svg">
<path d="M11.4 26.4004L11.5 26.5004V26.6004V26.7004C11.5 26.7004 11.5 26.8004 11.4 26.8004C10 28.2004 8.50001 28.8004 6.50001 28.8004C2.90001 28.8004 0.200012 26.1004 0.200012 22.4004C0.200012 18.8004 3.00001 16.0004 6.60001 16.0004C8.50001 16.0004 9.90001 16.5004 11.3 17.7004C11.4 17.8004 11.4 17.8004 11.4 17.9004C11.4 18.0004 11.4 18.1004 11.3 18.1004L10.3 19.3004L10.2 19.4004H10.1H10C10 19.4004 9.90001 19.4004 9.90001 19.3004C8.90001 18.4004 7.90001 18.0004 6.70001 18.0004C4.40001 18.0004 2.70001 19.8004 2.70001 22.2004C2.70001 24.6004 4.40001 26.4004 6.70001 26.4004C8.10001 26.4004 9.10001 25.9004 10 25.0004C10.1 24.9004 10.2 24.9004 10.2 24.9004C10.3 24.9004 10.4 24.9004 10.4 25.0004L11.4 26.4004ZM26.4 22.4004C26.4 26.0004 23.5 28.8004 19.9 28.8004C16.2 28.8004 13.4 26.1004 13.4 22.4004C13.4 18.8004 16.3 16.0004 19.9 16.0004C23.7 16.1004 26.4 18.8004 26.4 22.4004ZM24 22.5004C24 20.1004 22.2 18.2004 19.9 18.2004C17.6 18.2004 15.8 20.0004 15.8 22.4004C15.8 24.8004 17.6 26.6004 19.9 26.6004C22.2 26.6004 24 24.9004 24 22.5004ZM55.8 22.4004C55.8 26.0004 52.9 28.8004 49.3 28.8004C45.6 28.8004 42.8 26.1004 42.8 22.4004C42.8 18.8004 45.7 16.0004 49.3 16.0004C53 16.1004 55.8 18.8004 55.8 22.4004ZM53.3 22.5004C53.3 20.1004 51.5 18.2004 49.2 18.2004C46.9 18.2004 45.1 20.0004 45.1 22.4004C45.1 24.8004 46.9 26.6004 49.2 26.6004C51.6 26.7004 53.3 24.9004 53.3 22.5004ZM95.1 16.3004H85.7C85.6 16.3004 85.5 16.3004 85.5 16.4004C85.4 16.5004 85.4 16.6004 85.4 16.6004V18.0004C85.4 18.1004 85.4 18.2004 85.5 18.2004C85.6 18.3004 85.7 18.3004 85.7 18.3004H89.2V28.2004C89.2 28.3004 89.2 28.4004 89.3 28.4004C89.4 28.5004 89.5 28.5004 89.5 28.5004H91.2C91.3 28.5004 91.4 28.5004 91.4 28.4004C91.5 28.3004 91.5 28.2004 91.5 28.2004V18.3004H95C95.1 18.3004 95.2 18.3004 95.2 18.2004C95.3 18.1004 95.3 18.0004 95.3 18.0004V16.5004C95.3 16.4004 95.3 16.3004 95.2 16.3004C95.3 16.3004 95.2 16.3004 95.1 16.3004ZM100.7 16.3004H99.1C99 16.3004 98.9 16.3004 98.9 16.4004C98.8 16.5004 98.8 16.6004 98.8 16.6004V28.3004C98.8 28.4004 98.8 28.5004 98.9 28.5004C99 28.6004 99.1 28.6004 99.1 28.6004H100.7C100.8 28.6004 100.9 28.6004 100.9 28.5004C101 28.4004 101 28.3004 101 28.3004V16.6004C101 16.5004 101 16.4004 100.9 16.4004C100.8 16.4004 100.8 16.3004 100.7 16.3004ZM117.3 22.4004C117.3 26.0004 114.4 28.8004 110.8 28.8004C107.1 28.8004 104.3 26.1004 104.3 22.4004C104.3 18.8004 107.2 16.0004 110.8 16.0004C114.5 16.1004 117.3 18.8004 117.3 22.4004ZM114.9 22.5004C114.9 20.1004 113.1 18.2004 110.8 18.2004C108.5 18.2004 106.7 20.0004 106.7 22.4004C106.7 24.8004 108.5 26.6004 110.8 26.6004C113.2 26.7004 114.9 24.9004 114.9 22.5004ZM85.1 28.5004L85 28.6004C84.9 28.6004 84.9 28.6004 84.8 28.6004H83.5C82.9 28.5004 82.7 28.3004 82.7 28.2004V28.1004L81.7 25.8004C81.7 25.8004 81.7 25.7004 81.6 25.7004H81.5H76H75.9C75.9 25.7004 75.8 25.7004 75.8 25.8004L74.8 28.2004C74.7 28.3004 74.5 28.6004 74 28.6004H72.8C72.7 28.6004 72.7 28.6004 72.6 28.6004C72.5 28.6004 72.5 28.5004 72.5 28.5004C72.5 28.5004 72.4 28.4004 72.4 28.3004C72.4 28.2004 72.4 28.2004 72.4 28.1004L77.6 16.4004C77.6 16.3004 77.7 16.3004 77.7 16.2004C77.8 16.2004 77.8 16.1004 77.9 16.1004H79.5C79.6 16.1004 79.6 16.1004 79.7 16.2004C79.8 16.2004 79.8 16.3004 79.8 16.4004L85 28.1004C85 28.2004 85 28.2004 85 28.3004C85.1 28.4004 85.1 28.4004 85.1 28.5004ZM80.7 23.6004L78.7 19.0004L76.7 23.6004H80.7ZM69.5 16.3004H67.9C67.8 16.3004 67.7 16.3004 67.7 16.4004C67.6 16.5004 67.6 16.6004 67.6 16.6004V24.5004L61.2 16.4004L61.1 16.3004C61.1 16.3004 61 16.3004 60.9 16.3004H59.3C59.2 16.3004 59.1 16.3004 59.1 16.4004C59 16.5004 59 16.6004 59 16.6004V28.3004C59 28.4004 59 28.5004 59.1 28.5004C59.2 28.6004 59.3 28.6004 59.3 28.6004H60.9C61 28.6004 61.1 28.6004 61.1 28.5004C61.2 28.4004 61.2 28.3004 61.2 28.3004V20.1004L67.5 28.2004C67.6 28.3004 67.7 28.4004 67.9 28.5004C68.1 28.6004 68.2 28.6004 68.3 28.6004H69.3C69.4 28.6004 69.5 28.6004 69.5 28.5004C69.6 28.4004 69.6 28.3004 69.6 28.3004V16.6004C69.6 16.5004 69.6 16.4004 69.5 16.4004C69.7 16.3004 69.6 16.3004 69.5 16.3004ZM130.8 16.3004H129.2C129.1 16.3004 129 16.3004 129 16.4004C129 16.5004 128.9 16.6004 128.9 16.6004V24.5004L122.5 16.3004L122.4 16.2004C122.4 16.2004 122.3 16.2004 122.2 16.2004H120.6C120.5 16.2004 120.4 16.2004 120.4 16.3004C120.3 16.4004 120.3 16.5004 120.3 16.5004V28.2004C120.3 28.3004 120.3 28.4004 120.4 28.4004C120.5 28.5004 120.6 28.5004 120.6 28.5004H122.2C122.3 28.5004 122.4 28.5004 122.4 28.4004C122.5 28.3004 122.5 28.2004 122.5 28.2004V20.0004L128.8 28.1004C128.9 28.2004 129 28.3004 129.2 28.4004C129.3 28.5004 129.5 28.5004 129.6 28.5004H130.6C130.7 28.5004 130.8 28.5004 130.8 28.4004C130.8 28.3004 130.9 28.2004 130.9 28.2004V16.6004C130.9 16.5004 130.9 16.4004 130.8 16.4004C130.7 16.4004 130.9 16.3004 130.8 16.3004ZM40 28.5004C40 28.6004 39.9 28.6004 39.9 28.6004C39.8 28.6004 39.8 28.7004 39.7 28.7004H38.1C37.6 28.7004 37.4 28.5004 37.3 28.4004L35 25.2004C34.4 24.4004 33.3 24.5004 33.3 24.5004H31.9V28.4004C31.9 28.5004 31.9 28.6004 31.8 28.6004C31.7 28.7004 31.6 28.7004 31.6 28.7004H30C29.9 28.7004 29.8 28.7004 29.8 28.6004C29.7 28.5004 29.7 28.4004 29.7 28.4004V16.6004C29.7 16.5004 29.7 16.4004 29.8 16.4004C29.9 16.3004 30 16.3004 30 16.3004H35.2C36.7 16.3004 38 16.7004 38.8 17.5004C39.1 17.9004 39.4 18.3004 39.6 18.7004C39.8 19.2004 39.9 19.7004 39.9 20.1004C39.9 21.9004 39 23.1004 37.3 23.8004C37.2 23.8004 37.1 23.9004 37 23.9004C37.2 24.0004 37.3 24.2004 37.4 24.4004L40 28.0004C40 28.1004 40.1 28.1004 40.1 28.2004C40 28.3004 40 28.4004 40 28.5004ZM37.5 20.4004C37.5 19.1004 36.6 18.4004 35 18.4004H31.9V22.3004H35C36.6 22.3004 37.5 21.6004 37.5 20.4004ZM161.4 5.70039H163.7V8.00039C163.7 8.10039 163.7 8.20039 163.8 8.20039C163.9 8.20039 164 8.30039 164 8.30039H165.5C165.6 8.30039 165.7 8.30039 165.7 8.20039C165.7 8.10039 165.8 8.00039 165.8 8.00039V5.70039H168.1C168.2 5.70039 168.3 5.70039 168.3 5.60039C168.4 5.50039 168.4 5.40039 168.4 5.40039V3.90039C168.4 3.80039 168.4 3.70039 168.3 3.70039C168.2 3.60039 168.1 3.60039 168.1 3.60039H165.8V1.20039C165.8 1.10039 165.8 1.00039 165.7 1.00039C165.7 0.900391 165.6 0.900391 165.5 0.900391H164C163.9 0.900391 163.8 0.900391 163.8 1.00039C163.7 1.10039 163.7 1.20039 163.7 1.20039V3.50039H161.4C161.3 3.50039 161.2 3.50039 161.2 3.60039C161.1 3.70039 161.1 3.80039 161.1 3.80039V5.20039V5.30039C161.1 5.30039 161.1 5.40039 161.2 5.40039L161.3 5.50039C161.3 5.70039 161.3 5.70039 161.4 5.70039ZM172.5 6.00039C172.8 6.00039 173 5.90039 173.3 5.80039C173.5 5.60039 173.7 5.40039 173.8 5.20039C173.9 4.90039 173.9 4.70039 173.9 4.40039C173.8 4.10039 173.7 3.90039 173.5 3.70039C173.3 3.50039 173.1 3.40039 172.8 3.30039C172.5 3.20039 172.3 3.30039 172 3.40039C171.7 3.50039 171.5 3.70039 171.4 3.90039C171.3 4.10039 171.2 4.40039 171.2 4.70039C171.2 5.10039 171.4 5.40039 171.6 5.70039C171.8 5.80039 172.2 6.00039 172.5 6.00039ZM151.8 6.00039C152.1 6.00039 152.3 5.90039 152.6 5.80039C152.8 5.60039 153 5.40039 153.1 5.20039C153.2 4.90039 153.2 4.60039 153.2 4.30039C153.1 4.00039 153 3.80039 152.8 3.60039C152.6 3.40039 152.4 3.30039 152.1 3.20039C151.8 3.10039 151.5 3.20039 151.3 3.30039C151 3.40039 150.8 3.60039 150.7 3.80039C150.6 4.00039 150.5 4.30039 150.5 4.60039C150.5 5.00039 150.6 5.30039 150.9 5.60039C151.1 5.80039 151.4 6.00039 151.8 6.00039ZM157.1 6.00039C157.4 6.00039 157.6 5.90039 157.9 5.80039C158.1 5.60039 158.3 5.40039 158.4 5.20039C158.5 4.90039 158.5 4.70039 158.5 4.40039C158.4 4.10039 158.3 3.90039 158.1 3.70039C157.9 3.50039 157.7 3.40039 157.4 3.30039C157.1 3.20039 156.9 3.30039 156.6 3.40039C156.3 3.50039 156.1 3.70039 156 3.90039C155.8 4.10039 155.8 4.40039 155.8 4.70039C155.8 5.10039 156 5.40039 156.2 5.70039C156.3 5.80039 156.7 6.00039 157.1 6.00039ZM177.8 6.00039C178 6.00039 178.2 6.00039 178.3 5.90039C178.5 5.80039 178.6 5.80039 178.8 5.60039C178.9 5.50039 179.1 5.30039 179.1 5.20039C179.2 5.00039 179.2 4.90039 179.3 4.70039C179.3 4.50039 179.3 4.30039 179.2 4.20039C179.1 4.00039 179.1 3.90039 178.9 3.70039C178.8 3.60039 178.6 3.40039 178.5 3.40039C178.3 3.30039 178.2 3.30039 178 3.20039C177.8 3.20039 177.6 3.20039 177.4 3.20039C177.2 3.20039 177 3.30039 176.8 3.50039C176.6 3.70039 176.4 3.90039 176.3 4.20039C176.2 4.50039 176.2 4.80039 176.3 5.00039C176.4 5.30039 176.6 5.50039 176.8 5.70039C177 5.90039 177.5 6.00039 177.8 6.00039ZM178.8 33.1004H150.7C150.6 33.1004 150.6 33.1004 150.5 33.1004C150.4 33.1004 150.4 33.2004 150.3 33.2004C150.3 33.3004 150.2 33.3004 150.2 33.4004C150.2 33.5004 150.2 33.5004 150.2 33.6004L150.7 35.1004C150.9 35.5004 151.1 35.5004 151.5 35.5004H177.7C178.1 35.5004 178.3 35.5004 178.5 35.1004L179 33.6004C179.4 33.4004 179.1 33.1004 178.8 33.1004ZM183.8 11.7004C183.1 10.7004 182.2 9.90039 181.1 9.30039C180 8.70039 178.8 8.40039 177.6 8.40039C176.9 8.40039 176.2 8.50039 175.6 8.70039L164.8 11.7004L154 8.60039C153.3 8.40039 152.7 8.30039 152 8.30039C150.8 8.30039 149.6 8.60039 148.5 9.20039C147.4 9.80039 146.5 10.6004 145.8 11.6004C145.1 12.6004 144.6 13.7004 144.5 14.9004C144.3 16.1004 144.5 17.3004 144.9 18.5004L148.6 28.7004C148.8 29.2004 149.1 29.7004 149.6 30.0004C150 30.3004 150.6 30.5004 151.1 30.5004H178.7C179.2 30.5004 179.8 30.3004 180.2 30.0004C180.6 29.7004 181 29.2004 181.2 28.7004L184.9 18.5004C185.3 17.4004 185.4 16.1004 185.3 14.9004C185 13.8004 184.5 12.7004 183.8 11.7004ZM151.4 28.0004C151.3 28.0004 151.1 28.0004 151 27.9004C150.9 27.8004 150.8 27.7004 150.7 27.6004L147.2 17.8004C146.9 17.0004 146.8 16.2004 146.9 15.4004C147 14.6004 147.3 13.8004 147.8 13.2004C148.3 12.5004 148.9 12.0004 149.6 11.6004C150.3 11.2004 151.1 11.0004 151.9 11.0004C152.4 11.0004 152.8 11.1004 153.2 11.2004L159.8 13.0004C159.1 13.3004 158.5 13.7004 157.9 14.2004C157.4 14.7004 156.9 15.3004 156.6 16.0004C156.3 16.7004 156.1 17.4004 156.1 18.1004C156.1 18.8004 156.2 19.6004 156.5 20.2004L159.6 28.0004H151.4ZM167.3 27.5004C167.2 27.7004 167.1 27.8004 167 27.9004C166.9 28.0004 166.7 28.0004 166.5 28.0004H163.1C162.9 28.0004 162.8 27.9004 162.6 27.9004C162.5 27.8004 162.4 27.7004 162.3 27.5004L159.1 19.3004C158.9 18.9004 158.9 18.5004 158.9 18.0004C158.9 17.6004 159 17.2004 159.2 16.8004C159.4 16.4004 159.7 16.1004 160 15.8004C160.3 15.5004 160.7 15.3004 161.1 15.2004L164.7 14.2004L168.3 15.2004C168.7 15.3004 169.1 15.5004 169.4 15.8004C169.7 16.1004 170 16.4004 170.2 16.8004C170.4 17.2004 170.5 17.6004 170.5 18.0004C170.5 18.4004 170.5 18.9004 170.3 19.3004L167.3 27.5004ZM182.3 17.7004L178.8 27.5004C178.8 27.6004 178.7 27.7004 178.5 27.8004C178.4 27.9004 178.2 27.9004 178.1 27.9004H169.8L172.9 20.1004C173.2 19.4004 173.3 18.7004 173.3 18.0004C173.3 17.3004 173.1 16.5004 172.8 15.9004C172.5 15.2004 172.1 14.6004 171.5 14.1004C171 13.6004 170.3 13.2004 169.6 12.9004L176.2 11.1004C176.6 11.0004 177.1 10.9004 177.5 10.9004C178.3 10.9004 179.1 11.1004 179.8 11.5004C180.5 11.9004 181.1 12.4004 181.6 13.1004C182.1 13.8004 182.4 14.5004 182.5 15.3004C182.7 16.2004 182.6 17.0004 182.3 17.7004Z" fill="#1C1C2D"/>
</svg>
