<svg width="99" height="40" viewBox="0 0 99 40" fill="none" xmlns="http://www.w3.org/2000/svg">
<path fill-rule="evenodd" clip-rule="evenodd" d="M11.4361 4.5002H16.1361L13.7361 0.700195L11.4361 4.5002ZM10.0361 7.2002L8.33606 10.3002C13.8361 8.7002 19.4361 10.3002 19.4361 10.3002L17.5361 7.1002H10.0361V7.2002ZM5.63606 16.5002C5.63606 16.5002 7.03606 13.1002 7.33606 12.8002C7.63606 12.5002 16.5361 11.6002 20.2361 12.8002C20.2361 12.8002 21.5361 15.3002 22.1361 16.5002C22.1361 16.5002 13.8361 13.5002 5.63606 16.5002ZM4.53606 19.6002L3.23606 23.9002C14.4361 17.6002 24.7361 23.9002 24.7361 23.9002L23.1361 19.6002C13.0361 15.9002 4.53606 19.6002 4.53606 19.6002ZM3.13606 38.3002L0.33606 37.4002C0.33606 37.4002 4.53606 29.0002 13.9361 28.9002C23.3361 28.7002 27.5361 37.6002 27.5361 37.6002L24.3361 38.3002C24.3361 38.3002 21.2361 32.0002 14.5361 31.8002C6.73606 31.6002 3.13606 38.3002 3.13606 38.3002ZM5.63606 39.1002L9.43606 39.7002C14.4361 34.7002 18.0361 39.7002 18.0361 39.7002L21.8361 39.1002C13.3361 28.6002 5.63606 39.1002 5.63606 39.1002ZM0.63606 32.4002L1.93606 27.1002C1.93606 27.1002 13.1361 18.3002 25.6361 27.1002L27.0361 32.7002C27.1361 32.7002 16.1361 19.0002 0.63606 32.4002ZM40.6361 27.5002H50.0361L51.8361 31.9002H56.7361L47.6361 11.4002H43.0361L34.0361 31.9002H38.8361L40.6361 27.5002ZM45.4361 16.0002L48.6361 23.8002H42.2361L45.4361 16.0002ZM67.9361 26.1002L71.8361 31.8002H76.8361L72.3361 25.3002C73.6361 24.7002 74.7361 23.9002 75.4361 22.8002C76.1361 21.7002 76.5361 20.4002 76.5361 18.9002C76.5361 17.4002 76.1361 16.1002 75.4361 14.9002C74.7361 13.8002 73.7361 12.9002 72.3361 12.3002C71.0361 11.7002 69.4361 11.4002 67.6361 11.4002H58.8361V31.9002H63.5361V26.2002H67.9361V26.1002ZM70.6361 16.1002C71.3361 16.7002 71.7361 17.6002 71.7361 18.7002C71.7361 19.8002 71.3361 20.7002 70.6361 21.3002C69.9361 21.9002 68.8361 22.2002 67.4361 22.2002H63.6361V15.1002H67.4361C68.8361 15.2002 69.9361 15.5002 70.6361 16.1002ZM84.3361 30.8002C86.0361 31.7002 87.8361 32.2002 89.9361 32.2002C91.7361 32.2002 93.3361 31.9002 94.7361 31.3002C96.1361 30.7002 97.3361 29.7002 98.3361 28.5002L95.3361 25.7002C93.9361 27.3002 92.2361 28.1002 90.2361 28.1002C88.9361 28.1002 87.8361 27.8002 86.8361 27.3002C85.8361 26.7002 85.0361 26.0002 84.5361 25.0002C83.9361 24.0002 83.7361 22.9002 83.7361 21.6002C83.7361 20.3002 84.0361 19.2002 84.5361 18.2002C85.1361 17.2002 85.8361 16.4002 86.8361 15.9002C87.8361 15.3002 88.9361 15.1002 90.2361 15.1002C92.2361 15.1002 93.9361 15.9002 95.3361 17.5002L98.3361 14.7002C97.3361 13.5002 96.1361 12.6002 94.7361 12.0002C93.3361 11.4002 91.7361 11.1002 89.9361 11.1002C87.8361 11.1002 85.9361 11.6002 84.3361 12.5002C82.6361 13.4002 81.3361 14.7002 80.4361 16.3002C79.4361 17.9002 79.0361 19.7002 79.0361 21.8002C79.0361 23.9002 79.5361 25.6002 80.4361 27.3002C81.3361 28.7002 82.6361 29.9002 84.3361 30.8002Z" fill="#1C1C2D"/>
</svg>
