<svg width="179" height="29" viewBox="0 0 179 29" fill="none" xmlns="http://www.w3.org/2000/svg">
<path fill-rule="evenodd" clip-rule="evenodd" d="M0.33606 28.0073C0.73606 27.8073 0.83606 27.3073 0.83606 27.0073V17.2073C0.83606 16.9073 0.63606 16.3073 0.33606 16.2073H5.13606C7.23606 16.2073 9.23606 17.1073 9.23606 19.3073C9.23606 20.5073 8.13606 21.6073 6.93606 21.7073C8.73606 21.7073 10.3361 22.7073 10.3361 24.7073C10.3361 27.3073 7.53606 28.0073 5.53606 28.0073H0.33606ZM4.23606 17.2073H3.53606V21.4073H3.93606C5.33606 21.4073 6.73606 20.9073 6.73606 19.3073C6.73606 17.7073 5.63606 17.2073 4.23606 17.2073ZM4.43606 22.5073H3.33606V26.9073C3.83606 27.1073 4.43606 27.1073 4.93606 27.1073C6.13606 27.1073 7.43606 26.6073 7.43606 24.8073C7.43606 22.8073 6.03606 22.5073 4.43606 22.5073ZM15.1361 17.2073H14.6361V21.4073H15.1361C16.5361 21.4073 17.4361 20.7073 17.4361 19.1073C17.4361 17.8073 16.3361 17.2073 15.1361 17.2073ZM21.1361 28.2073C20.6361 28.2073 20.2361 28.2073 19.7361 28.0073C18.8361 27.8073 17.7361 25.9073 17.2361 25.2073C16.5361 24.0073 16.0361 22.4073 14.4361 22.4073V26.9073C14.4361 27.2073 14.6361 27.8073 14.9361 27.9073H11.3361C11.7361 27.7073 11.8361 27.2073 11.8361 26.9073V17.2073C11.8361 16.9073 11.6361 16.3073 11.3361 16.2073H15.7361C17.7361 16.2073 20.0361 16.9073 20.0361 19.2073C20.0361 21.1073 18.4361 22.0073 16.6361 22.0073C19.1361 22.0073 20.7361 27.7073 23.4361 27.7073C22.7361 28.0073 21.8361 28.2073 21.1361 28.2073ZM23.6361 28.0073C24.0361 27.8073 24.1361 27.5073 24.1361 27.0073V17.2073C24.1361 16.7073 23.7361 16.3073 23.6361 16.2073H27.3361C26.9361 16.4073 26.8361 16.7073 26.8361 17.2073V26.9073C26.8361 27.4073 27.2361 27.8073 27.3361 27.9073H23.6361V28.0073ZM31.6361 28.0073C32.0361 27.8073 32.1361 27.3073 32.1361 27.0073V17.6073H29.4361C28.9361 17.6073 28.0361 17.6073 27.4361 17.9073L28.3361 16.2073H37.3361C38.0361 16.2073 38.7361 16.2073 39.4361 16.0073C39.0361 16.9073 38.0361 17.6073 37.4361 17.6073H34.6361V27.0073C34.6361 27.3073 34.8361 27.9073 35.1361 28.0073H31.6361ZM39.9361 28.0073C40.3361 27.8073 40.4361 27.5073 40.4361 27.0073V17.2073C40.4361 16.7073 40.0361 16.3073 39.9361 16.2073H43.6361C43.2361 16.4073 43.1361 16.7073 43.1361 17.2073V26.9073C43.1361 27.4073 43.5361 27.8073 43.6361 27.9073H39.9361V28.0073ZM51.0361 25.4073C51.0361 23.1073 45.5361 22.6073 45.5361 19.0073C45.5361 16.7073 47.6361 16.0073 49.6361 16.0073C50.5361 16.0073 51.7361 16.2073 52.4361 16.5073L52.6361 18.8073C52.1361 17.8073 51.0361 17.1073 49.8361 17.1073C48.9361 17.1073 48.0361 17.4073 48.0361 18.5073C48.0361 20.8073 53.5361 21.5073 53.5361 24.8073C53.5361 27.2073 51.4361 28.3073 49.1361 28.3073C47.9361 28.3073 46.4361 28.1073 45.4361 27.4073V26.2073C45.4361 25.7073 45.4361 25.2073 45.6361 24.8073C46.1361 26.2073 47.6361 27.2073 49.2361 27.2073C50.1361 27.2073 51.0361 26.6073 51.0361 25.4073ZM62.5361 28.0073C62.7361 27.8073 63.0361 27.5073 63.0361 27.0073V22.6073C62.3361 22.6073 61.4361 22.4073 60.5361 22.4073C59.4361 22.4073 58.5361 22.4073 57.8361 22.6073V27.0073C57.8361 27.5073 58.2361 27.9073 58.3361 28.0073H54.7361C54.9361 27.8073 55.2361 27.5073 55.2361 27.0073V17.2073C55.2361 16.7073 54.8361 16.3073 54.7361 16.2073H58.3361C57.9361 16.4073 57.8361 16.7073 57.8361 17.2073V21.2073C58.5361 21.2073 59.4361 21.4073 60.5361 21.4073C61.6361 21.4073 62.5361 21.4073 63.0361 21.2073V17.2073C63.0361 16.7073 62.6361 16.3073 62.5361 16.2073H66.1361C65.7361 16.4073 65.6361 16.7073 65.6361 17.2073V26.9073C65.6361 27.4073 65.8361 27.8073 66.1361 27.9073H62.5361V28.0073ZM79.4361 28.0073C79.6361 27.8073 79.6361 27.8073 79.6361 27.7073C79.6361 27.7073 79.6361 27.5073 79.4361 27.4073C79.4361 27.4073 78.3361 24.8073 78.3361 24.4073C77.6361 24.2073 76.7361 24.2073 76.0361 24.2073C75.3361 24.2073 74.6361 24.2073 73.9361 24.4073C73.7361 24.7073 72.7361 27.4073 72.7361 27.4073C72.5361 27.7073 72.5361 27.9073 72.5361 27.9073C72.5361 28.1073 72.7361 28.2073 72.9361 28.2073H70.3361C70.7361 28.0073 71.0361 27.7073 71.2361 27.3073L75.3361 17.1073V16.9073C75.3361 16.6073 75.1361 16.4073 74.8361 16.2073H78.0361L82.1361 27.2073C82.3361 27.7073 82.6361 27.9073 83.0361 28.1073H79.4361V28.0073ZM76.4361 18.5073L74.6361 23.2073H76.2361H78.2361L76.4361 18.5073ZM83.5361 28.0073C83.9361 27.8073 84.0361 27.5073 84.0361 27.0073V17.2073C84.0361 16.7073 83.6361 16.3073 83.5361 16.2073H87.2361C86.8361 16.4073 86.7361 16.7073 86.7361 17.2073V26.9073C86.7361 27.4073 87.1361 27.8073 87.2361 27.9073H83.5361V28.0073ZM92.9361 17.2073H92.4361V21.4073H92.9361C94.3361 21.4073 95.2361 20.7073 95.2361 19.1073C95.2361 17.8073 94.3361 17.2073 92.9361 17.2073ZM99.3361 28.2073C98.8361 28.2073 98.4361 28.2073 97.9361 28.0073C97.0361 27.8073 95.9361 25.9073 95.4361 25.2073C94.7361 24.0073 93.8361 22.4073 92.2361 22.4073V26.9073C92.2361 27.2073 92.4361 27.8073 92.7361 27.9073H89.1361C89.5361 27.7073 89.6361 27.2073 89.6361 26.9073V17.2073C89.6361 16.9073 89.4361 16.3073 89.1361 16.2073H93.5361C95.5361 16.2073 97.8361 16.9073 97.8361 19.2073C97.8361 21.1073 96.0361 22.0073 94.8361 22.0073C97.5361 22.2073 99.1361 27.7073 101.636 27.7073C100.936 28.0073 100.236 28.2073 99.3361 28.2073ZM114.436 17.4073L110.736 28.0073C110.336 28.0073 110.236 27.8073 110.036 27.8073C109.636 27.5073 109.136 26.1073 108.936 25.5073L107.336 21.3073L105.036 27.9073H103.936L99.8361 17.2073C99.6361 16.7073 99.3361 16.3073 98.9361 16.2073H102.536C102.336 16.4073 102.336 16.4073 102.336 16.7073C102.336 16.9073 102.336 17.0073 102.536 17.0073L105.236 24.1073L108.036 16.1073L111.236 23.8073L113.536 16.8073C113.536 16.6073 113.736 16.6073 113.736 16.5073C113.736 16.3073 113.736 16.3073 113.536 16.2073H115.836C114.936 16.4073 114.636 16.9073 114.436 17.4073ZM118.836 18.5073L117.036 23.2073H118.636H120.636L118.836 18.5073ZM122.036 28.0073C122.236 27.8073 122.236 27.8073 122.236 27.7073C122.236 27.7073 122.236 27.5073 122.036 27.4073C122.036 27.4073 120.936 24.8073 120.936 24.4073C120.236 24.2073 119.336 24.2073 118.636 24.2073C117.936 24.2073 117.236 24.2073 116.536 24.4073C116.336 24.7073 115.336 27.4073 115.336 27.4073C115.136 27.7073 115.136 27.9073 115.136 27.9073C115.136 28.1073 115.336 28.2073 115.536 28.2073H113.036C113.436 28.0073 113.736 27.7073 113.936 27.3073L117.836 17.0073V16.8073C117.836 16.5073 117.636 16.3073 117.336 16.1073H120.536L124.636 27.1073C124.836 27.6073 125.136 27.8073 125.536 28.0073H122.036ZM132.936 17.4073L130.136 22.3073V27.0073C130.136 27.3073 130.336 27.9073 130.636 28.0073H127.036C127.436 27.8073 127.536 27.3073 127.536 27.0073V22.3073L125.036 18.5073C124.836 18.2073 123.836 16.4073 122.536 16.4073C122.936 16.2073 123.936 16.1073 124.636 16.1073C125.836 16.1073 126.436 16.3073 127.136 17.3073L129.436 21.0073C129.636 20.7073 131.436 17.5073 131.436 17.5073C131.636 17.2073 131.836 16.8073 131.836 16.6073C131.836 16.4073 131.836 16.3073 131.636 16.3073H134.136C133.636 16.4073 133.236 16.9073 132.936 17.4073ZM139.636 25.4073C139.636 23.1073 134.136 22.6073 134.136 19.0073C134.136 16.7073 136.236 16.0073 138.236 16.0073C139.136 16.0073 140.336 16.2073 141.036 16.5073L141.236 18.8073C140.736 17.8073 139.636 17.1073 138.436 17.1073C137.536 17.1073 136.636 17.4073 136.636 18.5073C136.636 20.8073 142.136 21.5073 142.136 24.8073C142.136 27.2073 140.036 28.3073 137.736 28.3073C136.536 28.3073 134.936 28.1073 134.036 27.4073C134.036 27.1073 133.836 26.5073 133.836 26.2073C133.836 25.7073 133.836 25.2073 134.036 24.8073C134.536 26.2073 136.036 27.2073 137.636 27.2073C138.836 27.2073 139.636 26.6073 139.636 25.4073ZM178.336 10.7073C178.236 10.5073 178.236 10.4073 178.136 10.2073C178.036 10.0073 177.836 9.70727 177.536 9.40727C177.336 9.20727 177.136 9.00727 176.836 8.80727C175.736 8.00727 174.336 7.60727 173.136 7.40727C171.236 7.10727 169.036 7.20727 168.836 7.20727C168.136 7.20727 163.536 7.20727 162.336 7.30727C157.136 7.40727 150.636 7.40727 148.936 7.40727C131.536 7.50727 124.036 7.10727 115.636 5.30727C108.436 3.80727 104.536 2.30727 104.536 2.30727C110.836 2.10727 147.736 0.407267 154.436 0.207267C158.836 0.107267 161.936 0.00726693 164.436 0.207267C165.736 0.307267 166.936 0.407267 168.436 0.707267C169.736 0.907267 171.036 1.40727 171.736 1.60727C173.236 2.20727 174.536 3.10727 175.136 3.90727C175.136 3.90727 175.336 4.10727 175.536 4.50727C175.836 4.90727 176.136 5.40727 176.236 5.60727C177.136 7.10727 177.536 8.00727 177.736 8.30727C177.936 8.60727 178.036 9.00727 178.136 9.30727C178.236 9.60727 178.336 9.80727 178.336 10.0073C178.336 10.4073 178.336 10.6073 178.336 10.7073ZM176.736 14.2073C175.936 14.9073 174.836 15.7073 172.936 16.7073C168.736 19.1073 166.136 19.9073 166.136 19.9073C166.136 19.9073 161.136 19.1073 153.136 16.6073C153.136 16.6073 157.136 15.4073 159.036 14.7073C161.236 13.9073 162.436 13.5073 165.036 12.5073C168.336 11.2073 170.336 10.0073 171.736 8.90727C171.836 8.80727 171.936 8.80727 172.036 8.70727C172.036 8.70727 173.036 8.80727 173.836 9.10727C174.736 9.40727 175.736 9.90727 176.236 10.4073C176.836 10.9073 177.136 11.4073 177.136 11.6073C177.236 11.8073 177.336 12.0073 177.336 12.3073C177.336 12.3073 177.336 12.6073 177.336 12.9073C177.336 13.2073 177.236 13.6073 176.836 13.9073L176.736 14.2073Z" fill="#1C1C2D"/>
</svg>
