<svg width="148" height="29" viewBox="0 0 148 29" fill="none" xmlns="http://www.w3.org/2000/svg">
<path d="M124.236 6.4498C122.436 6.4498 120.736 6.7498 119.636 7.0498C119.036 7.2498 118.836 7.5498 118.836 7.9498V9.5498C118.836 10.2498 119.236 10.4498 119.836 10.3498C121.036 10.1498 122.336 10.0498 123.836 10.0498C125.936 10.0498 126.236 10.6498 126.236 11.7498V12.3498C124.736 12.2498 122.936 12.2498 121.436 12.5498C118.936 13.0498 117.336 14.5498 117.336 17.5498C117.336 21.0498 119.336 22.5498 123.936 22.5498C126.436 22.5498 128.436 22.3498 129.836 22.0498C130.336 21.9498 130.636 21.4498 130.636 20.8498V11.8498C130.636 8.9498 130.136 6.4498 124.236 6.4498ZM126.236 19.0498C125.936 19.1498 124.536 19.1498 124.036 19.1498C122.336 19.1498 121.636 18.5498 121.636 17.1498C121.636 15.9498 122.436 15.4498 123.536 15.3498C124.236 15.2498 125.336 15.2498 126.236 15.3498V19.0498ZM104.036 7.6498H98.436V13.3498H104.036C105.436 13.3498 106.136 12.7498 106.136 10.5498C106.136 8.14981 105.436 7.6498 104.036 7.6498ZM112.536 0.0498047H91.036C89.736 0.0498047 88.636 1.1498 88.636 2.4498V23.8498C88.636 25.1498 89.736 26.2498 91.036 26.2498H112.436C113.736 26.2498 114.836 25.1498 114.836 23.8498V2.4498C114.836 1.1498 113.836 0.0498047 112.536 0.0498047ZM107.836 16.6498C106.936 16.9498 105.936 17.0498 104.636 17.0498H98.536V21.5498C98.536 22.0498 98.136 22.4498 97.636 22.4498H94.936C94.436 22.4498 94.036 22.0498 94.036 21.5498V4.7498C94.036 4.2498 94.436 3.8498 94.936 3.8498H104.736C106.036 3.8498 107.136 3.8498 107.936 4.2498C109.836 5.0498 110.836 7.0498 110.836 10.4498C110.736 13.8498 109.636 15.8498 107.836 16.6498ZM147.536 21.1498C147.536 26.0498 145.536 28.3498 140.336 28.3498C138.436 28.3498 136.636 28.0498 135.436 27.6498C134.836 27.4498 134.636 27.1498 134.636 26.6498V25.1498C134.636 24.6498 134.936 24.2498 135.536 24.3498C136.936 24.6498 138.536 24.7498 140.136 24.7498C142.636 24.7498 143.036 24.1498 143.036 22.1498C142.136 22.3498 141.136 22.4498 140.136 22.4498C135.536 22.4498 133.636 20.9498 133.636 16.8498V7.6498C133.636 7.1498 134.036 6.7498 134.536 6.7498H137.236C137.736 6.7498 138.136 7.1498 138.136 7.6498V16.9498C138.136 18.4498 138.936 19.0498 140.736 19.0498C141.536 19.0498 142.336 18.8498 142.936 18.7498V7.7498C142.936 7.2498 143.336 6.8498 143.836 6.8498H146.536C147.036 6.8498 147.436 7.2498 147.436 7.7498L147.536 21.1498ZM82.536 12.1498V21.5498C82.536 22.0498 82.136 22.4498 81.636 22.4498H78.936C78.436 22.4498 78.036 22.0498 78.036 21.5498V12.2498C78.036 11.0498 77.836 10.3498 75.636 10.3498C74.436 10.3498 73.836 10.4498 73.036 10.6498V21.5498C73.036 22.0498 72.636 22.4498 72.136 22.4498H69.336C68.836 22.4498 68.436 22.0498 68.436 21.5498V8.3498C68.436 8.0498 68.436 7.5498 69.136 7.3498C70.136 7.0498 72.736 6.4498 75.336 6.4498C80.736 6.4498 82.536 8.5498 82.536 12.1498Z" fill="#1C1C2D"/>
<path d="M62.7361 22.4498H59.3361C58.7361 22.4498 58.3361 22.0498 58.2361 21.7498L54.3361 16.4498V21.4498C54.3361 21.9498 53.9361 22.3498 53.3361 22.3498H50.7361C50.2361 22.3498 49.7361 21.9498 49.7361 21.4498V2.4498C49.7361 1.9498 50.1361 1.5498 50.7361 1.5498H53.3361C53.8361 1.5498 54.3361 1.9498 54.3361 2.4498V12.5498L58.6361 7.2498C58.9361 6.9498 59.2361 6.7498 59.6361 6.7498H62.7361C63.4361 6.7498 63.7361 7.2498 63.3361 7.8498L57.9361 14.2498L63.4361 21.4498C63.7361 22.0498 63.3361 22.4498 62.7361 22.4498ZM42.9361 10.2498C44.2361 10.1498 45.6361 10.3498 46.4361 10.4498C47.1361 10.5498 47.3361 10.2498 47.3361 9.64981V7.9498C47.3361 7.3498 47.1361 7.0498 46.4361 6.8498C46.0361 6.7498 44.8361 6.4498 42.8361 6.4498C36.6361 6.4498 36.3361 12.1498 36.2361 13.1498C36.1361 14.1498 36.1361 14.9498 36.2361 15.8498C36.3361 16.9498 36.7361 22.5498 42.8361 22.5498C44.8361 22.5498 46.1361 22.2498 46.4361 22.1498C47.0361 22.0498 47.3361 21.6498 47.3361 21.0498V19.3498C47.3361 18.6498 47.0361 18.4498 46.3361 18.5498C45.4361 18.6498 43.9361 18.7498 42.9361 18.7498C41.5361 18.7498 40.8361 17.8498 40.6361 15.6498C40.5361 14.8498 40.5361 13.9498 40.6361 13.1498C40.8361 11.1498 41.5361 10.3498 42.9361 10.2498ZM33.7361 7.5498C33.7361 7.0498 33.3361 6.6498 32.8361 6.6498H30.1361C29.6361 6.6498 29.2361 7.0498 29.2361 7.5498V21.4498C29.2361 21.9498 29.6361 22.3498 30.1361 22.3498H32.8361C33.3361 22.3498 33.7361 21.9498 33.7361 21.4498V7.5498ZM26.5361 2.4498V23.8498C26.5361 25.1498 25.4361 26.2498 24.1361 26.2498H2.73606C1.43606 26.2498 0.33606 25.1498 0.33606 23.8498V2.4498C0.33606 1.1498 1.43606 0.0498047 2.73606 0.0498047H24.1361C25.4361 0.0498047 26.5361 1.1498 26.5361 2.4498ZM22.3361 10.4498C22.3361 7.0498 21.3361 4.9498 19.4361 4.2498C18.5361 3.9498 17.5361 3.8498 16.2361 3.8498H6.43606C5.93606 3.8498 5.53606 4.2498 5.53606 4.7498V21.4498C5.53606 21.9498 5.93606 22.3498 6.43606 22.3498H9.13606C9.63606 22.3498 10.0361 21.9498 10.0361 21.4498V17.0498H16.1361C17.4361 17.0498 18.5361 17.0498 19.3361 16.6498C21.3361 15.8498 22.3361 13.8498 22.3361 10.4498ZM17.8361 10.4498C17.8361 12.6498 17.1361 13.2498 15.7361 13.2498H10.0361V7.6498H15.6361C17.1361 7.6498 17.8361 8.1498 17.8361 10.4498Z" fill="#1C1C2D"/>
</svg>
