<svg width="143" height="31" viewBox="0 0 143 31" fill="none" xmlns="http://www.w3.org/2000/svg">
<path d="M12.7 8.6C15.5 8.6 17.7 10.8 17.7 13.6C17.7 16.3 15.5 18.6 12.7 18.6C9.9 18.6 7.7 16.4 7.7 13.6C7.7 10.8 9.9 8.6 12.7 8.6ZM10.8 20.5C9.6 19.4 8.4 18.6 7.5 17.2C6.7 16.1 6.3 14.9 6.2 13.6C6.2 12.5 6.5 11.4 7.2 10.5C8.1 9.2 9 7.9 9.7 6.7C10 6.1 10.4 5.6 10.7 4.9C11.4 3.6 12.5 2.1 11.4 0.4L11.3 0.3V0.1H11.2C11.2 0.1 11.1 0.1 11.1 0.2C11.1 0.2 11.1 0.2 11 0.3C11 0.4 7.6 5 0.3 14.8C0.1 15.1 0 15.4 0 15.6C0 16 0.1 16.3 0.3 16.6L4.3 23C4.7 23.7 4.8 25 4.8 26C4.8 26.4 4.8 27.4 4.8 28V28.1C4.8 28.7 5.1 29.3 5.7 29.6C5.9 30 6.1 30.1 6.4 30.1H6.6C6.8 30.1 7 30.1 7.2 30.1H11.9V24.6C11.9 23.7 11.9 22.9 11.8 22C11.6 21.4 11.3 20.9 10.8 20.5ZM13.6 22C13.5 22.9 13.5 23.7 13.5 24.6V30.1H18.2C18.5 30.1 18.6 30.1 18.8 30.1H19C19.2 30.1 19.5 30 19.7 29.9C20.2 29.6 20.6 29 20.6 28.3V28.2C20.6 27.6 20.6 26.6 20.6 26.2C20.6 25.2 20.7 23.9 21.1 23.2L25.1 16.8C25.3 16.5 25.4 16.2 25.4 15.8C25.4 15.5 25.3 15.2 25.2 15C17.8 5 14.4 0.4 14.3 0.2C14.3 0.2 14.3 0.1 14.2 0.1L14.1 0H14V0.2L13.9 0.3C12.9 2 13.9 3.5 14.6 4.8C15 5.5 15.3 6.1 15.6 6.6C16.3 7.8 17.2 9.1 18 10.4C18.7 11.3 19 12.4 19 13.5C19 14.8 18.5 16.1 17.7 17.1C16.8 18.5 15.7 19.2 14.4 20.4C14.1 20.9 13.7 21.4 13.6 22ZM95.9 3.4H91.1V27.3H95.9V3.4ZM53.1 18.5C52.7 17.8 52.2 17.2 51.5 16.8C50.8 16.3 50.1 16 49.3 15.7C48.5 15.4 47.6 15.2 46.8 15C46 14.8 45.1 14.6 44.3 14.5C43.6 14.4 42.8 14.2 42.1 13.9L41.8 13.8L41.6 13.7C41.4 13.6 41.3 13.5 41.1 13.5C40.2 12.9 39.9 11.6 40.5 10.7C40.7 10.3 41.1 10.1 41.5 9.9C41.9 9.8 42.3 9.7 42.7 9.6C43.1 9.5 43.5 9.5 43.9 9.5C44.9 9.5 45.8 9.7 46.7 10.1C47.5 10.5 48 11.2 48.2 12.3H53C52.9 11.2 52.6 10.2 52 9.3C51.5 8.5 50.8 7.8 50 7.3C49.2 6.8 48.3 6.4 47.3 6.2C46.3 6 45.2 5.8 44.2 5.9C43.2 5.9 42.2 6 41.2 6.2C40.2 6.4 39.2 6.7 38.3 7.2C37.5 7.7 36.7 8.3 36.2 9.1C35.6 9.9 35.3 10.9 35.4 12C35.4 12.9 35.6 13.8 36 14.6C36.4 15.3 36.9 15.9 37.5 16.4C38.2 16.9 38.9 17.2 39.7 17.5C40.5 17.8 41.4 18 42.2 18.2C43 18.4 43.9 18.6 44.7 18.7C45.4 18.8 46.2 19 46.9 19.3C47.5 19.5 48 19.8 48.4 20.2C49.3 21 49.3 22.4 48.5 23.3L48.4 23.4C48.1 23.6 47.8 23.8 47.5 24C47 24.2 46.5 24.3 45.9 24.4C45.4 24.5 44.9 24.5 44.4 24.5C43.3 24.5 42.2 24.3 41.2 23.7C40.3 23.2 39.8 22.2 39.7 20.9H35.1C35.1 22 35.4 23.1 35.9 24.1C36.4 25 37 25.8 37.9 26.4C38.8 27 39.8 27.5 40.9 27.8C42.1 28.1 43.3 28.2 44.6 28.2C45.7 28.2 46.8 28.1 47.9 27.8C49 27.6 50 27.2 50.9 26.6C51.8 26.1 52.6 25.4 53.1 24.5C53.7 23.6 54 22.4 53.9 21.3C53.7 20.2 53.5 19.3 53.1 18.5ZM89 13.7C88.8 12.9 88.5 12.1 88 11.5C87.5 10.9 86.8 10.4 86.1 10.1C85.1 9.7 84 9.5 83 9.6C82.3 9.6 81.6 9.7 80.9 9.9C79.8 10.3 78.8 11 78 11.9C77.9 12 77.9 12.1 77.8 12.2V10H73V27.3H77.8V18.2C77.8 16.4 78.1 15.2 78.7 14.4C78.8 14.3 78.8 14.2 78.9 14.1C79.3 13.7 79.8 13.3 80.3 13.1C81.9 12.6 83.7 13.5 84.2 15.1C84.4 15.8 84.5 16.6 84.5 17.4V27.2H89.3V16.7C89.3 15.7 89.2 14.7 89 13.7ZM141.6 12.9C141.3 12.2 140.9 11.5 140.3 11C139.7 10.5 139 10.1 138.3 9.9C137.5 9.7 136.6 9.6 135.8 9.6C134.7 9.6 133.6 9.9 132.7 10.5C131.9 11 131.1 11.7 130.6 12.5C130.2 11.5 129.5 10.7 128.5 10.3C127.6 9.9 126.5 9.7 125.5 9.7C124.4 9.7 123.4 9.9 122.5 10.4C121.7 10.9 121 11.5 120.4 12.2V10H115.6V27.3H120.4V17.3C120.4 16.6 120.5 15.9 120.8 15.2C121 14.7 121.3 14.3 121.7 14C122 13.7 122.4 13.5 122.8 13.4L123.1 13.3C123.3 13.3 123.4 13.3 123.6 13.3C125.1 13.3 126.4 14.4 126.6 15.9C126.6 16 126.6 16 126.6 16.1C126.6 16.6 126.6 17.1 126.6 17.6V27.3H131.4V17.6C131.4 17.1 131.4 16.5 131.5 16C131.5 15.7 131.6 15.4 131.8 15.1C132.4 13.6 134.1 12.8 135.6 13.4C136.6 13.8 137.3 14.6 137.4 15.7V15.8C137.4 16.3 137.5 16.9 137.5 17.4V27.2H142.3V15.7C142 14.8 141.9 13.8 141.6 12.9ZM66.3 18.9C66.1 19.1 65.8 19.2 65.5 19.3C65.2 19.4 64.9 19.5 64.5 19.6C64.2 19.7 63.8 19.7 63.4 19.8C62.6 19.9 61.8 20.1 61.1 20.3H61C60.3 20.5 59.8 21.1 59.6 21.8C59.6 21.8 59.5 22 59.5 22.1C59.5 22.1 59.5 22.1 59.5 22.2C59.5 22.3 59.5 22.3 59.5 22.4C59.5 22.5 59.5 22.5 59.5 22.6C59.5 22.7 59.5 22.7 59.5 22.8C59.5 23.1 59.6 23.3 59.8 23.6C60.1 24.1 60.5 24.4 61 24.6C61.1 24.6 61.2 24.7 61.4 24.7C61.8 24.8 62.1 24.8 62.5 24.8C63.3 24.8 64 24.7 64.7 24.3C65.2 24 65.6 23.6 65.8 23.2C66 22.8 66.2 22.3 66.3 21.9C66.4 21.5 66.4 21.2 66.4 20.8L66.3 18.9ZM66.8 27.3C66.7 27 66.6 26.7 66.6 26.5C66.5 26.2 66.5 25.9 66.5 25.7C65.8 26.5 64.8 27 63.8 27.3C62.8 27.6 61.7 27.8 60.7 27.8C60 27.8 59.3 27.7 58.5 27.5C56.6 27 55.2 25.5 54.8 23.7C54.7 23.3 54.7 23 54.7 22.6C54.7 22.4 54.7 22.1 54.7 21.9C55 20.2 56.2 18.7 57.8 18C57.8 18 58.2 17.8 58.4 17.8C59.1 17.6 59.8 17.5 60.5 17.4C61.2 17.3 61.9 17.2 62.6 17.1C63.2 17 63.8 16.9 64.4 16.8C64.5 16.8 64.7 16.7 64.8 16.7C65.8 16.3 66.4 15.2 66 14.2C65.8 13.7 65.4 13.3 64.9 13.1C64.3 12.9 63.8 12.8 63.2 12.8C62.7 12.8 62.2 12.9 61.8 13C61.1 13.2 60.5 13.7 60.3 14.4C60.1 14.9 60 15.3 60 15.8H55.2V15.7C55.2 14.1 55.9 12.5 57.2 11.5H57.3H57.4C57.6 11.3 57.8 11.2 58 11.1C58.8 10.6 59.7 10.3 60.6 10.1C61.5 9.9 62.5 9.8 63.5 9.8C64.4 9.8 65.3 9.9 66.2 10C66.9 10.1 67.6 10.3 68.2 10.5C69.7 11.2 70.8 12.5 71.1 14.1C71.2 14.4 71.2 14.7 71.2 15V23.7C71.2 24.4 71.2 25.2 71.3 25.9C71.3 26.5 71.5 27 71.8 27.5L66.8 27.3ZM108.9 18.9C108.7 19.1 108.4 19.2 108.1 19.3C107.8 19.4 107.5 19.5 107.1 19.6C106.8 19.7 106.4 19.7 106 19.8C105.2 19.9 104.4 20.1 103.7 20.3H103.6C102.9 20.5 102.4 21.1 102.2 21.8C102.2 21.8 102.1 22 102.1 22.1C102.1 22.1 102.1 22.1 102.1 22.2C102.1 22.3 102.1 22.3 102.1 22.4C102.1 22.5 102.1 22.5 102.1 22.6C102.1 22.7 102.1 22.7 102.1 22.8C102.1 23.1 102.2 23.3 102.4 23.6C102.7 24.1 103.1 24.4 103.6 24.6C103.7 24.6 103.8 24.7 103.9 24.7C104.3 24.8 104.6 24.8 105 24.8C105.8 24.8 106.5 24.7 107.2 24.3C107.7 24 108.1 23.6 108.3 23.2C108.5 22.8 108.7 22.3 108.8 21.9C108.9 21.5 108.9 21.2 108.9 20.8V18.9ZM113.7 25.7C113.7 26.3 113.9 26.8 114.2 27.3H109.4C109.3 27 109.2 26.7 109.2 26.5C109.1 26.2 109.1 25.9 109.1 25.7C108.4 26.5 107.4 27 106.4 27.3C105.4 27.6 104.3 27.8 103.3 27.8C102.6 27.8 101.9 27.7 101.1 27.5C99.2 27 97.8 25.5 97.4 23.7C97.3 23.3 97.3 23 97.3 22.6C97.3 22.4 97.3 22.1 97.3 21.9C97.6 20.2 98.8 18.7 100.4 18C100.4 18 100.8 17.8 101 17.8C101.7 17.6 102.4 17.5 103.1 17.4C103.8 17.3 104.5 17.2 105.2 17.1C105.8 17 106.4 16.9 107.1 16.8C107.2 16.8 107.4 16.7 107.5 16.7C108.5 16.3 109.1 15.2 108.7 14.2C108.5 13.7 108.1 13.3 107.6 13.1C107 12.9 106.5 12.8 105.9 12.8C105.4 12.8 104.9 12.9 104.5 13C103.8 13.2 103.2 13.7 103 14.4C102.8 14.9 102.7 15.3 102.7 15.8H97.9V15.7C97.9 14.1 98.6 12.5 99.9 11.4H100H100.1C100.3 11.2 100.5 11.1 100.7 11C101.5 10.5 102.4 10.2 103.3 10C104.2 9.8 105.2 9.7 106.2 9.7C107.1 9.7 108 9.8 108.9 9.9C109.6 10 110.3 10.2 110.9 10.4C112.7 11.2 113.9 13 113.9 14.9V23.6C113.6 24.2 113.7 25 113.7 25.7Z" fill="#1C1C2D"/>
</svg>
