<svg width="142" height="52" viewBox="0 0 142 52" fill="none" xmlns="http://www.w3.org/2000/svg">
<path fill-rule="evenodd" clip-rule="evenodd" d="M81.4001 32.0289H82.456L83.1331 29.6173C83.5861 30.2194 84.4147 30.3709 85.2441 30.3709C86.8255 30.3709 88.5585 29.3916 88.9357 27.8843C89.3121 26.3013 88.2586 25.3212 86.6006 25.3212C85.6962 25.3212 84.7169 25.6226 84.0383 26.1506C84.1132 25.8491 84.1132 25.6976 84.189 25.4719H83.1331C83.0581 25.8491 82.9824 26.2256 82.8324 26.5262L81.4001 32.0289ZM83.5861 27.8843C83.8868 26.6777 84.9418 25.9241 86.2234 25.9241C87.4284 25.9241 88.1071 26.6777 87.8049 27.8843C87.5042 29.0894 86.4491 29.768 85.1675 29.768C83.9633 29.768 83.2838 29.0894 83.5861 27.8843ZM90.4438 30.2194H91.4981L93.3068 23.4375H92.3282L90.4438 30.2194ZM96.0956 26.7543C96.3213 26.2263 97 25.9249 97.7536 25.9249C98.8095 25.9249 99.3366 26.2271 99.1109 27.1315V27.2822H97.2257C95.342 27.3572 94.2861 27.8843 94.0604 28.8637C93.8347 29.768 94.5884 30.3709 95.9441 30.3709C97 30.3709 97.6786 30.296 98.5065 29.5423C98.5065 29.768 98.4315 29.9937 98.4315 30.2194H99.4108C99.4108 29.9937 99.4874 29.6931 99.5616 29.3166L100.24 26.98C100.541 25.7734 99.5616 25.3212 98.0543 25.3212C96.9242 25.3212 95.417 25.6227 95.0405 26.7535L96.0956 26.7543ZM98.8837 28.11C98.583 29.2401 97.6786 29.768 96.3971 29.768C95.3412 29.768 95.0413 29.3166 95.1905 28.8637C95.3412 28.11 96.0948 27.9593 97.2249 27.9593C98.0543 27.8843 98.5822 27.8843 98.8829 27.8843V28.11H98.8837ZM101.748 30.2194H102.804L103.406 27.9585C103.783 26.4513 105.064 25.9241 106.044 25.9241C107.099 25.9241 107.627 26.5262 107.325 27.5821L106.647 30.2194H107.702L108.381 27.5071C108.832 26.0748 107.928 25.3212 106.421 25.3212C105.441 25.3212 104.612 25.6226 103.783 26.3005C103.858 25.9991 103.858 25.6976 103.934 25.4719H102.953C102.878 25.8491 102.804 26.2256 102.728 26.5262L101.748 30.2194ZM110.188 30.2194H111.244L111.846 27.9585C112.223 26.4513 113.504 25.9241 114.485 25.9241C115.539 25.9241 116.067 26.5262 115.767 27.5821L115.088 30.2194H116.144L116.821 27.5071C117.274 26.0748 116.37 25.3212 114.862 25.3212C113.881 25.3212 113.054 25.6226 112.223 26.3005C112.3 25.9991 112.374 25.6976 112.374 25.4719H111.395C111.327 25.825 111.252 26.1765 111.169 26.5262L110.188 30.2194ZM118.704 30.2194H119.76L121.041 25.4719H119.985L118.704 30.2194ZM120.287 24.3419H121.343L121.568 23.4375H120.513L120.287 24.3419ZM122.322 30.2194H123.378L123.98 27.9585C124.357 26.4513 125.638 25.9241 126.617 25.9241C127.598 25.9241 128.2 26.5262 127.899 27.5821L127.22 30.2194H128.276L128.955 27.5071C129.406 26.0748 128.502 25.3212 126.995 25.3212C126.015 25.3212 125.186 25.6226 124.357 26.3005C124.432 25.9991 124.432 25.6976 124.508 25.4719H123.529C123.452 25.8491 123.378 26.2256 123.301 26.5262L122.322 30.2194ZM130.461 30.5217C130.236 31.6517 130.838 32.1797 132.948 32.1797C135.134 32.1797 136.415 31.501 136.943 29.5423L137.771 26.3771C137.848 25.9999 137.922 25.7734 138.073 25.4719H137.094C136.943 25.6976 136.868 25.9241 136.868 26.1506C136.34 25.5477 135.738 25.3212 134.757 25.3212C132.949 25.3212 131.441 26.3005 130.99 27.7328C130.614 29.1651 131.667 30.1445 133.477 30.1445C134.349 30.1342 135.194 29.8437 135.888 29.3158H135.965L135.814 29.6165C135.512 30.7466 134.91 31.5002 133.026 31.5002C131.819 31.5002 131.443 31.0488 131.594 30.5209L130.461 30.5217ZM132.119 27.7336C132.422 26.6777 133.324 25.9249 134.682 25.9249C136.114 25.9249 136.64 26.6785 136.34 27.7336C136.037 28.7895 135.133 29.4666 133.777 29.4666C132.345 29.4658 131.817 28.7887 132.119 27.7336Z" fill="#46505B"/>
<path fill-rule="evenodd" clip-rule="evenodd" d="M7.39402 52L51.0291 0H66.1767C75.1446 0 82.9074 5.87835 82.9074 15.8263C82.9074 25.8501 75.1454 32.1798 66.3274 32.1798H40.4032L46.733 24.342H66.3274C71.3772 24.342 75.1454 21.101 75.0704 15.8255C74.9939 7.61132 66.3274 7.83702 66.3274 7.83702H54.6465L17.5677 52H7.39402ZM25.0291 24.342L18.6236 32.1798H16.3627C6.86687 32.1798 0.159912 26.3015 0.159912 16.3535C0.159912 6.33053 7.84698 0 16.7391 0H45.2265L38.821 7.8378H16.7391C11.6901 7.8378 7.8462 11.0788 7.99693 16.3535C8.07268 24.5685 16.7391 24.342 16.7391 24.342H25.0291Z" fill="#363636" fill-opacity="0.4"/>
<path fill-rule="evenodd" clip-rule="evenodd" d="M39.9507 39.0356H41.2315L41.9094 35.7196H43.4924L43.7189 34.8917H39.2721L39.0464 35.7196H40.7036L39.9507 39.0356ZM44.7732 36.9262C44.924 36.2475 45.3761 35.6446 46.2805 35.6446C47.1856 35.6446 47.4113 36.2467 47.1856 36.9262C47.0349 37.6798 46.6577 38.2819 45.6784 38.2819C44.7732 38.2819 44.6233 37.6798 44.7732 36.9262ZM43.4924 36.9262C43.191 38.2077 43.7939 39.1871 45.5269 39.1871C47.2606 39.1871 48.2399 38.2077 48.4664 36.9262C48.7679 35.7196 48.2399 34.7402 46.432 34.7402C44.6983 34.7402 43.7939 35.7196 43.4924 36.9262ZM51.1038 37.6798C50.953 38.4334 51.0288 39.1871 52.7617 39.1871C53.6661 39.1871 54.9469 38.9614 55.1734 37.7548C55.3241 36.9262 54.797 36.6989 54.0425 36.5497L53.5154 36.399C53.0632 36.3225 52.6868 36.2483 52.7617 35.946C52.8367 35.7203 53.0632 35.5696 53.5911 35.5696C53.9676 35.5696 54.3448 35.6462 54.2698 36.0226H55.4756C55.5506 35.1932 55.2491 34.741 53.7419 34.741C52.7625 34.741 51.7074 35.1174 51.481 36.1733C51.3302 36.9269 52.0081 37.2276 52.6868 37.3034L53.2139 37.4541C53.7411 37.5291 53.9676 37.6033 53.8918 37.9055C53.8918 38.1312 53.7411 38.3569 52.9875 38.3569C52.4595 38.3569 52.2338 38.2077 52.3088 37.6798H51.1038ZM61.1275 34.8917H59.9217L59.4695 37.0777C59.3188 37.8313 58.9415 38.2827 58.1879 38.2827C57.51 38.2827 57.2086 37.9805 57.3585 37.2268L57.8865 34.8917H56.6049L56.0777 37.3034C55.8513 38.6591 56.5299 39.1871 57.9614 39.1871C59.4687 39.1871 60.3731 38.5849 60.6745 37.1526L61.1275 34.8917ZM66.3272 36.2475C66.5536 35.1174 65.5735 34.7402 64.5184 34.7402C63.0112 34.7402 61.8811 35.4189 61.5797 36.9262C61.2032 38.5076 62.1068 39.1871 63.3876 39.1871C64.5934 39.1871 65.7243 38.8848 66.0257 37.604H64.7441C64.5934 38.132 64.1412 38.2827 63.6891 38.2827C62.8597 38.2827 62.634 37.6806 62.7847 36.9269C63.0104 36.1733 63.4626 35.6454 64.292 35.6454C64.7441 35.6454 65.0456 35.7961 65.0456 36.2475H66.3272ZM71.4527 36.2475C71.6784 35.1174 70.6982 34.7402 69.6439 34.7402C68.1367 34.7402 67.0816 35.4189 66.7044 36.9262C66.4029 38.5076 67.2323 39.1871 68.5131 39.1871C69.7939 39.1871 70.849 38.8848 71.1504 37.604H69.8696C69.7189 38.132 69.2667 38.2827 68.8145 38.2827C67.9852 38.2827 67.8352 37.6806 67.9852 36.9269C68.1359 36.1733 68.6638 35.6454 69.4167 35.6454C69.8689 35.6454 70.2461 35.7961 70.1703 36.2475H71.4527ZM71.6776 39.0356H75.3708L75.5215 38.2077H73.1099L73.2606 37.3776H75.5215L75.7472 36.4732H73.4863L73.6378 35.7196H75.9729L76.2002 34.8917H72.5819L71.6776 39.0356ZM76.4259 39.0356H80.1191L80.2698 38.2077H77.8582L78.0097 37.3776H80.2698L80.419 36.4732H78.1588L78.3861 35.7196H80.7212L80.9469 34.8917H77.3302L76.4259 39.0356ZM81.1741 39.0356H83.4351C84.2637 39.0356 84.8658 38.8848 85.3187 38.5842C85.8302 38.164 86.177 37.5769 86.2981 36.9262C86.4488 36.1725 86.2981 35.5688 85.8467 35.1916C85.4703 34.9659 84.9423 34.891 84.4144 34.891H82.0793L81.1741 39.0356ZM83.1328 35.6446H83.8865C84.7158 35.6446 85.2438 35.9453 85.0931 36.9262C84.7908 38.0562 84.1122 38.2077 83.1328 38.2077H82.5307L83.1328 35.6446ZM88.7855 39.0356H89.9905L90.8956 34.8917H89.6906L88.7855 39.0356ZM90.9714 39.0356H92.0257L92.7044 36.0218L93.9094 39.0356H95.5674L96.4718 34.8917H95.3417L94.7388 37.9055L93.458 34.8917H91.8742L90.9714 39.0356ZM98.8084 39.0356H101.22C102.576 39.0356 103.104 38.4334 103.254 37.9055C103.329 37.3776 103.029 36.9262 102.35 36.8496C102.952 36.7747 103.406 36.3982 103.48 35.8703C103.557 35.3424 103.254 34.891 102.124 34.891H99.6362L98.8084 39.0356ZM100.316 37.3034H101.446C101.748 37.3034 102.048 37.4541 101.974 37.8313C101.899 38.2085 101.597 38.2827 101.22 38.2827H100.164L100.316 37.3034ZM100.692 35.6446H101.521C102.049 35.6446 102.276 35.7196 102.199 36.096C102.124 36.3982 101.748 36.549 101.22 36.549H100.466L100.692 35.6446ZM109.283 34.8917H108.078L107.626 37.0777C107.476 37.8313 107.098 38.2827 106.345 38.2827C105.666 38.2827 105.364 37.9805 105.515 37.2268L105.967 34.8917H104.762L104.234 37.3034C104.008 38.6591 104.687 39.1871 106.117 39.1871C107.626 39.1871 108.529 38.5849 108.831 37.1526L109.283 34.8917ZM109.585 37.6798C109.434 38.4334 109.51 39.1871 111.243 39.1871C112.147 39.1871 113.352 38.9614 113.655 37.7548C113.805 36.9262 113.203 36.6989 112.525 36.5497L111.997 36.399C111.545 36.3225 111.168 36.2483 111.243 35.946C111.243 35.7203 111.545 35.5696 112.072 35.5696C112.449 35.5696 112.749 35.6462 112.749 36.0226H113.88C114.03 35.1932 113.729 34.741 112.147 34.741C111.242 34.741 110.186 35.1174 109.961 36.1733C109.81 36.9269 110.489 37.2276 111.167 37.3034L111.695 37.4541C112.147 37.5291 112.449 37.6033 112.372 37.9055C112.372 38.1312 112.147 38.3569 111.468 38.3569C110.866 38.3569 110.639 38.2077 110.791 37.6798H109.585ZM114.106 39.0356H115.389L116.217 34.8917H115.012L114.106 39.0356ZM116.292 39.0356H117.422L118.026 36.0218L119.307 39.0356H120.89L121.794 34.8917H120.738L120.061 37.9055L118.78 34.8917H117.196L116.292 39.0356ZM122.02 39.0356H125.638L125.863 38.2077H123.377L123.603 37.3776H125.789L126.014 36.4732H123.754L123.905 35.7196H126.315L126.466 34.8917H122.85L122.02 39.0356ZM126.768 37.6798C126.617 38.4334 126.691 39.1871 128.426 39.1871C129.33 39.1871 130.612 38.9614 130.837 37.7548C130.988 36.9262 130.461 36.6989 129.707 36.5497L129.179 36.399C128.728 36.3225 128.351 36.2483 128.426 35.946C128.501 35.7203 128.728 35.5696 129.254 35.5696C129.631 35.5696 130.008 35.6462 129.933 36.0226H131.14C131.215 35.1932 130.912 34.741 129.405 34.741C128.426 34.741 127.371 35.1174 127.144 36.1733C126.994 36.9269 127.672 37.2276 128.351 37.3034L128.877 37.4541C129.33 37.5291 129.631 37.6033 129.556 37.9055C129.556 38.1312 129.405 38.3569 128.652 38.3569C128.049 38.3569 127.898 38.2077 127.974 37.6798H126.768ZM131.516 37.6798C131.289 38.4334 131.44 39.1871 133.174 39.1871C134.077 39.1871 135.284 38.9614 135.586 37.7548C135.736 36.9262 135.133 36.6989 134.454 36.5497L133.852 36.399C133.476 36.3225 133.098 36.2483 133.175 35.946C133.175 35.7203 133.476 35.5696 134.004 35.5696C134.38 35.5696 134.682 35.6462 134.682 36.0226H135.812C135.963 35.1932 135.662 34.741 134.078 34.741C133.175 34.741 132.119 35.1174 131.893 36.1733C131.743 36.9269 132.421 37.2276 133.098 37.3034L133.626 37.4541C134.078 37.5291 134.38 37.6033 134.305 37.9055C134.305 38.1312 134.078 38.3569 133.401 38.3569C132.798 38.3569 132.571 38.2077 132.722 37.6798H131.516Z" fill="#363636" fill-opacity="0.4"/>
<path fill-rule="evenodd" clip-rule="evenodd" d="M26.3855 14.4732C26.6869 13.1167 26.5362 12.5138 25.9333 11.9109C25.0289 11.1573 23.0695 10.7059 20.1307 10.7059C13.5737 10.7059 11.69 13.4939 11.2378 15.7548C10.5591 18.7694 12.1422 20.8038 18.0205 20.8038C20.5829 20.8038 22.9945 20.3516 24.5018 19.2965C25.5568 18.5429 25.8583 17.7143 26.084 16.8849H21.035C20.7336 18.0907 19.8292 18.6936 18.322 18.6936C16.4375 18.6936 16.061 17.3371 16.3625 15.754C16.7389 14.1718 17.6441 12.8145 19.6027 12.8145C20.9593 12.8145 21.4115 13.3424 21.3365 14.4725L26.3855 14.4732ZM42.136 15.754C42.7389 12.8902 41.0809 10.7051 35.2783 10.7051C32.2638 10.7051 30.7565 11.0815 29.4757 11.7602C27.9685 12.5138 26.7627 13.8703 26.3855 15.7548C25.7825 18.6186 27.4405 20.8038 33.2431 20.8038C36.2577 20.8038 38.4428 20.1251 39.8751 19.1458C41.0809 18.3921 41.8346 17.1856 42.136 15.754ZM37.0871 15.754C36.7106 17.7135 35.2783 18.6178 33.6953 18.6178C32.0373 18.6178 31.058 17.7135 31.4344 15.754C31.8108 13.7946 33.2431 12.8902 34.8254 12.8902C36.4842 12.8902 37.4635 13.7954 37.0871 15.754ZM41.9853 20.5015H46.9593L47.7129 17.0348H49.2202C50.8782 17.0348 51.1047 17.1855 51.0289 18.3914V20.5015H56.0029V17.3363C56.0029 16.3562 55.1735 15.9797 54.0434 15.9797V15.829C55.5507 15.6025 56.7573 14.8497 57.058 13.5681C57.5102 11.4579 55.6265 10.9308 52.3855 10.9308H44.0205L41.9853 20.5015ZM48.5423 12.8902H50.3502C51.5561 12.8902 52.3097 13.1917 52.084 14.0203C51.9333 14.9246 51.0289 15.1511 49.9738 15.1511H48.0901L48.5423 12.8902ZM56.7565 20.5015H61.7305L62.3334 17.4113H66.2523C68.7397 17.4113 70.8499 16.5826 71.3021 14.2468C71.8292 11.7594 70.0205 10.9308 67.1567 10.9308H58.716L56.7565 20.5015ZM63.3128 12.966H64.82C66.2515 12.966 66.628 13.3432 66.478 14.1718C66.2515 15.0762 65.5737 15.4526 63.7649 15.4526H62.7856L63.3128 12.966ZM86.8262 15.754C87.4283 12.8902 85.7703 10.7051 79.9685 10.7051C76.9547 10.7051 75.3709 11.0815 74.1659 11.7602C72.5829 12.5138 71.4528 13.8703 71.0748 15.7548C70.4727 18.6186 72.1307 20.8038 77.8583 20.8038C80.947 20.8038 83.058 20.1251 84.5653 19.1458C85.6953 18.3921 86.5255 17.1856 86.8262 15.754ZM81.7772 15.754C81.3242 17.7135 79.9685 18.6178 78.3105 18.6178C76.7275 18.6178 75.6732 17.7135 76.1246 15.754C76.501 13.7946 77.8591 12.8902 79.5171 12.8902C81.1751 12.8902 82.1536 13.7954 81.7772 15.754ZM86.6747 20.5015H91.6486L92.3273 17.0348H93.8346C95.5675 17.0348 95.7183 17.1855 95.7183 18.3914V20.5015H100.617L100.692 17.3363C100.692 16.3562 99.7879 15.9797 98.6578 15.9797L98.7344 15.829C100.242 15.6025 101.447 14.8497 101.748 13.5681C102.125 11.4579 100.241 10.9308 97.0748 10.9308H88.6349L86.6747 20.5015ZM93.2324 12.8902H95.0412C96.2462 12.8902 96.9249 13.1917 96.7741 14.0203C96.5484 14.9246 95.7183 15.1511 94.6647 15.1511H92.7795L93.2324 12.8902Z" fill="#46505B"/>
<path fill-rule="evenodd" clip-rule="evenodd" d="M107.476 16.8032L110.113 13.4872L111.243 16.8032H107.476ZM99.7139 20.4956H104.611L105.818 18.9133H111.922L112.45 20.4956H117.95L113.957 10.9248H107.777L99.7139 20.4956ZM119.308 20.4956H124.282L125.789 13.2615H129.631L130.159 10.9256H117.422L116.971 13.2615H120.815L119.308 20.4956ZM128.501 20.4956H139.881L140.333 18.5369H133.777L134.154 16.7282H140.184L140.635 14.693H134.531L134.907 12.96H141.389L141.84 10.9256H130.536L128.501 20.4956Z" fill="#46505B"/>
</svg>
