<svg width="122" height="40" viewBox="0 0 122 40" fill="none" xmlns="http://www.w3.org/2000/svg">
<path fill-rule="evenodd" clip-rule="evenodd" d="M11.9749 12.0713C5.80065 12.0713 0.824219 17.0477 0.824219 23.0373C0.824219 29.0269 5.80065 34.0034 11.9749 34.0034C18.1491 34.0034 23.1249 29.0269 23.1249 23.0373C23.1249 17.0477 18.1491 12.0713 11.9749 12.0713ZM11.9749 32.8049C7.36705 32.8049 3.58905 28.3824 3.58905 22.946C3.58905 17.4163 7.36769 12.9931 11.9749 12.9931C16.5821 12.9931 20.3607 17.4163 20.3607 22.946C20.3607 28.3824 16.5827 32.8049 11.9749 32.8049Z" fill="#363636" fill-opacity="0.4"/>
<path fill-rule="evenodd" clip-rule="evenodd" d="M8.28906 31.6983C10.5007 26.0773 16.9515 30.3165 17.7807 33.4499C19.5317 38.795 22.7571 39.8088 26.2585 36.4907C23.0331 42.665 17.1355 39.4396 15.7531 36.3074C13.9101 30.9624 11.9751 28.1969 8.28906 31.6983Z" fill="#363636" fill-opacity="0.4"/>
<path fill-rule="evenodd" clip-rule="evenodd" d="M41.3711 8.20121V18.7067C41.3711 19.4439 41.4638 19.8131 41.6478 19.9971C41.8324 20.1811 42.293 20.2731 42.8462 20.2731V20.6423C42.293 20.8269 41.7404 21.0103 41.1872 21.2869C40.542 21.4715 39.8974 21.7481 39.1595 22.0241H38.9756V19.7198C38.2384 20.6417 37.5012 21.2862 36.8559 21.6555C36.1187 22.0234 35.3815 22.208 34.4597 22.208C33.5379 22.208 32.7087 21.9314 32.0635 21.5622C31.4183 21.1942 30.8657 20.5484 30.4971 19.9038C30.3125 19.4432 30.2205 19.074 30.1285 18.5214C30.0365 18.0608 30.0365 17.3236 30.0365 16.3098V10.0436C30.0365 9.49099 29.9439 9.21373 29.6679 9.02976C29.4839 8.93777 29.0227 8.84578 28.2861 8.75315V8.20057H32.4327V15.9412C32.4327 17.8762 32.6167 19.1666 33.0773 19.8118C33.5379 20.4564 34.3671 20.733 35.5655 20.733C36.2101 20.733 36.8553 20.5484 37.5005 20.1804C38.0531 19.7198 38.6063 19.1666 38.9749 18.3374V10.5968C38.9749 9.85959 38.8823 9.30637 38.6983 9.12239C38.5137 8.84578 38.0531 8.75379 37.4079 8.75379H37.3159V8.20121H41.3711ZM45.887 21.1029V17.3242H46.5316C46.8082 18.7987 47.2688 19.8125 47.822 20.457C48.3746 21.1029 49.0198 21.4708 49.9416 21.4708C50.7708 21.4708 51.416 21.1942 51.9686 20.6417C52.4292 20.1804 52.7058 19.5358 52.7058 18.706C52.7058 18.0614 52.5212 17.5082 52.1526 17.1396C51.784 16.679 51.0468 16.1258 49.941 15.5726C48.2819 14.7434 47.1761 14.0982 46.7155 13.5456C46.2549 12.993 46.071 12.2558 46.071 11.5186C46.071 10.4128 46.5316 9.49164 47.3608 8.84642C48.098 8.20121 49.2038 7.83261 50.5862 7.83261C51.2314 7.83261 51.8759 7.9246 52.5212 8.10922C53.1664 8.2932 53.8116 8.47782 54.4562 8.84642V12.1638H53.8116C53.627 11.058 53.259 10.1368 52.6138 9.39965C51.9686 8.75443 51.2314 8.38583 50.3096 8.38583C49.665 8.38583 49.1118 8.57045 48.6505 8.93841C48.1899 9.30701 48.0053 9.85959 48.0053 10.4128C48.0053 11.242 48.6505 12.0712 49.941 12.7164C50.0329 12.8084 50.1256 12.8084 50.2176 12.9004C50.3096 12.993 50.5862 13.085 50.9548 13.269C53.719 14.7434 55.0094 16.2178 55.0094 17.7842C55.0094 19.074 54.5488 20.1804 53.535 20.9176C52.6132 21.7468 51.3234 22.1148 49.7563 22.1148C49.0191 22.1148 48.4666 22.0228 47.7287 21.9314C47.0848 21.7475 46.5316 21.4708 45.887 21.1029ZM59.1566 1.56639C59.1566 1.1058 59.3406 0.736556 59.6172 0.460588C59.9858 0.0919867 60.3544 0 60.815 0C61.2756 0 61.6448 0.0919867 62.0128 0.460588C62.2894 0.737199 62.474 1.1058 62.474 1.56639C62.474 2.02698 62.2894 2.39558 62.0128 2.76418C61.6448 3.0408 61.2756 3.22478 60.815 3.22478C60.3544 3.22478 59.9858 3.04015 59.7092 2.76418C59.3406 2.39558 59.1566 2.02698 59.1566 1.56639ZM62.2894 7.83261V19.4432C62.2894 20.1804 62.3827 20.733 62.566 20.9176C62.8426 21.1022 63.3032 21.1942 64.0411 21.1942V21.8388H58.0508V21.1942C58.696 21.1942 59.1566 21.0096 59.4332 20.8263C59.6179 20.5484 59.7098 19.9038 59.7098 18.8906V11.8872C59.7098 11.2427 59.6179 10.7814 59.4332 10.5048C59.2486 10.2282 58.8807 9.95223 58.2354 9.67562V9.30702C58.8807 9.12304 59.5252 8.93841 60.0784 8.66244C60.7237 8.47782 61.2762 8.10987 61.9215 7.83325H62.2894V7.83261ZM66.7133 21.1942C67.5425 21.1022 68.0037 21.0096 68.187 20.8263C68.3717 20.6417 68.4636 20.1804 68.4636 19.2592V11.8872C68.4636 11.2427 68.3716 10.7814 68.0957 10.5048C67.9111 10.2282 67.5431 9.95223 66.9899 9.67562V9.30702C67.6344 9.12304 68.2803 8.93841 68.8329 8.66244C69.4246 8.4038 70.0083 8.12728 70.5833 7.83325H70.8612V10.3215C71.6903 9.39965 72.4269 8.75443 73.0728 8.38647C73.7173 8.01787 74.5465 7.8339 75.3757 7.8339C76.9427 7.8339 78.0479 8.29449 78.7858 9.3083C79.4316 10.3221 79.7996 11.8885 79.7996 14.1001V20.0904C79.7996 20.4583 79.8916 20.8276 80.0762 20.9196C80.2608 21.1042 80.7207 21.1962 81.5499 21.1962L81.6432 21.8407H75.8376V21.1962C76.5748 21.1962 77.036 21.1042 77.2194 20.9196C77.3126 20.8276 77.404 20.5503 77.404 20.0904V13.3616C77.404 11.9799 77.2194 10.8734 76.6668 10.2282C76.2055 9.49099 75.4696 9.21438 74.4552 9.21438C73.626 9.21438 72.9801 9.399 72.4275 9.7676C71.783 10.1362 71.3217 10.6894 70.8618 11.426V19.4432C70.8618 20.2724 70.9538 20.733 71.2298 20.9176C71.4144 21.1022 71.8743 21.1942 72.6115 21.1942V21.8388H66.7139L66.7133 21.1942ZM92.2381 11.7026C92.6073 11.7026 92.8839 11.7026 93.0686 11.518C93.2519 11.3334 93.3452 11.1494 93.3452 10.7808C93.3452 10.1356 93.0686 9.58234 92.516 9.21374C91.9621 8.75315 91.2256 8.47654 90.3037 8.47654C90.2117 8.47654 90.0271 8.47654 89.9358 8.56917V7.83196H90.765C92.332 7.83196 93.7138 8.29256 94.8196 9.12175C96.018 10.0436 96.5712 10.9648 96.5712 11.9786C96.5712 12.1625 96.5712 12.3472 96.478 12.4392C96.386 12.5311 96.2946 12.5311 96.018 12.5311H89.9358V11.702L92.2381 11.7026ZM89.9351 22.208V19.9964C90.3964 20.1804 90.9489 20.1804 91.5935 20.1804C92.6993 20.1804 93.6211 19.9038 94.5423 19.3512C95.3715 18.798 96.0174 17.9688 96.3853 16.955L97.0299 17.1396C96.4773 18.706 95.6481 19.9964 94.5423 20.8263C93.3452 21.7475 91.9615 22.208 90.3964 22.208H89.9351ZM89.9351 8.56981C89.1979 8.6618 88.4601 8.93841 87.9075 9.399C87.2629 9.95158 86.8017 10.7814 86.5257 11.7032H89.9358V12.5324H86.3411C86.2491 13.177 86.2491 13.6382 86.1578 14.0068V14.8367C86.1578 16.4031 86.6177 17.6928 87.7248 18.7067C88.3694 19.3519 89.1066 19.7205 89.9364 19.9971V22.2087C88.1847 22.1154 86.803 21.4715 85.6972 20.2724C84.4067 18.9833 83.7622 17.3242 83.7622 15.3892C83.7622 13.085 84.4067 11.2426 85.6972 9.85959C86.711 8.6618 88.1847 8.01659 89.9364 7.83261V8.56981H89.9351ZM99.6107 21.1029V17.3242H100.255C100.625 18.7987 100.993 19.8125 101.546 20.457C102.098 21.1029 102.836 21.4708 103.665 21.4708C104.495 21.4708 105.232 21.1942 105.693 20.6417C106.246 20.1804 106.522 19.5358 106.522 18.706C106.522 18.0614 106.338 17.5082 105.97 17.1396C105.508 16.679 104.771 16.1258 103.758 15.5726C102.006 14.7434 100.993 14.0982 100.531 13.5456C100.06 12.9746 99.8002 12.2588 99.7947 11.5186C99.7947 10.4128 100.255 9.49164 101.085 8.84642C101.914 8.20121 103.02 7.83261 104.311 7.83261C105.047 7.83261 105.692 7.9246 106.337 8.10922C106.983 8.2932 107.627 8.47782 108.18 8.84642V12.1638H107.535C107.442 11.058 107.074 10.1368 106.43 9.39965C105.784 8.75443 105.046 8.38583 104.125 8.38583C103.388 8.38583 102.835 8.57045 102.374 8.93841C102.006 9.30701 101.729 9.85959 101.729 10.4128C101.729 11.242 102.374 12.0712 103.757 12.7164C103.849 12.8084 103.94 12.8084 103.94 12.9004C104.125 12.993 104.401 13.085 104.769 13.269C107.441 14.7434 108.825 16.2178 108.825 17.7842C108.825 19.074 108.364 20.1804 107.35 20.9176C106.336 21.7468 105.046 22.1148 103.48 22.1148C102.834 22.1148 102.19 22.0228 101.544 21.9314C100.869 21.7337 100.22 21.4555 99.6107 21.1029ZM111.959 21.1029V17.3242H112.605C112.882 18.7987 113.342 19.8125 113.895 20.457C114.448 21.1029 115.093 21.4708 116.014 21.4708C116.844 21.4708 117.489 21.1942 118.041 20.6417C118.503 20.1804 118.779 19.5358 118.779 18.706C118.779 18.0614 118.594 17.5082 118.226 17.1396C117.857 16.679 117.12 16.1258 116.014 15.5726C114.355 14.7434 113.25 14.0982 112.788 13.5456C112.328 12.993 112.144 12.2558 112.144 11.5186C112.144 10.4128 112.605 9.49164 113.434 8.84642C114.263 8.20121 115.277 7.83261 116.66 7.83261C117.304 7.83261 117.95 7.9246 118.595 8.10922C119.239 8.2932 119.885 8.47782 120.53 8.84642V12.1638H119.885C119.793 11.058 119.332 10.1368 118.687 9.39965C118.042 8.75443 117.305 8.38583 116.384 8.38583C115.738 8.38583 115.185 8.57045 114.725 8.93841C114.264 9.30701 114.079 9.85959 114.079 10.4128C114.079 11.242 114.725 12.0712 116.014 12.7164C116.108 12.8084 116.199 12.8084 116.291 12.9004L117.028 13.269C119.794 14.7434 121.176 16.2178 121.176 17.7842C121.176 19.074 120.623 20.1804 119.608 20.9176C118.686 21.7468 117.397 22.1148 115.83 22.1148C115.185 22.1148 114.54 22.0228 113.803 21.9314C113.158 21.7475 112.605 21.4708 111.959 21.1029Z" fill="#46505B"/>
<path fill-rule="evenodd" clip-rule="evenodd" d="M34.2757 27.1838V33.5427C34.2757 34.0039 34.3677 34.2799 34.4597 34.3718C34.6443 34.4651 34.9202 34.5565 35.3815 34.5565V34.7411C34.9209 34.8331 34.5523 35.0177 34.0911 35.109C33.6305 35.2937 33.1692 35.3857 32.7093 35.5703H32.5247V34.1885C31.9721 34.7411 31.4189 35.1097 30.9583 35.3857C30.394 35.5745 29.8022 35.668 29.2073 35.6623C28.562 35.6623 28.0088 35.5703 27.4562 35.2943C26.9956 35.0177 26.5344 34.7417 26.3504 34.2805C26.1658 34.0039 26.0738 33.7279 26.0738 33.4513C25.9818 33.1747 25.9818 32.7141 25.9818 32.1609V28.2896C25.9818 28.013 25.8898 27.8297 25.7052 27.737C25.6132 27.645 25.2446 27.5537 24.6914 27.5537V27.1844H27.7322V31.8849C27.7322 33.0821 27.9168 33.8199 28.1928 34.1891C28.5614 34.6491 29.1146 34.8337 29.9438 34.8337C30.497 34.8337 30.9576 34.6491 31.4182 34.4658C31.8734 34.1948 32.2536 33.8142 32.524 33.3587V28.6595C32.524 28.1983 32.432 27.9223 32.2474 27.737C32.1548 27.645 31.7868 27.5537 31.3256 27.5537H31.2336V27.1844L34.2757 27.1838ZM43.3987 29.3961C43.6753 29.3961 43.8593 29.3028 44.0439 29.2114C44.1359 29.1194 44.2279 28.9348 44.2279 28.7502C44.2279 28.3822 44.0439 28.013 43.5827 27.829C43.2141 27.5524 42.6609 27.3678 42.0163 27.3678C41.9243 27.3678 41.8317 27.3678 41.7397 27.4598V26.9998H42.3843C43.4901 26.9998 44.5039 27.2764 45.3331 27.7364C46.1623 28.289 46.6228 28.8435 46.6228 29.488C46.6228 29.58 46.6228 29.6727 46.5302 29.7647C46.4382 29.8566 46.3462 29.8566 46.1616 29.8566H41.7384V29.3967L43.3987 29.3961ZM41.7397 35.6623V34.3718C42.1083 34.4651 42.4769 34.4651 42.9375 34.4651C43.7673 34.4651 44.5045 34.2805 45.1491 34.0039C45.7017 33.6346 46.1629 33.0814 46.5309 32.5288L46.9001 32.6215C46.5315 33.5427 45.9783 34.3718 45.0571 34.9244C44.2273 35.477 43.2141 35.6616 42.1083 35.6616L41.7397 35.6623ZM41.7397 27.4598C41.1871 27.4598 40.7259 27.645 40.2653 27.9216C39.8047 28.2896 39.4354 28.7508 39.2515 29.3967H41.7397V29.8566H39.1595C39.0675 30.2259 39.0675 30.5025 38.9755 30.6858V31.2397C38.9755 32.1609 39.3441 32.9901 40.0813 33.5427C40.5419 33.9106 41.0945 34.1885 41.7397 34.3718V35.6623C40.5419 35.6623 39.4361 35.201 38.6069 34.5565C37.6851 33.7273 37.2245 32.7135 37.2245 31.6077C37.2245 30.1326 37.6851 29.0268 38.6069 28.1976C39.5051 27.4888 40.5983 27.0711 41.7403 27.0005V27.4604L41.7397 27.4598ZM54.7334 29.3961C55.01 29.3961 55.1939 29.3028 55.2859 29.2114C55.4699 29.1194 55.4699 28.9348 55.4699 28.7502C55.4699 28.3822 55.2859 28.013 54.9173 27.829C54.4567 27.5524 53.9955 27.3678 53.3503 27.3678C53.2583 27.3678 53.0737 27.3678 52.9823 27.4598V26.9998H53.6269C54.8247 26.9998 55.7459 27.2764 56.6677 27.7364C57.4969 28.289 57.9581 28.8435 57.9581 29.488C57.9581 29.58 57.8655 29.6727 57.8655 29.7647C57.7735 29.8566 57.6815 29.8566 57.4969 29.8566H52.9817V29.3967L54.7334 29.3961ZM52.983 35.6623V34.3718C53.3509 34.4651 53.8122 34.4651 54.1808 34.4651C54.9418 34.4642 55.6945 34.3072 56.3924 34.0039C56.9874 33.6578 57.468 33.145 57.7748 32.5288L58.2354 32.6215C57.8668 33.5427 57.2216 34.3718 56.3924 34.9244C55.4706 35.477 54.4574 35.6616 53.3509 35.6616L52.983 35.6623ZM52.983 27.4604C52.5217 27.4604 51.9692 27.645 51.6006 27.9216C51.048 28.2896 50.7714 28.7508 50.4948 29.3967H52.983V29.8566H50.4028C50.4028 30.2259 50.3101 30.5025 50.3101 30.6858V31.2397C50.3101 32.1609 50.6787 32.9901 51.4159 33.5427C51.8765 33.9106 52.4298 34.1885 52.983 34.3718V35.6623C51.7845 35.6623 50.7714 35.201 49.9415 34.5565C49.0197 33.7273 48.5591 32.7135 48.5591 31.6077C48.5591 30.1326 49.0197 29.0268 49.9415 28.1976C50.7707 27.553 51.7845 27.0918 52.983 27.0005V27.4604ZM59.9858 35.109C60.5383 35.0171 60.9996 34.9244 61.0916 34.8324C61.1842 34.7404 61.2762 34.4645 61.2762 33.91V29.3961C61.2762 29.0268 61.1842 28.7502 60.9996 28.5669C60.9076 28.3822 60.631 28.289 60.1704 28.1056V27.921C60.631 27.7364 61.0916 27.6444 61.5528 27.4598C62.0127 27.3678 62.382 27.1832 62.8419 26.9998H63.0266V28.4736C63.5097 27.986 64.07 27.5815 64.6849 27.2764C65.1462 27.0918 65.6987 26.9998 66.3446 26.9998C67.4504 26.9998 68.2796 27.2764 68.8322 27.921C69.2934 28.4736 69.5694 29.488 69.5694 30.7778V34.3712C69.5694 34.6478 69.6614 34.8324 69.7527 34.9238C69.846 35.0171 70.214 35.0171 70.8598 35.1084V35.4764H66.6206V35.1084C67.1732 35.0164 67.5418 35.0164 67.6331 34.9238C67.7264 34.8318 67.8177 34.6472 67.8177 34.3712V30.4086C67.8177 29.4874 67.6331 28.8428 67.2651 28.4736C66.8972 28.0124 66.344 27.829 65.6068 27.829C65.0542 27.829 64.5929 27.921 64.1317 28.1056C63.7638 28.3822 63.3025 28.6582 63.0259 29.1194V34.0032C63.0259 34.4645 63.1179 34.8324 63.3025 34.9244C63.3958 35.0177 63.7638 35.109 64.225 35.109V35.477H59.9858V35.109ZM72.7954 35.0177V32.7135H73.2554C73.44 33.6346 73.7166 34.2805 74.1779 34.6485C74.5458 35.0177 75.099 35.201 75.7449 35.201C76.2975 35.201 76.7587 35.109 77.2187 34.7411C77.5879 34.4645 77.7712 34.0039 77.7712 33.5427C77.7712 33.1747 77.5879 32.8981 77.3113 32.6215C77.0347 32.3449 76.5741 32.0689 75.7443 31.699C74.4538 31.1464 73.7166 30.7778 73.348 30.4086C73.0714 30.0406 72.8868 29.672 72.8868 29.2114C72.8868 28.5669 73.1634 28.013 73.8093 27.553C74.4538 27.1838 75.191 27.0005 76.2042 27.0005C76.6654 27.0005 77.1267 27.0005 77.6793 27.0925C78.1405 27.2771 78.6004 27.3691 79.061 27.645V29.58H78.5998C78.4165 28.9355 78.1398 28.3829 77.6786 27.9216C77.2174 27.5537 76.6648 27.3691 76.0202 27.3691C75.4676 27.3691 75.0978 27.4611 74.8218 27.6457C74.4538 27.9223 74.2692 28.1983 74.2692 28.5681C74.2692 29.0281 74.8218 29.4893 75.7443 29.9499C75.8363 29.9499 75.8362 30.0419 75.9276 30.0419C76.0209 30.0419 76.2042 30.1339 76.4802 30.3185C78.5078 31.1477 79.4303 32.0702 79.4303 33.0827C79.4303 33.8199 79.061 34.4658 78.3232 34.9257C77.6786 35.3869 76.7574 35.6629 75.559 35.6629C75.0978 35.6629 74.6378 35.5709 74.0852 35.4783C73.6246 35.3857 73.1634 35.201 72.7954 35.0177ZM84.682 34.0032C84.682 34.4645 84.7753 34.8324 84.8666 34.9244C85.0513 35.0177 85.4192 35.109 85.8805 35.109V35.477H81.6412V35.109C82.1938 35.109 82.4704 35.0171 82.655 34.8324C82.8384 34.6478 82.9317 34.2799 82.9317 33.7266V24.6962C82.9317 24.3283 82.8384 23.959 82.655 23.867C82.5618 23.6824 82.2858 23.4991 81.8246 23.4058V23.1292C82.2858 23.0372 82.747 22.8526 83.2076 22.7612C83.6676 22.5766 84.0368 22.392 84.498 22.2087H84.6814L84.682 34.0032ZM93.1605 33.8186V31.0544C92.4233 31.2391 91.7787 31.4224 91.3175 31.699V31.1464C91.8701 30.9631 92.5159 30.7785 93.2525 30.5019V28.6588C93.2525 28.2896 93.0691 28.013 92.8845 27.8297C92.6999 27.645 92.3319 27.553 91.8707 27.553H91.3181V27.0918C91.6861 26.9998 92.2393 26.9998 92.6999 26.9998C93.5291 26.9998 94.0817 27.0918 94.4516 27.4598C94.8195 27.829 95.0041 28.5669 95.0041 29.672V34.2792C95.0041 34.4638 95.0961 34.5558 95.0961 34.6472C95.1894 34.7404 95.3727 34.7404 95.4654 34.7404C95.6487 34.7404 95.8333 34.7404 95.9253 34.5558C96.0186 34.4638 96.0186 34.3712 96.1099 34.0946H96.4779C96.4779 34.5558 96.2946 34.9238 95.9253 35.2004C95.6487 35.477 95.1888 35.5696 94.7282 35.5696C94.2676 35.5696 93.899 35.4764 93.6224 35.293C93.2531 35.0164 93.1611 34.7404 93.0698 34.3706C92.5172 34.7398 91.9627 35.1078 91.4101 35.293C91.4101 35.385 91.3181 35.385 91.3181 35.385V34.6478C91.5028 34.5558 91.7794 34.5558 92.0553 34.4645C92.3313 34.3718 92.6993 34.1885 93.1605 33.8186ZM91.3175 31.699C90.8562 31.8836 90.4883 32.0682 90.2117 32.1602C89.6591 32.5282 89.3825 32.8974 89.3825 33.266C89.3825 33.6346 89.5671 34.0032 89.8437 34.2799C90.2117 34.4645 90.6729 34.6478 91.1329 34.6478H91.3175V35.385C90.8789 35.5651 90.4098 35.659 89.9357 35.6616C89.2899 35.6616 88.8299 35.477 88.3687 35.2004C88.0007 34.9238 87.8161 34.4638 87.8161 34.0032C87.8161 33.266 88.1841 32.7128 88.9219 32.2516C89.3831 31.8836 90.2123 31.515 91.3181 31.1458V31.699H91.3175ZM91.3175 27.0918V27.553C90.9495 27.645 90.6729 27.7364 90.3963 27.8297C90.0271 28.013 89.8437 28.2896 89.8437 28.5669C89.8437 29.1194 89.7505 29.5794 89.5671 29.764C89.3825 30.0406 89.1059 30.132 88.6446 30.132C88.368 30.132 88.1834 30.04 88.0001 29.9486C87.9068 29.8554 87.8155 29.672 87.8155 29.3961C87.8155 28.9348 88.368 28.3822 89.3825 27.829C90.0271 27.4604 90.6729 27.2764 91.3175 27.0918ZM97.861 35.109C98.5055 35.0171 98.8735 34.9244 98.9668 34.8324C99.1501 34.7404 99.1501 34.4645 99.1501 33.91V29.3961C99.1543 29.1092 99.0915 28.8253 98.9668 28.5669C98.7821 28.3822 98.5055 28.289 98.0443 28.1056V27.921C98.5969 27.7364 99.0581 27.6444 99.4261 27.4598C99.8873 27.3678 100.349 27.1832 100.716 26.9998H100.993L100.901 28.4736C101.384 27.986 101.945 27.5815 102.559 27.2764C103.021 27.0918 103.573 26.9998 104.218 26.9998C105.324 26.9998 106.153 27.2764 106.707 27.921C107.167 28.4736 107.443 29.488 107.443 30.7778V34.3712C107.443 34.6478 107.537 34.8324 107.628 34.9238C107.813 35.0171 108.181 35.0171 108.734 35.1084L108.827 35.4764H104.495V35.1084C105.048 35.0164 105.418 35.0164 105.509 34.9238C105.694 34.8318 105.694 34.6472 105.694 34.3712V30.4086C105.694 29.4874 105.509 28.8428 105.232 28.4736C104.864 28.0124 104.311 27.829 103.482 27.829C102.929 27.829 102.468 27.921 102.007 28.1056C101.639 28.3822 101.27 28.6582 100.901 29.1194V34.0032C100.901 34.4645 100.993 34.8324 101.178 34.9244C101.362 35.0177 101.639 35.109 102.192 35.109V35.477H97.861V35.109ZM118.226 33.8186V30.7778C118.226 29.672 118.041 28.8428 117.58 28.289C117.12 27.7364 116.383 27.4598 115.461 27.4598H115.369V26.9998H115.553C115.921 26.9998 116.29 27.0918 116.75 27.0918C117.212 27.1838 117.673 27.2764 118.225 27.4598V24.6956C118.225 24.2344 118.132 23.9584 117.949 23.7744C117.764 23.5898 117.488 23.4978 117.026 23.4052V23.1285C117.488 23.0366 118.04 22.9452 118.501 22.7606C118.961 22.576 119.423 22.3913 119.883 22.208H120.068V33.91C120.068 34.0946 120.16 34.2792 120.251 34.3712C120.344 34.4645 120.62 34.5558 121.08 34.6478V34.8324C120.528 35.0171 120.068 35.109 119.606 35.2937C119.237 35.3857 118.777 35.477 118.501 35.5703H118.224V34.3718C117.763 34.7411 117.302 35.109 116.749 35.3857C116.288 35.4776 115.828 35.6623 115.367 35.6623V34.6485C115.552 34.6485 115.735 34.7417 115.92 34.7417C116.381 34.7417 116.749 34.6485 117.21 34.4651C117.58 34.3718 117.949 34.0952 118.226 33.8186ZM115.369 27.4598C114.539 27.4598 113.802 27.8297 113.249 28.4742C112.696 29.1201 112.42 30.0413 112.42 31.1464C112.42 32.1602 112.788 32.9894 113.434 33.634C113.986 34.2799 114.631 34.5565 115.369 34.6478V35.6616H115.001C113.71 35.6616 112.696 35.2937 111.775 34.4645C110.945 33.634 110.577 32.6215 110.577 31.331C110.577 30.0406 110.945 28.9348 111.867 28.1976C112.788 27.4604 113.895 27.0912 115.369 26.9998V27.4598Z" fill="#363636" fill-opacity="0.4"/>
<path fill-rule="evenodd" clip-rule="evenodd" d="M22.9409 20.7334C23.4015 20.5487 23.8627 20.3654 24.2307 20.0888C26.0737 19.0743 26.9035 17.6006 26.9035 15.481C26.9035 14.1912 26.443 13.0847 25.4291 12.1635C24.4153 11.3344 23.0329 10.7818 21.3745 10.5045C22.6643 10.1359 23.5861 9.49135 24.2307 8.84614C24.8759 8.01631 25.2445 7.18712 25.2445 6.17395C25.2445 4.33094 24.5073 3.04051 22.9403 2.21132C21.9265 1.6581 20.3601 1.2895 18.4251 1.10552V1.93471C19.1623 2.11933 19.8995 2.48794 20.4521 2.85654C21.4659 3.68573 22.0191 4.79153 22.0191 6.26593C22.0191 7.74034 21.4665 8.84614 20.3601 9.58334C19.8995 9.95194 19.1623 10.2286 18.4251 10.4132V11.4263C19.8995 11.519 21.0053 11.8869 21.7425 12.4402C22.7563 13.1774 23.3089 14.3752 23.3089 16.1262C23.3089 17.324 22.9403 18.2451 22.3871 18.983L22.9409 20.7334ZM18.4257 21.5626V20.826C19.0709 20.826 19.6235 20.6414 20.1767 20.5481L20.2694 21.3786C19.7161 21.4706 19.0709 21.4706 18.4257 21.5626ZM18.4257 1.10488C17.5959 1.01225 16.6747 0.920898 15.6609 0.920898C15.2923 0.920898 14.2791 1.01289 12.8047 1.01289H8.93408V1.75009H9.11806C10.0399 1.75009 10.6851 1.84208 10.9611 2.0267C11.2377 2.30331 11.4217 2.85589 11.4217 3.77772V18.6137C11.4217 19.6276 11.237 20.2721 10.9611 20.4567C10.6851 20.6414 10.0392 20.826 9.11806 20.826H8.93408V21.4706C9.67128 21.4706 10.6851 21.5626 11.9755 21.5626H18.4257V20.826C18.1491 20.918 17.8731 20.918 17.5039 20.918C16.4901 20.918 15.7529 20.7334 15.3843 20.4567C15.0157 20.1801 14.8317 19.6276 14.8317 18.9823V11.3337H16.6747C17.3193 11.3337 17.8725 11.3337 18.4257 11.4257V10.4125C17.5959 10.5965 16.6747 10.6891 15.5695 10.6891H14.8323V1.6581H15.8462C16.7673 1.6581 17.6892 1.75073 18.4264 1.93471V1.10488H18.4257Z" fill="#46505B"/>
</svg>
