<svg width="294" height="300" viewBox="0 0 294 300" fill="none" xmlns="http://www.w3.org/2000/svg">
<path d="M253.883 287.229L252.417 284.2C251.604 282.532 249.646 281.755 247.917 282.426L247.434 282.606C246.064 283.133 244.536 282.742 243.522 281.689C242.609 280.741 241.621 279.863 240.568 279.059C239.4 278.177 238.838 276.71 239.194 275.292L239.316 274.788C239.773 272.988 238.772 271.139 237.016 270.533L233.824 269.427C232.073 268.821 230.146 269.651 229.386 271.35L229.175 271.824C228.574 273.163 227.226 273.967 225.764 273.936C224.438 273.909 223.113 273.993 221.813 274.173C220.364 274.375 218.92 273.734 218.169 272.474L217.906 272.035C216.958 270.437 214.938 269.835 213.27 270.648L210.241 272.114C208.572 272.926 207.795 274.884 208.458 276.614L208.647 277.097C209.174 278.466 208.783 279.994 207.721 281.013C206.777 281.917 205.894 282.905 205.095 283.963C204.213 285.131 202.747 285.693 201.32 285.337L200.82 285.21C199.02 284.753 197.171 285.754 196.565 287.51L195.459 290.702C194.853 292.458 195.683 294.381 197.382 295.14L197.856 295.351C199.186 295.952 199.994 297.3 199.968 298.762C199.963 299.017 199.963 299.28 199.968 299.539H250.595C250.612 298.275 250.533 297.019 250.358 295.777C250.156 294.319 250.797 292.884 252.057 292.129L252.496 291.865C254.094 290.917 254.695 288.906 253.883 287.229Z" fill="white"/>
<path d="M250.902 299.864H199.647L199.638 299.552C199.634 299.289 199.634 299.021 199.638 298.762C199.66 297.41 198.905 296.189 197.715 295.649L197.241 295.439C195.38 294.613 194.48 292.532 195.143 290.605L196.249 287.409C196.903 285.512 198.94 284.411 200.885 284.902L201.386 285.025C202.659 285.341 204.011 284.85 204.827 283.77C205.631 282.712 206.522 281.706 207.488 280.78C208.471 279.836 208.805 278.431 208.335 277.206L208.146 276.728C207.431 274.853 208.282 272.702 210.087 271.824L213.12 270.353C214.925 269.475 217.146 270.138 218.173 271.864L218.437 272.298C219.104 273.426 220.412 274.032 221.76 273.843C223.082 273.659 224.425 273.576 225.759 273.602C227.116 273.624 228.337 272.878 228.872 271.679L229.083 271.205C229.899 269.374 232.024 268.452 233.916 269.106L237.108 270.213C239.004 270.867 240.106 272.904 239.615 274.849L239.492 275.354C239.171 276.627 239.667 277.975 240.747 278.791C241.832 279.616 242.837 280.512 243.741 281.456C244.681 282.439 246.081 282.769 247.306 282.299L247.789 282.119C249.659 281.399 251.81 282.246 252.689 284.055L254.159 287.084C255.05 288.924 254.401 291.097 252.649 292.137L252.214 292.401C251.09 293.077 250.48 294.381 250.669 295.733C250.849 296.997 250.928 298.279 250.91 299.543L250.902 299.864ZM200.279 299.218H250.27C250.27 298.09 250.191 296.949 250.032 295.82C249.813 294.214 250.537 292.66 251.885 291.852L252.324 291.588C253.79 290.719 254.335 288.902 253.588 287.365L252.122 284.336C251.389 282.826 249.589 282.119 248.026 282.72L247.543 282.9C246.077 283.462 244.404 283.072 243.285 281.904C242.402 280.986 241.419 280.108 240.365 279.305C239.079 278.335 238.491 276.723 238.873 275.204L238.996 274.7C239.408 273.071 238.486 271.372 236.902 270.823L233.71 269.717C232.125 269.168 230.352 269.936 229.671 271.468L229.46 271.943C228.828 273.347 227.415 274.247 225.839 274.247C225.808 274.247 225.781 274.247 225.751 274.247C224.456 274.221 223.143 274.3 221.852 274.48C220.25 274.7 218.691 273.975 217.888 272.627L217.625 272.193C216.769 270.748 214.912 270.195 213.401 270.928L210.368 272.399C208.862 273.132 208.151 274.932 208.748 276.495L208.937 276.974C209.498 278.444 209.108 280.117 207.936 281.241C206.996 282.141 206.127 283.12 205.345 284.152C204.375 285.438 202.76 286.022 201.236 285.644L200.736 285.517C199.111 285.104 197.408 286.022 196.859 287.611L195.753 290.807C195.195 292.418 195.951 294.152 197.505 294.846L197.979 295.057C199.406 295.698 200.31 297.155 200.279 298.766C200.279 298.92 200.279 299.069 200.279 299.218Z" fill="#1C1C2D"/>
<path d="M240.383 145.928L239.887 145.52C240.22 145.112 273.634 104.67 289.179 85.634C292.3 81.8146 293.468 79.2464 292.647 78.0084C290.79 75.1943 278.849 78.6449 267.299 81.9771C260.428 83.9614 253.325 86.0116 247.482 87.0696C245.194 87.4823 243.68 87.1223 242.986 86.0028C239.939 81.0946 254.251 61.8351 268.093 43.2077C277.914 29.989 287.19 17.5035 289.631 11.0851C291.624 5.83889 291.967 2.91506 290.733 1.60241C288.345 -0.943873 279.556 1.77362 263.598 6.70814C258.975 8.13932 253.742 9.75928 247.842 11.5022L247.662 10.8875C253.558 9.14027 258.791 7.52031 263.413 6.09352C280.144 0.926326 288.542 -1.66825 291.207 1.16778C292.647 2.70433 292.357 5.73792 290.237 11.3178C287.765 17.8196 278.463 30.3403 268.616 43.5941C255.542 61.1898 240.725 81.1341 243.539 85.6692C244.084 86.5472 245.374 86.8062 247.376 86.4462C253.189 85.3926 260.274 83.3468 267.127 81.3668C279.977 77.6572 291.071 74.4524 293.187 77.6615C294.206 79.2069 293.091 81.8717 289.679 86.0467C274.13 105.078 240.721 145.524 240.383 145.928Z" fill="#1C1C2D"/>
<path d="M56.7606 150.134L56.6596 141.073L50.9393 140.638C50.3247 137.995 49.2579 135.541 47.8135 133.329L51.4573 128.899L44.9863 122.568L40.6357 126.309C38.3967 124.917 35.9163 123.903 33.2603 123.345L32.7027 117.638L23.6415 117.739L23.2069 123.46C20.5728 124.074 18.1056 125.145 15.8973 126.585L11.4677 122.941L5.13714 129.413L8.87752 133.763C7.48585 136.002 6.47174 138.483 5.91419 141.139L0.207031 141.696L0.308004 150.757L6.02833 151.192C6.64295 153.826 7.71414 156.289 9.1541 158.502L5.5103 162.931L11.9813 169.262L16.3319 165.521C18.5709 166.913 21.0601 167.927 23.7074 168.485L24.2649 174.192L33.3261 174.091L33.7607 168.371C36.4036 167.756 38.8577 166.685 41.0659 165.249L45.4955 168.893L51.8261 162.422L48.0857 158.071C49.4774 155.832 50.4915 153.343 51.049 150.696L56.7606 150.134ZM28.6682 162.264C19.6377 162.365 12.236 155.121 12.135 146.091C12.0384 137.06 19.2777 129.658 28.3082 129.562C37.3387 129.465 44.7404 136.705 44.8414 145.735C44.938 154.766 37.6987 162.167 28.6682 162.264Z" fill="#FDFDFD"/>
<path d="M24.071 174.399L23.5091 168.652C20.976 168.099 18.5702 167.133 16.3488 165.776L11.9719 169.539L5.22424 162.936L8.89 158.476C7.48516 156.285 6.46226 153.901 5.85642 151.381L0.100973 150.942L0 141.499L5.74667 140.937C6.29543 138.408 7.26126 135.998 8.6222 133.777L4.85547 129.4L11.4582 122.652L15.9186 126.318C18.1092 124.913 20.4931 123.89 23.013 123.284L23.4476 117.524L32.8952 117.423L33.4571 123.17C35.9858 123.719 38.3916 124.685 40.6174 126.046L44.9944 122.279L51.742 128.882L48.0718 133.342C49.4854 135.537 50.504 137.925 51.1054 140.436L56.8652 140.871L56.9706 150.319L51.2239 150.881C50.6752 153.414 49.705 155.819 48.3484 158.041L52.1107 162.418L45.508 169.166L41.0476 165.495C38.8526 166.905 36.4643 167.927 33.9532 168.529L33.5186 174.289L24.071 174.399ZM16.3093 165.254L16.441 165.337C18.7019 166.742 21.1604 167.73 23.7462 168.274L23.8954 168.305L24.4486 173.977L33.1235 173.881L33.5537 168.2L33.703 168.165C36.2712 167.567 38.7077 166.527 40.9423 165.07L41.0696 164.986L45.4685 168.604L51.5312 162.409L47.8172 158.089L47.9006 157.957C49.3055 155.697 50.2932 153.238 50.8376 150.652L50.8683 150.503L56.5404 149.95L56.4438 141.275L50.763 140.845L50.7279 140.695C50.1308 138.123 49.0903 135.691 47.6328 133.456L47.5494 133.324L51.1713 128.926L44.9768 122.863L40.6569 126.577L40.5252 126.493C38.2643 125.089 35.8058 124.101 33.22 123.556L33.0708 123.526L32.5176 117.854L23.8428 117.95L23.4125 123.631L23.2633 123.666C20.6863 124.268 18.2497 125.308 16.0196 126.761L15.8922 126.845L11.4933 123.227L5.43058 129.422L9.14462 133.741L9.06121 133.873C7.65637 136.134 6.66859 138.593 6.12422 141.183L6.09349 141.336L0.421452 141.89L0.518034 150.564L6.19885 150.995L6.23397 151.144C6.83542 153.721 7.87588 156.158 9.32901 158.383L9.41242 158.511L5.79496 162.91L11.9894 168.968L16.3093 165.254ZM28.4831 162.475C19.4351 162.475 12.0245 155.165 11.9236 146.091C11.8226 136.959 19.1717 129.448 28.3075 129.347C32.7415 129.299 36.9121 130.976 40.073 134.071C43.2339 137.166 45.0031 141.306 45.0514 145.731C45.0997 150.156 43.4227 154.336 40.3277 157.497C37.2326 160.657 33.0927 162.427 28.6675 162.475C28.606 162.475 28.5446 162.475 28.4831 162.475ZM28.4919 129.768C28.4304 129.768 28.3734 129.768 28.3119 129.768C19.4131 129.865 12.2484 137.183 12.345 146.087C12.4416 154.928 19.6677 162.053 28.4831 162.053C28.5446 162.053 28.6016 162.053 28.6631 162.053C32.9742 162.005 37.0087 160.284 40.0247 157.202C43.0407 154.12 44.6739 150.046 44.63 145.735C44.5817 141.424 42.8608 137.39 39.7789 134.374C36.7365 131.402 32.7371 129.768 28.4919 129.768Z" fill="#1C1C2D"/>
<path d="M66.6031 202.934C66.5768 202.736 66.3353 202.587 66.1466 202.587C61.6994 202.657 56.1239 202.67 52.3572 205.423C48.8495 207.982 48.3227 212.509 48.4017 216.534C48.4105 216.965 48.889 217.083 49.1568 216.903C49.17 216.908 49.1788 216.921 49.1919 216.925C58.5429 220.42 67.929 212.741 66.6031 202.934Z" fill="#FDFDFD"/>
<path d="M53.8502 217.922C52.2873 217.922 50.7025 217.641 49.1659 217.07C48.9815 217.158 48.7533 217.154 48.5733 217.062C48.3801 216.961 48.266 216.772 48.2616 216.544C48.1913 213.031 48.5338 208.044 52.2785 205.314C55.9794 202.609 61.4188 202.526 65.7869 202.456L66.1513 202.451C66.1557 202.451 66.1557 202.451 66.1601 202.451C66.4103 202.451 66.7176 202.649 66.7528 202.921C67.3893 207.623 65.585 212.171 61.9324 215.09C59.5837 216.952 56.7521 217.922 53.8502 217.922ZM49.144 216.741L49.2625 216.798C53.5429 218.396 58.214 217.676 61.7436 214.858C65.3172 212.004 67.0776 207.557 66.4586 202.956C66.4411 202.842 66.2786 202.737 66.1513 202.737L65.7869 202.741C61.4583 202.811 56.0716 202.895 52.4454 205.542C48.8103 208.193 48.4811 213.084 48.5469 216.535C48.5513 216.693 48.6347 216.767 48.705 216.803C48.8191 216.864 48.9772 216.855 49.0825 216.785L49.144 216.741Z" fill="#1C1C2D"/>
<path d="M45.0567 221.131C45.0918 218.036 44.3718 214.906 41.9924 212.754C39.2661 210.291 35.3238 208.882 32.1014 207.214C31.7766 207.043 31.2498 207.337 31.4078 207.745C32.8653 211.455 32.659 215.986 35.236 219.208C37.4223 221.947 41.1231 222.869 44.4113 221.859C44.5782 221.807 44.6704 221.697 44.7099 221.565C44.8986 221.517 45.0567 221.377 45.0567 221.131Z" fill="#FDFDFD"/>
<path d="M41.7874 222.395C39.2017 222.395 36.7169 221.285 35.1232 219.296C33.4945 217.254 32.9589 214.677 32.4409 212.184C32.1336 210.704 31.8175 209.177 31.2731 207.798C31.1897 207.579 31.2424 207.355 31.418 207.197C31.6243 207.012 31.9404 206.964 32.1687 207.082C33.0379 207.535 33.9423 207.956 34.8993 208.404C37.45 209.598 40.0841 210.832 42.0904 212.645C44.1932 214.546 45.2425 217.404 45.1986 221.131C45.1942 221.39 45.0537 221.592 44.821 221.68C44.7508 221.833 44.6235 221.943 44.4522 221.991C43.5742 222.268 42.6742 222.395 41.7874 222.395ZM31.8877 207.306C31.7911 207.306 31.6858 207.341 31.6111 207.412C31.5497 207.464 31.4882 207.557 31.5409 207.693C32.0941 209.098 32.4101 210.634 32.7218 212.127C33.2311 214.59 33.7623 217.131 35.3471 219.116C37.4105 221.697 41.0367 222.742 44.3644 221.719C44.4698 221.688 44.5357 221.623 44.5708 221.522L44.5971 221.447L44.6761 221.429C44.7639 221.407 44.9088 221.342 44.9088 221.135C44.9483 217.496 43.9342 214.712 41.8928 212.869C39.9216 211.086 37.3051 209.861 34.772 208.676C33.8106 208.228 32.9062 207.802 32.0282 207.346C31.9931 207.319 31.9404 207.306 31.8877 207.306Z" fill="#1C1C2D"/>
<path d="M73.8152 231.22C71.6289 229.525 68.8104 229.696 66.1632 229.81C63.2262 229.938 60.276 230.39 57.6024 231.659C52.9445 233.876 49.6695 238.766 51.3553 243.942C51.3114 244.162 51.3992 244.408 51.667 244.491C56.1054 245.896 58.2522 242.932 60.9258 239.978C64.3501 236.194 68.7446 233.502 73.6088 232.005C73.9117 231.913 74.1137 231.452 73.8152 231.22Z" fill="#FDFDFD"/>
<path d="M53.8026 244.996C53.1353 244.996 52.4153 244.882 51.6251 244.632C51.2827 244.522 51.1729 244.223 51.2081 243.955C49.4037 238.345 53.2231 233.586 57.543 231.531C59.8917 230.416 62.6312 229.824 66.1608 229.67L66.3672 229.661C69.0056 229.547 71.7363 229.424 73.905 231.11C74.063 231.233 74.1333 231.422 74.0982 231.628C74.0543 231.869 73.8699 232.08 73.6548 232.15C68.7246 233.669 64.3609 236.413 61.0375 240.083C60.8224 240.32 60.6117 240.558 60.401 240.795C58.4781 242.941 56.6474 244.996 53.8026 244.996ZM68.3866 229.889C67.7193 229.889 67.0432 229.92 66.3759 229.947L66.1696 229.955C62.6795 230.109 59.9795 230.688 57.6659 231.79C53.447 233.797 49.7154 238.441 51.4934 243.898L51.5066 243.934L51.4978 243.969C51.4715 244.114 51.511 244.289 51.7129 244.351C55.7079 245.611 57.7801 243.288 60.1815 240.593C60.3922 240.356 60.6029 240.118 60.818 239.881C64.1765 236.172 68.5842 233.402 73.5626 231.865C73.6767 231.83 73.7821 231.703 73.8084 231.566C73.8216 231.496 73.8172 231.4 73.725 231.329C72.1753 230.135 70.3051 229.889 68.3866 229.889Z" fill="#1C1C2D"/>
<path d="M84.4483 242.278C84.3913 242.26 84.3342 242.23 84.2771 242.203C82.3937 241.395 80.7036 239.854 78.9914 238.375C78.9914 238.366 78.9826 238.366 78.9738 238.357C77.0993 236.737 75.1852 235.201 72.9506 234.793C72.933 234.784 72.9111 234.784 72.8935 234.784C71.8662 234.595 70.7731 234.661 69.5746 235.056C64.8245 236.641 61.9007 241.589 61.4309 246.347C61.4221 246.462 61.4617 246.554 61.5056 246.62C61.4968 246.646 61.488 246.668 61.4792 246.694C61.4046 246.958 61.5451 247.304 61.9051 247.353C65.9791 247.831 69.9741 247.362 73.9603 246.523C77.4944 245.777 81.4894 245.175 84.5625 243.129C84.9181 242.901 84.8215 242.431 84.4483 242.278Z" fill="#FDFDFD"/>
<path d="M65.2208 247.695C64.0706 247.695 62.9599 247.63 61.8755 247.502C61.6824 247.476 61.5199 247.375 61.4146 247.221C61.3092 247.059 61.2741 246.848 61.3268 246.659L61.3355 246.637C61.2873 246.545 61.2697 246.44 61.2741 246.339C61.7175 241.874 64.435 236.615 69.5143 234.92C70.6909 234.529 71.8016 234.442 72.9035 234.644C72.9035 234.644 72.9342 234.639 72.9738 234.657C75.2215 235.069 77.1312 236.593 79.0497 238.248L79.1155 238.309L79.4887 238.634C81.0208 239.964 82.6057 241.339 84.3134 242.072C84.3705 242.098 84.4232 242.124 84.4715 242.142L84.4803 242.146C84.7173 242.243 84.8798 242.449 84.9061 242.686C84.9281 242.91 84.8227 243.125 84.6207 243.257C81.912 245.061 78.558 245.737 75.3181 246.392C74.8615 246.484 74.4137 246.576 73.9659 246.668C70.7128 247.362 67.8549 247.695 65.2208 247.695ZM71.784 234.828C71.0728 234.828 70.3572 234.951 69.6109 235.197C64.6545 236.847 61.9985 241.997 61.5638 246.365C61.5594 246.444 61.5858 246.506 61.6121 246.541L61.656 246.602L61.6165 246.716C61.577 246.844 61.5946 246.971 61.656 247.063C61.6955 247.125 61.7702 247.199 61.9107 247.217C65.4403 247.634 69.2553 247.371 73.9176 246.387C74.361 246.295 74.8132 246.203 75.2698 246.111C78.4834 245.461 81.8067 244.789 84.4715 243.016C84.5856 242.941 84.6427 242.836 84.6295 242.713C84.6164 242.581 84.5242 242.467 84.3881 242.41C84.3266 242.388 84.2652 242.357 84.2037 242.326C82.4608 241.576 80.8584 240.188 79.3087 238.845L78.8346 238.432C76.96 236.817 75.0854 235.324 72.9123 234.933L72.8728 234.92C72.5128 234.863 72.1484 234.828 71.784 234.828Z" fill="#1C1C2D"/>
<path d="M77.3631 251.396C72.1652 250.356 61.4226 247.709 60.6894 255.993C60.6675 256.256 60.8343 256.397 61.0363 256.432C65.7556 261.968 74.931 257.578 77.6441 252.086C77.7714 251.835 77.6792 251.458 77.3631 251.396Z" fill="#FDFDFD"/>
<path d="M66.6954 259.132C64.8867 259.132 62.718 258.592 60.9663 256.563C60.6853 256.498 60.5273 256.274 60.5536 255.98C60.7292 253.995 61.4931 252.485 62.8277 251.493C66.2213 248.964 72.4553 250.242 76.582 251.085C76.8673 251.142 77.1439 251.199 77.4029 251.251C77.5741 251.287 77.7102 251.392 77.7892 251.55C77.8814 251.734 77.877 251.963 77.7849 252.151C76.0508 255.659 71.8933 258.561 67.8895 259.057C67.5164 259.105 67.1125 259.132 66.6954 259.132ZM68.5261 250.294C66.4101 250.294 64.4301 250.659 62.9945 251.726C61.7302 252.665 61.0058 254.105 60.839 256.006C60.8214 256.217 60.9751 256.274 61.0673 256.287L61.12 256.296L61.1551 256.335C63.2316 258.772 65.9447 259.004 67.85 258.767C71.7616 258.28 75.8269 255.444 77.5215 252.02C77.5741 251.914 77.5741 251.778 77.5258 251.677C77.4863 251.598 77.4249 251.55 77.3415 251.537C77.0824 251.484 76.8059 251.427 76.5205 251.37C74.2201 250.9 71.2611 250.294 68.5261 250.294Z" fill="#1C1C2D"/>
<path d="M44.4164 234.727C43.0379 231.676 39.8331 228.52 36.681 227.37C36.3913 227.264 36.084 227.536 36.084 227.822C36.1366 233.836 34.6616 243.301 41.2028 246.629C41.2511 246.651 41.295 246.66 41.3389 246.669C41.5145 246.932 41.936 247.029 42.1336 246.673C44.153 243.069 46.2778 238.845 44.4164 234.727Z" fill="#FDFDFD"/>
<path d="M41.7679 247.051C41.5748 247.051 41.386 246.954 41.2587 246.8C41.2192 246.792 41.1797 246.783 41.1401 246.761C35.5252 243.907 35.7271 236.646 35.8896 230.816C35.9203 229.754 35.9466 228.753 35.9379 227.826C35.9379 227.629 36.0432 227.436 36.2144 227.313C36.3725 227.203 36.5612 227.172 36.7281 227.234C39.8231 228.362 43.1113 231.488 44.5469 234.666C46.3907 238.745 44.4283 242.871 42.2596 246.743C42.1543 246.932 41.9874 247.038 41.7855 247.046C41.7855 247.051 41.7767 247.051 41.7679 247.051ZM36.5525 227.497C36.4778 227.497 36.4208 227.532 36.3856 227.554C36.2934 227.62 36.232 227.73 36.232 227.826C36.2408 228.757 36.21 229.762 36.1837 230.829C36.0213 236.58 35.8237 243.736 41.2718 246.506C41.2938 246.52 41.3245 246.524 41.3597 246.528L41.4211 246.537L41.465 246.59C41.5353 246.695 41.667 246.761 41.7855 246.761C41.8821 246.757 41.9611 246.704 42.0182 246.607C44.1474 242.797 46.079 238.745 44.2923 234.789C42.8874 231.676 39.6695 228.612 36.6403 227.51C36.6051 227.497 36.5788 227.497 36.5525 227.497Z" fill="#1C1C2D"/>
<path d="M27.3865 238.555C24.1905 235.943 19.1419 235.377 15.4278 237.265C10.2738 239.881 11.1958 246.093 10.4099 250.878C10.3353 251.339 10.827 251.664 11.1958 251.339C16.2927 246.87 23.3959 245.114 27.2856 239.262C27.5358 239.113 27.6675 238.788 27.3865 238.555Z" fill="#FDFDFD"/>
<path d="M10.872 251.616C10.7754 251.616 10.6744 251.59 10.5866 251.541C10.3495 251.41 10.2266 251.142 10.2705 250.857C10.4461 249.798 10.5339 248.688 10.6261 247.516C10.951 243.433 11.2846 239.209 15.363 237.137C19.121 235.228 24.2179 235.781 27.4798 238.446C27.629 238.569 27.7037 238.731 27.6905 238.898C27.6773 239.078 27.5632 239.253 27.392 239.363C25.0169 242.924 21.4082 245.009 17.9137 247.024C15.6396 248.337 13.2909 249.693 11.2934 251.445C11.1661 251.559 11.0168 251.616 10.872 251.616ZM20.3019 236.29C18.6205 236.29 16.9567 236.65 15.4948 237.392C11.5612 239.389 11.2319 243.534 10.9159 247.538C10.8281 248.666 10.7359 249.829 10.5603 250.9C10.5339 251.063 10.5998 251.212 10.7315 251.287C10.8544 251.357 10.9905 251.335 11.109 251.23C13.1285 249.456 15.4904 248.095 17.7732 246.774C21.2326 244.776 24.8106 242.713 27.1461 239.214V239.196L27.2164 239.13C27.3217 239.069 27.392 238.968 27.4008 238.871C27.4051 238.797 27.37 238.727 27.2954 238.665C25.3857 237.107 22.8306 236.29 20.3019 236.29Z" fill="#1C1C2D"/>
<path d="M27.4206 243.292C27.2714 243.068 27.0343 243.042 26.8367 243.121C26.705 242.954 26.4855 242.862 26.2485 242.989C23.6934 244.39 20.7037 246.348 20.1989 249.434C19.5974 253.117 21.6696 256.708 21.9022 260.335C21.933 260.835 22.7232 261.015 22.8286 260.462C23.4827 256.976 27.0958 255.387 28.4216 252.252C29.5147 249.675 28.9396 245.61 27.4206 243.292Z" fill="#FDFDFD"/>
<path d="M22.4313 260.949C22.4182 260.949 22.405 260.949 22.3918 260.949C22.1021 260.932 21.7816 260.717 21.7596 260.348C21.6674 258.886 21.2636 257.402 20.8728 255.962C20.2933 253.833 19.6963 251.629 20.0607 249.412C20.5655 246.326 23.4367 244.368 26.1849 242.862C26.4263 242.73 26.6897 242.765 26.8873 242.954C27.1463 242.888 27.3966 242.985 27.5458 243.213C29.1746 245.702 29.6311 249.785 28.5599 252.314C27.9629 253.719 26.9092 254.83 25.8907 255.896C24.5737 257.279 23.3313 258.587 22.9757 260.493C22.9186 260.774 22.7079 260.949 22.4313 260.949ZM26.4746 243.077C26.4263 243.077 26.3737 243.09 26.321 243.121C23.6386 244.592 20.8289 246.497 20.346 249.465C19.9948 251.62 20.5831 253.793 21.1538 255.892C21.5489 257.345 21.9528 258.847 22.0494 260.335C22.0626 260.528 22.2426 260.655 22.4094 260.664C22.4928 260.668 22.6508 260.646 22.686 260.445C23.0591 258.456 24.3893 257.055 25.68 255.703C26.681 254.65 27.717 253.565 28.2921 252.204C29.3106 249.798 28.8585 245.755 27.3044 243.376C27.1683 243.169 26.9575 243.235 26.8961 243.262L26.7951 243.301L26.7293 243.213C26.6897 243.165 26.6019 243.077 26.4746 243.077Z" fill="#1C1C2D"/>
<path d="M43.1727 264.677C40.1742 260.467 37.088 256.867 31.8769 255.545C31.4993 255.449 31.1086 255.883 31.3457 256.239C32.5178 258.004 32.4959 260.001 33.4793 261.784C34.0588 262.837 35.0158 263.623 36.0211 264.26C38.2426 265.665 41.1049 266.938 43.5853 265.52C44.0814 265.226 43.6687 264.479 43.1727 264.677Z" fill="#FDFDFD"/>
<path d="M41.2164 266.279C39.693 266.279 37.9458 265.647 35.9395 264.378C34.6839 263.584 33.863 262.78 33.3493 261.854C32.8927 261.024 32.6425 260.138 32.4054 259.281C32.1289 258.285 31.8435 257.258 31.2201 256.323C31.0884 256.121 31.0928 255.875 31.2377 255.673C31.3957 255.453 31.6635 255.348 31.9093 255.409C37.3136 256.779 40.4701 260.647 43.2271 264.515C43.5212 264.457 43.7715 264.637 43.8856 264.87C44.0041 265.112 43.9778 265.458 43.6485 265.647C42.911 266.064 42.1032 266.279 41.2164 266.279ZM31.7689 255.677C31.6459 255.677 31.5362 255.752 31.4747 255.835C31.4396 255.884 31.3694 256.015 31.4616 256.156C32.1113 257.13 32.401 258.184 32.682 259.198C32.9147 260.037 33.1561 260.906 33.5995 261.709C34.0868 262.596 34.8815 263.364 36.0887 264.133C39.1618 266.073 41.5852 266.486 43.5037 265.388C43.6837 265.283 43.6837 265.116 43.6222 264.989C43.5563 264.853 43.4027 264.738 43.2183 264.813L43.1129 264.857L43.0471 264.765C40.3033 260.915 37.1819 257.043 31.8347 255.69C31.8172 255.682 31.7952 255.677 31.7689 255.677Z" fill="#1C1C2D"/>
<path d="M49.9407 259.707C49.9275 259.663 49.9187 259.619 49.888 259.571C47.8246 256.278 47.7368 252.095 44.8877 249.263C44.6681 249.043 44.3082 249.1 44.1457 249.36C42.7497 251.594 42.0736 254.276 43.1843 256.783C44.3828 259.492 46.9071 260.234 49.6597 260.519C50.147 260.568 50.2348 259.975 49.9407 259.707Z" fill="#FDFDFD"/>
<path d="M49.7222 260.664C49.7002 260.664 49.6739 260.664 49.6519 260.66C47.1144 260.396 44.3443 259.738 43.0623 256.84C42.0614 254.575 42.4038 251.888 44.0326 249.28C44.1335 249.114 44.3047 249.008 44.4979 248.986C44.6823 248.964 44.8667 249.03 44.9984 249.162C46.6886 250.843 47.4305 253.025 48.1505 255.137C48.6554 256.616 49.1734 258.149 50.0207 259.496C50.0514 259.545 50.069 259.593 50.0778 259.632C50.2577 259.826 50.3148 260.124 50.2051 260.366C50.1173 260.554 49.9373 260.664 49.7222 260.664ZM44.5682 249.272C44.555 249.272 44.5418 249.272 44.5286 249.276C44.4233 249.289 44.3311 249.346 44.274 249.439C42.698 251.963 42.3599 254.553 43.3214 256.726C44.5462 259.492 47.2198 260.124 49.6783 260.374C49.8056 260.392 49.8934 260.344 49.9373 260.247C49.9899 260.128 49.9724 259.935 49.8451 259.817L49.8143 259.786L49.8012 259.733C49.7924 259.694 49.7836 259.672 49.7704 259.65C48.9056 258.271 48.3832 256.726 47.8739 255.229C47.1364 253.056 46.4383 251.001 44.792 249.368C44.7306 249.302 44.6516 249.272 44.5682 249.272Z" fill="#1C1C2D"/>
<path d="M55.7212 222.913C55.133 222.422 54.3515 222.909 53.7676 223.159C52.6745 223.625 51.6077 224.16 50.655 224.871C48.8727 226.202 47.6478 228.085 47.5337 230.306C47.5205 230.363 47.5161 230.416 47.5249 230.478C47.5249 230.543 47.5117 230.605 47.5117 230.671C47.5161 231.206 48.2493 231.268 48.4161 230.855C50.6989 230.355 52.5033 228.884 54.0003 227.119C54.6896 226.307 57.0954 224.064 55.7212 222.913Z" fill="#FDFDFD"/>
<path d="M47.994 231.263C47.9501 231.263 47.9062 231.259 47.8623 231.25C47.5682 231.193 47.3794 230.965 47.375 230.666C47.375 230.627 47.3794 230.587 47.3838 230.548C47.3882 230.521 47.3882 230.495 47.3882 230.469C47.3794 230.412 47.3838 230.337 47.4057 230.262C47.5067 228.164 48.635 226.193 50.5798 224.748C51.4139 224.125 52.4105 223.576 53.7231 223.023C53.8021 222.988 53.8899 222.948 53.9777 222.909C54.5441 222.646 55.2509 222.321 55.826 222.799C56.1113 223.036 56.2694 223.335 56.2913 223.686C56.3616 224.748 55.1719 226.057 54.4607 226.834C54.329 226.979 54.2148 227.102 54.127 227.207C52.3622 229.283 50.5315 230.517 48.534 230.974C48.4198 231.158 48.2135 231.263 47.994 231.263ZM55.128 222.848C54.7943 222.848 54.4255 223.019 54.0875 223.172C53.9953 223.212 53.9119 223.256 53.8285 223.291C52.5422 223.84 51.5632 224.375 50.7466 224.986C48.8764 226.377 47.7877 228.269 47.6867 230.311C47.6735 230.377 47.6691 230.416 47.6735 230.456C47.6735 230.508 47.6691 230.543 47.6691 230.574C47.6647 230.605 47.6647 230.636 47.6647 230.666C47.6647 230.895 47.8404 230.956 47.915 230.969C48.0555 230.996 48.2311 230.947 48.2925 230.798L48.3233 230.728L48.3979 230.71C50.3603 230.28 52.1602 229.073 53.8987 227.023C53.9865 226.917 54.1051 226.79 54.2368 226.645C54.9172 225.899 56.0587 224.652 55.9928 223.712C55.9752 223.44 55.8567 223.216 55.6284 223.028C55.4792 222.896 55.3123 222.848 55.128 222.848Z" fill="#1C1C2D"/>
<path d="M56.7532 260.08C56.683 260.014 56.6215 259.935 56.5557 259.865C57.1439 255.844 57.3898 251.186 53.4343 248.824C53.1753 248.67 52.8197 248.811 52.7407 249.105C51.6519 253.359 52.9031 257.727 56.0903 260.748C56.5249 261.165 57.1922 260.502 56.7532 260.08Z" fill="#FDFDFD"/>
<path d="M56.3969 261.024C56.2564 261.024 56.1115 260.971 55.9842 260.853C52.7575 257.793 51.4887 253.39 52.5951 249.07C52.6433 248.885 52.7751 248.74 52.955 248.666C53.135 248.591 53.3414 248.604 53.4994 248.701C57.3803 251.019 57.3408 255.409 56.6998 259.817C56.713 259.83 56.7262 259.848 56.7393 259.865C56.7745 259.905 56.8052 259.94 56.8447 259.975C57.1257 260.238 57.0642 260.598 56.8579 260.813C56.7481 260.941 56.5769 261.024 56.3969 261.024ZM53.1965 248.907C53.1526 248.907 53.1087 248.916 53.0648 248.934C52.9682 248.973 52.898 249.048 52.876 249.144C51.7961 253.359 53.0341 257.657 56.1818 260.647C56.3442 260.8 56.5374 260.739 56.6515 260.62C56.7481 260.515 56.8096 260.339 56.6471 260.19C56.6032 260.15 56.5637 260.102 56.5242 260.058C56.4979 260.028 56.4715 259.997 56.4452 259.97L56.3925 259.918L56.4013 259.848C57.0335 255.514 57.0993 251.195 53.3458 248.951C53.3063 248.92 53.2536 248.907 53.1965 248.907Z" fill="#1C1C2D"/>
<path d="M42.2984 257.675C41.8506 255.848 41.3457 253.996 40.7267 252.187C40.7355 252.17 40.7443 252.161 40.7487 252.143C41.596 249.25 41.9165 246.304 41.7452 243.372C41.9033 243.345 42.0482 243.253 42.1096 243.056C42.654 241.322 42.8823 239.557 42.7945 237.744C42.7638 237.138 41.8243 237.138 41.8506 237.744C41.9121 238.999 41.8067 240.224 41.5521 241.436C41.3633 240.04 41.0692 238.648 40.6477 237.274C40.4721 236.694 39.559 236.94 39.739 237.524C41.0692 241.861 41.2009 246.274 40.156 250.637C39.2736 248.39 38.1673 246.243 36.6791 244.342C33.1889 239.873 26.8408 237.155 21.8141 239.263C21.8009 239.091 21.7 238.929 21.4805 238.876C19.5312 238.406 17.5732 238.701 15.8567 239.737C15.3387 240.048 15.8128 240.865 16.3352 240.553C17.7357 239.71 19.2898 239.425 20.879 239.723C19.7156 240.382 18.6444 241.322 17.7225 242.603C17.3669 243.095 18.1835 243.569 18.5347 243.078C20.9449 239.732 25.3262 238.683 29.1632 239.93C30.2783 240.29 31.3055 240.821 32.2538 241.458C28.2368 241.374 25.1901 244.065 22.4463 246.739C22.0117 247.165 22.679 247.828 23.1136 247.406C23.658 246.875 24.2155 246.339 24.7862 245.83C24.6282 246.778 24.5974 247.736 24.6984 248.706C24.7599 249.303 25.7037 249.307 25.6423 248.706C25.515 247.468 25.5984 246.26 25.9101 245.053C25.9276 244.987 25.9276 244.93 25.9189 244.873C27.8593 243.337 30.0324 242.221 32.6972 242.41C32.9474 242.428 33.0835 242.279 33.1318 242.094C35.2698 243.78 36.9512 246.076 38.1717 248.499C40.595 253.315 41.9779 258.825 42.7594 264.343C40.8102 263.839 39.1112 262.824 37.7459 261.323C37.3376 260.875 36.6703 261.542 37.0786 261.99C37.7678 262.745 38.5449 263.382 39.3878 263.913C38.8434 263.913 38.3034 263.887 37.759 263.799C37.1664 263.707 36.9117 264.616 37.5088 264.708C38.4132 264.848 39.3131 264.901 40.2263 264.844C40.4238 264.831 40.5511 264.721 40.617 264.58C41.3106 264.901 42.0438 265.156 42.8033 265.331C42.8384 265.34 42.8647 265.331 42.8955 265.336C43.2423 268.009 43.4486 270.674 43.5715 273.251C43.6023 273.857 44.5418 273.861 44.5154 273.251C44.2652 267.992 43.5496 262.781 42.2984 257.675Z" fill="#1C1C2D"/>
<path d="M57.9386 238.301C57.0913 238.915 56.2835 239.569 55.5064 240.259C55.963 238.586 56.6742 237.036 57.6839 235.601C58.0351 235.105 57.2186 234.63 56.8718 235.127C55.6381 236.878 54.7996 238.819 54.365 240.913C54.3343 241.053 54.3694 241.172 54.4309 241.268C52.3324 243.323 50.5412 245.654 49.0925 248.249C48.8378 245 48.6227 241.747 48.4647 238.489C48.3505 236.176 48.1749 233.586 48.1091 230.921C49.1978 229.45 50.3524 228.006 52.047 227.207C52.5958 226.948 52.1173 226.136 51.5729 226.395C50.1373 227.071 49.0573 228.19 48.0871 229.406C48.0783 228.155 48.1003 226.895 48.1793 225.648C48.254 225.521 48.2715 225.367 48.2057 225.214C48.6798 218.558 50.6773 212.271 57.0518 209.33C57.6005 209.075 57.122 208.263 56.5776 208.518C54.9621 209.26 53.6231 210.212 52.508 211.323C52.4553 210.41 52.6046 209.51 52.9426 208.645C53.1621 208.079 52.2534 207.833 52.0338 208.395C51.5553 209.62 51.4456 210.889 51.6519 212.184C51.6563 212.206 51.6651 212.219 51.6739 212.236C48.9608 215.472 47.8413 219.792 47.433 224.27C46.0677 222.685 44.7023 221.1 43.337 219.515C43.4687 219.449 43.5653 219.322 43.5521 219.12C43.4687 217.794 43.0517 216.556 42.2834 215.467C41.9366 214.976 41.12 215.446 41.4712 215.942C42.0375 216.745 42.3931 217.632 42.538 218.589C42.0288 218.001 41.5239 217.412 41.0146 216.824C40.6195 216.363 39.9522 217.03 40.3473 217.491C42.6741 220.191 45.0053 222.896 47.332 225.596C47.2311 227.242 47.2179 228.897 47.2398 230.517C47.2179 230.543 47.1959 230.574 47.1784 230.6C47.0203 230.815 47.095 231.022 47.253 231.149C47.2837 232.734 47.3496 234.284 47.4067 235.741C47.7096 243.257 48.2847 250.76 49.1012 258.232C47.4023 257.292 46.4716 255.527 45.6243 253.833C45.3521 253.289 44.5399 253.767 44.8121 254.307C45.7823 256.252 46.893 258.28 48.9564 259.224C49.0442 259.263 49.1276 259.272 49.211 259.259C49.7554 264.058 50.3963 268.847 51.1427 273.619C51.2348 274.216 52.1436 273.962 52.0514 273.369C50.8266 265.533 49.8827 257.652 49.2198 249.75C49.3032 249.715 49.3866 249.658 49.4393 249.553C51.5992 245.386 54.6196 241.852 58.4171 239.095C58.9 238.762 58.4303 237.945 57.9386 238.301Z" fill="#1C1C2D"/>
<path d="M73.5315 239.047C71.5471 239.007 69.7428 239.482 68.1009 240.298C68.7989 239.552 69.5496 238.863 70.3662 238.239C70.8403 237.875 70.3706 237.058 69.8921 237.427C68.3116 238.639 66.9375 240.039 65.7697 241.655C65.7258 241.716 65.6995 241.782 65.6907 241.839C62.5035 244.341 60.146 248.165 58.6797 251.809C57.7885 254.022 57.13 256.313 56.6163 258.645C56.0895 257.762 55.7954 256.77 55.4705 255.795C55.2115 255.018 54.9744 254.311 54.25 253.859C53.7364 253.534 53.2623 254.351 53.7759 254.671C54.5398 255.15 54.7154 256.528 54.992 257.323C55.2598 258.096 55.5583 258.825 56.0324 259.496C56.129 259.632 56.2651 259.689 56.3968 259.698C55.2554 265.397 54.9393 271.319 54.3905 277.026C54.3335 277.627 55.2773 277.627 55.3344 277.026C55.8437 271.714 56.1729 266.283 57.1344 260.998C57.2002 260.976 57.2705 260.941 57.3319 260.87C59.1099 258.904 60.9582 256.928 63.2059 255.558C63.882 256.186 64.6722 256.66 65.5502 256.963C66.1253 257.161 66.3712 256.248 65.8005 256.054C65.1595 255.835 64.5844 255.506 64.0707 255.08C64.6941 254.759 65.3395 254.474 66.0375 254.268C66.617 254.096 66.3712 253.183 65.7873 253.359C64.8741 253.631 64.0268 254.009 63.2235 254.456C63.0786 254.465 62.9513 254.553 62.8635 254.671C60.8264 255.883 59.1011 257.56 57.468 259.325C57.7797 257.841 58.1353 256.366 58.5831 254.917C59.4918 251.98 60.9318 248.723 62.9381 246.005C62.9557 246.001 62.9688 246.005 62.9864 246.001C64.0576 245.641 65.1507 245.391 66.2746 245.237C66.8716 245.158 66.617 244.249 66.0243 244.328C65.3219 244.425 64.6327 244.574 63.9478 244.75C66.4063 241.909 69.5891 239.916 73.5402 239.991C74.1373 240 74.1373 239.056 73.5315 239.047Z" fill="#1C1C2D"/>
<path d="M65.6739 268.413L64.9232 273.084L63.5755 281.452L60.6472 299.688H39.2059L36.2777 281.452L34.9299 273.084L34.1836 268.413H65.6739Z" fill="#FDFDFD"/>
<path d="M60.7695 299.833H39.0823L34.0117 268.268H65.8445L60.7695 299.833ZM39.3282 299.543H60.5237L65.5021 268.558H34.3498L39.3282 299.543Z" fill="#1C1C2D"/>
<path d="M289.781 299.377H30.6719V300H289.781V299.377Z" fill="#1C1C2D"/>
<path d="M266.931 137.644V243.099C266.931 245.184 265.237 246.875 263.156 246.875H116.306C114.221 246.875 112.535 245.18 112.535 243.099V137.648C112.535 134.983 114.695 132.828 117.351 132.828H262.107C264.771 132.832 266.931 134.988 266.931 137.644Z" fill="#FDFDFD"/>
<path d="M263.15 247.182H116.305C114.057 247.182 112.23 245.351 112.23 243.104V137.653C112.23 134.825 114.527 132.529 117.349 132.529H262.105C264.928 132.529 267.228 134.825 267.228 137.648V243.104C267.228 245.351 265.402 247.182 263.15 247.182ZM117.349 133.131C114.86 133.131 112.836 135.159 112.836 137.648V243.099C112.836 245.013 114.39 246.576 116.305 246.576H263.15C265.064 246.576 266.627 245.018 266.627 243.099V137.644C266.627 135.155 264.598 133.131 262.109 133.131H117.349Z" fill="#1C1C2D"/>
<path d="M266.927 149.431H112.535V137.652C112.535 134.992 114.695 132.832 117.356 132.832H262.111C264.771 132.832 266.931 134.992 266.931 137.652V149.431H266.927Z" fill="#1C1C2D"/>
<path d="M139.09 141.13C139.09 139.721 140.231 138.579 141.641 138.579C143.05 138.579 144.191 139.721 144.191 141.13C144.191 142.539 143.05 143.681 141.641 143.681C140.231 143.681 139.09 142.539 139.09 141.13Z" fill="#6254E7"/>
<path d="M129.285 141.13C129.285 139.721 130.427 138.579 131.836 138.579C133.245 138.579 134.386 139.721 134.386 141.13C134.386 142.539 133.245 143.681 131.836 143.681C130.427 143.681 129.285 142.539 129.285 141.13Z" fill="#FF824D"/>
<path d="M119.469 141.13C119.469 139.721 120.61 138.579 122.019 138.579C123.429 138.579 124.57 139.721 124.57 141.13C124.57 142.539 123.429 143.681 122.019 143.681C120.61 143.681 119.469 142.539 119.469 141.13Z" fill="white"/>
<path d="M254.781 139.264L256.041 138.004L257.846 139.808L259.65 138.004L260.91 139.264L259.106 141.068L260.91 142.873L259.65 144.133L257.846 142.333L256.041 144.133L254.781 142.873L256.586 141.068L254.781 139.264Z" fill="white"/>
<path d="M195.773 225.183H187.73V240.97H195.773V225.183Z" fill="#FF824D"/>
<path d="M195.773 234.574H187.73V240.97H195.773V234.574Z" fill="#6254E7"/>
<path d="M195.945 241.146H187.551V234.394H195.945V241.146ZM187.902 240.795H195.589V234.754H187.902V240.795Z" fill="#1C1C2D"/>
<path d="M210.457 215.494H202.414V240.97H210.457V215.494Z" fill="#FF824D"/>
<path d="M210.457 226.636H202.414V240.97H210.457V226.636Z" fill="#6254E7"/>
<path d="M210.632 241.146H202.238V226.457H210.632V241.146ZM202.589 240.795H210.277V226.817H202.589V240.795Z" fill="#1C1C2D"/>
<path d="M225.14 216.983H217.098V240.97H225.14V216.983Z" fill="#FF824D"/>
<path d="M225.14 230.324H217.098V240.97H225.14V230.324Z" fill="#6254E7"/>
<path d="M225.324 241.146H216.93V230.144H225.324V241.146ZM217.281 240.795H224.968V230.5H217.281V240.795Z" fill="#1C1C2D"/>
<path d="M239.832 208.08H231.789V240.971H239.832V208.08Z" fill="#FF824D"/>
<path d="M239.824 221.408H231.781V240.97H239.824V221.408Z" fill="#6254E7"/>
<path d="M240.007 241.146H231.613V221.232H240.007V241.146ZM231.964 240.795H239.652V221.588H231.964V240.795Z" fill="#1C1C2D"/>
<path d="M254.515 196.691H246.473V240.97H254.515V196.691Z" fill="#FF824D"/>
<path d="M254.515 216.983H246.473V240.97H254.515V216.983Z" fill="#6254E7"/>
<path d="M254.703 241.146H246.309V216.803H254.703V241.146ZM246.66 240.795H254.347V217.159H246.66V240.795Z" fill="#1C1C2D"/>
<path d="M156.446 193.319L126.874 193.359C125.491 193.359 124.367 192.239 124.367 190.857L124.332 161.28C124.332 159.897 125.452 158.773 126.834 158.773L156.411 158.738C157.794 158.738 158.917 159.858 158.917 161.241L158.953 190.817C158.953 192.196 157.833 193.319 156.446 193.319Z" fill="#FDFDFD"/>
<path d="M126.874 193.504C125.417 193.504 124.227 192.319 124.223 190.857L124.188 161.281C124.188 159.819 125.373 158.629 126.835 158.629L156.411 158.594C156.411 158.594 156.411 158.594 156.415 158.594C157.877 158.594 159.063 159.779 159.067 161.241L159.102 190.817C159.102 192.279 157.917 193.469 156.455 193.469L126.874 193.504ZM156.411 158.879L126.835 158.914C125.531 158.914 124.473 159.977 124.477 161.276L124.512 190.852C124.512 192.152 125.575 193.21 126.874 193.21C126.874 193.21 126.874 193.21 126.879 193.21L156.455 193.175C157.754 193.175 158.812 192.112 158.812 190.813L158.777 161.237C158.773 159.937 157.715 158.879 156.411 158.879Z" fill="#1C1C2D"/>
<path d="M154.597 190.87L128.713 190.901C127.664 190.901 126.812 190.054 126.812 189.004L126.781 163.12C126.781 162.071 127.629 161.219 128.678 161.219L154.562 161.188C155.611 161.188 156.463 162.036 156.463 163.085L156.494 188.969C156.498 190.019 155.646 190.87 154.597 190.87Z" fill="#6254E7"/>
<path d="M128.717 191.05C128.173 191.05 127.659 190.839 127.273 190.453C126.886 190.067 126.671 189.553 126.671 189.009L126.641 163.124C126.641 161.996 127.554 161.079 128.682 161.079L154.566 161.048C154.566 161.048 154.566 161.048 154.571 161.048C155.694 161.048 156.612 161.961 156.612 163.089L156.643 188.974C156.643 189.518 156.432 190.032 156.046 190.418C155.659 190.804 155.146 191.019 154.601 191.019L128.717 191.05ZM154.601 190.73C155.071 190.73 155.51 190.545 155.839 190.216C156.169 189.882 156.353 189.443 156.353 188.974L156.322 163.089C156.322 162.123 155.536 161.338 154.566 161.338C154.566 161.338 154.566 161.338 154.562 161.338L128.678 161.368C127.712 161.368 126.926 162.159 126.926 163.124L126.957 189.009C126.957 189.478 127.141 189.917 127.47 190.247C127.8 190.576 128.243 190.76 128.708 190.76L154.601 190.73Z" fill="#1C1C2D"/>
<path d="M128.176 189.254L137.404 170.895L143.453 183.565L147.681 176.852L154.916 189.079C155.385 189.869 154.815 190.87 153.897 190.874L129.247 190.975C128.355 190.984 127.776 190.049 128.176 189.254Z" fill="#FF824D"/>
<path d="M129.232 191.278C128.71 191.278 128.24 191.015 127.964 190.572C127.687 190.128 127.665 189.584 127.898 189.119L137.398 170.21L143.478 182.942L147.68 176.273L155.165 188.925C155.441 189.391 155.446 189.948 155.178 190.422C154.91 190.892 154.427 191.173 153.887 191.178L129.237 191.278C129.237 191.278 129.237 191.278 129.232 191.278ZM137.389 171.58L128.438 189.391C128.297 189.667 128.31 189.992 128.477 190.256C128.64 190.519 128.921 190.677 129.232 190.677H129.237L153.887 190.576C154.208 190.576 154.497 190.405 154.656 190.128C154.814 189.847 154.814 189.514 154.647 189.237L147.662 177.436L143.404 184.193L137.389 171.58Z" fill="#1C1C2D"/>
<path d="M146.107 168.542C146.098 169.78 145.088 170.772 143.85 170.763C142.612 170.754 141.62 169.74 141.629 168.506C141.638 167.268 142.647 166.276 143.885 166.285C145.124 166.294 146.116 167.308 146.107 168.542Z" fill="#FDFDFD"/>
<path d="M143.865 170.908C143.856 170.908 143.852 170.908 143.843 170.908C143.206 170.903 142.609 170.649 142.161 170.197C141.714 169.744 141.472 169.143 141.477 168.506C141.485 167.198 142.557 166.145 143.86 166.145C143.869 166.145 143.874 166.145 143.878 166.145C145.191 166.153 146.253 167.233 146.244 168.546C146.24 169.183 145.985 169.78 145.533 170.227C145.09 170.666 144.497 170.908 143.865 170.908ZM143.865 166.43C142.719 166.43 141.78 167.361 141.771 168.506C141.766 169.064 141.981 169.595 142.372 169.99C142.763 170.39 143.29 170.609 143.847 170.614C144.405 170.614 144.936 170.403 145.336 170.012C145.735 169.622 145.955 169.095 145.959 168.537C145.968 167.383 145.037 166.434 143.882 166.425C143.878 166.43 143.869 166.43 143.865 166.43Z" fill="#1C1C2D"/>
<path d="M177.125 164.775L177.169 167.225H219.134L219.187 164.775H177.125Z" fill="#1C1C2D"/>
<path d="M177.254 172.129L177.298 174.561H252.865L252.953 172.129H177.254Z" fill="#1C1C2D"/>
<path d="M177.379 179.429L177.423 181.844H247.344L247.428 179.429H177.379Z" fill="#1C1C2D"/>
<path d="M223.516 167.225H236.471L236.546 164.775H223.573L223.516 167.225Z" fill="#1C1C2D"/>
<path d="M125.93 206.991L125.956 209.441H150.918L150.953 206.991H125.93Z" fill="#1C1C2D"/>
<path d="M126.008 214.344L126.03 216.776H170.985L171.037 214.344H126.008Z" fill="#1C1C2D"/>
<path d="M126.082 221.645L126.108 224.059H167.7L167.753 221.645H126.082Z" fill="#1C1C2D"/>
<path d="M126.008 228.946L126.03 231.378H170.985L171.037 228.946H126.008Z" fill="#1C1C2D"/>
<path d="M126.082 236.246L126.108 238.661H167.7L167.753 236.246H126.082Z" fill="#1C1C2D"/>
<path d="M153.535 209.441H161.24L161.284 206.991H153.566L153.535 209.441Z" fill="#1C1C2D"/>
<path d="M139.997 293.042C134.333 291.176 134.996 282.747 135.119 277.703L128.793 278.216C128.793 278.216 128.389 288.458 128.047 294.126C127.709 299.794 129.32 299.263 129.32 299.263H148.597C148.597 299.263 145.664 294.908 139.997 293.042Z" fill="#FDFDFD"/>
<path d="M129.215 299.42C129.087 299.42 128.912 299.381 128.736 299.249C128.02 298.696 127.731 296.922 127.897 294.117C128.236 288.515 128.639 278.313 128.644 278.207L128.648 278.076L135.268 277.54L135.264 277.702C135.255 278.041 135.247 278.396 135.233 278.76C135.084 283.708 134.86 291.189 140.041 292.897C145.686 294.758 148.685 299.131 148.715 299.175L148.869 299.403H129.337C129.307 299.416 129.263 299.42 129.215 299.42ZM128.934 278.352C128.885 279.559 128.508 288.875 128.196 294.135C127.981 297.704 128.552 298.718 128.907 299.008C129.105 299.166 129.267 299.122 129.276 299.122L129.32 299.118H148.307C147.614 298.2 144.76 294.767 139.953 293.182C134.562 291.404 134.79 283.792 134.944 278.756C134.952 278.449 134.961 278.15 134.97 277.865L128.934 278.352Z" fill="#1C1C2D"/>
<path d="M141.081 293.125C139.369 292.563 137.929 291.338 136.713 289.771C135.923 288.665 132.086 289.885 131.449 292.023C131.449 292.023 129.912 293.147 128.073 292.976C128.077 293.371 128.069 293.753 128.047 294.122C127.709 299.789 129.32 299.258 129.32 299.258H148.597C148.592 299.263 146.744 294.991 141.081 293.125Z" fill="#1C1C2D"/>
<path d="M82.9761 293.103C90.931 289.797 88.7623 281.974 90.7466 277.298L96.3352 280.398C96.3352 280.398 95.5714 288.476 95.9138 294.187C96.2562 299.899 94.6319 299.359 94.6319 299.359H75.2188C75.2188 299.363 77.427 295.408 82.9761 293.103Z" fill="#FDFDFD"/>
<path d="M94.7419 299.522C94.6848 299.522 94.6409 299.513 94.6145 299.508H74.9688L75.0873 299.293C75.1092 299.254 77.3833 295.267 82.9105 292.971C88.4113 290.684 89.0128 286.132 89.5483 282.11C89.7854 280.337 90.0049 278.66 90.6064 277.246L90.6678 277.097L96.4803 280.319L96.4716 280.411C96.4628 280.49 95.7165 288.546 96.0501 294.179C96.2652 297.748 95.7077 298.96 95.2072 299.346C95.036 299.491 94.8604 299.522 94.7419 299.522ZM75.4824 299.219L94.6848 299.227C94.6892 299.227 94.856 299.271 95.0579 299.113C95.4179 298.823 95.993 297.801 95.7779 294.201C95.4575 288.875 96.1072 281.408 96.1906 280.481L90.8259 277.505C90.2859 278.853 90.0752 280.455 89.8513 282.145C89.3069 286.241 88.6923 290.886 83.0378 293.235C78.3316 295.193 76.0312 298.367 75.4824 299.219Z" fill="#1C1C2D"/>
<path d="M82.7868 293.182C84.5078 292.616 85.9609 291.382 87.1857 289.806C87.9804 288.695 91.8437 289.92 92.489 292.076C92.489 292.076 94.0387 293.208 95.8914 293.037C95.887 293.432 95.8957 293.819 95.9177 294.192C96.2601 299.903 94.6358 299.363 94.6358 299.363H75.2227C75.2183 299.363 77.0841 295.065 82.7868 293.182Z" fill="#1C1C2D"/>
<path d="M123.388 152.026C128.739 169.367 138.955 218.594 138.538 220.749C138.046 223.287 127.176 233.318 123.309 220.604C118.255 204.001 87.4105 157.672 108.062 144.115C115.639 139.141 121.763 146.754 123.388 152.026Z" fill="#FDFDFD"/>
<path d="M129.633 227.053C127.508 227.053 124.769 225.886 123.175 220.648C121.941 216.592 119.171 210.77 115.962 204.036C105.97 183.047 92.2904 154.304 107.985 144.001C110.549 142.319 113.126 141.924 115.65 142.833C119.557 144.238 122.473 148.566 123.531 151.991C128.627 168.498 139.129 218.488 138.685 220.784C138.374 222.391 134.093 226.834 129.94 227.053C129.839 227.049 129.738 227.053 129.633 227.053ZM112.994 142.644C111.387 142.644 109.763 143.175 108.148 144.238C92.6636 154.405 106.282 183.016 116.225 203.909C119.439 210.656 122.213 216.486 123.452 220.565C124.751 224.832 126.928 226.908 129.923 226.759C133.953 226.548 138.101 222.272 138.4 220.727C138.773 218.796 128.737 169.837 123.254 152.074C122.218 148.716 119.364 144.475 115.549 143.101C114.706 142.793 113.855 142.644 112.994 142.644Z" fill="#1C1C2D"/>
<path d="M127.525 281.017C127.525 281.017 128.456 281.61 130.137 281.874C130.225 281.891 130.313 281.904 130.405 281.909V281.913C131.867 282.097 133.847 282.032 136.235 281.184C136.235 281.184 140.81 222.55 138.07 219.687C136.832 218.392 128.179 213.488 124.729 222.26C122.867 226.992 122.52 235.694 125.659 251.068C125.73 251.437 125.809 251.801 125.888 252.174C128.03 262.315 127.525 281.017 127.525 281.017Z" fill="#FDFDFD"/>
<path d="M131.777 282.141C131.307 282.141 130.842 282.111 130.381 282.054L130.306 282.04C130.236 282.032 130.17 282.023 130.104 282.01C128.414 281.746 127.479 281.158 127.439 281.136L127.369 281.092L127.373 281.009C127.378 280.82 127.852 262.21 125.745 252.196C125.666 251.823 125.587 251.454 125.516 251.086C122.733 237.45 122.421 227.73 124.594 222.198C125.731 219.305 127.531 217.602 129.946 217.128C133.669 216.399 137.484 218.853 138.173 219.578C140.926 222.453 136.566 278.787 136.378 281.184L136.369 281.277L136.281 281.307C134.736 281.865 133.225 282.141 131.777 282.141ZM130.49 281.777C132.264 281.988 134.147 281.755 136.092 281.075C137.673 260.792 140.087 222.005 137.958 219.784C137.089 218.871 133.326 216.763 129.994 217.418C127.685 217.87 125.955 219.516 124.858 222.308C122.707 227.787 123.023 237.45 125.793 251.033C125.863 251.402 125.942 251.766 126.021 252.139C128.063 261.833 127.694 279.542 127.659 280.934C127.9 281.07 128.774 281.514 130.148 281.729C130.231 281.746 130.319 281.755 130.407 281.764L130.49 281.777Z" fill="#1C1C2D"/>
<path d="M104.444 241.111C104.474 228.529 105.326 227.453 105.537 223.818C105.545 223.695 105.66 222.734 105.624 222.593C107.662 209.713 113.865 185.044 114.87 174.539C116.055 162.128 116.832 159.331 113.9 153.282C110.967 147.232 103.293 148.786 100.475 151.916C98.7583 153.822 93.6175 160.956 91.5629 170.307C89.4118 180.092 93.1961 207.899 92.9765 222.988C92.7527 225.552 92.6034 227.392 92.1819 229.929C91.1942 235.878 89.0825 246.405 89.2493 257.205C89.4162 268.005 89.0781 281.434 89.0781 281.434C89.0781 281.434 91.2381 283.449 96.9891 281.733C96.9891 281.733 97.8628 273.211 99.97 266.881C102.082 260.559 104.413 253.693 104.444 241.111Z" fill="#FDFDFD"/>
<path d="M92.7486 282.58C90.1365 282.58 89.0477 281.606 88.9819 281.544L88.9336 281.5V281.434C88.938 281.298 89.2716 267.882 89.1048 257.21C88.9555 247.736 90.5623 238.464 91.6247 232.326C91.774 231.453 91.9145 230.645 92.0374 229.903C92.4413 227.48 92.5906 225.728 92.8013 223.305L92.832 222.971C92.9198 216.952 92.3535 208.721 91.8091 200.761C90.9794 188.666 90.1233 176.163 91.4184 170.272C93.451 161.026 98.5655 153.813 100.365 151.816C102.157 149.827 105.559 148.681 108.452 149.094C110.208 149.344 112.596 150.261 114.032 153.216C116.622 158.563 116.346 161.303 115.428 170.39C115.301 171.646 115.16 173.024 115.015 174.548C114.445 180.531 112.17 191.178 109.975 201.468C108.268 209.476 106.652 217.044 105.774 222.589C105.792 222.725 105.761 223.046 105.704 223.603C105.691 223.713 105.686 223.792 105.682 223.823C105.62 224.894 105.502 225.741 105.37 226.725C105.05 229.047 104.615 232.221 104.593 241.111C104.562 253.575 102.24 260.555 100.185 266.719L100.115 266.934C98.0387 273.177 97.1519 281.667 97.1431 281.755L97.1343 281.851L97.0421 281.878C95.2949 282.396 93.8769 282.58 92.7486 282.58ZM89.2277 281.373C89.5702 281.636 91.7916 283.116 96.8622 281.628C96.9675 280.666 97.8719 272.755 99.8387 266.842L99.9089 266.626C101.955 260.485 104.268 253.526 104.299 241.111C104.321 232.203 104.76 229.016 105.08 226.685C105.217 225.71 105.331 224.868 105.392 223.805C105.392 223.774 105.401 223.687 105.414 223.572C105.44 223.34 105.502 222.725 105.484 222.624L105.48 222.598L105.484 222.567C106.362 217.009 107.982 209.432 109.694 201.407C111.89 191.125 114.159 180.488 114.73 174.521C114.875 172.998 115.015 171.62 115.143 170.364C116.056 161.338 116.332 158.616 113.777 153.343C112.399 150.503 110.103 149.621 108.417 149.383C105.239 148.931 102.073 150.367 100.585 152.013C98.7982 153.997 93.7232 161.153 91.7038 170.338C90.4175 176.19 91.2735 188.675 92.0989 200.748C92.6432 208.716 93.2096 216.952 93.1218 222.993L93.091 223.335C92.8803 225.767 92.7267 227.524 92.3228 229.956C92.1998 230.698 92.0594 231.505 91.9101 232.379C90.8477 238.503 89.2453 247.762 89.3946 257.205C89.557 267.483 89.2541 280.302 89.2277 281.373Z" fill="#1C1C2D"/>
<path d="M113.635 185.589H121.248L120.414 151.666H108.473L113.635 185.589Z" fill="white"/>
<path d="M95.1508 82.732C98.4215 81.2613 102.263 82.7188 103.734 85.9895C105.204 89.2601 103.747 93.1015 100.476 94.5722C97.2054 96.0429 93.3641 94.5854 91.8934 91.3147C90.4227 88.0441 91.8802 84.2027 95.1508 82.732Z" fill="#1C1C2D"/>
<path d="M98.6165 112.207C98.7789 106.698 94.56 106.764 94.3888 100.679C94.1517 92.2104 96.6278 90.7836 99.2399 87.8554C105.86 80.4404 120.567 85.2696 121.831 94.3352C123.004 102.72 126.213 115.509 129.303 121.932C132.394 128.354 133.522 148.615 115.949 150.226C98.375 151.833 94.4239 144.304 92.7776 133.596C90.8108 120.781 98.4189 119.008 98.6165 112.207Z" fill="#1C1C2D"/>
<path d="M128.677 126.405C130.578 125.268 153.24 111.145 155.369 108.269C157.867 104.898 153.771 101.394 149.021 102.58C144.464 103.717 127.224 112.502 122.957 117.515C118.36 122.915 124.585 128.85 128.677 126.405Z" fill="#FDFDFD"/>
<path d="M126.618 127.116C125.051 127.116 123.519 126.265 122.535 125.101C121.034 123.328 120.327 120.378 122.847 117.423C127.009 112.537 144.183 103.642 148.986 102.444C151.717 101.763 154.482 102.567 155.712 104.402C156.528 105.622 156.445 107.062 155.488 108.357C153.354 111.242 130.604 125.426 128.756 126.528C128.067 126.936 127.338 127.116 126.618 127.116ZM150.896 102.492C150.312 102.492 149.693 102.562 149.056 102.725C144.28 103.919 127.202 112.756 123.067 117.612C120.67 120.43 121.333 123.231 122.759 124.913C124.116 126.515 126.557 127.498 128.607 126.278C130.451 125.176 153.148 111.031 155.255 108.182C156.151 106.975 156.225 105.688 155.47 104.56C154.702 103.419 152.999 102.492 150.896 102.492Z" fill="#1C1C2D"/>
<path d="M101.68 141.442C101.452 138.689 100.548 136.134 98.3526 126.612C97.4966 122.898 96.4386 119.987 97.4132 118.367C98.6468 116.322 102.334 116.102 104.955 116.186C109.692 116.339 107.778 104.841 107.778 104.841C108.582 102.484 116.44 103.151 115.83 110.759C115.219 118.367 122.85 115.092 124.597 116.563C126.989 118.583 126.665 122.81 127.086 125.071C127.507 127.332 130.761 130.107 130.172 134.225C129.584 138.347 125.681 138.075 125.681 138.075C124.232 139.633 122.841 142.513 122.639 144.577C122.173 149.371 124.395 154.235 124.395 154.235C110.298 159.885 98.6512 154.156 98.6512 154.156C98.6512 154.156 102.361 149.687 101.68 141.442Z" fill="#FDFDFD"/>
<path d="M111.605 156.86C103.935 156.86 98.6625 154.331 98.5835 154.292L98.4167 154.213L98.5352 154.072C98.5703 154.028 102.205 149.542 101.538 141.459C101.398 139.747 100.985 138.092 100.168 134.791C99.6635 132.749 99.0357 130.212 98.2147 126.647C98.0523 125.936 97.8811 125.26 97.7186 124.61C97.025 121.84 96.4718 119.654 97.2928 118.297C98.2762 116.673 100.853 115.913 104.962 116.045C105.669 116.067 106.262 115.812 106.723 115.285C108.922 112.77 107.653 104.951 107.64 104.872L107.636 104.837L107.649 104.802C108.005 103.761 109.59 103.252 111.346 103.612C113.822 104.126 116.342 106.277 115.982 110.777C115.837 112.572 116.14 113.85 116.903 114.684C118.049 115.931 120.025 115.948 121.772 115.962C123.036 115.97 124.125 115.979 124.696 116.462C126.562 118.034 126.812 120.874 127.014 123.157C127.075 123.855 127.132 124.518 127.233 125.054C127.378 125.831 127.866 126.669 128.432 127.639C129.446 129.378 130.706 131.547 130.32 134.255C129.767 138.149 126.29 138.246 125.745 138.233C124.296 139.818 122.975 142.658 122.786 144.598C122.33 149.3 124.507 154.134 124.529 154.182L124.591 154.318L124.45 154.375C119.805 156.237 115.411 156.86 111.605 156.86ZM98.8732 154.107C100.318 154.753 111.275 159.283 124.2 154.165C123.844 153.33 122.071 148.896 122.492 144.568C122.694 142.517 124.046 139.629 125.574 137.982L125.622 137.934L125.692 137.939C125.846 137.947 129.468 138.145 130.03 134.211C130.403 131.599 129.222 129.571 128.177 127.78C127.598 126.788 127.097 125.927 126.944 125.102C126.843 124.553 126.781 123.886 126.72 123.179C126.522 120.949 126.281 118.174 124.507 116.682C124.015 116.269 122.975 116.26 121.768 116.251C119.963 116.238 117.918 116.225 116.688 114.882C115.867 113.986 115.538 112.634 115.692 110.755C116.039 106.439 113.642 104.385 111.284 103.897C109.721 103.573 108.259 103.998 107.934 104.863C108.044 105.531 109.177 112.928 106.942 115.479C106.42 116.076 105.753 116.361 104.958 116.335C100.963 116.207 98.4694 116.914 97.543 118.446C96.7879 119.702 97.3235 121.836 97.9996 124.54C98.162 125.19 98.3333 125.87 98.4957 126.581C99.3167 130.146 99.9444 132.684 100.449 134.721C101.27 138.035 101.683 139.699 101.828 141.433C102.438 148.817 99.4966 153.26 98.8732 154.107Z" fill="#1C1C2D"/>
<path d="M142.907 104.384C142.907 104.384 147.319 107.036 151.077 112.344L144.685 116.857L131.392 125.751C128.481 127.696 124.609 127.336 122.106 124.886L121.211 124.008C121.211 124.008 119.736 119.666 124.315 115.684C128.894 111.707 140.242 106.426 142.907 104.384Z" fill="#6254E7"/>
<path d="M127.288 127.138C125.36 127.138 123.446 126.41 122.002 124.996L121.071 124.061C121.058 124.017 119.618 119.583 124.219 115.584C127.042 113.13 132.428 110.184 136.753 107.817C139.461 106.338 141.797 105.056 142.82 104.275L142.899 104.213L142.982 104.266C143.026 104.292 147.465 106.992 151.196 112.269L151.28 112.388L144.769 116.984L131.471 125.878C130.198 126.721 128.741 127.138 127.288 127.138ZM121.335 123.934L122.204 124.785C124.64 127.174 128.469 127.529 131.305 125.633L144.598 116.738L150.871 112.309C147.473 107.554 143.527 104.946 142.912 104.556C141.836 105.355 139.54 106.61 136.889 108.063C132.573 110.425 127.204 113.362 124.403 115.794C120.154 119.495 121.216 123.539 121.335 123.934Z" fill="#1C1C2D"/>
<path d="M101.682 141.442C101.454 138.694 100.55 136.134 98.3546 126.612C97.4985 122.898 96.4361 119.987 97.4151 118.367C98.5258 116.528 101.616 116.163 104.132 116.168C106.959 122.63 112.816 126.322 117.324 124.435C120.226 123.223 121.877 119.992 121.991 116.098C123.124 116.106 124.098 116.142 124.599 116.559C126.996 118.578 126.666 122.806 127.084 125.067C127.505 127.328 130.758 130.102 130.17 134.225C129.586 138.347 125.683 138.079 125.683 138.079C124.23 139.638 122.838 142.518 122.641 144.576C122.175 149.371 124.397 154.239 124.397 154.239C110.304 159.885 98.6531 154.156 98.6531 154.156C98.6531 154.156 102.363 149.687 101.682 141.442Z" fill="#6254E7"/>
<path d="M111.61 156.86C103.94 156.86 98.6675 154.331 98.5885 154.292L98.4217 154.213L98.5402 154.072C98.5753 154.028 102.21 149.542 101.543 141.455C101.403 139.747 100.99 138.088 100.173 134.786C99.6684 132.749 99.0407 130.207 98.2197 126.647C98.0573 125.94 97.8861 125.264 97.7236 124.619C97.0256 121.849 96.4768 119.658 97.2978 118.297C98.2065 116.791 100.485 116.027 104.076 116.027C104.098 116.027 104.12 116.027 104.142 116.027H104.234L104.274 116.115C107.057 122.468 112.887 126.142 117.277 124.307C120.03 123.161 121.738 120.093 121.856 116.102L121.861 115.961H122.001C123.208 115.97 124.174 116.014 124.701 116.458C126.567 118.029 126.817 120.874 127.019 123.157C127.08 123.855 127.137 124.513 127.238 125.049C127.383 125.826 127.871 126.665 128.437 127.635C129.451 129.373 130.711 131.542 130.325 134.255C129.771 138.149 126.295 138.246 125.755 138.237C124.306 139.822 122.98 142.658 122.796 144.603C122.339 149.305 124.521 154.142 124.543 154.191L124.604 154.327L124.464 154.384C119.806 156.237 115.411 156.86 111.61 156.86ZM98.8738 154.107C100.318 154.753 111.28 159.279 124.2 154.164C123.845 153.33 122.071 148.896 122.493 144.568C122.69 142.517 124.047 139.624 125.575 137.982L125.623 137.934L125.693 137.938C125.847 137.947 129.469 138.145 130.026 134.207C130.399 131.595 129.218 129.566 128.174 127.775C127.594 126.783 127.094 125.923 126.94 125.097C126.839 124.549 126.782 123.881 126.716 123.179C126.518 120.949 126.277 118.17 124.499 116.673C124.064 116.304 123.208 116.256 122.124 116.247C121.97 120.286 120.201 123.39 117.374 124.57C112.786 126.489 106.938 122.867 104.032 116.313C100.568 116.317 98.3821 117.033 97.5348 118.442C96.7754 119.697 97.3153 121.835 97.9958 124.54C98.1582 125.185 98.3295 125.866 98.4919 126.577C99.3128 130.137 99.9406 132.675 100.445 134.712C101.266 138.031 101.679 139.695 101.824 141.429C102.439 148.822 99.4972 153.26 98.8738 154.107Z" fill="#1C1C2D"/>
<path d="M73.0007 102.211C76.7806 102.633 98.8365 114.319 103.244 116.751C104.811 117.616 99.3414 126.195 94.341 125.303C91.5709 124.812 69.572 110.588 67.4955 107.677C65.0545 104.266 68.1364 101.671 73.0007 102.211Z" fill="#FDFDFD"/>
<path d="M95.067 125.514C94.8123 125.514 94.5621 125.492 94.3119 125.448C91.6734 124.979 69.5999 110.886 67.3741 107.765C66.417 106.426 66.237 105.1 66.8604 104.038C67.7604 102.501 70.1223 101.75 73.0198 102.071C76.9446 102.51 100.151 114.881 103.316 116.629C103.606 116.787 103.86 117.217 103.452 118.372C102.491 121.071 98.7152 125.514 95.067 125.514ZM71.7598 102.286C69.5735 102.286 67.8087 102.984 67.1063 104.178C66.5356 105.153 66.7068 106.334 67.6068 107.594C69.8194 110.693 91.7437 124.693 94.3602 125.159C98.0786 125.822 102.179 121.076 103.171 118.271C103.43 117.542 103.426 117.024 103.167 116.879C97.7976 113.92 76.6109 102.76 72.9803 102.356C72.5632 102.312 72.1549 102.286 71.7598 102.286Z" fill="#1C1C2D"/>
<path d="M51.6726 81.2612C48.2001 79.1057 46.106 73.3502 48.1166 70.9093C48.6786 70.2244 49.2888 69.7283 49.9298 69.3683C51.44 68.4464 53.1214 68.3323 54.895 68.5123C55.0925 68.5342 57.2525 70.3122 56.9276 70.5185C57.1779 72.0375 56.9364 74.3863 56.5545 77.1038C55.9091 81.7046 70.1902 95.1955 73.7067 101.012C78.347 108.686 70.3789 111.119 67.4727 107.598C63.1791 102.395 55.1452 83.4168 51.6726 81.2612Z" fill="#FDFDFD"/>
<path d="M70.9954 109.332C69.6213 109.332 68.2428 108.766 67.356 107.69C65.4156 105.337 62.6761 100.113 60.0289 95.0598C56.8065 88.9093 53.47 82.5479 51.5955 81.3846C49.497 80.0807 47.7278 77.3105 47.2888 74.6457C47.0254 73.0565 47.28 71.6955 48.0043 70.8175C48.5575 70.1502 49.1633 69.6322 49.857 69.2414C51.2091 68.4205 52.7676 68.1483 54.9056 68.3678C55.1602 68.3941 56.9821 69.9087 57.0919 70.3873C57.1051 70.4531 57.1007 70.5102 57.0743 70.5585C57.3202 72.174 57.0392 74.6676 56.6924 77.1217C56.2885 79.9841 61.9518 86.543 66.9477 92.3336C69.8233 95.6657 72.5407 98.8134 73.8227 100.934C75.7982 104.2 75.7367 107.032 73.6602 108.507C72.8832 109.064 71.9393 109.332 70.9954 109.332ZM51.7491 81.1387C53.6939 82.346 56.8943 88.4571 60.2879 94.9281C62.9308 99.968 65.6614 105.179 67.5843 107.506C68.9628 109.174 71.7242 109.534 73.4978 108.274C75.4382 106.896 75.469 104.213 73.5812 101.087C72.3081 98.9846 69.5994 95.8457 66.7326 92.5267C61.6971 86.6922 55.99 80.0807 56.4114 77.0866C56.7583 74.6194 57.0436 72.1214 56.7846 70.5453L56.767 70.4487L56.8065 70.4224C56.6792 70.0668 55.1207 68.741 54.8617 68.6532C52.8071 68.4424 51.3013 68.7014 50.0019 69.4917C49.3346 69.8648 48.7551 70.3609 48.2239 71.0019C47.5522 71.8141 47.3195 73.0916 47.5697 74.5974C48 77.1876 49.7165 79.8744 51.7491 81.1387Z" fill="#1C1C2D"/>
<path d="M105.064 100.187C105.064 100.187 103.79 90.081 106.512 88.3996C109.234 86.7225 111.614 85.8226 114.577 88.2371C114.577 88.2371 117.606 90.1688 118.664 93.7863C118.664 93.7863 124.117 95.2526 122.549 102.207C120.982 109.161 112.505 109.209 107.992 105.802C107.992 105.802 104.8 108.941 102.526 105.648C100.243 102.351 102.478 101.008 105.064 100.187Z" fill="#FDFDFD"/>
<path d="M114.77 108.155C112.395 108.155 109.905 107.396 107.996 105.987C107.636 106.312 106.279 107.427 104.756 107.282C103.847 107.194 103.052 106.672 102.398 105.728C101.516 104.455 101.239 103.392 101.547 102.488C101.99 101.193 103.549 100.521 104.901 100.082C104.76 98.8791 103.79 89.9013 106.429 88.2725C108.953 86.714 111.482 85.5331 114.66 88.1233C114.678 88.1321 117.689 90.0901 118.774 93.668C119.45 93.8919 124.156 95.6919 122.681 102.238C121.934 105.548 119.757 106.983 118.058 107.602C117.044 107.98 115.92 108.155 114.77 108.155ZM107.974 105.609L108.075 105.684C110.841 107.774 114.906 108.45 117.966 107.33C119.594 106.733 121.684 105.355 122.404 102.172C123.923 95.4372 118.839 93.9797 118.624 93.9226L118.545 93.9007L118.523 93.8217C117.492 90.3052 114.528 88.3735 114.498 88.3559C111.741 86.1082 109.515 86.714 106.591 88.5184C103.979 90.1296 105.199 100.064 105.212 100.165L105.226 100.284L105.111 100.319C103.904 100.705 102.249 101.355 101.828 102.576C101.555 103.379 101.828 104.38 102.64 105.557C103.241 106.43 103.966 106.909 104.787 106.988C106.389 107.141 107.873 105.706 107.886 105.688L107.974 105.609Z" fill="#1C1C2D"/>
<path d="M149.184 99.9108C146.686 106.167 153.21 111.308 155.862 107.594C159.786 102.106 164.646 82.0517 167.961 79.6635C171.275 77.2708 174.638 74.7904 172.544 71.0368C170.45 67.2877 168.922 66.8355 166.091 67.0769C163.263 67.3184 165.489 70.352 164.414 74.8563C163.338 79.3649 151.261 94.7172 149.184 99.9108Z" fill="#FDFDFD"/>
<path d="M153.529 108.994C152.937 108.994 152.304 108.823 151.677 108.481C149.262 107.159 147.524 103.691 149.051 99.8627C150.013 97.4569 153.042 92.9834 156.247 88.2464C159.913 82.8334 163.701 77.236 164.272 74.8302C164.711 72.9907 164.597 71.4103 164.5 70.1371C164.368 68.3679 164.276 67.0904 166.076 66.9367C168.996 66.6865 170.559 67.1957 172.666 70.9712C174.843 74.8741 171.23 77.4818 168.043 79.7822C166.331 81.0159 164.092 87.364 161.928 93.5014C159.921 99.191 157.845 105.069 155.979 107.682C155.364 108.546 154.495 108.994 153.529 108.994ZM167.244 67.165C166.888 67.165 166.511 67.1869 166.103 67.2221C164.645 67.345 164.649 68.1967 164.79 70.1108C164.887 71.4015 165.005 73.0083 164.553 74.8916C163.969 77.3501 160.163 82.9695 156.484 88.4045C153.288 93.1283 150.267 97.5887 149.315 99.9681C147.844 103.643 149.504 106.966 151.808 108.226C153.327 109.056 154.833 108.784 155.742 107.51C157.586 104.933 159.654 99.0725 161.655 93.4005C163.938 86.9382 166.089 80.8315 167.876 79.5452C171.116 77.2052 174.47 74.7863 172.416 71.1073C170.616 67.8762 169.259 67.165 167.244 67.165Z" fill="#1C1C2D"/>
<path d="M117.38 88.3604C117.38 88.3604 112.556 89.9233 108.741 88.6853C104.926 87.4473 103.828 88.5448 103.828 88.5448C109.816 81.3099 117.38 88.3604 117.38 88.3604Z" fill="#1C1C2D"/>
<path d="M106.482 87.803C108.198 88.1762 109.985 91.0386 108.576 95.9906C107.167 100.943 110.266 104.547 106.644 103.564C103.022 102.58 102.803 102.225 101.02 99.2745C99.2381 96.3287 102.706 86.9865 106.482 87.803Z" fill="#1C1C2D"/>
<path d="M76.6289 115.483C76.6289 115.483 96.9332 126.967 99.7122 127.911C102.496 128.855 104.471 121.278 103.949 117.261C103.949 117.261 103.448 116.848 103.29 116.76C101.762 115.865 93.1533 110.847 85.036 106.707C85.036 106.707 80.0883 107.475 76.6289 115.483Z" fill="#6254E7"/>
<path d="M100.188 128.14C100.012 128.14 99.8408 128.109 99.6652 128.052C96.9038 127.117 77.3853 116.08 76.5556 115.61L76.4414 115.544L76.4941 115.426C79.9403 107.44 84.8046 106.597 85.0109 106.566L85.0592 106.558L85.1031 106.58C93.4268 110.825 102.374 116.058 103.366 116.637C103.528 116.73 103.994 117.107 104.046 117.151L104.09 117.186L104.099 117.243C104.521 120.505 103.318 126.072 101.36 127.674C100.973 127.986 100.583 128.14 100.188 128.14ZM76.8102 115.421C78.4477 116.348 97.1277 126.884 99.753 127.775C100.227 127.938 100.701 127.828 101.162 127.45C103.041 125.909 104.196 120.536 103.805 117.34C103.643 117.208 103.322 116.949 103.212 116.892C102.22 116.308 93.3083 111.101 85.0065 106.861C84.5192 106.962 80.015 108.099 76.8102 115.421Z" fill="#1C1C2D"/>
<path d="M138.35 219.814L138.443 221.456L134.298 222.769L126.945 221.645L125.07 213.181L133.987 211.974L138.35 219.814Z" fill="white"/>
<path d="M145.172 105.197L146.897 104.306L155.871 105.768C155.871 105.768 156.446 107.892 153.601 109.675C153.605 109.675 148.377 110.066 145.172 105.197Z" fill="white"/>
<path d="M73.8161 103.963L76.6302 104.121L76.0112 107.795L73.8161 109.692L70.5455 109.758C70.5455 109.758 68.8289 109.332 67.5031 107.418C66.1729 105.504 73.8161 103.963 73.8161 103.963Z" fill="white"/>
<path d="M102.33 116.405C102.33 116.405 103.34 116.286 103.638 116.317C103.937 116.352 104.183 116.962 104.385 117.722C104.582 118.481 104.815 123.626 104.815 123.626L104.029 128.491L99.9771 129.075L98.7522 127.692L98.5547 126.348L102.33 116.405Z" fill="#6254E7"/>
<path d="M123.434 116.312C123.434 116.312 123.78 116.378 124.193 115.979C124.606 115.579 128.939 119.078 128.939 119.078L127.863 122.388L123.715 122.696L123.434 116.312Z" fill="#6254E7"/>
<path d="M183.31 72.6259H28.6372C19.2599 72.6259 11.6562 65.0222 11.6562 55.6449C11.6562 46.2675 19.2599 38.6638 28.6372 38.6638H183.314C192.692 38.6638 200.295 46.2675 200.295 55.6449C200.291 65.0222 192.687 72.6259 183.31 72.6259Z" fill="#FDFDFD"/>
<path d="M183.31 72.9159H28.6374C19.1153 72.9159 11.3711 65.1673 11.3711 55.6495C11.3711 46.1273 19.1197 38.3831 28.6374 38.3831H183.315C192.837 38.3831 200.581 46.1317 200.581 55.6495C200.581 65.1673 192.832 72.9159 183.31 72.9159ZM28.6374 38.9538C19.4357 38.9538 11.9462 46.4434 11.9462 55.6451C11.9462 64.8468 19.4357 72.3364 28.6374 72.3364H183.315C192.516 72.3364 200.006 64.8468 200.006 55.6451C200.006 46.4434 192.516 38.9538 183.315 38.9538H28.6374Z" fill="#1C1C2D"/>
<path d="M32.6484 59.6092L34.2157 59.4731C34.2903 60.1009 34.4616 60.6189 34.7337 61.0184C35.0059 61.4223 35.4274 61.7472 35.9981 61.993C36.5688 62.2433 37.2098 62.3662 37.9254 62.3662C38.5575 62.3662 39.1195 62.274 39.6068 62.0852C40.0941 61.8964 40.4541 61.6374 40.6911 61.3081C40.9282 60.9789 41.0467 60.6233 41.0467 60.2326C41.0467 59.8375 40.9326 59.495 40.7043 59.2009C40.476 58.9067 40.0985 58.6609 39.5717 58.459C39.2336 58.3272 38.4873 58.1253 37.3371 57.8443C36.1825 57.5678 35.3747 57.3043 34.9137 57.0585C34.3123 56.7424 33.8689 56.3561 33.5748 55.8907C33.2806 55.4254 33.1314 54.9029 33.1314 54.3278C33.1314 53.6957 33.3113 53.103 33.6713 52.5498C34.0313 51.9967 34.5581 51.5796 35.2474 51.2942C35.9366 51.0089 36.7049 50.864 37.5522 50.864C38.4829 50.864 39.3039 51.0133 40.0151 51.3118C40.7263 51.6103 41.275 52.0537 41.657 52.6376C42.0389 53.2215 42.2452 53.88 42.276 54.6176L40.6824 54.7361C40.5946 53.9415 40.3048 53.3444 39.8131 52.9362C39.317 52.5323 38.5883 52.3259 37.6224 52.3259C36.6171 52.3259 35.884 52.5103 35.423 52.8791C34.962 53.2479 34.7337 53.6913 34.7337 54.2137C34.7337 54.6659 34.8962 55.0346 35.221 55.3288C35.5415 55.6185 36.3757 55.9171 37.7278 56.2244C39.08 56.5317 40.0063 56.7951 40.5068 57.0234C41.2399 57.3614 41.7755 57.7873 42.1267 58.3053C42.4735 58.8233 42.6491 59.416 42.6491 60.0921C42.6491 60.7594 42.456 61.3916 42.074 61.9798C41.6921 62.5725 41.1433 63.0291 40.4233 63.3583C39.7078 63.6876 38.9 63.85 38.0044 63.85C36.8673 63.85 35.9147 63.6832 35.1464 63.354C34.3781 63.0247 33.7767 62.5242 33.3377 61.8569C32.8987 61.1984 32.6704 60.4477 32.6484 59.6092Z" fill="#1C1C2D"/>
<path d="M50.942 60.7111L52.5356 60.9087C52.2853 61.8394 51.82 62.5638 51.1395 63.0774C50.459 63.5911 49.5898 63.8501 48.5362 63.8501C47.206 63.8501 46.148 63.4418 45.3709 62.6209C44.5895 61.7999 44.2031 60.6497 44.2031 59.1702C44.2031 57.6381 44.5982 56.4527 45.3841 55.6054C46.1743 54.7581 47.1928 54.3367 48.4528 54.3367C49.6688 54.3367 50.6654 54.7493 51.4337 55.5791C52.2063 56.4088 52.5883 57.5722 52.5883 59.0736C52.5883 59.1658 52.5839 59.3019 52.5795 59.4863H45.7924C45.8494 60.4873 46.1304 61.2511 46.6396 61.7823C47.1489 62.3136 47.7811 62.5814 48.5406 62.5814C49.1069 62.5814 49.5898 62.4321 49.9893 62.1379C50.3932 61.8394 50.7093 61.3653 50.942 60.7111ZM45.8802 58.2176H50.9595C50.8893 57.4537 50.6961 56.8786 50.3756 56.4966C49.8839 55.904 49.2474 55.6054 48.4659 55.6054C47.7591 55.6054 47.1621 55.8425 46.6792 56.3166C46.2006 56.7908 45.9328 57.4273 45.8802 58.2176Z" fill="#1C1C2D"/>
<path d="M60.4149 62.5199C59.8442 63.0072 59.2954 63.3496 58.7642 63.5472C58.2374 63.7491 57.6667 63.8457 57.0652 63.8457C56.0643 63.8457 55.296 63.5999 54.7604 63.1126C54.2248 62.6252 53.957 62.0019 53.957 61.2424C53.957 60.7946 54.058 60.3907 54.2599 60.0219C54.4619 59.6531 54.7297 59.359 55.0546 59.1351C55.3838 58.9112 55.7526 58.7444 56.1653 58.6302C56.4682 58.5512 56.9248 58.4722 57.535 58.3976C58.7818 58.2483 59.6949 58.0727 60.2832 57.8663C60.2876 57.6556 60.292 57.5195 60.292 57.4624C60.292 56.8347 60.1471 56.3913 59.853 56.1366C59.4578 55.7898 58.874 55.6142 58.0969 55.6142C57.3725 55.6142 56.8369 55.7415 56.4901 55.9961C56.1433 56.2508 55.8887 56.6986 55.7219 57.3439L54.216 57.1376C54.3521 56.4922 54.5804 55.9698 54.8921 55.5747C55.2082 55.1796 55.6604 54.8723 56.2531 54.6572C56.8457 54.442 57.535 54.3367 58.3164 54.3367C59.0935 54.3367 59.7256 54.4289 60.2086 54.6089C60.6959 54.7932 61.0515 55.0215 61.2797 55.2981C61.508 55.5747 61.6661 55.9259 61.7583 56.3474C61.811 56.6108 61.8373 57.0849 61.8373 57.7698V59.8243C61.8373 61.2599 61.868 62.1643 61.9339 62.5462C61.9997 62.9282 62.1314 63.2882 62.3246 63.6394H60.7134C60.5642 63.3233 60.4588 62.9501 60.4149 62.5199ZM60.2876 59.078C59.73 59.3063 58.8871 59.4995 57.7677 59.6619C57.1355 59.7541 56.6833 59.8551 56.4243 59.9692C56.1609 60.0834 55.9589 60.2502 55.8141 60.4697C55.6692 60.6892 55.5989 60.9351 55.5989 61.2028C55.5989 61.6155 55.7526 61.958 56.0643 62.2301C56.376 62.5023 56.8326 62.6428 57.4296 62.6428C58.0223 62.6428 58.5535 62.5111 59.0144 62.2521C59.4754 61.9931 59.8178 61.6375 60.033 61.1853C60.1998 60.8385 60.2832 60.3248 60.2832 59.6443V59.078H60.2876Z" fill="#1C1C2D"/>
<path d="M64.2148 63.6438V54.543H65.6021V55.9215C65.9577 55.2762 66.2826 54.8503 66.5811 54.644C66.8796 54.4376 67.2089 54.3367 67.5689 54.3367C68.0869 54.3367 68.6181 54.5035 69.1537 54.8328L68.6225 56.2639C68.245 56.04 67.8674 55.9303 67.4899 55.9303C67.1518 55.9303 66.8489 56.0313 66.5811 56.2332C66.3133 56.4352 66.1202 56.7161 66.006 57.0761C65.8348 57.6249 65.747 58.2263 65.747 58.8761V63.6394H64.2148V63.6438Z" fill="#1C1C2D"/>
<path d="M76.0233 60.3114L77.5379 60.509C77.3711 61.5538 76.9497 62.3748 76.2648 62.963C75.5843 63.5557 74.7458 63.8499 73.7493 63.8499C72.5025 63.8499 71.5015 63.4416 70.7464 62.6294C69.9913 61.8172 69.6094 60.6494 69.6094 59.1305C69.6094 58.1471 69.7718 57.2866 70.0967 56.5535C70.4215 55.8159 70.9176 55.2628 71.5849 54.894C72.2522 54.5252 72.9722 54.3408 73.758 54.3408C74.7458 54.3408 75.5536 54.5911 76.1814 55.0915C76.8092 55.592 77.2131 56.3032 77.3887 57.2207L75.8872 57.4534C75.7424 56.8432 75.4921 56.3822 75.1278 56.0749C74.7634 55.7676 74.3288 55.614 73.8107 55.614C73.0337 55.614 72.4015 55.8905 71.9186 56.4481C71.4313 57.0056 71.1898 57.8881 71.1898 59.091C71.1898 60.3114 71.4225 61.2026 71.8922 61.7558C72.362 62.3089 72.9722 62.5855 73.7273 62.5855C74.3331 62.5855 74.838 62.4011 75.2419 62.0279C75.6546 61.6504 75.9136 61.0797 76.0233 60.3114Z" fill="#1C1C2D"/>
<path d="M78.8594 63.6437V51.0835H80.4003V55.5922C81.1203 54.758 82.029 54.341 83.1266 54.341C83.8027 54.341 84.3865 54.4727 84.8826 54.7405C85.3787 55.0083 85.7343 55.3727 85.9494 55.8424C86.1645 56.3121 86.2699 56.9882 86.2699 57.8794V63.6437H84.729V57.8794C84.729 57.1068 84.5621 56.5492 84.2285 56.198C83.8948 55.8468 83.4207 55.6712 82.8105 55.6712C82.3539 55.6712 81.9237 55.7897 81.5198 56.0268C81.1159 56.2639 80.8305 56.5843 80.6593 56.9926C80.4881 57.3965 80.4003 57.9584 80.4003 58.674V63.6525H78.8594V63.6437Z" fill="#1C1C2D"/>
<path d="M89.0469 63.644V61.8879H90.8029V63.644H89.0469Z" fill="#1C1C2D"/>
<path d="M93.9258 63.644V61.8879H95.6818V63.644H93.9258Z" fill="#1C1C2D"/>
<path d="M98.8008 63.644V61.8879H100.557V63.644H98.8008Z" fill="#1C1C2D"/>
<path d="M241.73 11.2083L208.844 34.1296L211.846 38.4372L244.733 15.5159L241.73 11.2083Z" fill="#1C1C2D"/>
<path d="M255.477 7.78812L252.689 3.78871C251.851 2.58581 250.196 2.29167 248.993 3.13019L225.449 19.5669C224.246 20.4054 223.952 22.0605 224.79 23.2634L227.578 27.2628C228.416 28.4657 230.071 28.7598 231.274 27.9213L254.819 11.4846C256.017 10.6417 256.316 8.98663 255.477 7.78812Z" fill="#FF824D"/>
<path d="M229.761 28.5229C228.883 28.5229 228.014 28.1058 227.474 27.3332L224.686 23.3338C223.808 22.0738 224.12 20.3353 225.38 19.4573L248.92 3.02059C250.18 2.14256 251.918 2.45426 252.796 3.71423L255.584 7.71365C256.01 8.32388 256.172 9.06142 256.041 9.79457C255.909 10.5277 255.501 11.1643 254.89 11.5901L231.346 28.0268C230.868 28.3605 230.31 28.5229 229.761 28.5229ZM250.505 2.77913C249.995 2.77913 249.495 2.93279 249.065 3.23132L225.525 19.668C224.383 20.4626 224.102 22.0387 224.897 23.1845L227.685 27.1839C228.479 28.3253 230.055 28.6063 231.201 27.8117L254.746 11.375C255.299 10.9887 255.667 10.4136 255.786 9.74628C255.905 9.08337 255.755 8.41168 255.373 7.85852L252.586 3.85911C252.199 3.30595 251.62 2.93718 250.957 2.81864C250.808 2.7923 250.654 2.77913 250.505 2.77913Z" fill="#1C1C2D"/>
<path d="M205.784 70.1592C217.189 62.2174 219.986 46.5315 212.044 35.1259C204.089 23.7247 188.408 20.9194 177.007 28.8743C165.61 36.8205 162.805 52.502 170.751 63.8988C178.701 75.3088 194.387 78.1053 205.784 70.1592ZM173.31 62.1208C166.343 52.1333 168.801 38.3921 178.789 31.4294C188.776 24.4622 202.526 26.9251 209.485 36.9083C216.447 46.9046 213.998 60.6457 204.001 67.6085C194.018 74.5669 180.273 72.1172 173.31 62.1208Z" fill="#6254E7"/>
<path d="M191.452 74.7638C189.964 74.7638 188.462 74.6321 186.961 74.3643C180.323 73.1789 174.541 69.4781 170.687 63.9421C162.732 52.5277 165.546 36.7671 176.965 28.8078C188.379 20.8441 204.144 23.6582 212.112 35.0769C220.067 46.5045 217.253 62.2694 205.834 70.22C201.549 73.2097 196.567 74.7638 191.452 74.7638ZM191.364 24.4396C186.412 24.4396 181.416 25.8972 177.057 28.9395C165.713 36.8505 162.912 52.5102 170.819 63.8543C174.651 69.3551 180.393 73.0341 186.992 74.2106C193.586 75.3872 200.245 73.9253 205.742 70.0971C217.09 62.1948 219.887 46.5308 211.98 35.1735C207.107 28.1844 199.293 24.4396 191.364 24.4396ZM191.448 71.6512C190.139 71.6512 188.822 71.537 187.51 71.3C181.693 70.2595 176.627 67.0152 173.246 62.1641C169.866 57.3174 168.575 51.4434 169.616 45.6264C170.656 39.8095 173.896 34.7433 178.747 31.3629C183.594 27.9825 189.468 26.6918 195.289 27.7322C201.106 28.7727 206.172 32.0126 209.553 36.8593C216.528 46.8776 214.061 60.6978 204.052 67.6737C200.294 70.2858 195.93 71.6512 191.448 71.6512ZM191.351 27.5391C186.9 27.5391 182.566 28.8912 178.839 31.4902C174.028 34.8486 170.805 39.8797 169.774 45.6528C168.742 51.4302 170.024 57.2603 173.378 62.0719C176.732 66.8879 181.763 70.1102 187.536 71.1419C193.313 72.1736 199.144 70.8961 203.955 67.542C213.894 60.6188 216.344 46.8952 209.416 36.9515C206.062 32.1399 201.036 28.922 195.258 27.8903C193.954 27.6532 192.646 27.5391 191.351 27.5391Z" fill="#1C1C2D"/>
<path opacity="0.8" d="M204.001 67.6036C194.014 74.5663 180.268 72.1122 173.306 62.1203C166.343 52.1283 168.797 38.3872 178.789 31.4244C188.781 24.4617 202.522 26.9158 209.485 36.9077C216.447 46.8997 213.993 60.6408 204.001 67.6036Z" fill="white"/>
<g opacity="0.5">
<path d="M206.809 56.8079C206.331 56.7948 205.856 57.0143 205.571 57.4401C204.421 59.1391 202.977 60.601 201.278 61.7864C200.623 62.2429 200.465 63.1385 200.918 63.7883C201.374 64.438 202.27 64.6004 202.919 64.1482C204.913 62.761 206.603 61.0488 207.951 59.0513C208.398 58.3928 208.223 57.4972 207.564 57.0538C207.336 56.8957 207.073 56.8167 206.809 56.8079Z" fill="white"/>
<path d="M180.909 61.1984C180.457 61.1852 180 61.3871 179.71 61.7779C179.236 62.4144 179.368 63.3144 180.005 63.7885C184.052 66.8046 189.259 68.1611 194.286 67.5026C195.071 67.3972 195.629 66.6773 195.524 65.887C195.423 65.1012 194.698 64.5393 193.912 64.649C189.628 65.2066 185.181 64.0563 181.726 61.4837C181.475 61.3037 181.19 61.2115 180.909 61.1984Z" fill="white"/>
</g>
</svg>
