<svg width="318" height="300" viewBox="0 0 318 300" fill="none" xmlns="http://www.w3.org/2000/svg">
<path d="M139.005 0.438721H0.4375V136.924H139.005V0.438721Z" fill="white"/>
<path d="M139.007 137.368H0.43873C0.194991 137.368 0 137.168 0 136.929V0.438733C0 0.199424 0.199423 0 0.43873 0H139.007C139.25 0 139.445 0.199424 139.445 0.438733V136.929C139.445 137.173 139.25 137.368 139.007 137.368ZM0.881892 136.49H138.568V0.881897H0.881892V136.49Z" fill="#1C1C2D"/>
<path d="M22.7729 56.1846H12.8594V57.359H22.7729V56.1846Z" fill="#1C1C2D"/>
<path d="M22.7729 65.2117H12.8594V66.3861H22.7729V65.2117Z" fill="#1C1C2D"/>
<path d="M22.7729 74.2344H12.8594V75.4088H22.7729V74.2344Z" fill="#1C1C2D"/>
<path d="M27.4128 83.2617H12.8594V84.4361H27.4128V83.2617Z" fill="#1C1C2D"/>
<path d="M80.9849 56.1846H53.7969V57.359H80.9849V56.1846Z" fill="#1C1C2D"/>
<path d="M46.9069 56.1846H29.7344V57.359H46.9069V56.1846Z" fill="#6254E7"/>
<path d="M66.0338 65.2117H29.7344V66.3861H66.0338V65.2117Z" fill="#FF824D"/>
<path d="M109.484 74.2344H54.1641V75.4088H109.484V74.2344Z" fill="#6254E7"/>
<path d="M47.1285 74.2344H29.7344V75.4088H47.1285V74.2344Z" fill="#1C1C2D"/>
<path d="M46.4473 83.2617H34.3711V84.4361H46.4473V83.2617Z" fill="#FF824D"/>
<path d="M127.575 95.4487H60.3203V96.6231H127.575V95.4487Z" fill="#FF824D"/>
<path d="M52.9059 95.4487H38.2461V96.6231H52.9059V95.4487Z" fill="#1C1C2D"/>
<path d="M128.245 104.392H112.863V105.566H128.245V104.392Z" fill="#1C1C2D"/>
<path d="M105.111 104.392H35.4062V105.566H105.111V104.392Z" fill="#1C1C2D"/>
<path d="M128.235 113.339H99V114.514H128.235V113.339Z" fill="#1C1C2D"/>
<path d="M91.2535 113.339H79.3945V114.514H91.2535V113.339Z" fill="#6254E7"/>
<path d="M66.5325 113.339H12.3516V114.514H66.5325V113.339Z" fill="#1C1C2D"/>
<path d="M139.005 0.438721H0.4375V16.4237H139.005V0.438721Z" fill="#1C1C2D"/>
<path d="M139.007 16.8624H0.443162C0.199423 16.8624 0 16.6674 0 16.4237V0.438733C0 0.199424 0.199423 0 0.443162 0H139.011C139.255 0 139.45 0.199424 139.45 0.438733V16.4237C139.445 16.6674 139.25 16.8624 139.007 16.8624ZM0.881892 15.9849H138.568V0.881897H0.881892V15.9849Z" fill="#1C1C2D"/>
<path d="M9.48197 9.02275C9.48197 10.1971 8.52917 11.1544 7.35036 11.1544C6.17598 11.1544 5.21875 10.2016 5.21875 9.02275C5.21875 7.84393 6.17155 6.89113 7.35036 6.89113C8.5336 6.8867 9.48197 7.84393 9.48197 9.02275Z" fill="white"/>
<path d="M22.5718 9.02275C22.5718 10.1971 21.619 11.1544 20.4402 11.1544C19.2658 11.1544 18.3086 10.2016 18.3086 9.02275C18.3086 7.84393 19.2614 6.89113 20.4402 6.89113C21.619 6.8867 22.5718 7.84393 22.5718 9.02275Z" fill="white"/>
<path d="M16.0249 9.02275C16.0249 10.1971 15.0721 11.1544 13.8933 11.1544C12.7189 11.1544 11.7617 10.2016 11.7617 9.02275C11.7617 7.84393 12.7145 6.89113 13.8933 6.89113C15.0721 6.8867 16.0249 7.84393 16.0249 9.02275Z" fill="white"/>
<path d="M135.554 97.4474C135.554 97.4474 129.771 93.3348 121.647 98.5996C113.524 103.864 112.257 118.436 115.62 120.532C118.984 122.628 126.31 122.544 126.31 122.544L133.533 115.072L137.353 108.252L135.554 97.4474Z" fill="#FF824D"/>
<path d="M126.156 122.987C125.021 122.987 118.582 122.898 115.391 120.904C114.182 120.146 113.473 118.059 113.446 115.169C113.397 109.528 115.87 101.817 121.41 98.2273C129.692 92.8605 135.755 97.044 135.812 97.0839C135.91 97.1504 135.972 97.2567 135.994 97.372L137.789 108.181C137.807 108.278 137.789 108.38 137.74 108.469L133.92 115.289C133.902 115.325 133.88 115.351 133.854 115.382L126.63 122.854C126.55 122.938 126.435 122.987 126.32 122.987C126.293 122.987 126.24 122.987 126.156 122.987ZM129.909 96.3394C127.734 96.3394 124.999 96.951 121.888 98.9674C116.858 102.225 114.279 109.581 114.323 115.165C114.346 117.669 114.931 119.583 115.852 120.159C118.777 121.985 124.982 122.101 126.12 122.105L133.176 114.806L136.889 108.172L135.148 97.7088C134.62 97.3764 132.737 96.3394 129.909 96.3394Z" fill="#1C1C2D"/>
<path d="M134.434 113.654C131.797 116.703 131.229 119.916 128.3 121.303L115.484 111.194C115.484 111.194 114.478 110.623 112.949 109.705C108.446 106.98 99.4237 101.17 98.4089 97.771C97.1725 93.5742 102.331 95.5109 103.381 95.9496C102.442 95.4798 98.6216 93.4502 98.7944 90.2594C98.985 86.8381 104.325 89.8206 104.569 89.958C104.369 89.7719 98.9983 84.6312 101.21 81.7728C102.894 79.5924 107.148 84.2235 107.41 84.516C107.254 84.219 104.839 79.4905 107.033 77.7843C110.454 75.1386 120.35 90.1707 120.602 90.5519C120.54 90.286 119.273 84.9192 122.45 83.5277C124.555 82.6015 127.188 88.5532 128.783 92.8519C129.643 95.1918 130.201 97.0487 130.201 97.0487L136.073 102.921C135.196 105.393 136.64 111.101 134.434 113.654Z" fill="white"/>
<path d="M128.298 121.742C128.201 121.742 128.103 121.711 128.023 121.649L115.234 111.562C115.056 111.46 114.104 110.915 112.716 110.082C107.656 107.024 99.0184 101.369 97.9814 97.895C97.6135 96.6453 97.7332 95.7368 98.3447 95.1917C98.9076 94.6909 99.7939 94.6156 100.685 94.7308C99.4039 93.6539 98.2472 92.1427 98.3492 90.2415C98.4068 89.1779 98.9209 88.6816 99.3374 88.4556C100.246 87.9592 101.602 88.2384 102.736 88.6461C101.172 86.7627 99.1956 83.6605 100.857 81.5156C101.216 81.0503 101.717 80.7888 102.302 80.7667C103.543 80.7179 105.05 81.7505 106.171 82.7166C105.604 80.9971 105.218 78.6484 106.756 77.4518C107.212 77.1017 107.766 76.9776 108.405 77.084C111.839 77.6601 117.463 85.2471 119.882 88.7259C119.749 86.8336 120.002 84.1347 122.267 83.142C122.688 82.9559 123.131 82.9648 123.592 83.1598C125.205 83.8422 127.088 87.0596 129.184 92.7188C129.924 94.7308 130.447 96.406 130.58 96.8358L136.372 102.632C136.492 102.752 136.532 102.929 136.474 103.089C136.164 103.971 136.173 105.389 136.182 106.891C136.2 109.408 136.217 112.267 134.759 113.955C133.767 115.103 133.084 116.26 132.424 117.381C131.382 119.14 130.403 120.807 128.48 121.715C128.427 121.728 128.365 121.742 128.298 121.742ZM99.98 95.5639C99.528 95.5639 99.1602 95.6481 98.9342 95.8476C98.5176 96.2198 98.6461 97.0308 98.8278 97.6468C99.5236 99.9779 104.753 104.237 113.173 109.329C114.693 110.242 115.695 110.809 115.699 110.813C115.717 110.822 115.739 110.835 115.757 110.849L128.351 120.78C129.871 119.96 130.709 118.546 131.671 116.916C132.322 115.817 133.058 114.567 134.099 113.361C135.34 111.926 135.322 109.244 135.304 106.882C135.296 105.438 135.287 104.064 135.561 103.053L129.88 97.3676C129.827 97.3144 129.792 97.2524 129.769 97.1815C129.765 97.1638 129.202 95.3113 128.356 93.0069C126.401 87.7377 124.589 84.5247 123.246 83.953C123.011 83.8511 122.812 83.8467 122.617 83.9309C119.794 85.1673 120.968 90.2327 121.021 90.4454C121.07 90.6537 120.964 90.8664 120.769 90.9506C120.574 91.0348 120.343 90.9683 120.224 90.7866C117.454 86.5677 111.387 78.4534 108.254 77.9304C107.859 77.864 107.545 77.926 107.292 78.1254C105.373 79.6189 107.766 84.2544 107.793 84.3031C107.895 84.4981 107.837 84.7419 107.656 84.8704C107.474 84.9945 107.226 84.9679 107.075 84.8039C106.065 83.696 103.804 81.622 102.386 81.622C102.369 81.622 102.346 81.622 102.329 81.622C102.001 81.6353 101.748 81.7638 101.544 82.0297C99.5767 84.569 104.797 89.5724 104.85 89.6211C105.014 89.7718 105.041 90.0244 104.908 90.2061C104.775 90.3878 104.531 90.441 104.332 90.3302C103.432 89.8161 100.857 88.6151 99.7451 89.2134C99.4216 89.3907 99.2488 89.7363 99.2178 90.2726C99.0715 92.998 102.209 94.8637 103.565 95.5418C103.778 95.6481 103.867 95.9052 103.769 96.1223C103.667 96.3395 103.415 96.437 103.197 96.3439C102.147 95.9096 100.893 95.5639 99.98 95.5639Z" fill="#1C1C2D"/>
<path d="M112.862 91.3096C112.738 91.3096 112.614 91.2564 112.53 91.1545L107.084 84.8217C106.924 84.6356 106.946 84.3608 107.128 84.2013C107.314 84.0417 107.589 84.0639 107.748 84.2456L113.195 90.5784C113.354 90.7645 113.332 91.0393 113.15 91.1988C113.066 91.2742 112.964 91.3096 112.862 91.3096Z" fill="#1C1C2D"/>
<path d="M109.724 94.4911C109.626 94.4911 109.533 94.4601 109.449 94.398L104.295 90.3165C104.105 90.1658 104.074 89.8866 104.224 89.696C104.375 89.5055 104.654 89.4745 104.845 89.6251L109.999 93.7067C110.189 93.8574 110.22 94.1366 110.07 94.3271C109.981 94.4335 109.852 94.4911 109.724 94.4911Z" fill="#1C1C2D"/>
<path d="M107.914 99.0383C107.838 99.0383 107.763 99.0206 107.692 98.9763L103.229 96.3616C103.021 96.2375 102.95 95.9672 103.07 95.7589C103.194 95.5462 103.464 95.4797 103.673 95.5994L108.135 98.214C108.343 98.3381 108.414 98.6085 108.295 98.8167C108.215 98.963 108.069 99.0383 107.914 99.0383Z" fill="#1C1C2D"/>
<path d="M118.178 99.9025C117.983 99.9025 117.806 99.7695 117.753 99.5745C117.048 96.8978 120.097 94.9745 121.13 94.4072L120.173 90.6758C120.111 90.4409 120.252 90.2016 120.492 90.1396C120.727 90.0775 120.966 90.2193 121.028 90.4586L122.074 94.5313C122.127 94.7352 122.025 94.9479 121.835 95.0365C121.795 95.0543 117.966 96.9155 118.608 99.353C118.67 99.5878 118.529 99.8271 118.294 99.8936C118.254 99.898 118.218 99.9025 118.178 99.9025Z" fill="#1C1C2D"/>
<path d="M205.215 90.6891L195.656 117.261C182.038 133.942 166.558 159.331 157.349 157.115C142.499 153.552 115.967 121.05 115.621 120.536C126.988 125.034 135.519 107.068 135.555 97.4518L156.653 123.155C156.653 123.155 171.592 92.8074 179.144 89.4615C187.626 85.6946 201.692 88.8455 205.215 90.6891Z" fill="#FF824D"/>
<path d="M158.524 157.691C158.089 157.691 157.659 157.642 157.247 157.54C142.042 153.893 115.47 121.095 115.258 120.775C115.151 120.616 115.16 120.403 115.28 120.252C115.399 120.102 115.608 120.049 115.785 120.12C118.807 121.316 121.799 120.935 124.679 118.985C130.799 114.841 135.089 104.307 135.116 97.4428C135.116 97.2567 135.235 97.0927 135.408 97.0307C135.581 96.9686 135.78 97.0218 135.896 97.1681L156.56 122.344C158.781 117.904 171.867 92.2002 178.962 89.0537C187.431 85.3045 201.524 88.2649 205.419 90.3034C205.614 90.4054 205.703 90.6358 205.632 90.8441L196.068 117.412C196.051 117.461 196.028 117.5 195.993 117.54C192.669 121.609 189.182 126.275 185.809 130.782C175.475 144.596 165.681 157.691 158.524 157.691ZM116.906 121.405C121.732 127.192 144.378 153.547 157.451 156.681C164.125 158.289 174.792 144.033 185.109 130.25C188.472 125.752 191.951 121.108 195.271 117.035L204.674 90.9106C200.797 89.1335 187.369 86.2928 179.326 89.8558C172.009 93.1042 157.203 123.04 157.052 123.341C156.986 123.474 156.857 123.567 156.707 123.585C156.56 123.598 156.41 123.541 156.317 123.426L135.958 98.6261C135.488 105.69 131.18 115.652 125.176 119.716C122.495 121.529 119.72 122.096 116.906 121.405Z" fill="#1C1C2D"/>
<path d="M162.167 129.705C162.047 129.705 161.928 129.657 161.839 129.559L156.322 123.444C156.158 123.262 156.171 122.983 156.353 122.823C156.534 122.659 156.814 122.672 156.973 122.854L162.49 128.97C162.654 129.152 162.641 129.431 162.459 129.59C162.375 129.666 162.273 129.705 162.167 129.705Z" fill="#1C1C2D"/>
<path d="M140.797 103.833C140.797 103.833 144.772 118.702 122.539 128.62L140.797 103.833Z" fill="#FF824D"/>
<path d="M122.539 129.058C122.37 129.058 122.211 128.961 122.135 128.797C122.038 128.575 122.135 128.314 122.357 128.216C143.957 118.582 140.407 104.09 140.367 103.949C140.305 103.714 140.442 103.474 140.682 103.408C140.917 103.35 141.156 103.483 141.222 103.718C141.262 103.869 145.038 119.065 122.72 129.018C122.663 129.045 122.601 129.058 122.539 129.058Z" fill="#1C1C2D"/>
<path d="M140.588 110.991C140.469 110.991 140.345 110.942 140.26 110.844L134.269 104.126C134.105 103.944 134.123 103.665 134.304 103.505C134.486 103.342 134.765 103.359 134.925 103.541L140.916 110.259C141.08 110.441 141.063 110.72 140.881 110.88C140.797 110.955 140.69 110.991 140.588 110.991Z" fill="#1C1C2D"/>
<path d="M134.797 120.975C134.668 120.975 134.544 120.917 134.455 120.811L129.439 114.638C129.284 114.447 129.315 114.173 129.505 114.017C129.691 113.862 129.971 113.893 130.126 114.084L135.142 120.257C135.297 120.448 135.266 120.722 135.076 120.878C134.992 120.94 134.894 120.975 134.797 120.975Z" fill="#1C1C2D"/>
<path d="M127.3 126.647C127.18 126.647 127.061 126.599 126.976 126.505L121.951 121.006C121.787 120.824 121.8 120.549 121.978 120.385C122.155 120.221 122.434 120.235 122.598 120.412L127.624 125.912C127.787 126.093 127.774 126.368 127.597 126.532C127.513 126.607 127.406 126.647 127.3 126.647Z" fill="#1C1C2D"/>
<path d="M238.66 192.183H243.943L246.296 181.117H241.013L238.66 192.183Z" fill="#1C1C2D"/>
<path d="M219.828 192.183H238.658L241.011 181.117H222.181L219.828 192.183Z" fill="#1C1C2D"/>
<path d="M209.57 181.117H271.271C276.026 181.117 280.338 177.616 280.901 173.299L287.899 113.752C288.462 109.435 281.145 105.934 276.39 105.934H218.602C213.846 105.934 209.534 109.435 208.972 113.752L201.974 173.299C201.416 177.616 204.815 181.117 209.57 181.117Z" fill="white"/>
<path d="M271.273 181.555H209.568C207.033 181.555 204.719 180.576 203.217 178.865C201.865 177.323 201.267 175.325 201.542 173.237L208.539 113.694C209.129 109.165 213.645 105.486 218.604 105.486H276.392C279.667 105.486 284.511 107.148 286.952 109.927C288.029 111.154 288.508 112.493 288.34 113.8L281.342 173.344C280.748 177.877 276.232 181.555 271.273 181.555ZM218.604 106.373C214.07 106.373 209.944 109.71 209.412 113.809L202.415 173.353C202.176 175.192 202.694 176.942 203.877 178.289C205.211 179.809 207.285 180.678 209.568 180.678H271.273C275.807 180.678 279.928 177.341 280.465 173.242L287.462 113.698C287.599 112.63 287.205 111.558 286.288 110.512C284.28 108.23 279.844 106.368 276.392 106.368H218.604V106.373Z" fill="#1C1C2D"/>
<path d="M262.887 181.126H271.285C276.018 181.126 280.343 177.616 280.906 173.295L287.903 113.743C288.462 109.444 285.054 105.934 280.321 105.934H271.923C276.682 105.934 280.09 109.444 279.527 113.743L272.53 173.295C271.967 177.616 267.646 181.126 262.887 181.126Z" fill="#E9EFFE"/>
<path d="M271.286 181.565H262.888C262.644 181.565 262.449 181.365 262.449 181.126C262.449 180.882 262.649 180.687 262.888 180.687C267.43 180.687 271.561 177.346 272.092 173.237L279.09 113.689C279.329 111.864 278.806 110.118 277.623 108.77C276.285 107.246 274.206 106.373 271.92 106.373C271.676 106.373 271.481 106.173 271.481 105.934C271.481 105.695 271.68 105.495 271.92 105.495H280.318C282.844 105.495 285.152 106.479 286.655 108.19C288.006 109.732 288.605 111.726 288.334 113.805L281.337 173.353C280.752 177.877 276.24 181.565 271.286 181.565ZM267.063 180.683H271.286C275.815 180.683 279.932 177.341 280.468 173.233L287.466 113.685C287.705 111.855 287.182 110.109 285.999 108.761C284.665 107.241 282.595 106.368 280.322 106.368H275.881C276.808 106.82 277.628 107.432 278.292 108.185C279.644 109.728 280.242 111.717 279.972 113.796L272.974 173.344C272.553 176.548 270.174 179.327 267.063 180.683Z" fill="#1C1C2D"/>
<path d="M172.088 298.334C171.893 299.012 171.273 299.482 170.563 299.477L133.799 299.176C132.855 299.171 132.128 298.334 132.252 297.399L132.416 296.216L132.536 295.325L132.633 294.616C132.819 293.273 133.639 292.09 134.845 291.443L144.164 287.667L145.037 287.312L146.717 286.63L147.59 286.28L149.394 285.544L150.253 285.199L153.617 283.834V282.774H171.937L172.057 295.325L172.066 296.216L172.088 298.334Z" fill="#FF824D"/>
<path d="M170.573 299.916C170.568 299.916 170.564 299.916 170.559 299.916L133.795 299.615C133.218 299.61 132.673 299.362 132.297 298.928C131.916 298.493 131.743 297.913 131.818 297.341L132.199 294.558C132.403 293.078 133.316 291.766 134.641 291.057L153.178 283.537V282.774C153.178 282.531 153.378 282.336 153.617 282.336H171.938C172.181 282.336 172.376 282.531 172.376 282.774L172.527 298.329C172.527 298.374 172.522 298.414 172.509 298.458C172.257 299.318 171.463 299.916 170.573 299.916ZM154.056 283.218V283.838C154.056 284.02 153.945 284.179 153.781 284.246L135.009 291.855C133.976 292.413 133.236 293.477 133.068 294.678L132.687 297.456C132.642 297.776 132.744 298.099 132.957 298.347C133.174 298.595 133.471 298.733 133.799 298.733L170.568 299.034C170.573 299.034 170.573 299.034 170.577 299.034C171.06 299.034 171.49 298.724 171.649 298.267L171.499 283.218H154.056Z" fill="#1C1C2D"/>
<path d="M172.088 298.334C171.893 299.012 171.273 299.482 170.563 299.477L133.799 299.176C132.855 299.172 132.128 298.334 132.252 297.399L132.536 295.325H172.057L172.066 296.216L172.088 298.334Z" fill="#1C1C2D"/>
<path d="M152.825 287.689L152.24 288.296L149.395 285.549L150.254 285.203L152.825 287.689Z" fill="#1C1C2D"/>
<path d="M150.264 288.704L149.696 289.333L146.723 286.634L147.596 286.284L150.264 288.704Z" fill="#1C1C2D"/>
<path d="M147.696 289.728L147.124 290.357L144.164 287.671L145.037 287.317L147.696 289.728Z" fill="#1C1C2D"/>
<path d="M184.487 286.461C185.355 286.461 186.202 286.018 186.68 285.221C193.806 273.33 206.321 266.231 220.161 266.231C234.001 266.231 246.516 273.33 253.642 285.221C254.369 286.43 255.938 286.825 257.143 286.098C258.353 285.371 258.747 283.807 258.021 282.597C250.084 269.355 235.574 261.126 220.161 261.126C204.744 261.126 190.239 269.351 182.302 282.597C181.575 283.807 181.97 285.376 183.179 286.098C183.587 286.346 184.039 286.461 184.487 286.461Z" fill="#1C1C2D"/>
<path d="M224.906 199.57V205.154H268.748C271.465 205.154 273.658 203.311 273.658 201.033V199.57C273.658 195.489 269.719 192.178 264.853 192.178H233.712C228.846 192.183 224.906 195.493 224.906 199.57Z" fill="#E9EFFE"/>
<path d="M268.749 205.597H224.907C224.664 205.597 224.469 205.398 224.469 205.158V199.575C224.469 195.254 228.617 191.744 233.713 191.744H264.854C269.95 191.744 274.098 195.258 274.098 199.575V201.037C274.103 203.55 271.701 205.597 268.749 205.597ZM225.351 204.715H268.749C271.213 204.715 273.221 203.062 273.221 201.037V199.575C273.221 195.741 269.467 192.626 264.854 192.626H233.713C229.1 192.626 225.351 195.746 225.351 199.575V204.715Z" fill="#1C1C2D"/>
<path d="M165.484 199.57V201.033C165.484 203.311 167.682 205.154 170.395 205.154H224.912V199.57C224.912 195.489 228.852 192.178 233.718 192.178H174.29C169.424 192.183 165.484 195.493 165.484 199.57Z" fill="white"/>
<path d="M224.906 205.597H170.389C167.437 205.597 165.035 203.55 165.035 201.037V199.575C165.035 195.254 169.183 191.744 174.28 191.744H233.708C233.951 191.744 234.146 191.943 234.146 192.183C234.146 192.426 233.947 192.621 233.708 192.621C229.094 192.621 225.345 195.741 225.345 199.57V205.154C225.345 205.398 225.15 205.597 224.906 205.597ZM174.28 192.621C169.666 192.621 165.913 195.741 165.913 199.57V201.033C165.913 203.062 167.92 204.711 170.384 204.711H224.459V199.566C224.459 196.548 226.484 193.92 229.444 192.617H174.28V192.621Z" fill="#1C1C2D"/>
<path d="M217.595 264.066H222.723V205.156H217.595V264.066Z" fill="#1C1C2D"/>
<path d="M190.478 292.556C193.685 289.349 193.685 284.15 190.478 280.943C187.271 277.736 182.072 277.736 178.865 280.943C175.658 284.15 175.658 289.349 178.865 292.556C182.072 295.763 187.271 295.763 190.478 292.556Z" fill="#1C1C2D"/>
<path d="M257.528 294.715C261.941 293.673 264.674 289.25 263.632 284.836C262.59 280.423 258.167 277.69 253.753 278.732C249.34 279.774 246.607 284.197 247.649 288.611C248.691 293.024 253.114 295.758 257.528 294.715Z" fill="#1C1C2D"/>
<path d="M256.563 290.614C258.712 290.107 260.042 287.954 259.535 285.805C259.028 283.657 256.875 282.326 254.726 282.834C252.578 283.341 251.247 285.494 251.755 287.642C252.262 289.791 254.415 291.121 256.563 290.614Z" fill="#1C1C2D"/>
<path d="M187.499 289.576C189.06 288.014 189.06 285.484 187.499 283.922C185.938 282.361 183.407 282.361 181.846 283.922C180.285 285.484 180.285 288.014 181.846 289.576C183.407 291.137 185.938 291.137 187.499 289.576Z" fill="#1C1C2D"/>
<path d="M231.865 273.277C232.162 273.916 232.007 274.678 231.475 275.143L203.649 299.18C202.936 299.801 201.841 299.65 201.314 298.866L200.658 297.869L200.161 297.124L199.767 296.526C199.022 295.396 198.858 293.964 199.337 292.684L203.848 283.696L204.269 282.854L205.08 281.232L205.506 280.39L206.379 278.649L206.795 277.824L208.422 274.58L207.722 273.783L221.486 261.693L229.858 271.044L230.451 271.704L231.865 273.277Z" fill="#FF824D"/>
<path d="M202.627 300C202.539 300 202.45 299.995 202.361 299.982C201.79 299.907 201.276 299.583 200.957 299.105L199.41 296.76C198.586 295.511 198.408 293.924 198.936 292.519L207.905 274.638L207.4 274.066C207.241 273.884 207.258 273.605 207.44 273.445L221.209 261.356C221.391 261.196 221.666 261.214 221.83 261.391L232.208 272.985C232.235 273.016 232.262 273.051 232.279 273.091C232.66 273.906 232.457 274.886 231.779 275.475L203.952 299.512C203.576 299.827 203.106 300 202.627 300ZM208.344 273.818L208.752 274.283C208.872 274.416 208.894 274.611 208.814 274.771L199.734 292.874C199.326 293.973 199.472 295.262 200.141 296.277L201.688 298.617C201.865 298.883 202.153 299.065 202.477 299.109C202.805 299.153 203.119 299.06 203.363 298.843L231.189 274.806C231.557 274.487 231.677 273.968 231.495 273.516L221.457 262.304L208.344 273.818Z" fill="#1C1C2D"/>
<path d="M231.868 273.277C232.165 273.915 232.01 274.677 231.478 275.143L203.652 299.18C202.938 299.8 201.844 299.65 201.316 298.865L200.164 297.119L229.86 271.043L230.454 271.704L231.868 273.277Z" fill="#1C1C2D"/>
<path d="M210.367 277.988L210.332 278.83L206.379 278.644L206.795 277.815L210.367 277.988Z" fill="#1C1C2D"/>
<path d="M209.11 280.448L209.097 281.29L205.086 281.228L205.507 280.385L209.11 280.448Z" fill="#1C1C2D"/>
<path d="M207.866 282.903L207.853 283.754L203.855 283.687L204.276 282.845L207.866 282.903Z" fill="#1C1C2D"/>
<path d="M218.699 249.865C218.699 249.865 220.277 258.471 210.483 264.932C200.685 271.394 193.723 270.193 193.723 270.193L192.141 256.339L200.649 248.566L204.483 246.572L208.613 243.559L218.699 249.865Z" fill="white"/>
<path d="M195.218 270.729C194.27 270.729 193.72 270.641 193.64 270.627C193.445 270.592 193.299 270.437 193.277 270.242L191.695 256.388C191.677 256.247 191.73 256.109 191.837 256.012L200.345 248.239C200.372 248.212 200.403 248.19 200.438 248.172L204.241 246.196L208.344 243.204C208.491 243.098 208.686 243.089 208.836 243.187L218.923 249.488C219.029 249.555 219.1 249.661 219.122 249.781C219.14 249.869 220.638 258.751 210.715 265.3C203.505 270.06 197.837 270.729 195.218 270.729ZM194.114 269.794C195.581 269.918 201.887 270.069 210.232 264.565C218.98 258.795 218.457 251.425 218.289 250.127L208.628 244.091L204.741 246.927C204.724 246.94 204.706 246.953 204.684 246.962L200.899 248.93L192.599 256.513L194.114 269.794Z" fill="#1C1C2D"/>
<path d="M207.723 273.778L208.423 274.576L222.165 262.447L222.201 262.416C221.394 261.551 217.902 256.845 214.326 252.001C212.597 249.661 210.851 247.281 209.385 245.301C206.526 246.728 203.189 248.952 199.879 251.749C197.494 253.769 195.403 255.843 193.719 257.811L199.848 264.8L207.723 273.778Z" fill="white"/>
<path d="M208.42 275.015C208.411 275.015 208.402 275.015 208.393 275.015C208.278 275.006 208.167 274.952 208.092 274.864L207.391 274.066L193.388 258.095C193.241 257.931 193.241 257.682 193.383 257.518C195.12 255.489 197.27 253.375 199.592 251.407C202.805 248.695 206.213 246.382 209.186 244.902C209.377 244.804 209.612 244.862 209.736 245.034C210.786 246.457 211.983 248.079 213.21 249.745L214.677 251.74C218.284 256.632 221.732 261.272 222.517 262.114C222.601 262.203 222.641 262.318 222.636 262.438C222.632 262.557 222.574 262.668 222.486 262.748L208.708 274.908C208.632 274.975 208.526 275.015 208.42 275.015ZM208.052 273.486L208.46 273.951L221.577 262.371C220.407 260.962 217.252 256.712 213.968 252.258L212.501 250.264C211.358 248.713 210.245 247.202 209.248 245.854C206.417 247.312 203.204 249.51 200.159 252.081C197.983 253.924 195.962 255.896 194.301 257.806L208.052 273.486Z" fill="#1C1C2D"/>
<path d="M146.439 180.461C140.39 202.269 193.72 270.193 193.72 270.193C195.409 260.926 208.376 248.105 218.697 249.865L185.854 205.251L222.282 185.305L219.22 152.129L203.062 158.112C203.062 158.108 150.871 164.485 146.439 180.461Z" fill="white"/>
<path d="M193.715 270.636C193.583 270.636 193.454 270.574 193.37 270.468C191.185 267.689 139.978 202.123 146.009 180.346C150.436 164.378 200.168 158.019 202.951 157.678L219.06 151.713C219.188 151.664 219.33 151.682 219.45 151.753C219.565 151.824 219.64 151.948 219.654 152.085L222.716 185.26C222.734 185.433 222.641 185.602 222.49 185.686L186.505 205.393L219.047 249.599C219.153 249.745 219.162 249.94 219.069 250.091C218.976 250.246 218.798 250.321 218.621 250.295C208.406 248.553 195.719 261.671 194.154 270.268C194.123 270.437 193.995 270.574 193.826 270.618C193.786 270.632 193.751 270.636 193.715 270.636ZM218.825 152.737L203.208 158.52C203.177 158.533 203.142 158.542 203.106 158.542C202.588 158.604 151.159 165.065 146.856 180.576C141.272 200.709 187.737 261.737 193.485 269.178C195.736 260.394 207.436 248.438 217.726 249.298L185.495 205.509C185.419 205.407 185.393 205.278 185.419 205.154C185.446 205.03 185.526 204.924 185.637 204.862L221.807 185.052L218.825 152.737Z" fill="#1C1C2D"/>
<path d="M144.293 266.014C144.293 266.014 148.973 193.388 160.061 179.761C172.447 164.543 219.529 155.546 219.529 155.546L243.105 152.785C243.105 152.785 243.118 153.206 243.136 153.955C243.185 156.88 242.604 166.231 241.173 175.054C239.568 184.933 231.077 192.214 221.071 192.28C221.071 192.28 200.486 191.27 196.71 192.768C186.566 196.8 180.092 266.962 180.092 266.962L144.293 266.014Z" fill="white"/>
<path d="M180.098 267.406C180.094 267.406 180.09 267.406 180.085 267.406L144.286 266.457C144.167 266.453 144.052 266.404 143.972 266.315C143.892 266.227 143.848 266.112 143.857 265.992C144.047 263.018 148.669 193.069 159.722 179.491C172.068 164.326 217.519 155.489 219.447 155.121L243.054 152.356C243.174 152.342 243.298 152.378 243.391 152.458C243.484 152.537 243.541 152.653 243.546 152.777C243.546 152.777 243.559 153.198 243.577 153.956C243.621 156.73 243.076 166.085 241.605 175.134C239.961 185.261 231.323 192.662 221.069 192.732C220.838 192.724 200.51 191.74 196.868 193.189C187.087 197.075 180.59 266.315 180.528 267.011C180.515 267.233 180.324 267.406 180.098 267.406ZM144.77 265.584L179.7 266.51C180.298 260.173 186.577 196.327 196.553 192.36C200.373 190.84 220.253 191.802 221.1 191.842C230.898 191.775 239.167 184.685 240.745 174.984C242.208 165.987 242.748 156.712 242.704 153.964C242.699 153.69 242.695 153.459 242.691 153.278L219.589 155.985C219.15 156.069 172.556 165.123 160.413 180.04C149.99 192.843 145.195 259.389 144.77 265.584Z" fill="#1C1C2D"/>
<path d="M205.216 90.6889L229.448 89.8957C229.448 89.8957 237.877 89.5101 243.004 93.4853C255.794 103.386 246.638 165.721 246.638 165.721C246.638 165.721 213.02 172.923 184.104 157.013C184.104 157.013 181.586 129.909 182.898 110.835" fill="#FF824D"/>
<path d="M228.063 167.751C215.734 167.751 199.111 165.77 183.897 157.403C183.769 157.332 183.685 157.204 183.671 157.058C183.645 156.787 181.168 129.697 182.466 110.809C182.484 110.565 182.697 110.388 182.936 110.401C183.18 110.419 183.361 110.627 183.344 110.871C182.112 128.757 184.287 154.053 184.527 156.743C211.475 171.46 242.851 166.005 246.25 165.354C246.92 160.607 254.724 103.116 242.736 93.8358C237.799 90.0113 229.548 90.3348 229.468 90.3392L205.231 91.1325C205.005 91.1192 204.784 90.9508 204.775 90.707C204.766 90.4633 204.957 90.2594 205.2 90.2506L229.432 89.4573C229.778 89.444 238.078 89.1116 243.277 93.14C256.124 103.085 247.451 163.231 247.079 165.788C247.052 165.97 246.915 166.116 246.733 166.156C246.574 166.187 239.014 167.751 228.063 167.751Z" fill="#1C1C2D"/>
<path d="M144.293 266.009C144.275 268.012 148.055 269.834 153.626 270.831C156.17 271.287 159.081 271.575 162.183 271.633C166.221 271.704 169.948 271.38 172.952 270.769C177.313 269.887 180.136 268.398 180.145 266.665V266.638C180.136 265.012 177.619 263.501 173.661 262.468C170.573 261.653 166.597 261.125 162.263 261.041C159.139 260.984 156.196 261.165 153.635 261.533C148.57 262.269 144.989 263.718 144.386 265.491C144.386 265.495 144.386 265.5 144.382 265.513L144.293 266.009Z" fill="white"/>
<path d="M163.305 272.085C162.933 272.085 162.556 272.081 162.18 272.076C159.184 272.023 156.201 271.744 153.556 271.27C147.467 270.18 143.846 268.216 143.859 266.014C143.859 265.992 143.864 265.969 143.864 265.943L143.948 265.447C143.952 265.429 143.952 265.416 143.957 265.402C143.961 265.389 143.966 265.371 143.97 265.358C144.622 263.443 148.123 261.897 153.574 261.108C156.224 260.727 159.233 260.558 162.273 260.612C166.478 260.691 170.564 261.201 173.773 262.052C178.156 263.195 180.575 264.826 180.584 266.643C180.571 268.615 177.894 270.224 173.037 271.208C170.188 271.779 166.842 272.085 163.305 272.085ZM144.741 266.045C144.777 267.693 148.366 269.439 153.711 270.397C156.312 270.862 159.246 271.137 162.197 271.19C166.084 271.256 169.776 270.964 172.869 270.335C177.079 269.484 179.698 268.075 179.707 266.661C179.698 265.318 177.34 263.882 173.551 262.894C170.405 262.061 166.394 261.56 162.255 261.48C159.264 261.427 156.303 261.595 153.698 261.968C148.761 262.681 145.362 264.077 144.812 265.611L144.741 266.045Z" fill="#1C1C2D"/>
<path d="M153.613 282.779V283.838L171.947 283.793H171.991C171.956 282.61 172.434 276.774 172.948 270.773C173.197 267.875 173.449 264.937 173.657 262.477C170.569 261.662 166.593 261.134 162.259 261.05C159.135 260.993 156.192 261.174 153.631 261.542L153.627 270.835L153.613 282.779Z" fill="white"/>
<path d="M153.618 284.277C153.503 284.277 153.388 284.233 153.308 284.148C153.224 284.064 153.18 283.953 153.18 283.838V282.779L153.197 261.538C153.197 261.321 153.357 261.135 153.574 261.104C156.224 260.723 159.238 260.554 162.273 260.607C166.479 260.687 170.565 261.197 173.773 262.048C173.982 262.101 174.119 262.296 174.101 262.509C173.942 264.405 173.756 266.586 173.565 268.81L173.392 270.805C172.874 276.858 172.404 282.619 172.44 283.776C172.444 283.896 172.4 284.011 172.315 284.095C172.231 284.179 172.12 284.228 172.001 284.228L153.618 284.277C153.623 284.277 153.623 284.277 153.618 284.277ZM154.062 282.779V283.395L171.562 283.351C171.611 281.52 172.045 276.247 172.515 270.734L172.688 268.74C172.865 266.657 173.042 264.614 173.193 262.81C170.104 262.034 166.24 261.565 162.256 261.489C159.406 261.436 156.588 261.587 154.075 261.924L154.062 282.779Z" fill="#1C1C2D"/>
<path d="M241.575 297.842C241.353 297.842 241.167 297.678 241.136 297.452L225.918 171.443C225.887 171.199 226.059 170.982 226.303 170.951C226.543 170.924 226.764 171.093 226.795 171.336L242.013 297.346C242.044 297.589 241.871 297.807 241.628 297.838C241.61 297.842 241.592 297.842 241.575 297.842Z" fill="#1C1C2D"/>
<path d="M185.43 297.842C185.412 297.842 185.394 297.842 185.377 297.838C185.133 297.811 184.964 297.589 184.991 297.346L200.209 171.336C200.24 171.093 200.462 170.924 200.701 170.951C200.945 170.977 201.113 171.199 201.087 171.443L185.869 297.452C185.842 297.678 185.651 297.842 185.43 297.842Z" fill="#1C1C2D"/>
<path d="M60.1311 297.842C59.9006 297.842 59.7056 297.66 59.6923 297.43L52.0788 171.416C52.0655 171.172 52.2472 170.964 52.491 170.951C52.7125 170.933 52.943 171.119 52.9563 171.363L60.5654 297.372C60.5787 297.616 60.397 297.824 60.1532 297.837C60.1488 297.842 60.1399 297.842 60.1311 297.842Z" fill="#1C1C2D"/>
<path d="M19.2032 297.842C19.1855 297.842 19.1678 297.842 19.15 297.838C18.9063 297.811 18.7379 297.589 18.7645 297.346L33.9827 171.336C34.0137 171.093 34.2353 170.924 34.4746 170.951C34.7183 170.977 34.8867 171.199 34.8601 171.443L19.6419 297.456C19.6153 297.678 19.4248 297.842 19.2032 297.842Z" fill="#1C1C2D"/>
<path d="M247.404 174.882C247.404 177.302 245.441 179.265 243.021 179.265H178.031C175.244 179.265 172.988 177.665 172.988 175.697V174.882C172.988 172.462 174.951 170.499 177.371 170.499H243.017C245.441 170.503 247.404 172.462 247.404 174.882Z" fill="#1C1C2D"/>
<path d="M243.018 179.708H178.029C175.006 179.708 172.547 177.908 172.547 175.697V174.881C172.547 172.222 174.71 170.06 177.368 170.06H243.014C245.673 170.06 247.836 172.222 247.836 174.881C247.84 177.545 245.677 179.708 243.018 179.708ZM177.368 170.942C175.197 170.942 173.424 172.71 173.424 174.886V175.701C173.424 177.425 175.489 178.83 178.029 178.83H243.014C245.186 178.83 246.958 177.062 246.958 174.886C246.958 172.71 245.19 170.942 243.014 170.942H177.368Z" fill="#1C1C2D"/>
<path d="M18.9648 174.882C18.9648 177.306 20.9281 179.269 23.3477 179.269H210.557C212.977 179.269 214.94 177.306 214.94 174.886V174.882C214.94 172.462 212.977 170.499 210.557 170.499H23.3477C20.9281 170.499 18.9648 172.462 18.9648 174.882Z" fill="white"/>
<path d="M210.558 179.707H23.3489C20.69 179.707 18.5273 177.545 18.5273 174.886V174.881C18.5273 172.222 20.69 170.06 23.3489 170.06H210.558C213.217 170.06 215.38 172.222 215.38 174.881C215.38 177.545 213.217 179.707 210.558 179.707ZM23.3489 170.941C21.173 170.941 19.4048 172.71 19.4048 174.881V174.886C19.4048 177.057 21.173 178.83 23.3489 178.83H210.558C212.73 178.83 214.502 177.062 214.502 174.886C214.502 172.71 212.734 170.941 210.558 170.941H23.3489Z" fill="#1C1C2D"/>
<path d="M185.544 170.499H133.668V164.06H181.591C183.776 164.06 185.544 165.832 185.544 168.013V170.499Z" fill="#6254E7"/>
<path d="M185.55 170.942H133.673C133.429 170.942 133.234 170.742 133.234 170.503V164.059C133.234 163.816 133.434 163.621 133.673 163.621H180.311C183.445 163.621 185.997 166.169 185.997 169.306V170.503C185.993 170.742 185.793 170.942 185.55 170.942ZM134.112 170.06H185.111V169.302C185.111 166.652 182.957 164.498 180.307 164.498H134.112V170.06Z" fill="#1C1C2D"/>
<path d="M157.589 170.503H88.9429L78.2804 123.089C76.911 117 81.5421 111.212 87.7818 111.212H136.463C141.019 111.212 144.967 114.372 145.965 118.817L157.589 170.503Z" fill="white"/>
<path d="M157.584 170.503H153.166L142.043 121.037C141.218 117.372 137.961 114.771 134.212 114.771H82.0208C81.3471 114.771 80.6913 114.851 80.0664 115.01C81.8258 112.719 84.5955 111.212 87.7774 111.212H136.459C141.01 111.212 144.959 114.363 145.96 118.812L157.584 170.503Z" fill="#EBF0FE"/>
<path d="M157.591 170.942H88.9453C88.7414 170.942 88.5597 170.8 88.5154 170.596L77.853 123.182C77.1705 120.151 77.8928 117.018 79.8339 114.589C81.7749 112.161 84.6732 110.769 87.7842 110.769H136.466C141.261 110.769 145.347 114.035 146.397 118.715L158.021 170.401C158.052 170.53 158.017 170.667 157.937 170.773C157.853 170.88 157.724 170.942 157.591 170.942ZM89.2998 170.06H157.042L145.537 118.91C144.575 114.638 140.844 111.651 136.466 111.651H87.7886C84.948 111.651 82.3023 112.923 80.5297 115.139C78.757 117.354 78.0923 120.217 78.7171 122.987L89.2998 170.06Z" fill="#1C1C2D"/>
<path d="M120.543 141.383C121.412 145.327 119.276 148.628 115.771 148.761C112.265 148.894 108.724 145.801 107.851 141.861C106.978 137.922 109.119 134.616 112.624 134.483C116.13 134.35 119.675 137.439 120.543 141.383Z" fill="#6254E7"/>
<path d="M115.552 149.205C111.927 149.205 108.311 146.005 107.42 141.955C106.937 139.756 107.332 137.629 108.502 136.114C109.49 134.837 110.948 134.102 112.605 134.04C116.315 133.902 120.059 137.151 120.968 141.285C121.451 143.483 121.056 145.611 119.887 147.122C118.903 148.398 117.445 149.134 115.783 149.196C115.703 149.2 115.628 149.205 115.552 149.205ZM112.836 134.917C112.769 134.917 112.703 134.917 112.636 134.922C111.24 134.975 110.017 135.591 109.197 136.654C108.187 137.962 107.855 139.823 108.28 141.764C109.104 145.504 112.472 148.429 115.752 148.318C117.148 148.265 118.371 147.649 119.195 146.586C120.206 145.278 120.538 143.417 120.113 141.476C119.302 137.815 116.066 134.917 112.836 134.917Z" fill="#1C1C2D"/>
<path d="M225.078 89.8869C239.37 83.563 246.758 89.8249 250.857 93.6671C265.348 107.259 274.867 152.807 267.617 162.925C260.363 173.038 207.892 172.196 207.892 172.196C209.302 171.988 209.918 170.53 209.94 168.429C210.002 163.962 207.396 156.596 204.117 152.209C202.583 150.144 200.904 148.739 199.277 148.597L239.703 142.003L230.999 110.596" fill="#FF824D"/>
<path d="M211.254 172.657C209.379 172.657 208.178 172.639 207.886 172.635C207.655 172.63 207.469 172.453 207.451 172.222C207.438 171.992 207.598 171.793 207.828 171.757C209.18 171.558 209.485 169.834 209.499 168.425C209.561 164.019 206.933 156.712 203.764 152.471C202.182 150.339 200.618 149.151 199.24 149.032C199.018 149.014 198.845 148.832 198.836 148.611C198.827 148.389 198.987 148.194 199.204 148.159L239.146 141.644L230.576 110.711C230.509 110.476 230.646 110.233 230.881 110.171C231.121 110.104 231.36 110.246 231.422 110.476L240.126 141.883C240.161 142.003 240.139 142.132 240.072 142.238C240.006 142.344 239.895 142.415 239.771 142.437L201.119 148.739C202.218 149.346 203.339 150.419 204.469 151.943C207.793 156.388 210.443 163.789 210.381 168.433C210.363 170.109 209.991 171.141 209.485 171.766C218.291 171.806 260.923 171.505 267.26 162.668C274.302 152.843 264.832 107.374 250.558 93.9862C247.057 90.7024 239.767 83.8644 225.258 90.2858C225.036 90.3833 224.775 90.2858 224.677 90.0598C224.58 89.8382 224.677 89.5767 224.903 89.4792C239.948 82.8185 247.522 89.9268 251.165 93.3436C259.04 100.727 264.934 116.862 267.828 129.497C271.4 145.105 271.462 158.325 267.983 163.182C261.668 171.974 223.077 172.657 211.254 172.657Z" fill="#1C1C2D"/>
<path d="M209.939 168.429C209.934 169.071 209.872 169.661 209.748 170.17C209.46 171.305 208.866 172.049 207.896 172.196C206.132 172.457 204.466 171.699 202.972 170.317C202.773 170.135 202.582 169.944 202.392 169.741C198.851 165.974 196.414 158.755 196.205 153.835C196.192 153.534 196.188 153.242 196.188 152.958C196.214 150.853 196.719 149.302 197.805 148.832H197.809L199.281 148.593C200.907 148.735 202.587 150.144 204.12 152.205C204.554 152.785 204.98 153.428 205.392 154.106C208.038 158.506 209.996 164.556 209.939 168.429Z" fill="#FF824D"/>
<path d="M207.197 172.688C205.66 172.688 204.144 172.001 202.673 170.645C202.469 170.459 202.269 170.259 202.07 170.047C198.387 166.129 195.972 158.737 195.764 153.858C195.751 153.548 195.746 153.251 195.746 152.963C195.777 150.512 196.429 148.948 197.63 148.429C197.669 148.411 197.718 148.398 197.762 148.394L199.212 148.159C199.247 148.15 199.283 148.15 199.318 148.154C200.98 148.296 202.713 149.572 204.472 151.943C204.893 152.506 205.327 153.158 205.766 153.876C208.496 158.405 210.437 164.529 210.384 168.433C210.379 169.125 210.308 169.745 210.18 170.273C209.737 172.01 208.731 172.511 207.964 172.626C207.703 172.67 207.45 172.688 207.197 172.688ZM197.926 149.262C197.111 149.657 196.65 150.968 196.624 152.967C196.624 153.237 196.628 153.525 196.641 153.822C196.841 158.538 199.167 165.673 202.708 169.439C202.89 169.634 203.076 169.821 203.267 169.993C204.778 171.389 206.311 171.988 207.831 171.762C208.571 171.651 209.063 171.097 209.325 170.064C209.435 169.603 209.497 169.049 209.502 168.429C209.502 168.429 209.502 168.429 209.502 168.425C209.555 164.667 207.667 158.741 205.013 154.336C204.592 153.645 204.171 153.016 203.767 152.475C202.207 150.37 200.661 149.187 199.296 149.041L197.926 149.262Z" fill="#1C1C2D"/>
<path d="M199.276 148.597L197.805 148.837C198.283 148.624 198.775 148.544 199.276 148.597Z" fill="#FF824D"/>
<path d="M197.806 149.275C197.615 149.275 197.438 149.151 197.385 148.961C197.323 148.748 197.429 148.522 197.633 148.433C198.182 148.194 198.754 148.105 199.326 148.163C199.547 148.185 199.716 148.367 199.72 148.588C199.725 148.81 199.57 149.001 199.348 149.036L197.877 149.275C197.85 149.271 197.828 149.275 197.806 149.275Z" fill="#1C1C2D"/>
<path d="M216.818 172.621C216.68 172.621 216.547 172.559 216.459 172.44C216.317 172.245 216.357 171.965 216.556 171.824C220.257 169.125 219.171 163.545 218.196 160.456C216.091 153.796 211.229 147.817 208.872 147.773C208.628 147.769 208.433 147.569 208.438 147.325C208.442 147.082 208.619 146.887 208.885 146.891C211.903 146.944 216.929 153.534 219.034 160.191C220.842 165.912 220.146 170.295 217.075 172.537C216.995 172.595 216.906 172.621 216.818 172.621Z" fill="#1C1C2D"/>
<path d="M208.792 162.265C208.579 162.265 208.393 162.114 208.358 161.897C208.318 161.657 208.482 161.431 208.721 161.392L217.899 159.863C218.143 159.823 218.364 159.987 218.404 160.226C218.444 160.465 218.28 160.691 218.041 160.731L208.863 162.26C208.836 162.26 208.814 162.265 208.792 162.265Z" fill="#1C1C2D"/>
<path d="M204.77 153.14C204.778 153.157 213.309 150.888 213.309 150.888L204.77 153.14Z" fill="#6254E7"/>
<path d="M204.683 153.53C204.506 153.53 204.466 153.472 204.409 153.383C204.271 153.184 204.324 152.909 204.524 152.772C204.577 152.736 204.639 152.71 204.701 152.701C205.051 152.621 209.952 151.323 213.201 150.459C213.436 150.392 213.679 150.534 213.742 150.773C213.804 151.008 213.666 151.247 213.427 151.314L209.159 152.444C206.053 153.268 205.06 153.53 204.683 153.53Z" fill="#1C1C2D"/>
<path d="M209.935 168.868C209.7 168.868 209.501 168.682 209.496 168.442C209.488 168.199 209.678 167.995 209.922 167.986L218.856 167.667C219.086 167.667 219.304 167.848 219.312 168.092C219.321 168.336 219.131 168.54 218.887 168.549L209.953 168.868C209.948 168.868 209.944 168.868 209.935 168.868Z" fill="#1C1C2D"/>
<path d="M209.937 168.429C209.933 169.071 209.871 169.661 209.747 170.17L202.966 170.317L196.385 170.459C196.385 170.459 180.835 173.445 177.808 171.558C175.034 169.816 180.378 168.54 181.269 168.274C180.427 168.46 175.778 169.027 174.298 167.148C172.663 165.078 179.093 164.21 179.093 164.21C179.093 164.21 171.613 163.926 171.44 161.174C171.302 159.105 177.626 159.193 177.999 159.202C177.688 159.145 172.348 158.094 172.738 156.038C173.345 152.843 187.58 155.75 187.943 155.825C187.73 155.71 182.709 153.024 183.808 150.658C184.797 148.526 192.073 151.699 196.186 152.971C196.735 153.135 197.218 153.273 197.635 153.357C198.659 153.57 199.935 153.733 201.393 153.866C202.616 153.973 203.959 154.057 205.39 154.119C208.036 158.506 209.995 164.556 209.937 168.429Z" fill="white"/>
<path d="M181.858 172.626C179.948 172.626 178.375 172.435 177.568 171.93C176.833 171.469 176.5 170.955 176.58 170.406C176.669 169.807 177.245 169.324 178.056 168.921C176.505 168.859 174.808 168.509 173.943 167.419C173.491 166.843 173.545 166.346 173.673 166.032C173.983 165.256 175.122 164.72 176.283 164.361C173.983 163.989 171.112 163.133 170.988 161.197C170.961 160.798 171.103 160.425 171.395 160.115C172.104 159.371 173.7 159.03 175.184 158.874C174.138 158.484 173.079 157.93 172.583 157.204C172.308 156.805 172.211 156.384 172.295 155.945C172.375 155.515 172.632 155.156 173.048 154.873C175.22 153.415 181.996 154.31 185.767 154.957C184.269 153.845 182.616 152.143 183.4 150.454C184.358 148.398 189.002 150.016 193.496 151.584C194.515 151.939 195.477 152.276 196.305 152.533C196.726 152.657 197.267 152.816 197.71 152.905C198.663 153.104 199.877 153.268 201.419 153.406C202.62 153.512 203.959 153.596 205.399 153.658C205.545 153.663 205.683 153.743 205.758 153.871C208.488 158.4 210.429 164.52 210.371 168.425C210.367 169.116 210.296 169.736 210.167 170.264C210.119 170.459 209.95 170.596 209.751 170.601L196.425 170.889C195.118 171.15 187.181 172.626 181.858 172.626ZM181.26 167.831C181.455 167.831 181.637 167.964 181.685 168.159C181.743 168.389 181.615 168.624 181.384 168.691L181.092 168.775C178.021 169.63 177.489 170.242 177.449 170.53C177.427 170.694 177.644 170.937 178.034 171.181C180.4 172.657 192.02 170.844 196.297 170.024C196.323 170.02 196.345 170.016 196.372 170.016L209.383 169.736C209.454 169.346 209.489 168.908 209.494 168.425C209.494 168.425 209.494 168.425 209.494 168.42C209.547 164.72 207.717 158.919 205.129 154.536C203.764 154.474 202.496 154.394 201.349 154.292C199.771 154.15 198.521 153.982 197.537 153.774C197.161 153.698 196.718 153.579 196.053 153.379C195.206 153.118 194.236 152.776 193.208 152.422C189.866 151.256 184.819 149.497 184.203 150.831C183.432 152.488 186.782 154.709 188.142 155.422C188.337 155.524 188.426 155.755 188.351 155.958C188.28 156.167 188.067 156.286 187.85 156.242C183.795 155.418 175.596 154.226 173.545 155.604C173.327 155.75 173.203 155.914 173.163 156.109C173.124 156.313 173.172 156.499 173.314 156.703C174.081 157.82 177.081 158.582 178.069 158.759C178.295 158.799 178.45 159.007 178.428 159.233C178.406 159.459 178.215 159.632 177.989 159.632H177.985C175.579 159.592 172.8 159.92 172.042 160.718C171.878 160.891 171.865 161.041 171.874 161.135C171.998 163.058 177.267 163.687 179.106 163.758C179.337 163.767 179.518 163.949 179.532 164.179C179.541 164.41 179.377 164.605 179.151 164.636C177.413 164.87 174.816 165.562 174.497 166.355C174.475 166.413 174.409 166.572 174.644 166.865C175.964 168.54 180.409 168.004 181.176 167.831C181.198 167.835 181.229 167.831 181.26 167.831Z" fill="#1C1C2D"/>
<path d="M182.841 160.115C182.828 160.115 182.81 160.115 182.797 160.111L177.944 159.632C177.7 159.61 177.523 159.393 177.55 159.149C177.572 158.905 177.798 158.728 178.033 158.755L182.885 159.233C183.129 159.255 183.306 159.473 183.28 159.716C183.257 159.947 183.067 160.115 182.841 160.115Z" fill="#1C1C2D"/>
<path d="M179.087 164.644C178.843 164.644 178.648 164.449 178.648 164.206C178.648 163.962 178.843 163.762 179.087 163.762L182.929 163.745C183.173 163.745 183.368 163.94 183.368 164.183C183.368 164.427 183.173 164.627 182.929 164.627L179.087 164.644Z" fill="#1C1C2D"/>
<path d="M181.327 168.695C181.101 168.695 180.911 168.527 180.889 168.296C180.866 168.052 181.044 167.84 181.283 167.813L184.593 167.49C184.842 167.468 185.05 167.645 185.076 167.884C185.099 168.128 184.921 168.341 184.682 168.367L181.372 168.691C181.354 168.695 181.341 168.695 181.327 168.695Z" fill="#1C1C2D"/>
<path d="M239.699 142.442C239.478 142.442 239.287 142.273 239.261 142.052C239.234 141.808 239.407 141.591 239.65 141.564L251.837 140.186C252.077 140.164 252.298 140.332 252.325 140.576C252.352 140.82 252.179 141.037 251.935 141.064L239.748 142.442C239.73 142.442 239.713 142.442 239.699 142.442Z" fill="#1C1C2D"/>
<path d="M218.742 101.688C212.963 103.435 208.155 95.7545 208.155 95.7545C208.155 95.7545 201.791 102.313 197.825 101.006C193.867 99.6943 201.995 89.8649 201.995 89.8649C201.995 89.8649 205.447 89.63 207.738 90.3479L225.07 89.8826C225.075 89.887 222.035 100.691 218.742 101.688Z" fill="white"/>
<path d="M216.986 102.388C212.599 102.388 209.115 97.9169 208.087 96.4411C206.616 97.8637 201.333 102.628 197.691 101.422C197.026 101.201 196.578 100.753 196.397 100.119C195.532 97.1103 201.032 90.3432 201.661 89.581C201.737 89.4879 201.852 89.4303 201.972 89.4214C202.118 89.4126 205.464 89.1954 207.808 89.9045L225.069 89.4392C225.211 89.4303 225.344 89.4968 225.428 89.6075C225.512 89.7183 225.543 89.8646 225.503 89.9975C225.184 91.1276 222.299 101.068 218.874 102.1C218.231 102.304 217.602 102.388 216.986 102.388ZM218.617 101.267C220.979 100.554 223.5 93.6138 224.484 90.3432L207.755 90.7952C207.706 90.7952 207.657 90.7908 207.613 90.7731C205.725 90.1837 202.96 90.2634 202.215 90.2989C200.514 92.3862 196.631 97.7618 197.243 99.8801C197.345 100.235 197.575 100.461 197.97 100.589C201.626 101.795 207.781 95.5105 207.843 95.4485C207.937 95.351 208.074 95.3111 208.207 95.3155C208.34 95.3288 208.459 95.4041 208.535 95.5194C208.575 95.5947 213.228 102.894 218.617 101.267Z" fill="#1C1C2D"/>
<path d="M217.618 71.407C217.618 71.407 218.491 86.8513 220.91 89.8825L208.263 95.7101L201.996 89.8648L201.27 80.4121L217.618 71.407Z" fill="white"/>
<path d="M208.261 96.1535C208.15 96.1535 208.044 96.1137 207.96 96.0339L201.694 90.1885C201.614 90.1132 201.565 90.0113 201.556 89.9005L200.829 80.4478C200.816 80.275 200.905 80.111 201.055 80.0268L217.404 71.0217C217.537 70.9508 217.696 70.9508 217.829 71.0217C217.962 71.097 218.046 71.23 218.055 71.3807C218.064 71.5313 218.95 86.7186 221.255 89.608C221.339 89.7144 221.37 89.8517 221.339 89.9847C221.308 90.1176 221.219 90.2284 221.095 90.2816L208.447 96.1092C208.385 96.1402 208.323 96.1535 208.261 96.1535ZM202.42 89.6612L208.345 95.1874L220.258 89.7011C218.272 86.2532 217.413 75.0766 217.218 72.1296L201.729 80.6649L202.42 89.6612Z" fill="#1C1C2D"/>
<path d="M208.974 80.2348C205.163 82.6235 200.878 83.8023 196.858 82.9426C187.007 80.8287 183.399 71.9299 185.562 61.8258C187.729 51.7216 198.121 42.2158 209.227 45.9915C219.136 49.364 222.185 59.4371 217.292 73.6095" fill="white"/>
<path d="M199.527 83.6562C198.583 83.6562 197.662 83.5631 196.771 83.3725C191.949 82.34 188.333 79.6411 186.312 75.5773C184.42 71.7616 184.012 66.9755 185.138 61.7328C186.441 55.6526 190.553 50.0023 195.871 46.9843C200.201 44.5292 204.872 44.0417 209.37 45.5706C213.513 46.9799 216.505 49.5192 218.264 53.1133C220.786 58.2629 220.595 65.3978 217.71 73.747C217.63 73.9775 217.382 74.1015 217.147 74.0218C216.917 73.942 216.797 73.6894 216.877 73.4634C219.682 65.3402 219.891 58.4401 217.475 53.5033C215.822 50.1264 212.999 47.7377 209.091 46.4082C204.832 44.9591 200.414 45.4244 196.31 47.751C191.205 50.6449 187.256 56.0736 186.002 61.9145C184.921 66.9577 185.302 71.5489 187.105 75.1784C189.002 78.9941 192.406 81.529 196.957 82.5039C200.586 83.2795 204.774 82.34 208.745 79.8538C208.953 79.7253 209.224 79.7873 209.352 79.9912C209.481 80.1995 209.419 80.4698 209.215 80.5983C206.011 82.6103 202.66 83.6562 199.527 83.6562Z" fill="#1C1C2D"/>
<path d="M216.541 64.7773C215.128 64.6665 213.984 65.8852 212.894 66.8425C211.804 67.8041 210.138 68.5664 209.052 67.6003C207.9 66.581 208.476 64.5469 209.477 63.3681C210.483 62.1892 211.861 61.2453 212.318 59.7341C210.257 60.7534 207.691 60.5362 205.812 59.1757C203.933 57.8152 202.812 55.3689 202.972 52.967C196.32 56.016 188.05 54.6244 182.626 49.5413C180.446 47.4983 178.624 44.4937 179.28 41.4935C179.679 39.6721 180.942 38.183 182.351 37.0485C187.168 33.1753 194.29 32.865 199.391 36.3084C201.27 34.9125 203.211 33.5076 205.44 32.9271C207.669 32.3465 210.275 32.7587 211.808 34.5624C213.293 36.3084 213.448 38.8611 213.528 41.2054C217.17 38.9497 222.152 39.836 225.232 42.885C228.312 45.934 229.508 50.7866 228.71 55.1695C227.913 59.5524 225.298 63.4257 221.934 66.1201C219.382 68.1631 215.854 69.5856 213.027 68.0035" fill="#1C1C2D"/>
<path d="M212.219 66.8555C213.225 65.9647 215.507 64.8789 216.832 64.6618C218.157 64.4446 219.628 64.8213 220.497 65.8406C221.383 66.8821 221.423 68.4287 220.931 69.7094C219.363 73.7998 215.485 74.0923 214.147 73.7998" fill="white"/>
<path d="M215.021 74.3231C214.649 74.3231 214.321 74.2877 214.05 74.2301C213.811 74.1769 213.66 73.942 213.714 73.7072C213.767 73.4678 214.002 73.3216 214.237 73.3703C215.176 73.5742 218.987 73.5343 220.516 69.5547C220.999 68.2961 220.857 66.9533 220.157 66.129C219.448 65.2959 218.163 64.8882 216.9 65.1009C215.664 65.3047 213.448 66.3595 212.508 67.1926C212.327 67.3522 212.047 67.3389 211.888 67.1527C211.728 66.971 211.742 66.6919 211.928 66.5323C213 65.5839 215.349 64.4627 216.758 64.2323C218.349 63.9708 219.909 64.4805 220.831 65.5618C221.753 66.6431 221.948 68.2917 221.34 69.8738C220.002 73.357 216.962 74.3231 215.021 74.3231Z" fill="#1C1C2D"/>
<path d="M195.318 70.4988C195.304 70.4988 195.291 70.4988 195.278 70.4988C195.043 70.4767 192.973 70.2772 192.03 69.4219C191.87 69.2801 191.577 69.0098 191.498 68.6198C191.414 68.2076 191.6 67.8398 191.724 67.6005L194.813 61.5026C194.923 61.2854 195.185 61.2012 195.406 61.3076C195.624 61.4184 195.712 61.6843 195.601 61.9014L192.513 67.9994C192.446 68.1323 192.344 68.3317 192.366 68.447C192.388 68.5533 192.544 68.6951 192.628 68.7705C193.239 69.3289 194.804 69.5726 195.358 69.6213C195.601 69.6435 195.779 69.8562 195.757 70.1C195.739 70.326 195.544 70.4988 195.318 70.4988Z" fill="#1C1C2D"/>
<path d="M200.729 64.1433C200.614 64.9277 199.94 65.4773 199.231 65.3709C198.518 65.2645 198.035 64.5466 198.15 63.7622C198.265 62.9778 198.939 62.4283 199.648 62.5347C200.361 62.641 200.844 63.3589 200.729 64.1433Z" fill="#1C1C2D"/>
<path d="M191.385 63.2171C191.27 64.0015 190.596 64.551 189.887 64.4446C189.174 64.3383 188.691 63.6203 188.806 62.8359C188.921 62.0515 189.595 61.502 190.304 61.6084C191.017 61.7147 191.5 62.4327 191.385 63.2171Z" fill="#1C1C2D"/>
<path d="M197.029 76.4678C196.218 76.4678 195.447 76.2285 194.853 75.772C194.658 75.6213 194.622 75.3466 194.773 75.156C194.924 74.9654 195.198 74.9256 195.389 75.0762C196.107 75.6258 197.175 75.7454 198.181 75.3909C199.041 75.0851 199.852 74.4735 200.654 73.5207C200.809 73.3346 201.088 73.308 201.274 73.4676C201.46 73.6227 201.482 73.9018 201.327 74.088C200.419 75.1649 199.488 75.8606 198.478 76.2196C197.999 76.3836 197.507 76.4678 197.029 76.4678Z" fill="#1C1C2D"/>
<path d="M202.272 62.2559C202.152 62.2559 202.037 62.2072 201.949 62.1141C201.071 61.1657 199.604 60.7846 198.377 61.1879C198.146 61.2632 197.898 61.1392 197.823 60.9043C197.747 60.6694 197.872 60.4257 198.106 60.3503C199.671 59.8362 201.479 60.306 202.6 61.5158C202.764 61.6931 202.755 61.9723 202.573 62.1363C202.489 62.2205 202.383 62.2559 202.272 62.2559Z" fill="#1C1C2D"/>
<path d="M193.417 61.143C193.297 61.143 193.182 61.0943 193.093 61.0012C192.216 60.0529 190.749 59.6673 189.521 60.075C189.291 60.1504 189.043 60.0263 188.967 59.7914C188.892 59.5609 189.016 59.3128 189.251 59.2374C190.82 58.7234 192.623 59.1931 193.745 60.4074C193.909 60.5847 193.9 60.8639 193.718 61.0278C193.629 61.1032 193.523 61.143 193.417 61.143Z" fill="#1C1C2D"/>
<path d="M19.7097 32.5105H21.4114V41.3339C21.4114 44.8349 19.6919 45.9118 17.4185 45.9118C16.7937 45.9118 16.0314 45.7744 15.6016 45.5971L15.8542 44.21C16.2087 44.3474 16.7139 44.4626 17.2811 44.4626C18.8056 44.4626 19.7052 43.7802 19.7052 41.1965V32.5105H19.7097Z" fill="#6254E7"/>
<path d="M24.0163 43.6207C24.7786 44.0905 25.8953 44.4805 27.0697 44.4805C28.8113 44.4805 29.8262 43.5631 29.8262 42.2292C29.8262 40.9972 29.1216 40.2926 27.34 39.6101C25.1863 38.8479 23.8568 37.7311 23.8568 35.8742C23.8568 33.8179 25.5585 32.2935 28.12 32.2935C29.4717 32.2935 30.4466 32.6081 31.036 32.9405L30.5663 34.3276C30.1364 34.0927 29.2545 33.7027 28.0624 33.7027C26.2632 33.7027 25.5763 34.7796 25.5763 35.6792C25.5763 36.9112 26.3784 37.5184 28.1998 38.223C30.4289 39.0827 31.5634 40.1596 31.5634 42.0963C31.5634 44.1304 30.0566 45.8897 26.9456 45.8897C25.6738 45.8897 24.2867 45.5175 23.582 45.0477L24.0163 43.6207Z" fill="#6254E7"/>
<path d="M301.963 80.8555H241.617C236.995 80.8555 233.893 76.9335 234.872 72.3246L241.706 40.0888C242.588 35.9231 246.51 32.6924 250.689 32.6924H311.034C315.656 32.6924 318.758 36.6144 317.779 41.2233L310.946 73.4591C310.064 77.6248 306.142 80.8555 301.963 80.8555Z" fill="#6254E7"/>
<path d="M249.727 42.3266C249.599 42.3266 249.47 42.269 249.386 42.1627C249.235 41.9721 249.262 41.6973 249.453 41.5422L253.352 38.4046C253.539 38.2495 253.818 38.2805 253.973 38.4711C254.124 38.6617 254.097 38.9364 253.906 39.0915L250.007 42.2291C249.922 42.2956 249.825 42.3266 249.727 42.3266Z" fill="white"/>
<path d="M252.866 42.3264C252.733 42.3264 252.6 42.2644 252.516 42.1536L250.141 39.016C249.994 38.821 250.03 38.5462 250.225 38.4C250.42 38.2537 250.695 38.2936 250.841 38.4842L253.216 41.6218C253.362 41.8168 253.327 42.0915 253.132 42.2378C253.052 42.2998 252.959 42.3264 252.866 42.3264Z" fill="white"/>
<path d="M257.859 42.3269H255.04C254.797 42.3269 254.602 42.1275 254.602 41.8882C254.602 41.6445 254.801 41.4495 255.04 41.4495H257.859C258.103 41.4495 258.298 41.6489 258.298 41.8882C258.298 42.1319 258.103 42.3269 257.859 42.3269Z" fill="white"/>
<path d="M308.221 50.9771H302.743C302.5 50.9771 302.305 50.7776 302.305 50.5383C302.305 50.2946 302.504 50.0996 302.743 50.0996H308.221C308.465 50.0996 308.66 50.299 308.66 50.5383C308.66 50.7821 308.465 50.9771 308.221 50.9771Z" fill="white"/>
<path d="M296.839 50.9771H283.708C283.465 50.9771 283.27 50.7776 283.27 50.5383C283.27 50.2946 283.469 50.0996 283.708 50.0996H296.844C297.087 50.0996 297.282 50.299 297.282 50.5383C297.282 50.7821 297.083 50.9771 296.839 50.9771Z" fill="#1C1C2D"/>
<path d="M269.416 50.9771H248.29C248.047 50.9771 247.852 50.7776 247.852 50.5383C247.852 50.2946 248.051 50.0996 248.29 50.0996H269.416C269.66 50.0996 269.855 50.299 269.855 50.5383C269.855 50.7821 269.66 50.9771 269.416 50.9771Z" fill="white"/>
<path d="M307.027 56.3128H295.411C295.168 56.3128 294.973 56.1133 294.973 55.874C294.973 55.6347 295.172 55.4353 295.411 55.4353H307.031C307.275 55.4353 307.47 55.6347 307.47 55.874C307.47 56.1133 307.27 56.3128 307.027 56.3128Z" fill="white"/>
<path d="M287.106 56.3128H279.599C279.355 56.3128 279.16 56.1133 279.16 55.874C279.16 55.6347 279.36 55.4353 279.599 55.4353H287.106C287.35 55.4353 287.545 55.6347 287.545 55.874C287.545 56.1133 287.35 56.3128 287.106 56.3128Z" fill="white"/>
<path d="M271.492 56.3128H259.212C258.968 56.3128 258.773 56.1133 258.773 55.874C258.773 55.6347 258.973 55.4353 259.212 55.4353H271.492C271.736 55.4353 271.931 55.6347 271.931 55.874C271.931 56.1133 271.736 56.3128 271.492 56.3128Z" fill="#1C1C2D"/>
<path d="M253.153 56.3128H247.095C246.851 56.3128 246.656 56.1133 246.656 55.874C246.656 55.6347 246.856 55.4353 247.095 55.4353H253.153C253.397 55.4353 253.592 55.6347 253.592 55.874C253.592 56.1133 253.397 56.3128 253.153 56.3128Z" fill="white"/>
<path d="M301.496 61.6485H281.767C281.523 61.6485 281.328 61.449 281.328 61.2097C281.328 60.966 281.528 60.771 281.767 60.771H301.496C301.74 60.771 301.935 60.9704 301.935 61.2097C301.94 61.4535 301.74 61.6485 301.496 61.6485Z" fill="white"/>
<path d="M274.911 61.6485H264.536C264.293 61.6485 264.098 61.449 264.098 61.2097C264.098 60.966 264.297 60.771 264.536 60.771H274.911C275.155 60.771 275.35 60.9704 275.35 61.2097C275.35 61.4535 275.155 61.6485 274.911 61.6485Z" fill="white"/>
<path d="M260.079 61.6485H245.911C245.668 61.6485 245.473 61.449 245.473 61.2097C245.473 60.966 245.672 60.771 245.911 60.771H260.079C260.323 60.771 260.518 60.9704 260.518 61.2097C260.518 61.4535 260.323 61.6485 260.079 61.6485Z" fill="white"/>
<path d="M304.651 66.9842H298.411C298.168 66.9842 297.973 66.7847 297.973 66.5454C297.973 66.3061 298.172 66.1067 298.411 66.1067H304.651C304.895 66.1067 305.09 66.3061 305.09 66.5454C305.09 66.7847 304.895 66.9842 304.651 66.9842Z" fill="#1C1C2D"/>
<path d="M294.09 66.9842H292.615C292.371 66.9842 292.176 66.7847 292.176 66.5454C292.176 66.3061 292.375 66.1067 292.615 66.1067H294.09C294.334 66.1067 294.529 66.3061 294.529 66.5454C294.529 66.7847 294.334 66.9842 294.09 66.9842Z" fill="white"/>
<path d="M288.3 66.9842H270.853C270.609 66.9842 270.414 66.7847 270.414 66.5454C270.414 66.3061 270.613 66.1067 270.853 66.1067H288.3C288.544 66.1067 288.739 66.3061 288.739 66.5454C288.739 66.7847 288.544 66.9842 288.3 66.9842Z" fill="white"/>
<path d="M266.093 66.9842H244.724C244.48 66.9842 244.285 66.7847 244.285 66.5454C244.285 66.3061 244.485 66.1067 244.724 66.1067H266.093C266.337 66.1067 266.532 66.3061 266.532 66.5454C266.532 66.7847 266.337 66.9842 266.093 66.9842Z" fill="white"/>
<path d="M303.46 72.3198H298.935C298.691 72.3198 298.496 72.1204 298.496 71.8811C298.496 71.6374 298.696 71.4424 298.935 71.4424H303.46C303.703 71.4424 303.898 71.6418 303.898 71.8811C303.903 72.1204 303.703 72.3198 303.46 72.3198Z" fill="white"/>
<path d="M293.338 72.3198H280.712C280.468 72.3198 280.273 72.1204 280.273 71.8811C280.273 71.6374 280.473 71.4424 280.712 71.4424H293.338C293.582 71.4424 293.777 71.6418 293.777 71.8811C293.777 72.1204 293.577 72.3198 293.338 72.3198Z" fill="white"/>
<path d="M273.72 72.3198H256.353C256.109 72.3198 255.914 72.1204 255.914 71.8811C255.914 71.6374 256.114 71.4424 256.353 71.4424H273.72C273.964 71.4424 274.159 71.6418 274.159 71.8811C274.163 72.1204 273.964 72.3198 273.72 72.3198Z" fill="#1C1C2D"/>
<path d="M249.28 72.3198H243.533C243.289 72.3198 243.094 72.1204 243.094 71.8811C243.094 71.6374 243.293 71.4424 243.533 71.4424H249.28C249.524 71.4424 249.719 71.6418 249.719 71.8811C249.723 72.1204 249.524 72.3198 249.28 72.3198Z" fill="white"/>
</svg>
