<svg width="333" height="302" viewBox="0 0 333 302" fill="none" xmlns="http://www.w3.org/2000/svg">
<path d="M287.708 197.227L283.714 198.575C282.426 195.732 280.004 193.47 276.964 192.429L277.938 188.325L271.862 187.651L271.909 191.865C268.716 192.219 265.86 193.894 263.978 196.383L260.378 194.191L257.855 199.763L261.882 201.021C261.812 201.365 261.755 201.715 261.715 202.072C261.391 204.975 262.175 207.744 263.727 209.96L260.527 212.706L265.048 216.823L267.484 213.386C268.812 214.143 270.307 214.644 271.918 214.824C273.53 215.001 275.101 214.841 276.563 214.397L278.185 218.281L283.497 215.258L280.981 211.875C282.983 210.053 284.351 207.524 284.675 204.621C284.715 204.264 284.735 203.91 284.742 203.557L288.943 203.217L287.708 197.227ZM279.273 204.02C278.899 207.37 275.87 209.792 272.52 209.422C269.167 209.048 266.748 206.019 267.118 202.672C267.492 199.319 270.518 196.896 273.868 197.267C277.221 197.641 279.644 200.67 279.273 204.02Z" fill="#EEEFF0"/>
<path d="M240.96 300.586C241.447 299.078 241.711 297.47 241.711 295.801C241.711 294.6 241.574 293.429 241.314 292.304C239.866 285.971 234.557 281.113 227.998 280.332C226.443 270.836 218.202 263.596 208.265 263.596C201.525 263.596 195.563 266.929 191.939 272.041C188.669 269.712 184.669 268.341 180.348 268.341C175.74 268.341 171.496 269.899 168.113 272.518L151.417 275.684C144.901 278.377 140.316 284.796 140.316 292.284C140.316 295.28 141.05 298.103 142.348 300.585H240.96V300.586Z" fill="#EFEFF0"/>
<path d="M145.129 246.366L166.947 206.848C170.501 183.348 174.054 159.845 177.607 136.342L146.787 140.411C146.787 140.411 144.726 151.987 145.994 171.491C147.263 190.995 139.888 215.097 139.888 215.097L138.823 216.944C138.823 216.944 135.143 226.904 133.301 231.882C129.774 241.411 126.251 250.937 122.727 260.467C122.83 261.294 123.278 264.031 125.623 266.299C128.386 268.972 131.766 269.042 132.476 269.042C136.66 261.488 140.847 253.937 145.031 246.386L145.148 246.453C145.143 246.423 145.136 246.396 145.129 246.366Z" fill="black"/>
<path d="M119.418 126.356C119.418 126.363 119.421 126.366 119.421 126.373C119.574 127.087 119.728 127.798 119.878 128.512C119.881 128.525 119.885 128.539 119.888 128.552C126.154 157.801 132.42 187.05 138.687 216.302L145.15 246.454C146.932 254.782 148.717 263.114 150.505 271.445C150.805 272.856 151.109 274.271 151.413 275.686L162.626 279.223L168.183 276.66C168.16 275.279 168.133 273.901 168.11 272.519C167.926 262.162 167.743 251.802 167.559 241.445C167.355 229.915 167.152 218.38 166.948 206.849L163.945 180.61L157.823 137.794L119.418 126.356Z" fill="black"/>
<path d="M139.791 140.827C143.188 142.245 152.22 145.475 163.294 142.962C169.834 141.477 174.655 138.538 177.611 136.342C177.955 136.085 178.275 135.838 178.569 135.605C178.706 134.551 178.846 133.496 178.986 132.442C179.066 131.845 179.143 131.244 179.223 130.644C179.223 130.644 165.78 142.751 136.471 135.749C135.995 139.197 139.791 140.827 139.791 140.827Z" fill="#FF824D" stroke="#1C1C2D" stroke-miterlimit="10" stroke-linecap="round" stroke-linejoin="round"/>
<path d="M131.238 165.384L133.694 184.496C133.694 184.496 170.107 181.035 169.953 179.838C169.799 178.641 167.18 160.579 167.18 160.579L131.238 165.384Z" fill="white" stroke="#1C1C2D" stroke-miterlimit="10" stroke-linecap="round" stroke-linejoin="round"/>
<path d="M131.238 165.384L140.926 173.156L160.11 170.143L167.18 160.579L131.238 165.384Z" fill="#FF824D" stroke="#1C1C2D" stroke-miterlimit="10" stroke-linecap="round" stroke-linejoin="round"/>
<path d="M137.762 153.115C137.762 153.115 138.224 158.864 141.849 160.957C143.417 162.525 143.608 162.335 143.608 162.335C143.608 162.335 141.992 167.658 144.511 168.276C146.602 167.991 147.458 168.276 147.458 168.276C147.458 168.276 149.312 169.512 149.929 168.894C150.547 168.276 152.638 161.289 151.307 157.772C149.976 154.255 143.56 148.837 143.56 148.837L137.762 153.115Z" fill="white" stroke="#1C1C2D" stroke-miterlimit="10" stroke-linecap="round" stroke-linejoin="round"/>
<path d="M277.638 126.342L260.417 120.603L229.113 142.348L205.94 158.444L182.602 174.657L252.813 210.228L331.691 144.377L331.704 144.367L305.969 135.788L277.638 126.342Z" fill="white" stroke="#1C1C2D" stroke-miterlimit="10" stroke-linecap="round" stroke-linejoin="round"/>
<path d="M252.812 210.229L331.703 144.394C331.703 144.394 331.703 147.45 331.703 148.081L252.812 213.943V210.229Z" fill="white" stroke="#1C1C2D" stroke-miterlimit="10" stroke-linecap="round" stroke-linejoin="round"/>
<path d="M252.813 210.227L182.602 174.61V174.657V178.374V178.414V178.374L252.813 213.941V210.227Z" fill="white" stroke="#1C1C2D" stroke-miterlimit="10" stroke-linecap="round" stroke-linejoin="round"/>
<path d="M136.468 135.748C143.505 138.514 152.23 140.322 161.896 138.781C169.1 137.633 174.859 134.941 178.983 132.441C178.983 132.441 192.17 90.5552 189.063 78.2982C181.936 71.1713 172.43 66.1663 161.155 68.6683C149.88 71.1703 146.138 73.2242 146.138 73.2242C146.138 73.2242 126.332 100.607 126.332 112.976C126.332 125.345 136.468 135.748 136.468 135.748Z" fill="#FF824D" stroke="#1C1C2D" stroke-miterlimit="10" stroke-linecap="round" stroke-linejoin="round"/>
<path d="M92.8343 257.037C92.8343 257.037 90.1783 245.606 102.517 243.647C102.647 251.218 99.6043 256.062 92.8343 257.037Z" fill="white" stroke="#1C1C2D" stroke-miterlimit="10" stroke-linecap="round" stroke-linejoin="round"/>
<path d="M87.7196 266.239C96.8686 269.072 104.129 276.199 107.142 285.264C112.22 287.83 115.7 293.095 115.7 299.174C115.7 299.651 115.68 300.122 115.637 300.585H0C0 292.45 6.23298 285.77 14.1839 285.066V285.003C14.1839 268.573 27.5039 255.254 43.9368 255.254C53.6468 255.254 62.2677 259.905 67.6937 267.099C70.5837 265.921 73.7027 265.184 76.9657 264.974C77.6067 264.931 78.2537 264.911 78.9077 264.911C81.9767 264.911 84.9367 265.375 87.7196 266.239Z" fill="#EFEFF0"/>
<path d="M252.02 280.243C252.227 278.648 252.931 274.988 255.86 271.781C261.188 265.959 269.105 266.843 269.96 266.95C269.84 267.734 268.485 275.679 261.345 279.095C257.349 281.004 253.565 280.53 252.02 280.243Z" fill="white" stroke="#1C1C2D" stroke-miterlimit="10" stroke-linecap="round" stroke-linejoin="round"/>
<path d="M168.189 53.0644L171.882 64.3623L162.85 71.9733L153.469 70.3093C153.289 70.1293 150.813 67.5733 151.54 64.1863C152.144 61.3803 154.686 59.2143 157.805 58.9643C157.678 58.3474 157.342 56.3114 158.459 54.1964C159.984 51.3104 162.973 50.6364 163.401 50.5464L168.189 53.0644Z" fill="black"/>
<path d="M262.605 54.7222V55.6802C262.605 56.2212 262.168 56.6582 261.627 56.6582H227.68C227.139 56.6582 226.699 56.2212 226.699 55.6802V54.7222C226.699 54.1812 227.139 53.7412 227.68 53.7412H261.627C262.168 53.7412 262.605 54.1812 262.605 54.7222Z" fill="white" stroke="#1C1C2D" stroke-miterlimit="10" stroke-linecap="round" stroke-linejoin="round"/>
<path d="M252.204 47.8884V48.8464C252.204 49.3874 251.764 49.8274 251.223 49.8274H227.68C227.139 49.8274 226.699 49.3874 226.699 48.8464V47.8884C226.699 47.3474 227.139 46.9104 227.68 46.9104H251.223C251.763 46.9114 252.204 47.3484 252.204 47.8884Z" fill="white" stroke="#1C1C2D" stroke-miterlimit="10" stroke-linecap="round" stroke-linejoin="round"/>
<path d="M75.575 107.601V116.089H70.834L70.831 107.601C70.764 105.449 68.9021 103.844 66.9571 104.014C65.2291 104.174 63.7811 105.702 63.7371 107.601V116.089H58.9961V98.4821H63.7371V99.36C64.9481 98.739 66.3031 98.422 67.6981 98.489C70.05 98.602 71.632 99.754 72.136 100.131C75.515 102.672 75.575 107.033 75.575 107.601Z" fill="#FFC929" stroke="black" stroke-miterlimit="10" stroke-linecap="round" stroke-linejoin="round"/>
<path d="M55.8622 98.4822H51.1172V116.089H55.8622V98.4822Z" fill="#FFC929" stroke="black" stroke-miterlimit="10" stroke-linecap="round" stroke-linejoin="round"/>
<path d="M53.4892 96.68C54.7992 96.68 55.8612 95.618 55.8612 94.308C55.8612 92.998 54.7992 91.936 53.4892 91.936C52.1792 91.936 51.1172 92.998 51.1172 94.308C51.1172 95.618 52.1792 96.68 53.4892 96.68Z" fill="#FFC929" stroke="black" stroke-miterlimit="10" stroke-linecap="round" stroke-linejoin="round"/>
<path d="M171.822 37.1713C169.821 38.7333 168.166 40.7753 166.915 43.0473C165.337 41.6963 165.117 39.3203 166.378 37.7323C167.683 36.0903 170.155 35.8133 171.822 37.1713Z" fill="black" stroke="black" stroke-miterlimit="10" stroke-linecap="round" stroke-linejoin="round"/>
<path d="M170.887 223.625V223.622" stroke="#221F1F" stroke-miterlimit="10" stroke-linecap="round" stroke-linejoin="round"/>
<path d="M261.605 273.48C258.849 275.038 255.499 277.224 252.019 280.243C251.388 280.787 250.754 281.361 250.117 281.965C247.508 284.434 245.646 286.696 244.735 287.801C243.424 289.393 242.286 290.911 241.312 292.305" stroke="black" stroke-miterlimit="10" stroke-linecap="round" stroke-linejoin="round"/>
<path d="M245.801 286.496C244.416 285.905 241.887 284.571 240.192 281.818C237.566 277.557 238.043 271.685 241.343 266.823C241.96 267.183 247.636 270.63 248.287 277.38C248.737 282.068 246.492 285.515 245.801 286.496Z" fill="white" stroke="#1C1C2D" stroke-miterlimit="10" stroke-linecap="round" stroke-linejoin="round"/>
<path d="M244.695 287.911C245.883 288.919 248.202 290.577 251.502 291.138C258.489 292.326 263.734 287.551 264.428 286.897C263.394 286.23 257.248 282.406 250.304 284.621C247.741 285.438 245.883 286.823 244.695 287.911Z" fill="white" stroke="#1C1C2D" stroke-miterlimit="10" stroke-linecap="round" stroke-linejoin="round"/>
<path d="M245.805 286.496C246.005 285.151 246.169 282.769 245.288 280.04C244.767 278.442 244.043 277.197 243.43 276.32" stroke="black" stroke-miterlimit="10" stroke-linecap="round" stroke-linejoin="round"/>
<path d="M244.695 287.911C245.849 287.437 247.785 286.81 250.247 286.797C252.379 286.787 254.097 287.244 255.209 287.635" stroke="black" stroke-miterlimit="10" stroke-linecap="round" stroke-linejoin="round"/>
<path d="M99.5107 247.431C99.5107 247.431 96.0507 252.099 92.8307 257.037C91.7227 258.735 90.6457 260.464 89.7477 262.045C89.3277 262.786 88.9437 263.493 88.6197 264.15C88.2327 264.927 87.9227 265.635 87.7188 266.239" fill="white"/>
<path d="M99.5107 247.431C99.5107 247.431 96.0507 252.099 92.8307 257.037C91.7227 258.735 90.6457 260.464 89.7477 262.045C89.3277 262.786 88.9437 263.493 88.6197 264.15C88.2327 264.927 87.9227 265.635 87.7188 266.239" stroke="#1C1C2D" stroke-miterlimit="10" stroke-linecap="round" stroke-linejoin="round"/>
<path d="M81.3604 123.86H45.3246C41.8646 123.86 39.0586 121.054 39.0586 117.59V90.4342C39.0586 86.9742 41.8646 84.1682 45.3246 84.1682H81.3594C84.8224 84.1682 87.6294 86.9742 87.6294 90.4342V117.591C87.6294 121.054 84.8234 123.86 81.3604 123.86Z" fill="white" stroke="#1C1C2D" stroke-miterlimit="10" stroke-linecap="round" stroke-linejoin="round"/>
<path d="M89.6987 18.3164H122.555C124.757 18.3164 126.559 20.1184 126.559 22.3204V52.9603C126.999 54.0613 128.855 58.3352 133.608 60.6182C137.098 62.2932 140.832 61.2892 140.922 61.9262C141.009 62.5372 137.716 63.6282 134.382 64.3222C129.428 65.3532 125.261 65.3232 122.555 65.1462C101.664 65.1462 80.7767 65.1462 59.8868 65.1462C57.6848 65.1462 55.8828 63.3442 55.8828 61.1422V22.3204C55.8828 20.1184 57.6848 18.3164 59.8868 18.3164H82.8997H89.6987Z" fill="white" stroke="#1C1C2D" stroke-miterlimit="10" stroke-linecap="round" stroke-linejoin="round"/>
<path d="M281.754 61.8392H220.043C217.841 61.8392 216.039 60.0372 216.039 57.8352V45.7332C216.039 43.5312 217.841 41.7292 220.043 41.7292H281.754C283.956 41.7292 285.758 43.5312 285.758 45.7332V57.8352C285.758 60.0372 283.956 61.8392 281.754 61.8392Z" fill="white" stroke="#1C1C2D" stroke-miterlimit="10" stroke-linecap="round" stroke-linejoin="round"/>
<path d="M259.932 75.5891L264.523 84.8921L274.789 86.3831L267.362 93.627L269.114 103.85L259.932 99.022L250.749 103.85L252.504 93.627L245.074 86.3831L255.34 84.8921L259.932 75.5891Z" fill="#FF824D" stroke="#1C1C2D" stroke-miterlimit="10" stroke-linecap="round" stroke-linejoin="round"/>
<path d="M65.7386 242.536C65.9126 240.534 66.0756 235.352 62.8656 230.351C57.0137 221.225 45.4887 221.365 44.7617 221.385C44.8317 222.8 45.4657 232.373 53.5337 238.358C58.2917 241.888 63.2936 242.435 65.5626 242.529C65.6216 242.533 65.6816 242.533 65.7386 242.536Z" fill="white" stroke="#1C1C2D" stroke-miterlimit="10" stroke-linecap="round" stroke-linejoin="round"/>
<path d="M69.7207 248.109C69.7207 248.109 66.5877 233.485 82.0827 223.735C82.9936 236.768 79.6767 246.624 74.0747 248.283C73.0197 248.593 71.5987 248.7 69.7207 248.109Z" fill="white" stroke="#1C1C2D" stroke-miterlimit="10" stroke-linecap="round" stroke-linejoin="round"/>
<path d="M70.4113 249.886C68.9933 250.844 61.0224 256.025 51.1824 253.59C45.8934 252.282 42.3704 249.342 40.6484 247.671C42.2364 245.936 44.9664 243.53 48.9334 242.392C56.1644 240.314 64.4523 243.31 70.4113 249.886Z" fill="white" stroke="#1C1C2D" stroke-miterlimit="10" stroke-linecap="round" stroke-linejoin="round"/>
<path d="M53.8828 227.825C53.8828 227.825 59.7218 234.288 65.5608 242.529C67.2228 244.875 68.8837 247.36 70.4117 249.886C73.5547 255.078 76.1307 260.42 76.9677 264.974" stroke="black" stroke-miterlimit="10" stroke-linecap="round" stroke-linejoin="round"/>
<path d="M88.62 264.15C88.62 264.15 79.7951 261.207 80.3151 250.827C85.2771 252.656 89.024 254.755 88.62 264.15Z" fill="white" stroke="#1C1C2D" stroke-miterlimit="10" stroke-linecap="round" stroke-linejoin="round"/>
<path d="M89.75 262.045C89.75 262.045 99.186 255.202 105.582 262.512C100.361 267.604 91.348 265.885 89.75 262.045Z" fill="white" stroke="#1C1C2D" stroke-miterlimit="10" stroke-linecap="round" stroke-linejoin="round"/>
<path d="M251.607 49.7132H226.686C226.114 49.7132 225.648 49.2472 225.648 48.6752V47.6612C225.648 47.0892 226.114 46.6262 226.686 46.6262H251.607C252.179 46.6262 252.645 47.0892 252.645 47.6612V48.6752C252.646 49.2462 252.18 49.7132 251.607 49.7132Z" fill="#6254E7" stroke="#1C1C2D" stroke-miterlimit="10" stroke-linecap="round" stroke-linejoin="round"/>
<path d="M262.623 56.9422H226.69C226.118 56.9422 225.652 56.4792 225.652 55.9072V54.8932C225.652 54.3212 226.118 53.8552 226.69 53.8552H262.623C263.195 53.8552 263.658 54.3212 263.658 54.8932V55.9072C263.658 56.4802 263.195 56.9422 262.623 56.9422Z" fill="#6254E7" stroke="#1C1C2D" stroke-miterlimit="10" stroke-linecap="round" stroke-linejoin="round"/>
<path d="M115.642 52.5202H98.0517C97.5677 52.5202 97.1797 52.1272 97.1797 51.6432V50.8042C97.1797 50.3202 97.5687 49.9272 98.0517 49.9272H115.642C116.122 49.9272 116.514 50.3202 116.514 50.8042V51.6432C116.514 52.1272 116.121 52.5202 115.642 52.5202Z" fill="white" stroke="#1C1C2D" stroke-miterlimit="10" stroke-linecap="round" stroke-linejoin="round"/>
<path d="M66.6797 51.9582V56.5272C66.6797 57.6492 67.5887 58.5582 68.7107 58.5582H83.6596C84.7816 58.5582 85.6906 57.6492 85.6906 56.5272V51.9582C85.6906 50.8362 84.7816 49.9272 83.6596 49.9272H68.7097C67.5887 49.9272 66.6797 50.8362 66.6797 51.9582Z" fill="#6254E7" stroke="#1C1C2D" stroke-miterlimit="10" stroke-linecap="round" stroke-linejoin="round"/>
<path d="M117.095 58.5323H98.1962C97.7162 58.5323 97.3242 58.1393 97.3242 57.6603V56.8163C97.3242 56.3323 97.7172 55.9443 98.1962 55.9443H117.095C117.579 55.9443 117.967 56.3333 117.967 56.8163V57.6603C117.968 58.1393 117.579 58.5323 117.095 58.5323Z" fill="white" stroke="#1C1C2D" stroke-miterlimit="10" stroke-linecap="round" stroke-linejoin="round"/>
<path d="M101.943 46.0203H98.0517C97.5677 46.0203 97.1797 45.6273 97.1797 45.1483V43.4404C97.1797 42.9604 97.5687 42.5684 98.0517 42.5684H101.943C102.423 42.5684 102.815 42.9614 102.815 43.4404V45.1483C102.815 45.6273 102.422 46.0203 101.943 46.0203Z" fill="white" stroke="#1C1C2D" stroke-miterlimit="10" stroke-linecap="round" stroke-linejoin="round"/>
<path d="M62.5643 23.3284C62.4843 24.3894 61.5603 25.1833 60.4993 25.1033C59.4383 25.0233 58.6443 24.0994 58.7243 23.0384C58.8043 21.9774 59.7323 21.1834 60.7893 21.2634C61.8503 21.3424 62.6453 22.2704 62.5643 23.3284Z" fill="black" stroke="black" stroke-miterlimit="10" stroke-linecap="round" stroke-linejoin="round"/>
<path d="M54.4042 116.089H52.5742C51.7692 116.089 51.1172 115.436 51.1172 114.632V99.9392C51.1172 99.1342 51.7702 98.4822 52.5742 98.4822H54.4042C55.2092 98.4822 55.8612 99.1352 55.8612 99.9392V114.632C55.8612 115.436 55.2092 116.089 54.4042 116.089Z" fill="#6254E7" stroke="#1C1C2D" stroke-miterlimit="10" stroke-linecap="round" stroke-linejoin="round"/>
<path d="M53.4892 96.096C54.7992 96.096 55.8612 95.0341 55.8612 93.724C55.8612 92.414 54.7992 91.3521 53.4892 91.3521C52.1792 91.3521 51.1172 92.414 51.1172 93.724C51.1172 95.0341 52.1792 96.096 53.4892 96.096Z" fill="#6254E7" stroke="#1C1C2D" stroke-miterlimit="10" stroke-linecap="round" stroke-linejoin="round"/>
<path d="M75.575 107.601V116.089H70.834L70.831 107.601C70.764 105.449 68.9021 103.844 66.9571 104.014C65.2291 104.174 63.7811 105.702 63.7371 107.601V116.089H58.9961V98.4821H63.7371V99.36C64.9481 98.739 66.3031 98.422 67.6981 98.489C70.05 98.602 71.632 99.754 72.136 100.131C75.515 102.672 75.575 107.033 75.575 107.601Z" fill="#6254E7" stroke="#1C1C2D" stroke-miterlimit="10" stroke-linecap="round" stroke-linejoin="round"/>
<path d="M171.711 300.586C177.95 301.187 183.81 301.086 189.145 300.586" stroke="#221F1F" stroke-miterlimit="10" stroke-linecap="round" stroke-linejoin="round"/>
<path d="M168.19 78.6091C167.616 79.6631 166.558 81.2851 164.727 82.7261C163.522 83.6771 162.351 84.2581 161.444 84.6211C160.33 83.7331 158.244 81.8281 156.893 78.6781C155.161 74.6341 155.702 70.9971 155.979 69.6061V69.6031L162.986 68.3381C162.249 72.6461 164.631 76.7401 168.295 78.3711L168.19 78.6091Z" fill="white" stroke="#1C1C2D" stroke-miterlimit="10" stroke-linecap="round" stroke-linejoin="round"/>
<path d="M180.916 70.5911L183.482 72.6101C183.646 73.8911 183.799 76.5141 182.614 79.4631C181.066 83.3201 178.196 85.3221 177.132 85.9931C176.004 85.3821 174.413 84.3481 172.888 82.6631C171.683 81.3321 170.906 80.0201 170.406 79.0061C175.457 79.8301 180.462 75.9991 180.916 70.5911Z" fill="white"/>
<path d="M180.916 70.5911L183.482 72.6101C183.646 73.8911 183.799 76.5141 182.614 79.4631C181.066 83.3201 178.196 85.3221 177.132 85.9931C176.004 85.3821 174.413 84.3481 172.888 82.6631C171.683 81.3321 170.906 80.0201 170.406 79.0061C175.457 79.8301 180.462 75.9991 180.916 70.5911ZM180.916 70.5911V70.5881" stroke="#1C1C2D" stroke-miterlimit="10" stroke-linecap="round" stroke-linejoin="round"/>
<path d="M268.137 230.019L264.143 231.367C262.855 228.524 260.433 226.262 257.393 225.221L258.367 221.117L252.291 220.443L252.338 224.657C249.145 225.011 246.289 226.686 244.407 229.175L240.807 226.983L238.285 232.555L242.312 233.813C242.242 234.157 242.185 234.507 242.145 234.864C241.821 237.767 242.605 240.536 244.157 242.752L240.957 245.498L245.478 249.615L247.914 246.178C249.242 246.935 250.737 247.436 252.348 247.616C253.96 247.793 255.531 247.633 256.993 247.189L258.615 251.073L263.927 248.05L261.411 244.667C263.413 242.845 264.781 240.316 265.105 237.413C265.145 237.056 265.165 236.702 265.172 236.349L269.373 236.009L268.137 230.019ZM259.702 236.812C259.328 240.162 256.299 242.584 252.949 242.214C249.596 241.84 247.177 238.811 247.547 235.464C247.921 232.111 250.947 229.688 254.297 230.059C257.65 230.433 260.072 233.462 259.702 236.812Z" fill="#EEEFF0"/>
<path d="M84.1289 256.289C84.7359 257.106 85.3499 258.004 85.9569 258.985C87.0809 260.813 87.9489 262.562 88.6229 264.15" stroke="black" stroke-miterlimit="10" stroke-linecap="round" stroke-linejoin="round"/>
<path d="M89.75 262.045C91.018 261.778 92.643 261.561 94.528 261.598C96.036 261.628 97.357 261.818 98.445 262.045" stroke="black" stroke-miterlimit="10" stroke-linecap="round" stroke-linejoin="round"/>
<path d="M70.4115 249.887C68.2196 249.186 65.4296 248.506 62.1506 248.195C58.1536 247.815 54.7196 248.112 52.1406 248.532" stroke="black" stroke-miterlimit="10" stroke-linecap="round" stroke-linejoin="round"/>
<path d="M69.7188 248.108C70.2457 245.95 71.1837 243.147 72.9417 240.188C73.8927 238.58 74.9007 237.235 75.8447 236.134" stroke="black" stroke-miterlimit="10" stroke-linecap="round" stroke-linejoin="round"/>
<path d="M308.741 136.177L306.45 152.583L303.582 153.142L278.348 147.819L280.41 126.731L281.831 112.187L309.147 112.589L311.773 114.037L308.741 136.177Z" fill="white" stroke="#1C1C2D" stroke-miterlimit="10" stroke-linecap="round" stroke-linejoin="round"/>
<path d="M305.967 135.788L303.601 153.062L275.574 147.43L277.636 126.342L279.057 111.798L309.143 112.589L305.967 135.788Z" fill="white" stroke="#1C1C2D" stroke-miterlimit="10" stroke-linecap="round" stroke-linejoin="round"/>
<path d="M299.856 124.778C297.547 122.125 293.039 120.107 291.288 124.518C290.187 127.287 290.984 130.167 291.715 133.016C292.549 136.283 293.297 139.516 291.011 142.515C289.052 145.081 285.709 145.658 283.147 143.663C281.672 142.515 280.648 140.877 279.754 139.262" stroke="black" stroke-miterlimit="10" stroke-linecap="round" stroke-linejoin="round"/>
<path d="M286.674 130.383C285.046 125.852 286.237 120.643 290.421 117.961C292.47 116.646 295.089 115.976 297.461 116.716C298.929 117.176 300.13 118.047 300.968 119.178C302.423 121.137 302.293 123.302 302.246 124.18C302.086 127.08 300.444 130.713 296.857 132.341C294.955 133.205 293.117 133.225 291.715 133.015C290.46 132.828 289.563 132.458 289.286 132.341" stroke="black" stroke-miterlimit="10" stroke-linecap="round" stroke-linejoin="round"/>
<path d="M6.15625 182.798V187.342L57.853 208.023V203.478L6.15625 182.798Z" fill="white" stroke="#1C1C2D" stroke-miterlimit="10" stroke-linecap="round" stroke-linejoin="round"/>
<path d="M57.8516 203.478V208.023L109.549 187.342V182.798L57.8516 203.478Z" fill="white" stroke="#1C1C2D" stroke-miterlimit="10" stroke-linecap="round" stroke-linejoin="round"/>
<path d="M44.7271 167.369L50.5791 165.031L57.315 162.676L74.022 168.587L109.551 182.798L57.853 203.478L6.15625 182.798L17.4072 178.297L44.7271 167.369Z" fill="white" stroke="#1C1C2D" stroke-miterlimit="10" stroke-linecap="round" stroke-linejoin="round"/>
<path d="M44.7247 167.369L45.6457 174.89C45.9357 177.246 44.3607 179.478 42.0957 179.888L23.0667 183.335C20.3878 183.819 17.9018 182.097 17.5578 179.478L17.4048 178.297L14.9028 159.108C14.5558 156.455 16.5348 154.143 19.2738 153.95L38.7127 152.585C41.0287 152.421 43.1107 154.223 43.4037 156.602L44.7247 167.369Z" fill="#6254E7" stroke="#1C1C2D" stroke-miterlimit="10" stroke-linecap="round" stroke-linejoin="round"/>
<path d="M23.9574 158.641L34.8743 157.87C36.8963 157.73 38.6783 159.195 38.9253 161.207L40.1863 171.497C40.4333 173.502 39.0723 175.351 37.0833 175.711L26.3994 177.643C24.2574 178.033 22.2254 176.549 21.9414 174.386L20.4464 162.931C20.1634 160.76 21.7714 158.794 23.9574 158.641Z" fill="white" stroke="#1C1C2D" stroke-miterlimit="10" stroke-linecap="round" stroke-linejoin="round"/>
<path d="M35.358 163.215C36.3841 163.215 37.216 162.383 37.216 161.357C37.216 160.331 36.3841 159.499 35.358 159.499C34.3318 159.499 33.5 160.331 33.5 161.357C33.5 162.383 34.3318 163.215 35.358 163.215Z" fill="white" stroke="#1C1C2D" stroke-miterlimit="10" stroke-linecap="round" stroke-linejoin="round"/>
<path d="M30.0754 163.225C32.3314 163.068 34.3134 164.703 34.5893 166.945L34.5964 167.002C34.8703 169.238 33.3514 171.3 31.1364 171.7C30.8794 171.747 30.6224 171.77 30.3724 171.77C28.2834 171.77 26.4484 170.218 26.1684 168.07L26.1614 168.013C25.8444 165.588 27.6364 163.399 30.0754 163.225Z" fill="#6254E7" stroke="#1C1C2D" stroke-miterlimit="10" stroke-linecap="round" stroke-linejoin="round"/>
<path d="M162.984 68.3393V68.3363C161.249 80.5602 179.401 83.5992 180.886 70.8702L179.495 69.6043L179.97 66.1473C179.97 66.1473 191.268 63.2543 190.396 50.5483C189.524 37.8424 183.632 34.1444 176.507 35.1014C167.007 37.2924 157.936 55.9983 166.295 62.7503C167.704 63.8883 165.764 66.3303 165.498 68.1223C164.657 68.1723 163.816 68.2423 162.986 68.3363V68.3393H162.984Z" fill="white" stroke="#1C1C2D" stroke-miterlimit="10" stroke-linecap="round" stroke-linejoin="round"/>
<path d="M136.563 103.627C135.819 103.724 135.232 104.331 135.192 105.045C135.172 105.372 135.272 105.689 135.452 105.953C133.523 110.314 131.828 116.427 132.653 123.637C133.22 128.599 134.822 132.683 136.47 135.749C137.681 138.008 138.922 139.72 139.79 140.827C141.445 143.309 143.1 145.789 144.752 148.271C144.669 149.132 144.342 151.321 142.663 153.406C140.985 155.495 138.906 156.296 137.988 156.579C137.931 156.596 137.878 156.612 137.831 156.626C128.609 149.342 122.456 139.342 119.89 128.552L119.42 126.357C117.778 117.769 118.392 108.773 121.512 100.311C126.1 87.872 135.58 78.0191 147.44 72.6101" fill="#FF824D"/>
<path d="M136.563 103.627C135.819 103.724 135.232 104.331 135.192 105.045C135.172 105.372 135.272 105.689 135.452 105.953C133.523 110.314 131.828 116.427 132.653 123.637C133.22 128.599 134.822 132.683 136.47 135.749C137.681 138.008 138.922 139.72 139.79 140.827C141.445 143.309 143.1 145.789 144.752 148.271C144.669 149.132 144.342 151.321 142.663 153.406C140.985 155.495 138.906 156.296 137.988 156.579C137.931 156.596 137.878 156.612 137.831 156.626C128.609 149.342 122.456 139.342 119.89 128.552L119.42 126.357C117.778 117.769 118.392 108.773 121.512 100.311C126.1 87.872 135.58 78.0191 147.44 72.6101" stroke="#1C1C2D" stroke-miterlimit="10" stroke-linecap="round" stroke-linejoin="round"/>
<path d="M205.941 158.444V176.211C205.941 178.067 207.445 179.571 209.301 179.571H239.804C241.66 179.571 243.164 178.067 243.164 176.211V145.708C243.164 143.852 241.66 142.348 239.804 142.348H229.114H209.301C207.445 142.348 205.941 143.852 205.941 145.708V158.444Z" fill="white" stroke="#1C1C2D" stroke-miterlimit="10" stroke-linecap="round" stroke-linejoin="round"/>
<path d="M122.727 260.467L120.922 264.928C121.035 265.255 121.196 265.672 121.419 266.156C121.966 267.34 122.894 268.899 124.449 270.347C126.618 272.372 128.91 273.163 130.061 273.48C130.865 271.999 131.673 270.52 132.477 269.042" stroke="black" stroke-miterlimit="10" stroke-linecap="round" stroke-linejoin="round"/>
<path d="M133.572 293.462C133.572 294.812 133.288 296.514 132.32 298.546C123.246 291.864 116.805 284.809 113.832 281.168C116.218 276.412 119.306 270.447 121.419 266.157L130.062 273.48C129.116 274.835 127.951 276.957 127.973 279.554C128.025 284.839 132.956 287.027 133.523 292.476C133.553 292.777 133.572 293.11 133.572 293.462Z" fill="white" stroke="#1C1C2D" stroke-miterlimit="10" stroke-linecap="round" stroke-linejoin="round"/>
<path d="M190.19 298.082C186.977 298.137 183.075 298.191 178.924 298.115C171.642 297.981 162.02 295.93 156.683 294.654C154.927 288.332 153.17 282.008 151.414 275.686C152.669 276.9 155.48 279.289 159.819 280.418C163.487 281.373 166.585 280.991 168.254 280.661C171.172 283.906 174.044 286.203 176.477 287.842C183.541 292.604 189.849 293.817 190.187 297.505C190.206 297.7 190.206 297.894 190.19 298.082Z" fill="white" stroke="#1C1C2D" stroke-miterlimit="10" stroke-linecap="round" stroke-linejoin="round"/>
<path d="M189.145 300.586C183.333 300.586 177.524 300.586 171.711 300.586" stroke="#221F1F" stroke-miterlimit="10" stroke-linecap="round" stroke-linejoin="round"/>
<path d="M132.477 269.042C131.673 270.52 130.865 271.998 130.061 273.48C128.91 273.163 126.618 272.372 124.449 270.347C122.894 268.899 121.967 267.341 121.419 266.156C121.195 265.672 121.035 265.255 120.922 264.928L122.727 260.467C122.83 261.294 123.278 264.031 125.623 266.299C128.386 268.972 131.766 269.042 132.477 269.042Z" fill="#FF824D" stroke="#1C1C2D" stroke-miterlimit="10" stroke-linecap="round" stroke-linejoin="round"/>
<path d="M168.182 276.659C168.205 277.994 168.229 279.325 168.252 280.66C166.584 280.99 163.487 281.371 159.817 280.416C155.479 279.288 152.667 276.899 151.412 275.685C151.108 274.27 150.805 272.856 150.504 271.444C151.238 272.188 152.646 273.499 154.691 274.684C156.296 275.605 158.298 276.452 160.677 276.873C163.845 277.437 166.51 277.05 168.182 276.659Z" fill="#FF824D" stroke="#1C1C2D" stroke-miterlimit="10" stroke-linecap="round" stroke-linejoin="round"/>
<path d="M85.64 10.0984C85.276 11.2724 85.316 12.6874 85.343 13.6584L85.346 13.6984C85.366 14.3824 85.383 15.0894 85.396 15.8134H92.867V22.4864H85.486C85.529 28.5194 85.499 35.4653 85.456 42.9963L78.7831 42.9593C78.8261 35.4283 78.8561 28.4884 78.8101 22.4864H73.3711V15.8134H78.7201C78.7071 15.1524 78.6901 14.5084 78.6731 13.8844V13.8444C78.6501 12.9804 78.6101 11.6184 78.8371 10.0974C79.1411 8.02846 79.9311 5.65346 81.8971 3.79747C84.58 1.26548 88.59 0.430487 93.502 1.38148L92.234 7.93146C89.601 7.42446 87.499 7.68446 86.475 8.64845C86.073 9.03045 85.81 9.53445 85.64 10.0984Z" fill="#6254E7" stroke="#1C1C2D" stroke-miterlimit="10" stroke-linecap="round" stroke-linejoin="round"/>
<path d="M74.0218 168.587C75.5298 167.119 76.7047 165.444 77.5917 163.542C77.6287 163.469 77.6587 163.389 77.6917 163.312C76.2437 164.69 74.6118 165.447 72.6768 165.381C74.2048 163.97 74.9058 162.338 74.9028 160.319C74.4428 160.739 73.9788 161.08 73.4178 161.243C74.8488 159.551 75.2658 157.776 74.7428 155.684C74.3658 156.218 73.9758 156.672 73.4348 156.999C74.4158 154.713 74.1718 152.798 72.6938 150.966C71.6328 154.566 69.4878 157.456 65.8308 159.745C65.5668 159.061 65.3868 158.384 65.0638 157.796C64.0228 155.887 61.2068 154.87 58.5278 155.554C56.1258 156.171 54.2068 157.529 52.8818 159.705C52.7818 159.869 52.4948 160.055 52.2748 160.109C50.5429 160.529 48.7049 160.77 46.7629 160.81C46.6099 160.813 46.4529 160.827 46.1719 160.84C47.7739 162.065 49.6649 162.588 51.7909 162.662C50.1289 163.353 48.3279 163.736 46.2289 164.087C46.5229 164.187 46.6889 164.251 46.8629 164.301C48.0839 164.668 49.3289 164.905 50.5799 165.032C51.0539 165.082 51.5278 165.115 52.0048 165.132C52.2118 165.139 52.4588 165.249 52.5218 165.389C53.7628 168.188 55.7218 170.244 58.2308 171.555C61.5838 173.307 65.0838 173.47 68.6348 172.122C70.1568 171.545 71.5378 170.694 72.8058 169.666C73.2348 169.318 73.6388 168.958 74.0218 168.587Z" fill="#6254E7" stroke="#1C1C2D" stroke-miterlimit="10" stroke-linecap="round" stroke-linejoin="round"/>
<path d="M171.088 37.7783C170.975 35.1793 172.498 31.8703 174.91 31.2863C177.085 30.7593 179.421 31.7263 180.662 33.6953C185.26 33.9623 190.078 36.2383 192.367 40.2313C194.486 43.9312 194.426 49.0962 192.133 54.1112C194.672 54.9822 196.544 57.1212 196.978 59.6832C197.485 62.6762 195.937 65.7521 193.124 67.2541C198.025 68.3781 200.291 73.0261 199.26 75.8061C198.232 78.5751 193.504 80.6141 189.063 78.2981C187.418 76.2761 185.553 74.3671 183.481 72.6091C182.66 71.9121 181.803 71.2381 180.915 70.5901C180.488 70.2761 180.054 69.9691 179.61 69.6691C179.783 68.5381 179.9 66.0551 180.074 64.9241C182.994 63.3962 185.712 61.5702 186.538 60.1612C187.792 57.5382 186.83 55.7382 183.589 56.6452C179.495 57.7912 179.172 51.0082 178.391 48.8692C176.573 43.8972 176.366 39.3333 176.543 36.1163C174.654 36.3333 173.705 37.4893 171.82 37.7053L171.088 37.7783Z" fill="black"/>
<path d="M156.371 105.168C156.371 105.168 150.788 96.5342 149.369 94.3582C147.95 92.1822 144.739 86.2272 143.68 86.5402C142.621 86.8532 142.083 88.2082 143.077 89.9112C144.071 91.6142 145.028 94.7362 145.028 94.7362C145.028 94.7362 143.183 95.4812 143.183 98.1072C142.225 100.165 140.806 101.123 142.757 104.281C144.439 107.003 147.018 109.504 147.698 110.141C147.806 110.243 147.921 110.336 148.043 110.421L150.315 112.016L156.371 105.168Z" fill="white" stroke="#1C1C2D" stroke-miterlimit="10" stroke-linecap="round" stroke-linejoin="round"/>
<path d="M181.395 96.8272L173.908 112.376L157.025 103.851L156.428 104.605L149.865 112.893L149.074 113.891C149.074 113.891 163.291 130.341 179.22 130.644C182.026 129.163 192.797 123.057 196.54 110.581C199.743 99.9102 196.83 87.8423 189.063 78.2993" fill="#FF824D"/>
<path d="M181.395 96.8272L173.908 112.376L157.025 103.851L156.428 104.605L149.865 112.893L149.074 113.891C149.074 113.891 163.291 130.341 179.22 130.644C182.026 129.163 192.797 123.057 196.54 110.581C199.743 99.9102 196.83 87.8423 189.063 78.2993" stroke="#1C1C2D" stroke-miterlimit="10" stroke-linecap="round" stroke-linejoin="round"/>
<path d="M235.002 147.657L235.449 147.066C227.404 152.398 219.356 157.73 211.309 163.062C214.556 164.07 217.799 165.071 221.045 166.072L221.455 165.531L235.002 147.657Z" fill="#6254E7" stroke="#1C1C2D" stroke-miterlimit="10" stroke-linecap="round" stroke-linejoin="round"/>
<path d="M228.029 174.316C227.906 174.736 227.782 175.16 227.659 175.581C225.74 172.772 223.825 169.969 221.91 167.166L235.817 147.79C235.65 148.364 235.48 148.934 235.313 149.508C232.884 157.78 230.458 166.048 228.029 174.316Z" fill="#6254E7" stroke="#1C1C2D" stroke-miterlimit="10" stroke-linecap="round" stroke-linejoin="round"/>
<path d="M288.027 160.703L269.285 174.54L269.268 174.533L253.987 166.949L253.883 166.899L272.628 153.062L288.027 160.703Z" fill="white" stroke="#1C1C2D" stroke-miterlimit="10" stroke-linecap="round" stroke-linejoin="round"/>
<path d="M288.027 160.703V162.862L269.285 176.699V174.2L288.027 160.703Z" fill="white" stroke="#1C1C2D" stroke-miterlimit="10" stroke-linecap="round" stroke-linejoin="round"/>
<path d="M269.285 176.699L269.265 176.689L253.963 169.098L253.883 169.058V166.899L269.268 174.533L269.265 176.689" fill="white"/>
<path d="M269.285 176.699L269.265 176.689L253.963 169.098L253.883 169.058V166.899L269.268 174.533L269.265 176.689" stroke="#1C1C2D" stroke-miterlimit="10" stroke-linecap="round" stroke-linejoin="round"/>
<path d="M264.52 164.824C266.862 166.085 269.208 167.346 271.55 168.608C272.367 166.059 273.187 163.51 274.005 160.96L264.52 164.824Z" fill="#FF824D" stroke="#1C1C2D" stroke-miterlimit="10" stroke-linecap="round" stroke-linejoin="round"/>
<path d="M217.706 222.463L223.377 223.734C219.346 226.797 197.481 242.856 167.56 241.445C164.067 241.278 160.463 240.878 156.763 240.187C151.778 239.256 147.18 237.908 142.976 236.307C139.479 234.976 136.253 233.471 133.303 231.883C123.013 226.348 116.069 219.824 112.633 216.302" stroke="black" stroke-miterlimit="10" stroke-linecap="round" stroke-linejoin="round"/>
<path d="M223.379 228.917V223.735" stroke="black" stroke-miterlimit="10" stroke-linecap="round" stroke-linejoin="round"/>
<path d="M166.297 62.7502C166.297 62.7502 167.639 64.0952 169.809 64.7692" stroke="#1C1C2D" stroke-miterlimit="10" stroke-linecap="round" stroke-linejoin="round"/>
<path d="M190.19 298.082C190.114 299.075 189.62 299.945 189.143 300.586H171.711C168.517 300.281 165.226 299.79 161.855 299.072C160.41 298.761 159.002 298.426 157.63 298.06C157.314 296.925 157 295.788 156.684 294.654C162.021 295.93 171.643 297.981 178.925 298.115C183.075 298.191 186.977 298.136 190.19 298.082Z" fill="black"/>
<path d="M132.322 298.546C132.017 299.192 131.637 299.874 131.177 300.586C128.968 299.94 126.066 297.755 122.308 294.133C116.897 288.913 113.109 285.608 112.738 283.371C113.082 282.676 113.45 281.939 113.834 281.167C116.807 284.808 123.248 291.864 132.322 298.546Z" fill="black"/>
<path d="M73.2263 87.948C75.3383 87.948 77.0503 86.236 77.0503 84.124C77.0503 82.0121 75.3383 80.3 73.2263 80.3C71.1144 80.3 69.4023 82.0121 69.4023 84.124C69.4023 86.236 71.1144 87.948 73.2263 87.948Z" fill="white" stroke="#1C1C2D" stroke-miterlimit="10" stroke-linecap="round" stroke-linejoin="round"/>
<path d="M272.488 45.4673C274.6 45.4673 276.312 43.7553 276.312 41.6433C276.312 39.5314 274.6 37.8193 272.488 37.8193C270.376 37.8193 268.664 39.5314 268.664 41.6433C268.664 43.7553 270.376 45.4673 272.488 45.4673Z" fill="white" stroke="#1C1C2D" stroke-miterlimit="10" stroke-linecap="round" stroke-linejoin="round"/>
<path d="M139.395 219.634L145.152 246.453" stroke="white" stroke-miterlimit="10" stroke-linecap="round" stroke-linejoin="round"/>
<path d="M164.668 183.796L166.936 206.413" stroke="white" stroke-miterlimit="10" stroke-linecap="round" stroke-linejoin="round"/>
</svg>
