<svg width="300" height="300" viewBox="0 0 300 300" fill="none" xmlns="http://www.w3.org/2000/svg">
<path d="M157.737 14.551V191.942H18.0635C8.24497 191.942 0.289062 183.986 0.289062 174.168V14.551C0.289062 7.42411 6.06229 1.65088 13.1822 1.65088H144.842C151.964 1.65088 157.737 7.42586 157.737 14.551Z" fill="white"/>
<path d="M158.028 192.234H18.0647C8.10456 192.234 0 184.13 0 174.169V14.5511C0 7.27899 5.9149 1.3606 13.1852 1.3606H144.845C152.115 1.3606 158.03 7.27724 158.03 14.5511V192.234H158.028ZM13.1852 1.94299C6.2367 1.94299 0.582395 7.59905 0.582395 14.5528V174.169C0.582395 183.809 8.42462 191.653 18.0665 191.653H157.45V14.5511C157.45 7.5973 151.795 1.94124 144.847 1.94124H13.1852V1.94299Z" fill="#1C1C2D"/>
<path d="M149.443 107.248H8.58594V161.591H149.443V107.248Z" fill="#6254E7"/>
<path d="M157.739 17.3861V13.1904C157.739 6.06352 151.966 0.290283 144.846 0.290283H13.1861C6.0662 0.290283 0.292969 6.06352 0.292969 13.1904V17.3861H157.739Z" fill="#E5E8FF"/>
<path d="M158.028 17.6765H0V13.1905C0 5.91665 5.9149 0 13.1852 0H144.845C152.115 0 158.03 5.91665 158.03 13.1905V17.6765H158.028ZM0.580646 17.0958H157.446V13.1905C157.446 6.2367 151.792 0.580646 144.843 0.580646H13.1852C6.2367 0.580646 0.582395 6.2367 0.582395 13.1905V17.0958H0.580646Z" fill="#1C1C2D"/>
<path d="M31.3363 169.942C35.3378 178.99 30.7067 191.942 17.4375 191.942H157.922C171.193 191.942 175.823 178.99 171.821 169.942H31.3363Z" fill="#E5E8FF"/>
<path d="M157.923 192.232C157.922 192.232 157.922 192.232 157.923 192.232H17.4349C17.274 192.232 17.1445 192.103 17.1445 191.942C17.1445 191.781 17.274 191.652 17.4349 191.652C22.8426 191.652 27.2866 189.403 29.945 185.321C32.7923 180.946 33.2347 174.956 31.0678 170.061C31.0276 169.972 31.0363 169.867 31.0905 169.785C31.1448 169.703 31.2357 169.652 31.3336 169.652H171.819C171.934 169.652 172.037 169.72 172.084 169.825C174.328 174.897 173.868 181.104 170.916 185.639C168.149 189.891 163.534 192.232 157.923 192.232ZM22.0485 191.652H157.92C163.327 191.652 167.772 189.403 170.43 185.321C173.244 180.999 173.707 175.096 171.628 170.232H31.7744C33.8171 175.226 33.3064 181.223 30.4329 185.637C28.4671 188.656 25.5709 190.713 22.0485 191.652Z" fill="#1C1C2D"/>
<path d="M15.4083 9.38655C15.4083 10.8906 14.1946 12.1044 12.6905 12.1044C11.1864 12.1044 9.97266 10.8906 9.97266 9.38655C9.97266 7.88421 11.1864 6.6687 12.6905 6.6687C14.1946 6.6687 15.4083 7.88246 15.4083 9.38655Z" fill="white"/>
<path d="M22.6544 9.38655C22.6544 10.8906 21.4407 12.1044 19.9366 12.1044C18.4325 12.1044 17.2188 10.8906 17.2188 9.38655C17.2188 7.88421 18.4325 6.6687 19.9366 6.6687C21.4407 6.6687 22.6544 7.88246 22.6544 9.38655Z" fill="white"/>
<path d="M29.9005 9.38655C29.9005 10.8906 28.6868 12.1044 27.1827 12.1044C25.6786 12.1044 24.4648 10.8906 24.4648 9.38655C24.4648 7.88421 25.6786 6.6687 27.1827 6.6687C28.6868 6.6687 29.9005 7.88246 29.9005 9.38655Z" fill="white"/>
<path d="M73.4807 82.0635C67.6078 90.8222 57.6161 96.5831 46.276 96.5831C45.0955 96.5831 43.9325 96.5219 42.7852 96.3908L44.4117 86.2592C45.0273 86.3099 45.6482 86.3379 46.276 86.3379C53.8717 86.3379 60.5876 82.5707 64.6591 76.8044L73.4807 82.0635Z" fill="#FF824D"/>
<path d="M41.0175 85.717L39.3857 95.8539C37.1541 95.3747 35.0029 94.6681 32.9531 93.7482L36.11 83.9104C37.6508 84.6939 39.2948 85.3043 41.0175 85.717Z" fill="#46505B"/>
<path d="M79.0146 63.8379C79.0146 69.3436 77.6539 74.5449 75.2474 79.0974L66.4258 73.8453C67.9281 70.8302 68.7694 67.4355 68.7694 63.8432C68.7694 60.4258 68.0068 57.1902 66.6461 54.2923L75.5867 49.2256C77.7764 53.6277 79.0146 58.5911 79.0146 63.8379Z" fill="#1C1C2D"/>
<path d="M25.6098 72.7383L16.6308 77.7647C14.6492 73.5411 13.5352 68.8242 13.5352 63.838C13.5352 60.4555 14.0546 57.1973 15.0095 54.1296L24.6339 57.6817C24.6339 57.687 24.6339 57.687 24.6339 57.687C24.0812 59.6475 23.7804 61.7078 23.7804 63.8432C23.7787 67.0001 24.4293 70.0117 25.6098 72.7383Z" fill="#1C1C2D"/>
<path d="M73.876 46.2295L64.9407 51.2892C60.9024 45.2921 54.0518 41.35 46.2761 41.35C37.2113 41.35 29.3953 46.7157 25.838 54.446L16.2031 50.8887C21.2173 39.2495 32.7953 31.1047 46.2761 31.1047C57.882 31.1047 68.0695 37.1246 73.876 46.2295Z" fill="#6254E7"/>
<path d="M61.7808 64.1631C61.7808 68.1839 60.2488 71.8479 57.7408 74.606C54.9005 77.7209 50.815 79.6744 46.2713 79.6744C41.7275 79.6744 37.642 77.7209 34.8018 74.606C32.2938 71.8479 30.7617 68.1857 30.7617 64.1631C30.7617 55.5968 37.7067 48.6536 46.2713 48.6536C54.8358 48.6518 61.7808 55.5968 61.7808 64.1631Z" fill="#6254E7"/>
<path d="M46.2677 62.7779C48.3551 62.7779 50.0472 61.0858 50.0472 58.9984C50.0472 56.9111 48.3551 55.219 46.2677 55.219C44.1804 55.219 42.4883 56.9111 42.4883 58.9984C42.4883 61.0858 44.1804 62.7779 46.2677 62.7779Z" fill="white"/>
<path d="M54.3763 70.942C52.3685 73.1439 49.481 74.5238 46.2682 74.5238C43.0554 74.5238 40.1679 73.1439 38.1602 70.942C38.8317 67.0751 42.2072 64.1299 46.2682 64.1299C50.3292 64.1299 53.7047 67.0751 54.3763 70.942Z" fill="white"/>
<g opacity="0.6">
<path d="M142.951 154.865V123.414C142.951 123.414 139.917 128.185 135.539 127.823C129.745 127.345 125.607 120.157 114.02 118.394C102.434 116.631 91.034 136.398 76.6997 139.28C65.4365 141.545 56.5432 128.972 50.4394 126.6C42.2387 123.414 39.0783 131.279 30.951 130.736C20.5869 130.044 15.0742 116.089 15.0742 116.089V154.865H142.951Z" fill="white"/>
</g>
<g opacity="0.6">
<path d="M137.833 154.865V113.976C120.91 113.672 122.778 137.98 110.526 140.931C98.2752 143.881 92.4617 129.641 73.9807 129.743C55.4997 129.844 47.194 145.814 36.0848 146.22C24.9756 146.627 20.1992 134.523 20.1992 134.523V154.865H137.833Z" fill="white"/>
</g>
<path d="M124.63 126.123C126.223 126.123 127.514 124.806 127.514 123.183C127.514 121.559 126.223 120.243 124.63 120.243C123.037 120.243 121.746 121.559 121.746 123.183C121.746 124.806 123.037 126.123 124.63 126.123Z" fill="white"/>
<path d="M74.134 132.003C75.7268 132.003 77.018 130.686 77.018 129.063C77.018 127.439 75.7268 126.123 74.134 126.123C72.5412 126.123 71.25 127.439 71.25 129.063C71.25 130.686 72.5412 132.003 74.134 132.003Z" fill="white"/>
<path d="M37.2668 148.645C38.8596 148.645 40.1508 147.329 40.1508 145.705C40.1508 144.081 38.8596 142.765 37.2668 142.765C35.674 142.765 34.3828 144.081 34.3828 145.705C34.3828 147.329 35.674 148.645 37.2668 148.645Z" fill="white"/>
<path d="M44.1535 130.304C45.7463 130.304 47.0375 128.988 47.0375 127.365C47.0375 125.741 45.7463 124.425 44.1535 124.425C42.5607 124.425 41.2695 125.741 41.2695 127.365C41.2695 128.988 42.5607 130.304 44.1535 130.304Z" fill="white"/>
<path d="M74.802 142.764C76.3948 142.764 77.686 141.447 77.686 139.824C77.686 138.2 76.3948 136.884 74.802 136.884C73.2092 136.884 71.918 138.2 71.918 139.824C71.918 141.447 73.2092 142.764 74.802 142.764Z" fill="white"/>
<path d="M110.114 121.969C111.707 121.969 112.998 120.653 112.998 119.029C112.998 117.405 111.707 116.089 110.114 116.089C108.522 116.089 107.23 117.405 107.23 119.029C107.23 120.653 108.522 121.969 110.114 121.969Z" fill="white"/>
<path d="M172.348 94.9461H88.7245C87.9935 94.9461 87.4023 94.355 87.4023 93.6239V32.4269C87.4023 31.6959 87.9935 31.1047 88.7245 31.1047H172.348C173.079 31.1047 173.67 31.6959 173.67 32.4269V93.6239C173.67 94.3532 173.079 94.9461 172.348 94.9461Z" fill="white"/>
<path d="M169.273 95.2365H91.7965C89.2133 95.2365 87.1094 93.1342 87.1094 90.5511V35.4998C87.1094 32.9167 89.2116 30.8145 91.7965 30.8145H169.273C171.856 30.8145 173.96 32.9167 173.96 35.4998V90.5511C173.96 93.1342 171.857 95.2365 169.273 95.2365ZM91.7965 31.3951C89.5334 31.3951 87.6918 33.2367 87.6918 35.4998V90.5511C87.6918 92.8142 89.5334 94.6558 91.7965 94.6558H169.273C171.536 94.6558 173.377 92.8142 173.377 90.5511V35.4998C173.377 33.2367 171.536 31.3951 169.273 31.3951H91.7965Z" fill="#1C1C2D"/>
<path d="M127.814 62.1309C123.405 62.1309 119.823 58.4336 116.644 55.1509C114.393 52.8283 112.268 50.6334 110.237 50.1822C105.331 49.0908 99.7034 59.2154 99.6474 59.3169L99.1367 59.037C99.3746 58.6033 105.038 48.435 110.363 49.6155C112.563 50.1052 114.749 52.3596 117.062 54.7469C120.325 58.1153 124.014 61.935 128.494 61.5188C133.113 61.0903 136.036 56.7966 139.13 52.2512C143.306 46.1159 148.047 39.1674 158.062 39.9317L158.018 40.5106C148.329 39.776 143.698 46.5741 139.611 52.5782C136.438 57.2409 133.44 61.6429 128.549 62.0977C128.3 62.1186 128.055 62.1309 127.814 62.1309Z" fill="#1C1C2D"/>
<path d="M158.415 42.3844C159.31 41.4897 159.31 40.0391 158.415 39.1444C157.52 38.2496 156.069 38.2496 155.175 39.1444C154.28 40.0391 154.28 41.4897 155.175 42.3844C156.069 43.2792 157.52 43.2792 158.415 42.3844Z" fill="#46505B"/>
<path d="M156.792 43.3457C155.369 43.3457 154.211 42.1879 154.211 40.7643C154.211 39.3407 155.369 38.1829 156.792 38.1829C158.216 38.1829 159.374 39.3407 159.374 40.7643C159.374 42.1879 158.216 43.3457 156.792 43.3457ZM156.792 38.7653C155.691 38.7653 154.793 39.6625 154.793 40.7643C154.793 41.8661 155.691 42.7633 156.792 42.7633C157.894 42.7633 158.791 41.8661 158.791 40.7643C158.793 39.6625 157.896 38.7653 156.792 38.7653Z" fill="#1C1C2D"/>
<path d="M130.506 63.4497C131.801 62.9133 132.415 61.4288 131.879 60.1339C131.343 58.839 129.858 58.2241 128.563 58.7605C127.268 59.2969 126.654 60.7814 127.19 62.0763C127.726 63.3712 129.211 63.986 130.506 63.4497Z" fill="#46505B"/>
<path d="M129.531 63.9341C127.971 63.9341 126.703 62.6662 126.703 61.1061C126.703 59.5461 127.971 58.2781 129.531 58.2781C131.091 58.2781 132.359 59.5478 132.359 61.1061C132.359 62.6644 131.091 63.9341 129.531 63.9341ZM129.531 58.8587C128.293 58.8587 127.284 59.8679 127.284 61.1061C127.284 62.3444 128.291 63.3535 129.531 63.3535C130.771 63.3535 131.779 62.3461 131.779 61.1061C131.779 59.8679 130.769 58.8587 129.531 58.8587Z" fill="#1C1C2D"/>
<path d="M110.299 52.3247C111.701 52.3247 112.837 51.1885 112.837 49.787C112.837 48.3854 111.701 47.2493 110.299 47.2493C108.898 47.2493 107.762 48.3854 107.762 49.787C107.762 51.1885 108.898 52.3247 110.299 52.3247Z" fill="#46505B"/>
<path d="M110.301 52.615C108.741 52.615 107.473 51.3453 107.473 49.787C107.473 48.227 108.741 46.959 110.301 46.959C111.861 46.959 113.129 48.227 113.129 49.787C113.13 51.3453 111.861 52.615 110.301 52.615ZM110.301 47.5396C109.062 47.5396 108.053 48.547 108.053 49.787C108.053 51.0253 109.061 52.0344 110.301 52.0344C111.541 52.0344 112.548 51.0253 112.548 49.787C112.548 48.547 111.541 47.5396 110.301 47.5396Z" fill="#1C1C2D"/>
<path d="M109.254 62.0469H96.1562V88.029H109.254V62.0469Z" fill="white"/>
<path d="M127.809 74.2283H114.711V88.0291H127.809V74.2283Z" fill="white"/>
<path d="M146.359 67.1819H133.262V88.0309H146.359V67.1819Z" fill="white"/>
<path d="M164.914 52.3823H151.816V88.0309H164.914V52.3823Z" fill="white"/>
<path d="M109.254 72.1208H96.1562V88.0309H109.254V72.1208Z" fill="#1C1C2D"/>
<path d="M127.809 80.0225H114.711V88.0308H127.809V80.0225Z" fill="#6254E7"/>
<path d="M146.359 72.0142H133.262V88.0309H146.359V72.0142Z" fill="#6254E7"/>
<path d="M164.914 63.2712H151.816V88.0309H164.914V63.2712Z" fill="#FF824D"/>
<path d="M109.547 88.3212H95.8672V61.7566H109.547V88.3212ZM96.4496 87.7388H108.967V62.3372H96.4496V87.7388Z" fill="#1C1C2D"/>
<path d="M128.098 88.3212H114.418V73.938H128.098V88.3212ZM115 87.7388H127.517V74.5186H115V87.7388Z" fill="#1C1C2D"/>
<path d="M146.651 88.3213H132.973V66.8916H146.651V88.3213ZM133.553 87.7389H146.069V67.4722H133.553V87.7389Z" fill="#1C1C2D"/>
<path d="M165.204 88.3212H151.523V52.092H165.204V88.3212ZM152.106 87.7388H164.623V52.6727H152.106V87.7388Z" fill="#1C1C2D"/>
<path d="M209.972 294.855L224.918 286.776L228.953 283.214L245.235 285.664L245.223 298.431C245.36 299.098 244.856 299.71 244.19 299.71H209.333C208.747 299.71 208.273 299.234 208.273 298.65V297.385C208.272 296.268 208.938 295.276 209.972 294.855Z" fill="#1C1C2D"/>
<path d="M228.953 283.212L231.316 269.906L245.244 274.896L245.234 285.664C238.628 288.448 232.657 287.49 228.953 283.212Z" fill="#FFCFC5"/>
<path d="M224.04 291.869C222.991 289.909 221.09 289.704 221.008 289.697L221.062 289.118C221.155 289.127 223.351 289.351 224.553 291.595L224.04 291.869Z" fill="white"/>
<path d="M220.779 293.688C219.728 291.728 217.827 291.523 217.746 291.516L217.8 290.937C217.893 290.946 220.09 291.17 221.291 293.414L220.779 293.688Z" fill="white"/>
<path d="M219.418 276.514C219.418 277.295 219.736 278.002 220.249 278.513C220.761 279.025 221.473 279.343 222.253 279.343H250.878C252.447 279.343 253.713 278.077 253.713 276.514C253.713 275.726 253.395 275.02 252.882 274.509C252.37 273.997 251.665 273.678 250.878 273.678H222.253C220.689 273.678 219.418 274.946 219.418 276.514Z" fill="#1C1C2D"/>
<path d="M281.633 284.254L279.922 267.351L278.184 262.256L286.706 248.169L298.487 253.088C299.155 253.22 299.526 253.919 299.271 254.535L285.87 286.712C285.645 287.252 285.024 287.507 284.483 287.284L283.315 286.797C282.283 286.369 281.624 285.372 281.633 284.254Z" fill="#1C1C2D"/>
<path d="M278.184 262.258L266.809 254.96L272.36 239.709L286.706 248.169C286.738 255.339 283.556 260.483 278.184 262.258Z" fill="#FFCFC5"/>
<path d="M281.116 272.085L280.602 271.814C280.645 271.732 281.696 269.791 284.231 269.544L284.287 270.123C282.06 270.338 281.124 272.068 281.116 272.085Z" fill="white"/>
<path d="M281.542 275.795L281.027 275.524C281.071 275.441 282.122 273.5 284.656 273.253L284.712 273.832C282.486 274.049 281.55 275.777 281.542 275.795Z" fill="white"/>
<path d="M267.361 264.063C268.047 264.439 268.82 264.498 269.514 264.294C270.208 264.091 270.829 263.619 271.205 262.933L284.945 237.82C285.697 236.444 285.195 234.725 283.824 233.974C283.133 233.596 282.362 233.537 281.667 233.74C280.973 233.943 280.354 234.41 279.976 235.101L266.236 260.213C265.484 261.586 265.985 263.309 267.361 264.063Z" fill="#1C1C2D"/>
<path d="M227.537 127.223L269.386 129.294C269.104 131.947 266.901 134.805 265.778 137.921C261.629 149.443 222.607 194.499 222.607 194.499L279.97 235.099L266.231 260.217C266.231 260.217 197.401 224.254 190.995 201.227C187.527 188.756 213.511 145.97 227.537 127.223Z" fill="#46505B"/>
<path d="M259.934 256.896L277.493 239.632L266.232 260.215L259.934 256.896Z" fill="#1C1C2D"/>
<path d="M241.193 127.223H273.55L250.028 277.094H222.668L231.958 201.93L241.193 127.223Z" fill="#46505B"/>
<path d="M223.821 267.767C223.821 267.767 245.564 273.678 245.24 273.678C244.917 273.678 223.09 273.678 223.09 273.678L223.821 267.767Z" fill="#1C1C2D"/>
<path d="M259.869 221.025L254.102 252.962L254.675 253.065L260.442 221.128L259.869 221.025Z" fill="white"/>
<path d="M231.772 201.223L227.488 235.756L228.065 235.827L232.348 201.295L231.772 201.223Z" fill="white"/>
<path d="M238.02 150.67L234.086 182.385L234.662 182.457L238.596 150.741L238.02 150.67Z" fill="white"/>
<path d="M180.852 89.1904C181.627 89.6433 182.37 90.1051 182.985 90.7522C185.777 93.6676 197.781 111.668 207.191 113.922C207.866 114.09 208.53 114.169 209.178 114.158C213.23 114.079 219.111 109.698 224.652 104.551C232.657 97.1113 239.943 88.0605 239.943 88.0605L235.613 71.1204C223.522 73.9676 216.721 82.9694 207.465 91.6476L192.811 78.9626C191.814 78.2578 191.09 77.2714 190.467 76.2255C188.14 72.3131 176.654 86.7296 180.852 89.1904Z" fill="#FF824D"/>
<path d="M224.648 104.549C221.357 107.608 217.95 110.393 214.875 112.166C220.253 102.731 223.893 86.4917 223.893 86.4917C223.893 86.4917 224.317 95.9219 224.648 104.549Z" fill="#FF824D"/>
<path d="M188.949 78.3697C188.949 78.3697 183.546 68.2591 181.444 68.1262C179.826 68.023 180.631 72.7731 180.631 72.7731C180.631 72.7731 167.926 63.9305 166.86 65.4835C165.793 67.0383 173.161 71.4002 173.161 71.4002C173.161 71.4002 171.375 70.9245 171.087 72.1557C170.805 73.3537 171.923 73.8347 171.923 73.8347C171.923 73.8347 170.718 73.4744 170.158 74.3629C169.591 75.2618 170.824 76.243 170.824 76.243C170.824 76.243 169.577 76.4983 169.92 77.8153C170.392 79.6324 179.118 84.8093 180.37 85.3287C181.621 85.8481 182.129 87.4484 182.129 87.4484C184.064 88.9018 190.883 79.8248 188.949 78.3697Z" fill="#FFCFC5"/>
<path d="M177.434 77.2259C175.956 77.2259 172.407 74.5867 171.68 74.034L172.031 73.5706C173.714 74.8491 176.682 76.8166 177.512 76.6382C177.57 76.626 177.582 76.6067 177.588 76.5962C177.703 76.3829 177.722 76.1555 177.645 75.8984C177.327 74.8333 175.466 73.6475 174.775 73.2803L175.048 72.7678C175.158 72.8255 177.747 74.2159 178.201 75.7323C178.324 76.1398 178.289 76.5245 178.098 76.8761C178.004 77.0492 177.843 77.1646 177.633 77.2101C177.574 77.2189 177.505 77.2259 177.434 77.2259Z" fill="#FFB29F"/>
<path d="M176.131 79.4697C174.372 79.4697 171.07 76.6137 170.68 76.2709L171.063 75.8354C172.123 76.7676 175.125 79.1287 176.29 78.8734C176.444 78.8401 176.542 78.7597 176.607 78.6128C176.908 77.9394 175.965 76.9688 175.577 76.6522L175.944 76.201C176.016 76.2587 177.681 77.6316 177.139 78.8489C176.997 79.1637 176.747 79.3683 176.414 79.4418C176.327 79.461 176.233 79.4697 176.131 79.4697Z" fill="#FFB29F"/>
<path d="M175.728 81.523C174.345 81.523 172.068 80.3635 171.777 80.213L172.045 79.6971C173.206 80.3005 175.329 81.1575 176.066 80.8969C176.188 80.8532 176.228 80.7919 176.249 80.7447C176.344 80.5278 176.349 80.3232 176.269 80.1203C176.039 79.5432 175.212 79.1847 175.204 79.1812L175.431 78.646C175.475 78.6635 176.487 79.1007 176.807 79.9035C176.947 80.2533 176.938 80.6135 176.783 80.9756C176.688 81.1959 176.508 81.3586 176.262 81.446C176.108 81.5003 175.928 81.523 175.728 81.523Z" fill="#FFB29F"/>
<path d="M183.206 77.8679C180.343 76.9374 180.34 72.9411 180.34 72.7715L180.92 72.775C180.92 72.8117 180.927 76.5142 183.385 77.3152L183.206 77.8679Z" fill="#FFB29F"/>
<path d="M222.238 135.639C224.015 136.865 226.17 137.951 228.615 138.869C240.417 143.308 258.873 143.965 272.93 138.969C273.822 138.657 274.689 138.316 275.541 137.954C278.147 136.817 279.969 133.271 276.782 128.687C276.609 128.442 276.426 128.192 276.226 127.94C275.536 127.071 276.933 90.8536 276.749 86.8835C276.538 82.2051 275.814 78.4904 274.199 76.8254C264.753 67.1013 245.027 69.0444 245.027 69.0444C245.027 69.0444 226.581 71.2271 222.389 78.3225C219.51 83.202 224.584 120.253 222.361 124.965C221.976 125.778 221.464 126.925 221.063 128.2C220.239 130.815 219.905 133.935 222.238 135.639Z" fill="#FF824D"/>
<path d="M264.67 81.8538C264.67 81.8538 262.672 84.4719 261.268 89.6837C259.865 94.8973 255.645 114.763 255.645 114.763L231.695 123.923H258.361L264.67 81.8538Z" fill="#FF824D"/>
<path d="M232.941 37.2069C232.941 37.2069 233.345 44.4282 238.019 45.5615C242.692 46.6931 243.996 42.2053 243.996 42.2053L241.87 36.6542L237.651 36.6052" fill="#1C1C2D"/>
<path d="M258.866 65.9069L256.031 71.6521L248.042 72.4007L243.637 73.3573L244.98 66.4333L244.889 64.7089L244.639 60.1476L258.205 51.6216C258.149 52.2197 258.106 52.8126 258.074 53.395C257.682 60.326 258.866 65.9069 258.866 65.9069Z" fill="#FFCFC5"/>
<path d="M258.209 51.6199C258.153 52.218 258.109 52.8109 258.078 53.3933C257.992 53.4055 257.91 53.416 257.828 53.4195C257.675 53.7763 257.565 54.1873 257.494 54.6455C255.622 60.7703 249.594 64.6774 244.891 64.7072L244.641 60.1459L258.209 51.6199Z" fill="#FC9B88"/>
<path d="M258.867 65.9067C257.457 69.144 252.26 70.9349 248.043 72.397C248.043 72.397 249.218 79.8457 250.484 79.8335C251.651 79.823 262.293 76.0995 262.215 70.3123C260.557 69.0985 260.137 67.6172 258.867 65.9067Z" fill="#1C1C2D"/>
<path d="M248.042 72.3988C248.042 72.3988 245.583 78.0216 243.921 78.4711C242.031 78.9818 240.611 73.6807 240.917 70.8859L244.979 66.4314C244.609 68.3552 243.913 70.0587 248.042 72.3988Z" fill="#1C1C2D"/>
<path d="M245.398 62.9757C250.162 63.2433 256.572 59.2767 258.515 52.9228C258.583 52.4663 258.692 52.0536 258.845 51.6968C259.967 51.6199 261.182 50.9378 262.064 49.7887C263.463 47.9628 263.501 45.6263 262.133 44.5926C261.355 43.9962 260.311 43.9403 259.279 44.36C258.59 37.6773 254.933 32.5337 250.143 32.1507C246.946 31.8954 243.917 33.8035 241.73 37.0232C241.466 37.4098 241.213 37.8173 240.977 38.2423C239.614 40.6645 238.696 43.6639 238.442 46.9467C237.745 55.5654 240.391 62.6906 245.398 62.9757Z" fill="#FFCFC5"/>
<path d="M267.821 52.837C267.039 54.6716 265.312 55.9903 263.419 56.6339C261.396 57.3143 259.612 58.507 257.604 57.7742L257.821 57.4279C257.809 55.7927 258.305 54.2256 258.519 52.9209C258.582 52.468 258.69 52.0535 258.846 51.6949C259.967 51.6197 261.182 50.9359 262.066 49.7903C263.461 47.9575 263.5 45.6244 262.135 44.589C261.355 43.9909 260.31 43.9384 259.285 44.3581C259.285 44.3581 256.959 45.5544 257.09 47.6601L255.5 48.2513L254.643 44.4456C254.643 44.4456 251.967 42.597 253.153 40.4388C253.153 40.4388 233.416 46.2715 232.955 37.5793C232.493 28.8871 241.585 31.5542 241.585 31.5542C241.585 31.5542 240.777 30.3107 240.186 28.7472C238.999 25.6498 238.642 21.2984 247.06 22.9319C256.724 24.8086 260.054 32.3307 261.091 35.7849C262.324 35.4246 263.904 35.8181 264.841 36.6611C266.072 37.7787 266.263 39.8651 265.247 41.1803C265.876 40.3129 267.232 40.2132 268.131 40.7921C269.025 41.371 269.502 42.4536 269.603 43.5169C269.794 45.4617 268.834 47.4765 267.213 48.5556C268.731 49.8585 268.598 51.0023 267.821 52.837Z" fill="#1C1C2D"/>
<path d="M242.196 48.1692L240.777 53.5209L243.432 53.8655L242.196 48.1692Z" fill="#FC9B88"/>
<path d="M271.735 74.76C271.735 74.76 280.482 78.5045 280.88 91.7474C281.332 106.724 273.598 131.822 269.633 133.893C265.939 135.822 231.695 138.906 231.695 138.906C228.54 143.936 223.274 118.475 231.695 123.923L258.207 117.452C258.207 117.452 260.822 99.2608 263.319 86.0931C265.01 77.1718 271.735 74.76 271.735 74.76Z" fill="#FF824D"/>
<path d="M226.081 127.585C226.081 127.585 219.923 123.01 217.452 124.397C214.981 125.783 222.013 129.294 222.013 129.294" fill="#FFCFC5"/>
<path d="M222.643 146.717L201.477 150.459C199.952 150.729 198.466 149.823 198.006 148.341L189.53 121.014C188.981 119.246 190.106 117.401 191.93 117.077L213.09 113.335C214.615 113.065 216.102 113.971 216.562 115.453L225.037 142.778C225.586 144.55 224.464 146.395 222.643 146.717Z" fill="#46505B"/>
<path d="M200.939 150.798C199.489 150.798 198.165 149.854 197.725 148.428L189.249 121.103C188.962 120.18 189.087 119.178 189.589 118.356C190.09 117.532 190.925 116.963 191.876 116.794L213.036 113.051C214.7 112.759 216.335 113.752 216.835 115.368L225.311 142.694C225.597 143.617 225.473 144.619 224.971 145.443C224.469 146.265 223.639 146.833 222.689 147.001L201.523 150.744C201.327 150.781 201.131 150.798 200.939 150.798ZM213.622 113.581C213.461 113.581 213.301 113.595 213.138 113.623L191.978 117.366C191.191 117.506 190.5 117.976 190.085 118.658C189.669 119.338 189.568 120.167 189.805 120.932L198.281 148.259C198.693 149.597 200.045 150.415 201.424 150.176L222.589 146.433C223.374 146.293 224.062 145.824 224.476 145.144C224.893 144.462 224.994 143.633 224.756 142.869L216.281 115.542C215.917 114.361 214.822 113.581 213.622 113.581Z" fill="#46505B"/>
<path d="M221.561 146.907L200.395 150.65C198.87 150.919 197.384 150.013 196.924 148.532L188.448 121.207C187.899 119.438 189.024 117.593 190.848 117.27L212.008 113.527C213.533 113.258 215.02 114.164 215.48 115.645L223.955 142.97C224.504 144.74 223.382 146.585 221.561 146.907Z" fill="white"/>
<path d="M221.56 146.907L200.394 150.65C199.173 150.865 197.97 150.324 197.312 149.34C197.463 149.336 197.624 149.319 197.776 149.291L218.942 145.548C220.762 145.226 221.885 143.381 221.336 141.611L212.861 114.286C212.77 113.994 212.637 113.719 212.471 113.478C213.824 113.446 215.068 114.31 215.479 115.643L223.954 142.968C224.503 144.74 223.38 146.585 221.56 146.907Z" fill="#E5E8FF"/>
<path d="M199.861 150.989C198.411 150.989 197.087 150.045 196.646 148.619L188.171 121.294C187.884 120.37 188.008 119.368 188.51 118.544C189.012 117.721 189.847 117.152 190.798 116.984L211.958 113.242C213.625 112.946 215.257 113.943 215.759 115.561L224.234 142.886C224.521 143.81 224.397 144.812 223.895 145.635C223.393 146.457 222.562 147.026 221.612 147.194L200.447 150.938C200.249 150.971 200.053 150.989 199.861 150.989ZM212.543 113.772C212.382 113.772 212.221 113.786 212.058 113.814L190.898 117.556C190.111 117.696 189.42 118.167 189.005 118.847C188.589 119.529 188.488 120.358 188.726 121.121L197.201 148.446C197.615 149.784 198.966 150.604 200.344 150.365L221.509 146.62C222.295 146.48 222.982 146.011 223.396 145.331C223.813 144.649 223.914 143.82 223.676 143.056L215.201 115.73C214.837 114.552 213.742 113.772 212.543 113.772Z" fill="#46505B"/>
<path d="M206.169 136.634C204.359 136.954 202.432 135.78 201.858 134.016C201.29 132.251 202.294 130.563 204.104 130.243C205.912 129.923 207.84 131.091 208.413 132.856C208.983 134.621 207.979 136.314 206.169 136.634Z" fill="#E5E8FF"/>
<path d="M206.172 136.632C205.337 136.779 204.468 136.611 203.727 136.2C204.092 136.251 204.459 136.247 204.825 136.183C206.635 135.863 207.637 134.171 207.069 132.407C206.761 131.466 206.072 130.693 205.215 130.229C206.642 130.425 207.961 131.454 208.415 132.856C208.984 134.621 207.982 136.312 206.172 136.632Z" fill="#C5CDE3"/>
<path d="M229.092 126.374L229.104 126.474L224.606 127.298C224.606 127.298 222.476 126.221 219.685 126.24C216.893 126.252 209.492 126.612 209.394 127.698C209.23 129.516 215.122 129.286 217.093 128.763C217.093 128.763 209.651 131.555 209.735 132.379C209.815 133.157 217.091 131.179 217.997 130.934C217.168 131.238 210.944 133.517 211.349 134.441C211.759 135.38 218.494 133.234 219.164 133.024C218.583 133.262 212.99 135.563 213.646 136.613C214.34 137.723 221.628 136.779 221.628 136.779C221.628 136.779 223.529 137.902 225.042 137.923C226.04 137.938 228.634 137.412 230.294 137.05L230.304 137.139C232.828 136.852 231.614 126.089 229.092 126.374Z" fill="#FFCFC5"/>
<path d="M225.176 14.4549V33.3067C225.176 36.934 222.236 39.874 218.609 39.874H193.445C192.887 39.874 192.341 40.0489 191.887 40.3707L188.998 42.4397C188.424 42.8472 187.791 43.0308 187.175 43.0308C185.536 43.0308 184.008 41.7331 184.008 39.8722V14.4549C184.008 10.8277 186.948 7.8877 190.575 7.8877H218.609C222.236 7.88595 225.176 10.8277 225.176 14.4549Z" fill="white"/>
<path d="M187.174 43.3229C185.268 43.3229 183.715 41.7751 183.715 39.874V14.455C183.715 10.6738 186.791 7.5957 190.574 7.5957H218.608C222.389 7.5957 225.467 10.6721 225.467 14.455V33.3068C225.467 37.088 222.391 40.1661 218.608 40.1661H193.444C192.946 40.1661 192.465 40.32 192.056 40.6103L189.168 42.6793C188.572 43.1008 187.884 43.3229 187.174 43.3229ZM190.574 8.1781C187.113 8.1781 184.297 10.9939 184.297 14.455V39.874C184.297 41.6457 185.791 42.7423 187.174 42.7423C187.762 42.7423 188.334 42.5569 188.829 42.2054L191.716 40.1364C192.227 39.7761 192.822 39.5837 193.442 39.5837H218.606C222.067 39.5837 224.883 36.7679 224.883 33.3068V14.455C224.883 10.9939 222.067 8.1781 218.606 8.1781H190.574Z" fill="#46505B"/>
<path d="M192.028 31.8306C191.827 31.8306 191.624 31.7607 191.458 31.619C191.094 31.3042 191.054 30.7533 191.367 30.3878L195.794 25.2616C196.647 24.2735 198.076 24.0479 199.192 24.7282L204.633 28.0442C205.01 28.2733 205.497 28.2016 205.792 27.8745L215.296 17.2742C215.618 16.9157 216.169 16.8842 216.527 17.206C216.886 17.5278 216.915 18.0788 216.595 18.4373L207.092 29.0376C206.235 29.9925 204.82 30.2006 203.727 29.5343L198.286 26.2183C197.901 25.9839 197.41 26.0609 197.116 26.4019L192.689 31.5281C192.516 31.7292 192.273 31.8306 192.028 31.8306Z" fill="#1C1C2D"/>
<path d="M215.114 22.7992L211.173 18.8676C210.369 18.0648 210.757 16.6919 211.863 16.4278L217.02 15.2C218.071 14.9499 219.016 15.8944 218.769 16.9455L217.554 22.1048C217.291 23.2102 215.918 23.6019 215.114 22.7992Z" fill="#6254E7"/>
<path d="M93.1641 265.842C93.1641 265.842 97.0502 259.939 102.335 257.921C108.411 255.602 117.64 257.454 122.779 245.362C122.779 245.362 121.892 259.087 113.961 263.879C108.352 267.267 100.7 264.171 93.1641 265.842Z" fill="#46505B"/>
<path d="M91.8193 249.391C91.8193 249.391 88.3231 238.807 93.883 227.426C100.504 213.874 120.911 209.356 120.911 209.356C120.911 209.356 116.159 217.769 118.34 223.143C118.34 223.143 113.121 225.09 111.642 229.92C111.642 229.92 113.592 227.661 118.184 227.974L118.029 231.557C118.029 231.557 114.601 231.323 113.356 232.804L117.796 232.96C117.794 232.956 110.162 249.391 91.8193 249.391Z" fill="#46505B"/>
<path d="M83.2903 247.677C83.2903 247.677 84.8486 238.954 80.7981 234.747C76.7475 230.541 64.129 223.92 61.8711 218.468C61.8711 218.468 62.3136 232.517 68.3352 239.265C74.7992 246.509 83.2903 247.677 83.2903 247.677Z" fill="#46505B"/>
<path d="M83.0586 268.397C83.0586 268.397 82.8085 251.651 72.7294 248.301L72.3097 251.184C72.3097 251.184 67.0139 243.394 58.1328 244.875C58.1328 244.875 61.0308 257.501 67.0909 262.478C73.6336 267.851 83.0586 268.397 83.0586 268.397Z" fill="#46505B"/>
<path d="M87.2254 273.95L86.6797 273.747C86.7969 273.432 89.6022 266.039 95.8126 263.837C97.607 263.201 99.8089 262.671 102.139 262.108C107.824 260.735 114.267 259.178 117.34 255.512L117.786 255.887C114.591 259.699 108.048 261.279 102.277 262.673C99.9611 263.232 97.7732 263.76 96.0085 264.387C90.0569 266.496 87.2533 273.876 87.2254 273.95Z" fill="#1C1C2D"/>
<path d="M87.2377 273.897L86.6641 273.803C86.6955 273.602 89.9783 253.652 92.8955 246.862C94.3664 243.438 102.342 225.831 114.885 215.518L115.254 215.966C102.815 226.193 94.8928 243.686 93.4289 247.09C90.5415 253.816 87.2709 273.696 87.2377 273.897Z" fill="#1C1C2D"/>
<path d="M86.6631 273.859C86.6561 273.675 86.0073 255.437 83.0218 247.784C80.0417 240.141 67.5595 227.912 67.4336 227.79L67.8393 227.374C68.357 227.879 80.5384 239.814 83.564 247.572C86.5844 255.318 87.2385 273.654 87.2455 273.839L86.6631 273.859Z" fill="#1C1C2D"/>
<path d="M86.6819 273.74C86.5979 273.567 78.1471 256.373 63.5312 248.95L63.7953 248.431C78.5896 255.944 87.1209 273.311 87.2066 273.486L86.6819 273.74Z" fill="#1C1C2D"/>
<path d="M101.012 274.59V277.939C101.012 278.478 100.577 278.913 100.038 278.913H73.7046C73.166 278.913 72.7305 278.478 72.7305 277.939V274.59C72.7305 274.051 73.166 273.615 73.7046 273.615H100.038C100.577 273.615 101.012 274.051 101.012 274.59Z" fill="white"/>
<path d="M99.0259 278.913L96.8624 298.151C96.761 299.038 96.0107 299.71 95.1187 299.71H78.8659C78.2555 299.71 77.7116 299.397 77.3881 298.917C77.2464 298.69 77.1519 298.433 77.1205 298.151L75.1949 281.036L74.957 278.913H99.0259Z" fill="white"/>
<path d="M99.0259 278.913L96.8624 298.151C96.761 299.038 96.0107 299.71 95.1187 299.71H78.8659C78.2555 299.71 77.7116 299.397 77.3881 298.917C88.3889 295.993 93.1634 290.171 95.8586 280.975L75.1949 281.036L74.957 278.913H99.0259Z" fill="#E5E8FF"/>
<path d="M100.036 279.203H73.702C73.0042 279.203 72.4375 278.637 72.4375 277.939V274.59C72.4375 273.894 73.0042 273.325 73.702 273.325H100.036C100.734 273.325 101.3 273.892 101.3 274.59V277.939C101.3 278.635 100.734 279.203 100.036 279.203ZM73.702 273.906C73.326 273.906 73.0181 274.212 73.0181 274.588V277.937C73.0181 278.313 73.3242 278.621 73.702 278.621H100.036C100.412 278.621 100.72 278.315 100.72 277.937V274.588C100.72 274.212 100.413 273.906 100.036 273.906H73.702Z" fill="#46505B"/>
<path d="M95.1163 300H78.8635C78.1762 300 77.5343 299.657 77.146 299.08C76.9676 298.793 76.8645 298.496 76.8312 298.181L74.6328 278.623H99.3505L97.1521 298.183C97.0314 299.22 96.1587 300 95.1163 300ZM75.2817 279.205L77.4084 298.12C77.4329 298.347 77.5081 298.564 77.634 298.765C77.9086 299.171 78.3703 299.419 78.8652 299.419H95.1181C95.8631 299.419 96.4893 298.861 96.5732 298.12L98.6999 279.207H75.2817V279.205Z" fill="#46505B"/>
</svg>
